G04 #@! TF.GenerationSoftware,KiCad,Pcbnew,(5.0.2)-1*
G04 #@! TF.CreationDate,2019-08-20T01:28:51+09:00*
G04 #@! TF.ProjectId,robocar-mainboard,726f626f-6361-4722-9d6d-61696e626f61,rev?*
G04 #@! TF.SameCoordinates,Original*
G04 #@! TF.FileFunction,Legend,Top*
G04 #@! TF.FilePolarity,Positive*
%FSLAX46Y46*%
G04 Gerber Fmt 4.6, Leading zero omitted, Abs format (unit mm)*
G04 Created by KiCad (PCBNEW (5.0.2)-1) date 2019/08/20 1:28:51*
%MOMM*%
%LPD*%
G01*
G04 APERTURE LIST*
%ADD10C,0.200000*%
%ADD11C,0.120000*%
%ADD12C,0.150000*%
G04 APERTURE END LIST*
D10*
X127263026Y-128905000D02*
G75*
G03X127263026Y-128905000I-898026J0D01*
G01*
X157108026Y-116840000D02*
G75*
G03X157108026Y-116840000I-898026J0D01*
G01*
X168910000Y-83820000D02*
G75*
G03X168910000Y-83820000I-635000J0D01*
G01*
D11*
G04 #@! TO.C,C1*
X173445000Y-97187936D02*
X173445000Y-98392064D01*
X170725000Y-97187936D02*
X170725000Y-98392064D01*
G04 #@! TO.C,C2*
X161539936Y-106770000D02*
X162744064Y-106770000D01*
X161539936Y-104050000D02*
X162744064Y-104050000D01*
G04 #@! TO.C,C3*
X124335000Y-120821267D02*
X124335000Y-120478733D01*
X123315000Y-120821267D02*
X123315000Y-120478733D01*
G04 #@! TO.C,C4*
X179001267Y-98935000D02*
X178658733Y-98935000D01*
X179001267Y-97915000D02*
X178658733Y-97915000D01*
G04 #@! TO.C,C5*
X179241267Y-85850000D02*
X178898733Y-85850000D01*
X179241267Y-86870000D02*
X178898733Y-86870000D01*
G04 #@! TO.C,C6*
X179241267Y-92585000D02*
X178898733Y-92585000D01*
X179241267Y-91565000D02*
X178898733Y-91565000D01*
G04 #@! TO.C,C7*
X178898733Y-83945000D02*
X179241267Y-83945000D01*
X178898733Y-84965000D02*
X179241267Y-84965000D01*
G04 #@! TO.C,C8*
X148418733Y-95125000D02*
X148761267Y-95125000D01*
X148418733Y-94105000D02*
X148761267Y-94105000D01*
G04 #@! TO.C,D1*
X163003608Y-92477335D02*
G75*
G03X163160516Y-89245000I-1078608J1672335D01*
G01*
X160846392Y-92477335D02*
G75*
G02X160689484Y-89245000I1078608J1672335D01*
G01*
X163004837Y-91846130D02*
G75*
G03X163005000Y-89764039I-1079837J1041130D01*
G01*
X160845163Y-91846130D02*
G75*
G02X160845000Y-89764039I1079837J1041130D01*
G01*
X163161000Y-89245000D02*
X163005000Y-89245000D01*
X160845000Y-89245000D02*
X160689000Y-89245000D01*
G04 #@! TO.C,D2*
X145760000Y-128080000D02*
X145760000Y-128236000D01*
X145760000Y-125764000D02*
X145760000Y-125920000D01*
X148361130Y-128079837D02*
G75*
G02X146279039Y-128080000I-1041130J1079837D01*
G01*
X148361130Y-125920163D02*
G75*
G03X146279039Y-125920000I-1041130J-1079837D01*
G01*
X148992335Y-128078608D02*
G75*
G02X145760000Y-128235516I-1672335J1078608D01*
G01*
X148992335Y-125921392D02*
G75*
G03X145760000Y-125764484I-1672335J-1078608D01*
G01*
G04 #@! TO.C,D3*
X148992335Y-120841392D02*
G75*
G03X145760000Y-120684484I-1672335J-1078608D01*
G01*
X148992335Y-122998608D02*
G75*
G02X145760000Y-123155516I-1672335J1078608D01*
G01*
X148361130Y-120840163D02*
G75*
G03X146279039Y-120840000I-1041130J-1079837D01*
G01*
X148361130Y-122999837D02*
G75*
G02X146279039Y-123000000I-1041130J1079837D01*
G01*
X145760000Y-120684000D02*
X145760000Y-120840000D01*
X145760000Y-123000000D02*
X145760000Y-123156000D01*
G04 #@! TO.C,J1*
X181035000Y-102175000D02*
X178375000Y-102175000D01*
X181035000Y-107315000D02*
X181035000Y-102175000D01*
X178375000Y-107315000D02*
X178375000Y-102175000D01*
X181035000Y-107315000D02*
X178375000Y-107315000D01*
X181035000Y-108585000D02*
X181035000Y-109915000D01*
X181035000Y-109915000D02*
X179705000Y-109915000D01*
G04 #@! TO.C,J2*
X185420000Y-109855000D02*
X185420000Y-120015000D01*
X193040000Y-109855000D02*
X185420000Y-109855000D01*
X193040000Y-120015000D02*
X193040000Y-109855000D01*
X185420000Y-120015000D02*
X193040000Y-120015000D01*
X186690000Y-120015000D02*
X186690000Y-109855000D01*
G04 #@! TO.C,J3*
X188080000Y-93515000D02*
X183820000Y-93515000D01*
X183820000Y-93515000D02*
X183820000Y-105835000D01*
X183820000Y-105835000D02*
X188080000Y-105835000D01*
X192180000Y-93515000D02*
X200540000Y-93515000D01*
X200540000Y-93515000D02*
X200540000Y-105835000D01*
X200540000Y-105835000D02*
X192180000Y-105835000D01*
X183600000Y-98425000D02*
X183100000Y-97925000D01*
X183100000Y-97925000D02*
X183100000Y-98925000D01*
X183100000Y-98925000D02*
X183600000Y-98425000D01*
G04 #@! TO.C,J4*
X155635000Y-116265000D02*
X154305000Y-116265000D01*
X155635000Y-114935000D02*
X155635000Y-116265000D01*
X153035000Y-116265000D02*
X150435000Y-116265000D01*
X153035000Y-113665000D02*
X153035000Y-116265000D01*
X155635000Y-113665000D02*
X153035000Y-113665000D01*
X150435000Y-116265000D02*
X150435000Y-103445000D01*
X155635000Y-113665000D02*
X155635000Y-103445000D01*
X155635000Y-103445000D02*
X150435000Y-103445000D01*
G04 #@! TO.C,J5*
X139760000Y-128330000D02*
X139760000Y-123130000D01*
X129540000Y-128330000D02*
X139760000Y-128330000D01*
X126940000Y-123130000D02*
X139760000Y-123130000D01*
X129540000Y-128330000D02*
X129540000Y-125730000D01*
X129540000Y-125730000D02*
X126940000Y-125730000D01*
X126940000Y-125730000D02*
X126940000Y-123130000D01*
X128270000Y-128330000D02*
X126940000Y-128330000D01*
X126940000Y-128330000D02*
X126940000Y-127000000D01*
G04 #@! TO.C,J6*
X152400000Y-124460000D02*
X162560000Y-124460000D01*
X152400000Y-123190000D02*
X152400000Y-130810000D01*
X152400000Y-130810000D02*
X162560000Y-130810000D01*
X162560000Y-130810000D02*
X162560000Y-123190000D01*
X162560000Y-123190000D02*
X152400000Y-123190000D01*
G04 #@! TO.C,J7*
X172720000Y-123190000D02*
X162560000Y-123190000D01*
X172720000Y-130810000D02*
X172720000Y-123190000D01*
X162560000Y-130810000D02*
X172720000Y-130810000D01*
X162560000Y-123190000D02*
X162560000Y-130810000D01*
X162560000Y-124460000D02*
X172720000Y-124460000D01*
G04 #@! TO.C,J8*
X172720000Y-124460000D02*
X182880000Y-124460000D01*
X172720000Y-123190000D02*
X172720000Y-130810000D01*
X172720000Y-130810000D02*
X182880000Y-130810000D01*
X182880000Y-130810000D02*
X182880000Y-123190000D01*
X182880000Y-123190000D02*
X172720000Y-123190000D01*
G04 #@! TO.C,Q1*
X145795000Y-109675000D02*
X145795000Y-112075000D01*
X145795000Y-112075000D02*
X144745000Y-112075000D01*
X142495000Y-110275000D02*
X142495000Y-112075000D01*
X142495000Y-112075000D02*
X143545000Y-112075000D01*
G04 #@! TO.C,Q2*
X145795000Y-98745000D02*
X144745000Y-98745000D01*
X145795000Y-100545000D02*
X145795000Y-98745000D01*
X142495000Y-98745000D02*
X143545000Y-98745000D01*
X142495000Y-101145000D02*
X142495000Y-98745000D01*
G04 #@! TO.C,R1*
X121410000Y-120821267D02*
X121410000Y-120478733D01*
X122430000Y-120821267D02*
X122430000Y-120478733D01*
G04 #@! TO.C,R2*
X144020000Y-127171267D02*
X144020000Y-126828733D01*
X143000000Y-127171267D02*
X143000000Y-126828733D01*
G04 #@! TO.C,R3*
X143000000Y-122091267D02*
X143000000Y-121748733D01*
X144020000Y-122091267D02*
X144020000Y-121748733D01*
G04 #@! TO.C,R4*
X158625000Y-90633733D02*
X158625000Y-90976267D01*
X157605000Y-90633733D02*
X157605000Y-90976267D01*
G04 #@! TO.C,R5*
X124970000Y-94151267D02*
X124970000Y-93808733D01*
X123950000Y-94151267D02*
X123950000Y-93808733D01*
G04 #@! TO.C,R6*
X178898733Y-87755000D02*
X179241267Y-87755000D01*
X178898733Y-88775000D02*
X179241267Y-88775000D01*
G04 #@! TO.C,R7*
X145540000Y-105581267D02*
X145540000Y-105238733D01*
X146560000Y-105581267D02*
X146560000Y-105238733D01*
G04 #@! TO.C,R8*
X178898733Y-90680000D02*
X179241267Y-90680000D01*
X178898733Y-89660000D02*
X179241267Y-89660000D01*
G04 #@! TO.C,R9*
X141730000Y-105238733D02*
X141730000Y-105581267D01*
X142750000Y-105238733D02*
X142750000Y-105581267D01*
G04 #@! TO.C,SW1*
X134405000Y-90440000D02*
X134405000Y-85940000D01*
X130405000Y-91690000D02*
X131905000Y-91690000D01*
X127905000Y-85940000D02*
X127905000Y-90440000D01*
X131905000Y-84690000D02*
X130405000Y-84690000D01*
G04 #@! TO.C,SW2*
X140795000Y-84690000D02*
X139295000Y-84690000D01*
X136795000Y-85940000D02*
X136795000Y-90440000D01*
X139295000Y-91690000D02*
X140795000Y-91690000D01*
X143295000Y-90440000D02*
X143295000Y-85940000D01*
G04 #@! TO.C,SW3*
X152185000Y-90440000D02*
X152185000Y-85940000D01*
X148185000Y-91690000D02*
X149685000Y-91690000D01*
X145685000Y-85940000D02*
X145685000Y-90440000D01*
X149685000Y-84690000D02*
X148185000Y-84690000D01*
G04 #@! TO.C,U1*
X162110000Y-95396000D02*
X162110000Y-96656000D01*
X162110000Y-102216000D02*
X162110000Y-100956000D01*
X165870000Y-95396000D02*
X162110000Y-95396000D01*
X168120000Y-102216000D02*
X162110000Y-102216000D01*
G04 #@! TO.C,U2*
X136735000Y-116435000D02*
X137515000Y-116435000D01*
X137515000Y-116435000D02*
X137515000Y-115435000D01*
X136735000Y-98195000D02*
X137515000Y-98195000D01*
X137515000Y-98195000D02*
X137515000Y-99195000D01*
X111770000Y-116435000D02*
X111770000Y-98195000D01*
X111770000Y-98195000D02*
X118190000Y-98195000D01*
X111770000Y-116435000D02*
X118190000Y-116435000D01*
X118190000Y-116435000D02*
X118190000Y-116815000D01*
D12*
G04 #@! TO.C,U3*
X169375000Y-84900000D02*
X169375000Y-83790000D01*
X173525000Y-83790000D02*
X173525000Y-84900000D01*
X173525000Y-92740000D02*
X173525000Y-91630000D01*
X169375000Y-92740000D02*
X169375000Y-91630000D01*
X169375000Y-83790000D02*
X173525000Y-83790000D01*
X169375000Y-92740000D02*
X173525000Y-92740000D01*
X169375000Y-84900000D02*
X168250000Y-84900000D01*
D11*
G04 #@! TO.C,U4*
X159960000Y-113300000D02*
G75*
G02X159960000Y-115300000I0J-1000000D01*
G01*
X159960000Y-115300000D02*
X159960000Y-116550000D01*
X159960000Y-116550000D02*
X175320000Y-116550000D01*
X175320000Y-116550000D02*
X175320000Y-112050000D01*
X175320000Y-112050000D02*
X159960000Y-112050000D01*
X159960000Y-112050000D02*
X159960000Y-113300000D01*
X159900000Y-119550000D02*
X175380000Y-119550000D01*
X175380000Y-119550000D02*
X175380000Y-109050000D01*
X175380000Y-109050000D02*
X159900000Y-109050000D01*
X159900000Y-109050000D02*
X159900000Y-119550000D01*
G04 #@! TO.C,C1*
D12*
X174722142Y-97956666D02*
X174769761Y-98004285D01*
X174817380Y-98147142D01*
X174817380Y-98242380D01*
X174769761Y-98385238D01*
X174674523Y-98480476D01*
X174579285Y-98528095D01*
X174388809Y-98575714D01*
X174245952Y-98575714D01*
X174055476Y-98528095D01*
X173960238Y-98480476D01*
X173865000Y-98385238D01*
X173817380Y-98242380D01*
X173817380Y-98147142D01*
X173865000Y-98004285D01*
X173912619Y-97956666D01*
X174817380Y-97004285D02*
X174817380Y-97575714D01*
X174817380Y-97290000D02*
X173817380Y-97290000D01*
X173960238Y-97385238D01*
X174055476Y-97480476D01*
X174103095Y-97575714D01*
G04 #@! TO.C,C2*
X166092142Y-105576666D02*
X166139761Y-105624285D01*
X166187380Y-105767142D01*
X166187380Y-105862380D01*
X166139761Y-106005238D01*
X166044523Y-106100476D01*
X165949285Y-106148095D01*
X165758809Y-106195714D01*
X165615952Y-106195714D01*
X165425476Y-106148095D01*
X165330238Y-106100476D01*
X165235000Y-106005238D01*
X165187380Y-105862380D01*
X165187380Y-105767142D01*
X165235000Y-105624285D01*
X165282619Y-105576666D01*
X165282619Y-105195714D02*
X165235000Y-105148095D01*
X165187380Y-105052857D01*
X165187380Y-104814761D01*
X165235000Y-104719523D01*
X165282619Y-104671904D01*
X165377857Y-104624285D01*
X165473095Y-104624285D01*
X165615952Y-104671904D01*
X166187380Y-105243333D01*
X166187380Y-104624285D01*
G04 #@! TO.C,C3*
X124182142Y-123991666D02*
X124229761Y-124039285D01*
X124277380Y-124182142D01*
X124277380Y-124277380D01*
X124229761Y-124420238D01*
X124134523Y-124515476D01*
X124039285Y-124563095D01*
X123848809Y-124610714D01*
X123705952Y-124610714D01*
X123515476Y-124563095D01*
X123420238Y-124515476D01*
X123325000Y-124420238D01*
X123277380Y-124277380D01*
X123277380Y-124182142D01*
X123325000Y-124039285D01*
X123372619Y-123991666D01*
X123277380Y-123658333D02*
X123277380Y-123039285D01*
X123658333Y-123372619D01*
X123658333Y-123229761D01*
X123705952Y-123134523D01*
X123753571Y-123086904D01*
X123848809Y-123039285D01*
X124086904Y-123039285D01*
X124182142Y-123086904D01*
X124229761Y-123134523D01*
X124277380Y-123229761D01*
X124277380Y-123515476D01*
X124229761Y-123610714D01*
X124182142Y-123658333D01*
G04 #@! TO.C,C4*
X178663333Y-100212142D02*
X178615714Y-100259761D01*
X178472857Y-100307380D01*
X178377619Y-100307380D01*
X178234761Y-100259761D01*
X178139523Y-100164523D01*
X178091904Y-100069285D01*
X178044285Y-99878809D01*
X178044285Y-99735952D01*
X178091904Y-99545476D01*
X178139523Y-99450238D01*
X178234761Y-99355000D01*
X178377619Y-99307380D01*
X178472857Y-99307380D01*
X178615714Y-99355000D01*
X178663333Y-99402619D01*
X179520476Y-99640714D02*
X179520476Y-100307380D01*
X179282380Y-99259761D02*
X179044285Y-99974047D01*
X179663333Y-99974047D01*
G04 #@! TO.C,C5*
X182078333Y-86717142D02*
X182030714Y-86764761D01*
X181887857Y-86812380D01*
X181792619Y-86812380D01*
X181649761Y-86764761D01*
X181554523Y-86669523D01*
X181506904Y-86574285D01*
X181459285Y-86383809D01*
X181459285Y-86240952D01*
X181506904Y-86050476D01*
X181554523Y-85955238D01*
X181649761Y-85860000D01*
X181792619Y-85812380D01*
X181887857Y-85812380D01*
X182030714Y-85860000D01*
X182078333Y-85907619D01*
X182983095Y-85812380D02*
X182506904Y-85812380D01*
X182459285Y-86288571D01*
X182506904Y-86240952D01*
X182602142Y-86193333D01*
X182840238Y-86193333D01*
X182935476Y-86240952D01*
X182983095Y-86288571D01*
X183030714Y-86383809D01*
X183030714Y-86621904D01*
X182983095Y-86717142D01*
X182935476Y-86764761D01*
X182840238Y-86812380D01*
X182602142Y-86812380D01*
X182506904Y-86764761D01*
X182459285Y-86717142D01*
G04 #@! TO.C,C6*
X182078333Y-92432142D02*
X182030714Y-92479761D01*
X181887857Y-92527380D01*
X181792619Y-92527380D01*
X181649761Y-92479761D01*
X181554523Y-92384523D01*
X181506904Y-92289285D01*
X181459285Y-92098809D01*
X181459285Y-91955952D01*
X181506904Y-91765476D01*
X181554523Y-91670238D01*
X181649761Y-91575000D01*
X181792619Y-91527380D01*
X181887857Y-91527380D01*
X182030714Y-91575000D01*
X182078333Y-91622619D01*
X182935476Y-91527380D02*
X182745000Y-91527380D01*
X182649761Y-91575000D01*
X182602142Y-91622619D01*
X182506904Y-91765476D01*
X182459285Y-91955952D01*
X182459285Y-92336904D01*
X182506904Y-92432142D01*
X182554523Y-92479761D01*
X182649761Y-92527380D01*
X182840238Y-92527380D01*
X182935476Y-92479761D01*
X182983095Y-92432142D01*
X183030714Y-92336904D01*
X183030714Y-92098809D01*
X182983095Y-92003571D01*
X182935476Y-91955952D01*
X182840238Y-91908333D01*
X182649761Y-91908333D01*
X182554523Y-91955952D01*
X182506904Y-92003571D01*
X182459285Y-92098809D01*
G04 #@! TO.C,C7*
X182713333Y-84812142D02*
X182665714Y-84859761D01*
X182522857Y-84907380D01*
X182427619Y-84907380D01*
X182284761Y-84859761D01*
X182189523Y-84764523D01*
X182141904Y-84669285D01*
X182094285Y-84478809D01*
X182094285Y-84335952D01*
X182141904Y-84145476D01*
X182189523Y-84050238D01*
X182284761Y-83955000D01*
X182427619Y-83907380D01*
X182522857Y-83907380D01*
X182665714Y-83955000D01*
X182713333Y-84002619D01*
X183046666Y-83907380D02*
X183713333Y-83907380D01*
X183284761Y-84907380D01*
G04 #@! TO.C,C8*
X148423333Y-93542142D02*
X148375714Y-93589761D01*
X148232857Y-93637380D01*
X148137619Y-93637380D01*
X147994761Y-93589761D01*
X147899523Y-93494523D01*
X147851904Y-93399285D01*
X147804285Y-93208809D01*
X147804285Y-93065952D01*
X147851904Y-92875476D01*
X147899523Y-92780238D01*
X147994761Y-92685000D01*
X148137619Y-92637380D01*
X148232857Y-92637380D01*
X148375714Y-92685000D01*
X148423333Y-92732619D01*
X148994761Y-93065952D02*
X148899523Y-93018333D01*
X148851904Y-92970714D01*
X148804285Y-92875476D01*
X148804285Y-92827857D01*
X148851904Y-92732619D01*
X148899523Y-92685000D01*
X148994761Y-92637380D01*
X149185238Y-92637380D01*
X149280476Y-92685000D01*
X149328095Y-92732619D01*
X149375714Y-92827857D01*
X149375714Y-92875476D01*
X149328095Y-92970714D01*
X149280476Y-93018333D01*
X149185238Y-93065952D01*
X148994761Y-93065952D01*
X148899523Y-93113571D01*
X148851904Y-93161190D01*
X148804285Y-93256428D01*
X148804285Y-93446904D01*
X148851904Y-93542142D01*
X148899523Y-93589761D01*
X148994761Y-93637380D01*
X149185238Y-93637380D01*
X149280476Y-93589761D01*
X149328095Y-93542142D01*
X149375714Y-93446904D01*
X149375714Y-93256428D01*
X149328095Y-93161190D01*
X149280476Y-93113571D01*
X149185238Y-93065952D01*
G04 #@! TO.C,D1*
X165337380Y-91543095D02*
X164337380Y-91543095D01*
X164337380Y-91305000D01*
X164385000Y-91162142D01*
X164480238Y-91066904D01*
X164575476Y-91019285D01*
X164765952Y-90971666D01*
X164908809Y-90971666D01*
X165099285Y-91019285D01*
X165194523Y-91066904D01*
X165289761Y-91162142D01*
X165337380Y-91305000D01*
X165337380Y-91543095D01*
X165337380Y-90019285D02*
X165337380Y-90590714D01*
X165337380Y-90305000D02*
X164337380Y-90305000D01*
X164480238Y-90400238D01*
X164575476Y-90495476D01*
X164623095Y-90590714D01*
G04 #@! TO.C,D2*
X150947380Y-127738095D02*
X149947380Y-127738095D01*
X149947380Y-127500000D01*
X149995000Y-127357142D01*
X150090238Y-127261904D01*
X150185476Y-127214285D01*
X150375952Y-127166666D01*
X150518809Y-127166666D01*
X150709285Y-127214285D01*
X150804523Y-127261904D01*
X150899761Y-127357142D01*
X150947380Y-127500000D01*
X150947380Y-127738095D01*
X150042619Y-126785714D02*
X149995000Y-126738095D01*
X149947380Y-126642857D01*
X149947380Y-126404761D01*
X149995000Y-126309523D01*
X150042619Y-126261904D01*
X150137857Y-126214285D01*
X150233095Y-126214285D01*
X150375952Y-126261904D01*
X150947380Y-126833333D01*
X150947380Y-126214285D01*
G04 #@! TO.C,D3*
X150947380Y-122658095D02*
X149947380Y-122658095D01*
X149947380Y-122420000D01*
X149995000Y-122277142D01*
X150090238Y-122181904D01*
X150185476Y-122134285D01*
X150375952Y-122086666D01*
X150518809Y-122086666D01*
X150709285Y-122134285D01*
X150804523Y-122181904D01*
X150899761Y-122277142D01*
X150947380Y-122420000D01*
X150947380Y-122658095D01*
X149947380Y-121753333D02*
X149947380Y-121134285D01*
X150328333Y-121467619D01*
X150328333Y-121324761D01*
X150375952Y-121229523D01*
X150423571Y-121181904D01*
X150518809Y-121134285D01*
X150756904Y-121134285D01*
X150852142Y-121181904D01*
X150899761Y-121229523D01*
X150947380Y-121324761D01*
X150947380Y-121610476D01*
X150899761Y-121705714D01*
X150852142Y-121753333D01*
G04 #@! TO.C,J1*
X179371666Y-110367380D02*
X179371666Y-111081666D01*
X179324047Y-111224523D01*
X179228809Y-111319761D01*
X179085952Y-111367380D01*
X178990714Y-111367380D01*
X180371666Y-111367380D02*
X179800238Y-111367380D01*
X180085952Y-111367380D02*
X180085952Y-110367380D01*
X179990714Y-110510238D01*
X179895476Y-110605476D01*
X179800238Y-110653095D01*
G04 #@! TO.C,J2*
X191857380Y-115268333D02*
X192571666Y-115268333D01*
X192714523Y-115315952D01*
X192809761Y-115411190D01*
X192857380Y-115554047D01*
X192857380Y-115649285D01*
X191952619Y-114839761D02*
X191905000Y-114792142D01*
X191857380Y-114696904D01*
X191857380Y-114458809D01*
X191905000Y-114363571D01*
X191952619Y-114315952D01*
X192047857Y-114268333D01*
X192143095Y-114268333D01*
X192285952Y-114315952D01*
X192857380Y-114887380D01*
X192857380Y-114268333D01*
X184078571Y-116363571D02*
X184126190Y-116220714D01*
X184173809Y-116173095D01*
X184269047Y-116125476D01*
X184411904Y-116125476D01*
X184507142Y-116173095D01*
X184554761Y-116220714D01*
X184602380Y-116315952D01*
X184602380Y-116696904D01*
X183602380Y-116696904D01*
X183602380Y-116363571D01*
X183650000Y-116268333D01*
X183697619Y-116220714D01*
X183792857Y-116173095D01*
X183888095Y-116173095D01*
X183983333Y-116220714D01*
X184030952Y-116268333D01*
X184078571Y-116363571D01*
X184078571Y-116696904D01*
X184602380Y-115268333D02*
X184078571Y-115268333D01*
X183983333Y-115315952D01*
X183935714Y-115411190D01*
X183935714Y-115601666D01*
X183983333Y-115696904D01*
X184554761Y-115268333D02*
X184602380Y-115363571D01*
X184602380Y-115601666D01*
X184554761Y-115696904D01*
X184459523Y-115744523D01*
X184364285Y-115744523D01*
X184269047Y-115696904D01*
X184221428Y-115601666D01*
X184221428Y-115363571D01*
X184173809Y-115268333D01*
X183935714Y-114935000D02*
X183935714Y-114554047D01*
X183602380Y-114792142D02*
X184459523Y-114792142D01*
X184554761Y-114744523D01*
X184602380Y-114649285D01*
X184602380Y-114554047D01*
X183935714Y-114363571D02*
X183935714Y-113982619D01*
X183602380Y-114220714D02*
X184459523Y-114220714D01*
X184554761Y-114173095D01*
X184602380Y-114077857D01*
X184602380Y-113982619D01*
X184602380Y-113125476D02*
X184602380Y-113696904D01*
X184602380Y-113411190D02*
X183602380Y-113411190D01*
X183745238Y-113506428D01*
X183840476Y-113601666D01*
X183888095Y-113696904D01*
G04 #@! TO.C,J3*
X181697380Y-96853333D02*
X182411666Y-96853333D01*
X182554523Y-96900952D01*
X182649761Y-96996190D01*
X182697380Y-97139047D01*
X182697380Y-97234285D01*
X181697380Y-96472380D02*
X181697380Y-95853333D01*
X182078333Y-96186666D01*
X182078333Y-96043809D01*
X182125952Y-95948571D01*
X182173571Y-95900952D01*
X182268809Y-95853333D01*
X182506904Y-95853333D01*
X182602142Y-95900952D01*
X182649761Y-95948571D01*
X182697380Y-96043809D01*
X182697380Y-96329523D01*
X182649761Y-96424761D01*
X182602142Y-96472380D01*
G04 #@! TO.C,J4*
X152701666Y-116717380D02*
X152701666Y-117431666D01*
X152654047Y-117574523D01*
X152558809Y-117669761D01*
X152415952Y-117717380D01*
X152320714Y-117717380D01*
X153606428Y-117050714D02*
X153606428Y-117717380D01*
X153368333Y-116669761D02*
X153130238Y-117384047D01*
X153749285Y-117384047D01*
X151868333Y-101897380D02*
X151868333Y-102611666D01*
X151820714Y-102754523D01*
X151725476Y-102849761D01*
X151582619Y-102897380D01*
X151487380Y-102897380D01*
X152201666Y-101897380D02*
X152773095Y-101897380D01*
X152487380Y-102897380D02*
X152487380Y-101897380D01*
X153058809Y-102611666D02*
X153535000Y-102611666D01*
X152963571Y-102897380D02*
X153296904Y-101897380D01*
X153630238Y-102897380D01*
X154487380Y-101945000D02*
X154392142Y-101897380D01*
X154249285Y-101897380D01*
X154106428Y-101945000D01*
X154011190Y-102040238D01*
X153963571Y-102135476D01*
X153915952Y-102325952D01*
X153915952Y-102468809D01*
X153963571Y-102659285D01*
X154011190Y-102754523D01*
X154106428Y-102849761D01*
X154249285Y-102897380D01*
X154344523Y-102897380D01*
X154487380Y-102849761D01*
X154535000Y-102802142D01*
X154535000Y-102468809D01*
X154344523Y-102468809D01*
G04 #@! TO.C,J5*
X125392380Y-126063333D02*
X126106666Y-126063333D01*
X126249523Y-126110952D01*
X126344761Y-126206190D01*
X126392380Y-126349047D01*
X126392380Y-126444285D01*
X125392380Y-125110952D02*
X125392380Y-125587142D01*
X125868571Y-125634761D01*
X125820952Y-125587142D01*
X125773333Y-125491904D01*
X125773333Y-125253809D01*
X125820952Y-125158571D01*
X125868571Y-125110952D01*
X125963809Y-125063333D01*
X126201904Y-125063333D01*
X126297142Y-125110952D01*
X126344761Y-125158571D01*
X126392380Y-125253809D01*
X126392380Y-125491904D01*
X126344761Y-125587142D01*
X126297142Y-125634761D01*
X128850000Y-129944761D02*
X128992857Y-129992380D01*
X129230952Y-129992380D01*
X129326190Y-129944761D01*
X129373809Y-129897142D01*
X129421428Y-129801904D01*
X129421428Y-129706666D01*
X129373809Y-129611428D01*
X129326190Y-129563809D01*
X129230952Y-129516190D01*
X129040476Y-129468571D01*
X128945238Y-129420952D01*
X128897619Y-129373333D01*
X128850000Y-129278095D01*
X128850000Y-129182857D01*
X128897619Y-129087619D01*
X128945238Y-129040000D01*
X129040476Y-128992380D01*
X129278571Y-128992380D01*
X129421428Y-129040000D01*
X130230952Y-129944761D02*
X130135714Y-129992380D01*
X129945238Y-129992380D01*
X129850000Y-129944761D01*
X129802380Y-129849523D01*
X129802380Y-129468571D01*
X129850000Y-129373333D01*
X129945238Y-129325714D01*
X130135714Y-129325714D01*
X130230952Y-129373333D01*
X130278571Y-129468571D01*
X130278571Y-129563809D01*
X129802380Y-129659047D01*
X130707142Y-129325714D02*
X130707142Y-129992380D01*
X130707142Y-129420952D02*
X130754761Y-129373333D01*
X130850000Y-129325714D01*
X130992857Y-129325714D01*
X131088095Y-129373333D01*
X131135714Y-129468571D01*
X131135714Y-129992380D01*
X131564285Y-129944761D02*
X131659523Y-129992380D01*
X131850000Y-129992380D01*
X131945238Y-129944761D01*
X131992857Y-129849523D01*
X131992857Y-129801904D01*
X131945238Y-129706666D01*
X131850000Y-129659047D01*
X131707142Y-129659047D01*
X131611904Y-129611428D01*
X131564285Y-129516190D01*
X131564285Y-129468571D01*
X131611904Y-129373333D01*
X131707142Y-129325714D01*
X131850000Y-129325714D01*
X131945238Y-129373333D01*
X132564285Y-129992380D02*
X132469047Y-129944761D01*
X132421428Y-129897142D01*
X132373809Y-129801904D01*
X132373809Y-129516190D01*
X132421428Y-129420952D01*
X132469047Y-129373333D01*
X132564285Y-129325714D01*
X132707142Y-129325714D01*
X132802380Y-129373333D01*
X132850000Y-129420952D01*
X132897619Y-129516190D01*
X132897619Y-129801904D01*
X132850000Y-129897142D01*
X132802380Y-129944761D01*
X132707142Y-129992380D01*
X132564285Y-129992380D01*
X133326190Y-129992380D02*
X133326190Y-129325714D01*
X133326190Y-129516190D02*
X133373809Y-129420952D01*
X133421428Y-129373333D01*
X133516666Y-129325714D01*
X133611904Y-129325714D01*
X134278571Y-129468571D02*
X134421428Y-129516190D01*
X134469047Y-129563809D01*
X134516666Y-129659047D01*
X134516666Y-129801904D01*
X134469047Y-129897142D01*
X134421428Y-129944761D01*
X134326190Y-129992380D01*
X133945238Y-129992380D01*
X133945238Y-128992380D01*
X134278571Y-128992380D01*
X134373809Y-129040000D01*
X134421428Y-129087619D01*
X134469047Y-129182857D01*
X134469047Y-129278095D01*
X134421428Y-129373333D01*
X134373809Y-129420952D01*
X134278571Y-129468571D01*
X133945238Y-129468571D01*
X135088095Y-129992380D02*
X134992857Y-129944761D01*
X134945238Y-129897142D01*
X134897619Y-129801904D01*
X134897619Y-129516190D01*
X134945238Y-129420952D01*
X134992857Y-129373333D01*
X135088095Y-129325714D01*
X135230952Y-129325714D01*
X135326190Y-129373333D01*
X135373809Y-129420952D01*
X135421428Y-129516190D01*
X135421428Y-129801904D01*
X135373809Y-129897142D01*
X135326190Y-129944761D01*
X135230952Y-129992380D01*
X135088095Y-129992380D01*
X136278571Y-129992380D02*
X136278571Y-129468571D01*
X136230952Y-129373333D01*
X136135714Y-129325714D01*
X135945238Y-129325714D01*
X135850000Y-129373333D01*
X136278571Y-129944761D02*
X136183333Y-129992380D01*
X135945238Y-129992380D01*
X135850000Y-129944761D01*
X135802380Y-129849523D01*
X135802380Y-129754285D01*
X135850000Y-129659047D01*
X135945238Y-129611428D01*
X136183333Y-129611428D01*
X136278571Y-129563809D01*
X136754761Y-129992380D02*
X136754761Y-129325714D01*
X136754761Y-129516190D02*
X136802380Y-129420952D01*
X136850000Y-129373333D01*
X136945238Y-129325714D01*
X137040476Y-129325714D01*
X137802380Y-129992380D02*
X137802380Y-128992380D01*
X137802380Y-129944761D02*
X137707142Y-129992380D01*
X137516666Y-129992380D01*
X137421428Y-129944761D01*
X137373809Y-129897142D01*
X137326190Y-129801904D01*
X137326190Y-129516190D01*
X137373809Y-129420952D01*
X137421428Y-129373333D01*
X137516666Y-129325714D01*
X137707142Y-129325714D01*
X137802380Y-129373333D01*
G04 #@! TO.C,J6*
X157146666Y-129627380D02*
X157146666Y-130341666D01*
X157099047Y-130484523D01*
X157003809Y-130579761D01*
X156860952Y-130627380D01*
X156765714Y-130627380D01*
X158051428Y-129627380D02*
X157860952Y-129627380D01*
X157765714Y-129675000D01*
X157718095Y-129722619D01*
X157622857Y-129865476D01*
X157575238Y-130055952D01*
X157575238Y-130436904D01*
X157622857Y-130532142D01*
X157670476Y-130579761D01*
X157765714Y-130627380D01*
X157956190Y-130627380D01*
X158051428Y-130579761D01*
X158099047Y-130532142D01*
X158146666Y-130436904D01*
X158146666Y-130198809D01*
X158099047Y-130103571D01*
X158051428Y-130055952D01*
X157956190Y-130008333D01*
X157765714Y-130008333D01*
X157670476Y-130055952D01*
X157622857Y-130103571D01*
X157575238Y-130198809D01*
X156051428Y-121848571D02*
X156194285Y-121896190D01*
X156241904Y-121943809D01*
X156289523Y-122039047D01*
X156289523Y-122181904D01*
X156241904Y-122277142D01*
X156194285Y-122324761D01*
X156099047Y-122372380D01*
X155718095Y-122372380D01*
X155718095Y-121372380D01*
X156051428Y-121372380D01*
X156146666Y-121420000D01*
X156194285Y-121467619D01*
X156241904Y-121562857D01*
X156241904Y-121658095D01*
X156194285Y-121753333D01*
X156146666Y-121800952D01*
X156051428Y-121848571D01*
X155718095Y-121848571D01*
X157146666Y-122372380D02*
X157146666Y-121848571D01*
X157099047Y-121753333D01*
X157003809Y-121705714D01*
X156813333Y-121705714D01*
X156718095Y-121753333D01*
X157146666Y-122324761D02*
X157051428Y-122372380D01*
X156813333Y-122372380D01*
X156718095Y-122324761D01*
X156670476Y-122229523D01*
X156670476Y-122134285D01*
X156718095Y-122039047D01*
X156813333Y-121991428D01*
X157051428Y-121991428D01*
X157146666Y-121943809D01*
X157480000Y-121705714D02*
X157860952Y-121705714D01*
X157622857Y-121372380D02*
X157622857Y-122229523D01*
X157670476Y-122324761D01*
X157765714Y-122372380D01*
X157860952Y-122372380D01*
X158051428Y-121705714D02*
X158432380Y-121705714D01*
X158194285Y-121372380D02*
X158194285Y-122229523D01*
X158241904Y-122324761D01*
X158337142Y-122372380D01*
X158432380Y-122372380D01*
X158718095Y-121467619D02*
X158765714Y-121420000D01*
X158860952Y-121372380D01*
X159099047Y-121372380D01*
X159194285Y-121420000D01*
X159241904Y-121467619D01*
X159289523Y-121562857D01*
X159289523Y-121658095D01*
X159241904Y-121800952D01*
X158670476Y-122372380D01*
X159289523Y-122372380D01*
G04 #@! TO.C,J7*
X167306666Y-129627380D02*
X167306666Y-130341666D01*
X167259047Y-130484523D01*
X167163809Y-130579761D01*
X167020952Y-130627380D01*
X166925714Y-130627380D01*
X167687619Y-129627380D02*
X168354285Y-129627380D01*
X167925714Y-130627380D01*
X165401904Y-122372380D02*
X165401904Y-121372380D01*
X165735238Y-122086666D01*
X166068571Y-121372380D01*
X166068571Y-122372380D01*
X166687619Y-122372380D02*
X166592380Y-122324761D01*
X166544761Y-122277142D01*
X166497142Y-122181904D01*
X166497142Y-121896190D01*
X166544761Y-121800952D01*
X166592380Y-121753333D01*
X166687619Y-121705714D01*
X166830476Y-121705714D01*
X166925714Y-121753333D01*
X166973333Y-121800952D01*
X167020952Y-121896190D01*
X167020952Y-122181904D01*
X166973333Y-122277142D01*
X166925714Y-122324761D01*
X166830476Y-122372380D01*
X166687619Y-122372380D01*
X167306666Y-121705714D02*
X167687619Y-121705714D01*
X167449523Y-121372380D02*
X167449523Y-122229523D01*
X167497142Y-122324761D01*
X167592380Y-122372380D01*
X167687619Y-122372380D01*
X168163809Y-122372380D02*
X168068571Y-122324761D01*
X168020952Y-122277142D01*
X167973333Y-122181904D01*
X167973333Y-121896190D01*
X168020952Y-121800952D01*
X168068571Y-121753333D01*
X168163809Y-121705714D01*
X168306666Y-121705714D01*
X168401904Y-121753333D01*
X168449523Y-121800952D01*
X168497142Y-121896190D01*
X168497142Y-122181904D01*
X168449523Y-122277142D01*
X168401904Y-122324761D01*
X168306666Y-122372380D01*
X168163809Y-122372380D01*
X168925714Y-122372380D02*
X168925714Y-121705714D01*
X168925714Y-121896190D02*
X168973333Y-121800952D01*
X169020952Y-121753333D01*
X169116190Y-121705714D01*
X169211428Y-121705714D01*
X170020952Y-122372380D02*
X169544761Y-122372380D01*
X169544761Y-121372380D01*
G04 #@! TO.C,J8*
X177466666Y-129627380D02*
X177466666Y-130341666D01*
X177419047Y-130484523D01*
X177323809Y-130579761D01*
X177180952Y-130627380D01*
X177085714Y-130627380D01*
X178085714Y-130055952D02*
X177990476Y-130008333D01*
X177942857Y-129960714D01*
X177895238Y-129865476D01*
X177895238Y-129817857D01*
X177942857Y-129722619D01*
X177990476Y-129675000D01*
X178085714Y-129627380D01*
X178276190Y-129627380D01*
X178371428Y-129675000D01*
X178419047Y-129722619D01*
X178466666Y-129817857D01*
X178466666Y-129865476D01*
X178419047Y-129960714D01*
X178371428Y-130008333D01*
X178276190Y-130055952D01*
X178085714Y-130055952D01*
X177990476Y-130103571D01*
X177942857Y-130151190D01*
X177895238Y-130246428D01*
X177895238Y-130436904D01*
X177942857Y-130532142D01*
X177990476Y-130579761D01*
X178085714Y-130627380D01*
X178276190Y-130627380D01*
X178371428Y-130579761D01*
X178419047Y-130532142D01*
X178466666Y-130436904D01*
X178466666Y-130246428D01*
X178419047Y-130151190D01*
X178371428Y-130103571D01*
X178276190Y-130055952D01*
X175466666Y-122372380D02*
X175466666Y-121372380D01*
X175800000Y-122086666D01*
X176133333Y-121372380D01*
X176133333Y-122372380D01*
X176752380Y-122372380D02*
X176657142Y-122324761D01*
X176609523Y-122277142D01*
X176561904Y-122181904D01*
X176561904Y-121896190D01*
X176609523Y-121800952D01*
X176657142Y-121753333D01*
X176752380Y-121705714D01*
X176895238Y-121705714D01*
X176990476Y-121753333D01*
X177038095Y-121800952D01*
X177085714Y-121896190D01*
X177085714Y-122181904D01*
X177038095Y-122277142D01*
X176990476Y-122324761D01*
X176895238Y-122372380D01*
X176752380Y-122372380D01*
X177371428Y-121705714D02*
X177752380Y-121705714D01*
X177514285Y-121372380D02*
X177514285Y-122229523D01*
X177561904Y-122324761D01*
X177657142Y-122372380D01*
X177752380Y-122372380D01*
X178228571Y-122372380D02*
X178133333Y-122324761D01*
X178085714Y-122277142D01*
X178038095Y-122181904D01*
X178038095Y-121896190D01*
X178085714Y-121800952D01*
X178133333Y-121753333D01*
X178228571Y-121705714D01*
X178371428Y-121705714D01*
X178466666Y-121753333D01*
X178514285Y-121800952D01*
X178561904Y-121896190D01*
X178561904Y-122181904D01*
X178514285Y-122277142D01*
X178466666Y-122324761D01*
X178371428Y-122372380D01*
X178228571Y-122372380D01*
X178990476Y-122372380D02*
X178990476Y-121705714D01*
X178990476Y-121896190D02*
X179038095Y-121800952D01*
X179085714Y-121753333D01*
X179180952Y-121705714D01*
X179276190Y-121705714D01*
X180180952Y-122372380D02*
X179847619Y-121896190D01*
X179609523Y-122372380D02*
X179609523Y-121372380D01*
X179990476Y-121372380D01*
X180085714Y-121420000D01*
X180133333Y-121467619D01*
X180180952Y-121562857D01*
X180180952Y-121705714D01*
X180133333Y-121800952D01*
X180085714Y-121848571D01*
X179990476Y-121896190D01*
X179609523Y-121896190D01*
G04 #@! TO.C,Q1*
X147192619Y-111220238D02*
X147145000Y-111315476D01*
X147049761Y-111410714D01*
X146906904Y-111553571D01*
X146859285Y-111648809D01*
X146859285Y-111744047D01*
X147097380Y-111696428D02*
X147049761Y-111791666D01*
X146954523Y-111886904D01*
X146764047Y-111934523D01*
X146430714Y-111934523D01*
X146240238Y-111886904D01*
X146145000Y-111791666D01*
X146097380Y-111696428D01*
X146097380Y-111505952D01*
X146145000Y-111410714D01*
X146240238Y-111315476D01*
X146430714Y-111267857D01*
X146764047Y-111267857D01*
X146954523Y-111315476D01*
X147049761Y-111410714D01*
X147097380Y-111505952D01*
X147097380Y-111696428D01*
X147097380Y-110315476D02*
X147097380Y-110886904D01*
X147097380Y-110601190D02*
X146097380Y-110601190D01*
X146240238Y-110696428D01*
X146335476Y-110791666D01*
X146383095Y-110886904D01*
G04 #@! TO.C,Q2*
X142192619Y-99790238D02*
X142145000Y-99885476D01*
X142049761Y-99980714D01*
X141906904Y-100123571D01*
X141859285Y-100218809D01*
X141859285Y-100314047D01*
X142097380Y-100266428D02*
X142049761Y-100361666D01*
X141954523Y-100456904D01*
X141764047Y-100504523D01*
X141430714Y-100504523D01*
X141240238Y-100456904D01*
X141145000Y-100361666D01*
X141097380Y-100266428D01*
X141097380Y-100075952D01*
X141145000Y-99980714D01*
X141240238Y-99885476D01*
X141430714Y-99837857D01*
X141764047Y-99837857D01*
X141954523Y-99885476D01*
X142049761Y-99980714D01*
X142097380Y-100075952D01*
X142097380Y-100266428D01*
X141192619Y-99456904D02*
X141145000Y-99409285D01*
X141097380Y-99314047D01*
X141097380Y-99075952D01*
X141145000Y-98980714D01*
X141192619Y-98933095D01*
X141287857Y-98885476D01*
X141383095Y-98885476D01*
X141525952Y-98933095D01*
X142097380Y-99504523D01*
X142097380Y-98885476D01*
G04 #@! TO.C,R1*
X122372380Y-123991666D02*
X121896190Y-124325000D01*
X122372380Y-124563095D02*
X121372380Y-124563095D01*
X121372380Y-124182142D01*
X121420000Y-124086904D01*
X121467619Y-124039285D01*
X121562857Y-123991666D01*
X121705714Y-123991666D01*
X121800952Y-124039285D01*
X121848571Y-124086904D01*
X121896190Y-124182142D01*
X121896190Y-124563095D01*
X122372380Y-123039285D02*
X122372380Y-123610714D01*
X122372380Y-123325000D02*
X121372380Y-123325000D01*
X121515238Y-123420238D01*
X121610476Y-123515476D01*
X121658095Y-123610714D01*
G04 #@! TO.C,R2*
X142532380Y-127166666D02*
X142056190Y-127500000D01*
X142532380Y-127738095D02*
X141532380Y-127738095D01*
X141532380Y-127357142D01*
X141580000Y-127261904D01*
X141627619Y-127214285D01*
X141722857Y-127166666D01*
X141865714Y-127166666D01*
X141960952Y-127214285D01*
X142008571Y-127261904D01*
X142056190Y-127357142D01*
X142056190Y-127738095D01*
X141627619Y-126785714D02*
X141580000Y-126738095D01*
X141532380Y-126642857D01*
X141532380Y-126404761D01*
X141580000Y-126309523D01*
X141627619Y-126261904D01*
X141722857Y-126214285D01*
X141818095Y-126214285D01*
X141960952Y-126261904D01*
X142532380Y-126833333D01*
X142532380Y-126214285D01*
G04 #@! TO.C,R3*
X142532380Y-122086666D02*
X142056190Y-122420000D01*
X142532380Y-122658095D02*
X141532380Y-122658095D01*
X141532380Y-122277142D01*
X141580000Y-122181904D01*
X141627619Y-122134285D01*
X141722857Y-122086666D01*
X141865714Y-122086666D01*
X141960952Y-122134285D01*
X142008571Y-122181904D01*
X142056190Y-122277142D01*
X142056190Y-122658095D01*
X141532380Y-121753333D02*
X141532380Y-121134285D01*
X141913333Y-121467619D01*
X141913333Y-121324761D01*
X141960952Y-121229523D01*
X142008571Y-121181904D01*
X142103809Y-121134285D01*
X142341904Y-121134285D01*
X142437142Y-121181904D01*
X142484761Y-121229523D01*
X142532380Y-121324761D01*
X142532380Y-121610476D01*
X142484761Y-121705714D01*
X142437142Y-121753333D01*
G04 #@! TO.C,R4*
X158567380Y-94146666D02*
X158091190Y-94480000D01*
X158567380Y-94718095D02*
X157567380Y-94718095D01*
X157567380Y-94337142D01*
X157615000Y-94241904D01*
X157662619Y-94194285D01*
X157757857Y-94146666D01*
X157900714Y-94146666D01*
X157995952Y-94194285D01*
X158043571Y-94241904D01*
X158091190Y-94337142D01*
X158091190Y-94718095D01*
X157900714Y-93289523D02*
X158567380Y-93289523D01*
X157519761Y-93527619D02*
X158234047Y-93765714D01*
X158234047Y-93146666D01*
G04 #@! TO.C,R5*
X123482380Y-94146666D02*
X123006190Y-94480000D01*
X123482380Y-94718095D02*
X122482380Y-94718095D01*
X122482380Y-94337142D01*
X122530000Y-94241904D01*
X122577619Y-94194285D01*
X122672857Y-94146666D01*
X122815714Y-94146666D01*
X122910952Y-94194285D01*
X122958571Y-94241904D01*
X123006190Y-94337142D01*
X123006190Y-94718095D01*
X122482380Y-93241904D02*
X122482380Y-93718095D01*
X122958571Y-93765714D01*
X122910952Y-93718095D01*
X122863333Y-93622857D01*
X122863333Y-93384761D01*
X122910952Y-93289523D01*
X122958571Y-93241904D01*
X123053809Y-93194285D01*
X123291904Y-93194285D01*
X123387142Y-93241904D01*
X123434761Y-93289523D01*
X123482380Y-93384761D01*
X123482380Y-93622857D01*
X123434761Y-93718095D01*
X123387142Y-93765714D01*
G04 #@! TO.C,R6*
X182078333Y-88717380D02*
X181745000Y-88241190D01*
X181506904Y-88717380D02*
X181506904Y-87717380D01*
X181887857Y-87717380D01*
X181983095Y-87765000D01*
X182030714Y-87812619D01*
X182078333Y-87907857D01*
X182078333Y-88050714D01*
X182030714Y-88145952D01*
X181983095Y-88193571D01*
X181887857Y-88241190D01*
X181506904Y-88241190D01*
X182935476Y-87717380D02*
X182745000Y-87717380D01*
X182649761Y-87765000D01*
X182602142Y-87812619D01*
X182506904Y-87955476D01*
X182459285Y-88145952D01*
X182459285Y-88526904D01*
X182506904Y-88622142D01*
X182554523Y-88669761D01*
X182649761Y-88717380D01*
X182840238Y-88717380D01*
X182935476Y-88669761D01*
X182983095Y-88622142D01*
X183030714Y-88526904D01*
X183030714Y-88288809D01*
X182983095Y-88193571D01*
X182935476Y-88145952D01*
X182840238Y-88098333D01*
X182649761Y-88098333D01*
X182554523Y-88145952D01*
X182506904Y-88193571D01*
X182459285Y-88288809D01*
G04 #@! TO.C,R7*
X145072380Y-104306666D02*
X144596190Y-104640000D01*
X145072380Y-104878095D02*
X144072380Y-104878095D01*
X144072380Y-104497142D01*
X144120000Y-104401904D01*
X144167619Y-104354285D01*
X144262857Y-104306666D01*
X144405714Y-104306666D01*
X144500952Y-104354285D01*
X144548571Y-104401904D01*
X144596190Y-104497142D01*
X144596190Y-104878095D01*
X144072380Y-103973333D02*
X144072380Y-103306666D01*
X145072380Y-103735238D01*
G04 #@! TO.C,R8*
X182078333Y-90622380D02*
X181745000Y-90146190D01*
X181506904Y-90622380D02*
X181506904Y-89622380D01*
X181887857Y-89622380D01*
X181983095Y-89670000D01*
X182030714Y-89717619D01*
X182078333Y-89812857D01*
X182078333Y-89955714D01*
X182030714Y-90050952D01*
X181983095Y-90098571D01*
X181887857Y-90146190D01*
X181506904Y-90146190D01*
X182649761Y-90050952D02*
X182554523Y-90003333D01*
X182506904Y-89955714D01*
X182459285Y-89860476D01*
X182459285Y-89812857D01*
X182506904Y-89717619D01*
X182554523Y-89670000D01*
X182649761Y-89622380D01*
X182840238Y-89622380D01*
X182935476Y-89670000D01*
X182983095Y-89717619D01*
X183030714Y-89812857D01*
X183030714Y-89860476D01*
X182983095Y-89955714D01*
X182935476Y-90003333D01*
X182840238Y-90050952D01*
X182649761Y-90050952D01*
X182554523Y-90098571D01*
X182506904Y-90146190D01*
X182459285Y-90241428D01*
X182459285Y-90431904D01*
X182506904Y-90527142D01*
X182554523Y-90574761D01*
X182649761Y-90622380D01*
X182840238Y-90622380D01*
X182935476Y-90574761D01*
X182983095Y-90527142D01*
X183030714Y-90431904D01*
X183030714Y-90241428D01*
X182983095Y-90146190D01*
X182935476Y-90098571D01*
X182840238Y-90050952D01*
G04 #@! TO.C,R9*
X144122380Y-106846666D02*
X143646190Y-107180000D01*
X144122380Y-107418095D02*
X143122380Y-107418095D01*
X143122380Y-107037142D01*
X143170000Y-106941904D01*
X143217619Y-106894285D01*
X143312857Y-106846666D01*
X143455714Y-106846666D01*
X143550952Y-106894285D01*
X143598571Y-106941904D01*
X143646190Y-107037142D01*
X143646190Y-107418095D01*
X144122380Y-106370476D02*
X144122380Y-106180000D01*
X144074761Y-106084761D01*
X144027142Y-106037142D01*
X143884285Y-105941904D01*
X143693809Y-105894285D01*
X143312857Y-105894285D01*
X143217619Y-105941904D01*
X143170000Y-105989523D01*
X143122380Y-106084761D01*
X143122380Y-106275238D01*
X143170000Y-106370476D01*
X143217619Y-106418095D01*
X143312857Y-106465714D01*
X143550952Y-106465714D01*
X143646190Y-106418095D01*
X143693809Y-106370476D01*
X143741428Y-106275238D01*
X143741428Y-106084761D01*
X143693809Y-105989523D01*
X143646190Y-105941904D01*
X143550952Y-105894285D01*
G04 #@! TO.C,SW1*
X131849761Y-89523333D02*
X131897380Y-89380476D01*
X131897380Y-89142380D01*
X131849761Y-89047142D01*
X131802142Y-88999523D01*
X131706904Y-88951904D01*
X131611666Y-88951904D01*
X131516428Y-88999523D01*
X131468809Y-89047142D01*
X131421190Y-89142380D01*
X131373571Y-89332857D01*
X131325952Y-89428095D01*
X131278333Y-89475714D01*
X131183095Y-89523333D01*
X131087857Y-89523333D01*
X130992619Y-89475714D01*
X130945000Y-89428095D01*
X130897380Y-89332857D01*
X130897380Y-89094761D01*
X130945000Y-88951904D01*
X130897380Y-88618571D02*
X131897380Y-88380476D01*
X131183095Y-88190000D01*
X131897380Y-87999523D01*
X130897380Y-87761428D01*
X131897380Y-86856666D02*
X131897380Y-87428095D01*
X131897380Y-87142380D02*
X130897380Y-87142380D01*
X131040238Y-87237619D01*
X131135476Y-87332857D01*
X131183095Y-87428095D01*
X136009761Y-89904285D02*
X136057380Y-89761428D01*
X136057380Y-89523333D01*
X136009761Y-89428095D01*
X135962142Y-89380476D01*
X135866904Y-89332857D01*
X135771666Y-89332857D01*
X135676428Y-89380476D01*
X135628809Y-89428095D01*
X135581190Y-89523333D01*
X135533571Y-89713809D01*
X135485952Y-89809047D01*
X135438333Y-89856666D01*
X135343095Y-89904285D01*
X135247857Y-89904285D01*
X135152619Y-89856666D01*
X135105000Y-89809047D01*
X135057380Y-89713809D01*
X135057380Y-89475714D01*
X135105000Y-89332857D01*
X135057380Y-88999523D02*
X136057380Y-88761428D01*
X135343095Y-88570952D01*
X136057380Y-88380476D01*
X135057380Y-88142380D01*
X136152619Y-87999523D02*
X136152619Y-87237619D01*
X135533571Y-86999523D02*
X135533571Y-86666190D01*
X136057380Y-86523333D02*
X136057380Y-86999523D01*
X135057380Y-86999523D01*
X135057380Y-86523333D01*
X136057380Y-86094761D02*
X135057380Y-86094761D01*
X136057380Y-85523333D01*
X135057380Y-85523333D01*
G04 #@! TO.C,SW2*
X140739761Y-89523333D02*
X140787380Y-89380476D01*
X140787380Y-89142380D01*
X140739761Y-89047142D01*
X140692142Y-88999523D01*
X140596904Y-88951904D01*
X140501666Y-88951904D01*
X140406428Y-88999523D01*
X140358809Y-89047142D01*
X140311190Y-89142380D01*
X140263571Y-89332857D01*
X140215952Y-89428095D01*
X140168333Y-89475714D01*
X140073095Y-89523333D01*
X139977857Y-89523333D01*
X139882619Y-89475714D01*
X139835000Y-89428095D01*
X139787380Y-89332857D01*
X139787380Y-89094761D01*
X139835000Y-88951904D01*
X139787380Y-88618571D02*
X140787380Y-88380476D01*
X140073095Y-88190000D01*
X140787380Y-87999523D01*
X139787380Y-87761428D01*
X139882619Y-87428095D02*
X139835000Y-87380476D01*
X139787380Y-87285238D01*
X139787380Y-87047142D01*
X139835000Y-86951904D01*
X139882619Y-86904285D01*
X139977857Y-86856666D01*
X140073095Y-86856666D01*
X140215952Y-86904285D01*
X140787380Y-87475714D01*
X140787380Y-86856666D01*
X144899761Y-90856666D02*
X144947380Y-90713809D01*
X144947380Y-90475714D01*
X144899761Y-90380476D01*
X144852142Y-90332857D01*
X144756904Y-90285238D01*
X144661666Y-90285238D01*
X144566428Y-90332857D01*
X144518809Y-90380476D01*
X144471190Y-90475714D01*
X144423571Y-90666190D01*
X144375952Y-90761428D01*
X144328333Y-90809047D01*
X144233095Y-90856666D01*
X144137857Y-90856666D01*
X144042619Y-90809047D01*
X143995000Y-90761428D01*
X143947380Y-90666190D01*
X143947380Y-90428095D01*
X143995000Y-90285238D01*
X143947380Y-89951904D02*
X144947380Y-89713809D01*
X144233095Y-89523333D01*
X144947380Y-89332857D01*
X143947380Y-89094761D01*
X145042619Y-88951904D02*
X145042619Y-88190000D01*
X144423571Y-87618571D02*
X144471190Y-87475714D01*
X144518809Y-87428095D01*
X144614047Y-87380476D01*
X144756904Y-87380476D01*
X144852142Y-87428095D01*
X144899761Y-87475714D01*
X144947380Y-87570952D01*
X144947380Y-87951904D01*
X143947380Y-87951904D01*
X143947380Y-87618571D01*
X143995000Y-87523333D01*
X144042619Y-87475714D01*
X144137857Y-87428095D01*
X144233095Y-87428095D01*
X144328333Y-87475714D01*
X144375952Y-87523333D01*
X144423571Y-87618571D01*
X144423571Y-87951904D01*
X143947380Y-86761428D02*
X143947380Y-86570952D01*
X143995000Y-86475714D01*
X144090238Y-86380476D01*
X144280714Y-86332857D01*
X144614047Y-86332857D01*
X144804523Y-86380476D01*
X144899761Y-86475714D01*
X144947380Y-86570952D01*
X144947380Y-86761428D01*
X144899761Y-86856666D01*
X144804523Y-86951904D01*
X144614047Y-86999523D01*
X144280714Y-86999523D01*
X144090238Y-86951904D01*
X143995000Y-86856666D01*
X143947380Y-86761428D01*
X143947380Y-85713809D02*
X143947380Y-85523333D01*
X143995000Y-85428095D01*
X144090238Y-85332857D01*
X144280714Y-85285238D01*
X144614047Y-85285238D01*
X144804523Y-85332857D01*
X144899761Y-85428095D01*
X144947380Y-85523333D01*
X144947380Y-85713809D01*
X144899761Y-85809047D01*
X144804523Y-85904285D01*
X144614047Y-85951904D01*
X144280714Y-85951904D01*
X144090238Y-85904285D01*
X143995000Y-85809047D01*
X143947380Y-85713809D01*
X143947380Y-84999523D02*
X143947380Y-84428095D01*
X144947380Y-84713809D02*
X143947380Y-84713809D01*
G04 #@! TO.C,SW3*
X149629761Y-89523333D02*
X149677380Y-89380476D01*
X149677380Y-89142380D01*
X149629761Y-89047142D01*
X149582142Y-88999523D01*
X149486904Y-88951904D01*
X149391666Y-88951904D01*
X149296428Y-88999523D01*
X149248809Y-89047142D01*
X149201190Y-89142380D01*
X149153571Y-89332857D01*
X149105952Y-89428095D01*
X149058333Y-89475714D01*
X148963095Y-89523333D01*
X148867857Y-89523333D01*
X148772619Y-89475714D01*
X148725000Y-89428095D01*
X148677380Y-89332857D01*
X148677380Y-89094761D01*
X148725000Y-88951904D01*
X148677380Y-88618571D02*
X149677380Y-88380476D01*
X148963095Y-88190000D01*
X149677380Y-87999523D01*
X148677380Y-87761428D01*
X148677380Y-87475714D02*
X148677380Y-86856666D01*
X149058333Y-87190000D01*
X149058333Y-87047142D01*
X149105952Y-86951904D01*
X149153571Y-86904285D01*
X149248809Y-86856666D01*
X149486904Y-86856666D01*
X149582142Y-86904285D01*
X149629761Y-86951904D01*
X149677380Y-87047142D01*
X149677380Y-87332857D01*
X149629761Y-87428095D01*
X149582142Y-87475714D01*
X153789761Y-90880476D02*
X153837380Y-90737619D01*
X153837380Y-90499523D01*
X153789761Y-90404285D01*
X153742142Y-90356666D01*
X153646904Y-90309047D01*
X153551666Y-90309047D01*
X153456428Y-90356666D01*
X153408809Y-90404285D01*
X153361190Y-90499523D01*
X153313571Y-90690000D01*
X153265952Y-90785238D01*
X153218333Y-90832857D01*
X153123095Y-90880476D01*
X153027857Y-90880476D01*
X152932619Y-90832857D01*
X152885000Y-90785238D01*
X152837380Y-90690000D01*
X152837380Y-90451904D01*
X152885000Y-90309047D01*
X152837380Y-89975714D02*
X153837380Y-89737619D01*
X153123095Y-89547142D01*
X153837380Y-89356666D01*
X152837380Y-89118571D01*
X153932619Y-88975714D02*
X153932619Y-88213809D01*
X152837380Y-87975714D02*
X153646904Y-87975714D01*
X153742142Y-87928095D01*
X153789761Y-87880476D01*
X153837380Y-87785238D01*
X153837380Y-87594761D01*
X153789761Y-87499523D01*
X153742142Y-87451904D01*
X153646904Y-87404285D01*
X152837380Y-87404285D01*
X153789761Y-86975714D02*
X153837380Y-86832857D01*
X153837380Y-86594761D01*
X153789761Y-86499523D01*
X153742142Y-86451904D01*
X153646904Y-86404285D01*
X153551666Y-86404285D01*
X153456428Y-86451904D01*
X153408809Y-86499523D01*
X153361190Y-86594761D01*
X153313571Y-86785238D01*
X153265952Y-86880476D01*
X153218333Y-86928095D01*
X153123095Y-86975714D01*
X153027857Y-86975714D01*
X152932619Y-86928095D01*
X152885000Y-86880476D01*
X152837380Y-86785238D01*
X152837380Y-86547142D01*
X152885000Y-86404285D01*
X153313571Y-85975714D02*
X153313571Y-85642380D01*
X153837380Y-85499523D02*
X153837380Y-85975714D01*
X152837380Y-85975714D01*
X152837380Y-85499523D01*
X153837380Y-84499523D02*
X153361190Y-84832857D01*
X153837380Y-85070952D02*
X152837380Y-85070952D01*
X152837380Y-84690000D01*
X152885000Y-84594761D01*
X152932619Y-84547142D01*
X153027857Y-84499523D01*
X153170714Y-84499523D01*
X153265952Y-84547142D01*
X153313571Y-84594761D01*
X153361190Y-84690000D01*
X153361190Y-85070952D01*
G04 #@! TO.C,U1*
X166878095Y-102758380D02*
X166878095Y-103567904D01*
X166925714Y-103663142D01*
X166973333Y-103710761D01*
X167068571Y-103758380D01*
X167259047Y-103758380D01*
X167354285Y-103710761D01*
X167401904Y-103663142D01*
X167449523Y-103567904D01*
X167449523Y-102758380D01*
X168449523Y-103758380D02*
X167878095Y-103758380D01*
X168163809Y-103758380D02*
X168163809Y-102758380D01*
X168068571Y-102901238D01*
X167973333Y-102996476D01*
X167878095Y-103044095D01*
G04 #@! TO.C,U2*
X133437380Y-108076904D02*
X134246904Y-108076904D01*
X134342142Y-108029285D01*
X134389761Y-107981666D01*
X134437380Y-107886428D01*
X134437380Y-107695952D01*
X134389761Y-107600714D01*
X134342142Y-107553095D01*
X134246904Y-107505476D01*
X133437380Y-107505476D01*
X133532619Y-107076904D02*
X133485000Y-107029285D01*
X133437380Y-106934047D01*
X133437380Y-106695952D01*
X133485000Y-106600714D01*
X133532619Y-106553095D01*
X133627857Y-106505476D01*
X133723095Y-106505476D01*
X133865952Y-106553095D01*
X134437380Y-107124523D01*
X134437380Y-106505476D01*
G04 #@! TO.C,U3*
X170688095Y-93432380D02*
X170688095Y-94241904D01*
X170735714Y-94337142D01*
X170783333Y-94384761D01*
X170878571Y-94432380D01*
X171069047Y-94432380D01*
X171164285Y-94384761D01*
X171211904Y-94337142D01*
X171259523Y-94241904D01*
X171259523Y-93432380D01*
X171640476Y-93432380D02*
X172259523Y-93432380D01*
X171926190Y-93813333D01*
X172069047Y-93813333D01*
X172164285Y-93860952D01*
X172211904Y-93908571D01*
X172259523Y-94003809D01*
X172259523Y-94241904D01*
X172211904Y-94337142D01*
X172164285Y-94384761D01*
X172069047Y-94432380D01*
X171783333Y-94432380D01*
X171688095Y-94384761D01*
X171640476Y-94337142D01*
G04 #@! TO.C,U4*
X158412380Y-115061904D02*
X159221904Y-115061904D01*
X159317142Y-115014285D01*
X159364761Y-114966666D01*
X159412380Y-114871428D01*
X159412380Y-114680952D01*
X159364761Y-114585714D01*
X159317142Y-114538095D01*
X159221904Y-114490476D01*
X158412380Y-114490476D01*
X158745714Y-113585714D02*
X159412380Y-113585714D01*
X158364761Y-113823809D02*
X159079047Y-114061904D01*
X159079047Y-113442857D01*
G04 #@! TD*
M02*
