G04 #@! TF.GenerationSoftware,KiCad,Pcbnew,(5.0.2)-1*
G04 #@! TF.CreationDate,2019-08-20T01:28:51+09:00*
G04 #@! TF.ProjectId,robocar-mainboard,726f626f-6361-4722-9d6d-61696e626f61,rev?*
G04 #@! TF.SameCoordinates,Original*
G04 #@! TF.FileFunction,Soldermask,Bot*
G04 #@! TF.FilePolarity,Negative*
%FSLAX46Y46*%
G04 Gerber Fmt 4.6, Leading zero omitted, Abs format (unit mm)*
G04 Created by KiCad (PCBNEW (5.0.2)-1) date 2019/08/20 1:28:51*
%MOMM*%
%LPD*%
G01*
G04 APERTURE LIST*
%ADD10C,0.100000*%
G04 APERTURE END LIST*
D10*
G36*
X191485256Y-125471298D02*
X191591579Y-125492447D01*
X191892042Y-125616903D01*
X192158852Y-125795180D01*
X192162454Y-125797587D01*
X192392413Y-126027546D01*
X192392415Y-126027549D01*
X192573097Y-126297958D01*
X192655548Y-126497011D01*
X192697553Y-126598422D01*
X192761000Y-126917389D01*
X192761000Y-127242611D01*
X192697553Y-127561578D01*
X192573098Y-127862040D01*
X192392413Y-128132454D01*
X192162454Y-128362413D01*
X192162451Y-128362415D01*
X191892042Y-128543097D01*
X191892041Y-128543098D01*
X191892040Y-128543098D01*
X191804037Y-128579550D01*
X191591579Y-128667553D01*
X191485256Y-128688702D01*
X191272611Y-128731000D01*
X190947389Y-128731000D01*
X190734744Y-128688702D01*
X190628421Y-128667553D01*
X190415963Y-128579550D01*
X190327960Y-128543098D01*
X190327959Y-128543098D01*
X190327958Y-128543097D01*
X190057549Y-128362415D01*
X190057546Y-128362413D01*
X189827587Y-128132454D01*
X189646902Y-127862040D01*
X189522447Y-127561578D01*
X189459000Y-127242611D01*
X189459000Y-126917389D01*
X189522447Y-126598422D01*
X189564453Y-126497011D01*
X189646903Y-126297958D01*
X189827585Y-126027549D01*
X189827587Y-126027546D01*
X190057546Y-125797587D01*
X190061148Y-125795180D01*
X190327958Y-125616903D01*
X190628421Y-125492447D01*
X190734744Y-125471298D01*
X190947389Y-125429000D01*
X191272611Y-125429000D01*
X191485256Y-125471298D01*
X191485256Y-125471298D01*
G37*
G36*
X121485256Y-125471298D02*
X121591579Y-125492447D01*
X121892042Y-125616903D01*
X122158852Y-125795180D01*
X122162454Y-125797587D01*
X122392413Y-126027546D01*
X122392415Y-126027549D01*
X122573097Y-126297958D01*
X122655548Y-126497011D01*
X122697553Y-126598422D01*
X122761000Y-126917389D01*
X122761000Y-127242611D01*
X122697553Y-127561578D01*
X122573098Y-127862040D01*
X122392413Y-128132454D01*
X122162454Y-128362413D01*
X122162451Y-128362415D01*
X121892042Y-128543097D01*
X121892041Y-128543098D01*
X121892040Y-128543098D01*
X121804037Y-128579550D01*
X121591579Y-128667553D01*
X121485256Y-128688702D01*
X121272611Y-128731000D01*
X120947389Y-128731000D01*
X120734744Y-128688702D01*
X120628421Y-128667553D01*
X120415963Y-128579550D01*
X120327960Y-128543098D01*
X120327959Y-128543098D01*
X120327958Y-128543097D01*
X120057549Y-128362415D01*
X120057546Y-128362413D01*
X119827587Y-128132454D01*
X119646902Y-127862040D01*
X119522447Y-127561578D01*
X119459000Y-127242611D01*
X119459000Y-126917389D01*
X119522447Y-126598422D01*
X119564453Y-126497011D01*
X119646903Y-126297958D01*
X119827585Y-126027549D01*
X119827587Y-126027546D01*
X120057546Y-125797587D01*
X120061148Y-125795180D01*
X120327958Y-125616903D01*
X120628421Y-125492447D01*
X120734744Y-125471298D01*
X120947389Y-125429000D01*
X121272611Y-125429000D01*
X121485256Y-125471298D01*
X121485256Y-125471298D01*
G37*
G36*
X175612527Y-125488736D02*
X175712410Y-125508604D01*
X175994674Y-125625521D01*
X176248705Y-125795259D01*
X176464741Y-126011295D01*
X176634479Y-126265326D01*
X176751396Y-126547590D01*
X176761507Y-126598421D01*
X176811000Y-126847238D01*
X176811000Y-127152762D01*
X176772470Y-127346466D01*
X176751396Y-127452410D01*
X176634479Y-127734674D01*
X176464741Y-127988705D01*
X176248705Y-128204741D01*
X175994674Y-128374479D01*
X175712410Y-128491396D01*
X175612527Y-128511264D01*
X175412762Y-128551000D01*
X175107238Y-128551000D01*
X174907473Y-128511264D01*
X174807590Y-128491396D01*
X174525326Y-128374479D01*
X174271295Y-128204741D01*
X174055259Y-127988705D01*
X173885521Y-127734674D01*
X173768604Y-127452410D01*
X173747530Y-127346466D01*
X173709000Y-127152762D01*
X173709000Y-126847238D01*
X173758493Y-126598421D01*
X173768604Y-126547590D01*
X173885521Y-126265326D01*
X174055259Y-126011295D01*
X174271295Y-125795259D01*
X174525326Y-125625521D01*
X174807590Y-125508604D01*
X174907473Y-125488736D01*
X175107238Y-125449000D01*
X175412762Y-125449000D01*
X175612527Y-125488736D01*
X175612527Y-125488736D01*
G37*
G36*
X181891000Y-128551000D02*
X178789000Y-128551000D01*
X178789000Y-125449000D01*
X181891000Y-125449000D01*
X181891000Y-128551000D01*
X181891000Y-128551000D01*
G37*
G36*
X165452527Y-125488736D02*
X165552410Y-125508604D01*
X165834674Y-125625521D01*
X166088705Y-125795259D01*
X166304741Y-126011295D01*
X166474479Y-126265326D01*
X166591396Y-126547590D01*
X166601507Y-126598421D01*
X166651000Y-126847238D01*
X166651000Y-127152762D01*
X166612470Y-127346466D01*
X166591396Y-127452410D01*
X166474479Y-127734674D01*
X166304741Y-127988705D01*
X166088705Y-128204741D01*
X165834674Y-128374479D01*
X165552410Y-128491396D01*
X165452527Y-128511264D01*
X165252762Y-128551000D01*
X164947238Y-128551000D01*
X164747473Y-128511264D01*
X164647590Y-128491396D01*
X164365326Y-128374479D01*
X164111295Y-128204741D01*
X163895259Y-127988705D01*
X163725521Y-127734674D01*
X163608604Y-127452410D01*
X163587530Y-127346466D01*
X163549000Y-127152762D01*
X163549000Y-126847238D01*
X163598493Y-126598421D01*
X163608604Y-126547590D01*
X163725521Y-126265326D01*
X163895259Y-126011295D01*
X164111295Y-125795259D01*
X164365326Y-125625521D01*
X164647590Y-125508604D01*
X164747473Y-125488736D01*
X164947238Y-125449000D01*
X165252762Y-125449000D01*
X165452527Y-125488736D01*
X165452527Y-125488736D01*
G37*
G36*
X155292527Y-125488736D02*
X155392410Y-125508604D01*
X155674674Y-125625521D01*
X155928705Y-125795259D01*
X156144741Y-126011295D01*
X156314479Y-126265326D01*
X156431396Y-126547590D01*
X156441507Y-126598421D01*
X156491000Y-126847238D01*
X156491000Y-127152762D01*
X156452470Y-127346466D01*
X156431396Y-127452410D01*
X156314479Y-127734674D01*
X156144741Y-127988705D01*
X155928705Y-128204741D01*
X155674674Y-128374479D01*
X155392410Y-128491396D01*
X155292527Y-128511264D01*
X155092762Y-128551000D01*
X154787238Y-128551000D01*
X154587473Y-128511264D01*
X154487590Y-128491396D01*
X154205326Y-128374479D01*
X153951295Y-128204741D01*
X153735259Y-127988705D01*
X153565521Y-127734674D01*
X153448604Y-127452410D01*
X153427530Y-127346466D01*
X153389000Y-127152762D01*
X153389000Y-126847238D01*
X153438493Y-126598421D01*
X153448604Y-126547590D01*
X153565521Y-126265326D01*
X153735259Y-126011295D01*
X153951295Y-125795259D01*
X154205326Y-125625521D01*
X154487590Y-125508604D01*
X154587473Y-125488736D01*
X154787238Y-125449000D01*
X155092762Y-125449000D01*
X155292527Y-125488736D01*
X155292527Y-125488736D01*
G37*
G36*
X161571000Y-128551000D02*
X158469000Y-128551000D01*
X158469000Y-125449000D01*
X161571000Y-125449000D01*
X161571000Y-128551000D01*
X161571000Y-128551000D01*
G37*
G36*
X171731000Y-128551000D02*
X168629000Y-128551000D01*
X168629000Y-125449000D01*
X171731000Y-125449000D01*
X171731000Y-128551000D01*
X171731000Y-128551000D01*
G37*
G36*
X148867396Y-126085546D02*
X149040466Y-126157234D01*
X149196230Y-126261312D01*
X149328688Y-126393770D01*
X149432766Y-126549534D01*
X149504454Y-126722604D01*
X149541000Y-126906333D01*
X149541000Y-127093667D01*
X149504454Y-127277396D01*
X149432766Y-127450466D01*
X149328688Y-127606230D01*
X149196230Y-127738688D01*
X149040466Y-127842766D01*
X148867396Y-127914454D01*
X148683667Y-127951000D01*
X148496333Y-127951000D01*
X148312604Y-127914454D01*
X148139534Y-127842766D01*
X147983770Y-127738688D01*
X147851312Y-127606230D01*
X147747234Y-127450466D01*
X147675546Y-127277396D01*
X147639000Y-127093667D01*
X147639000Y-126906333D01*
X147675546Y-126722604D01*
X147747234Y-126549534D01*
X147851312Y-126393770D01*
X147983770Y-126261312D01*
X148139534Y-126157234D01*
X148312604Y-126085546D01*
X148496333Y-126049000D01*
X148683667Y-126049000D01*
X148867396Y-126085546D01*
X148867396Y-126085546D01*
G37*
G36*
X147001000Y-127951000D02*
X145099000Y-127951000D01*
X145099000Y-126049000D01*
X147001000Y-126049000D01*
X147001000Y-127951000D01*
X147001000Y-127951000D01*
G37*
G36*
X136000443Y-126105519D02*
X136066627Y-126112037D01*
X136179853Y-126146384D01*
X136236467Y-126163557D01*
X136375087Y-126237652D01*
X136392991Y-126247222D01*
X136415053Y-126265328D01*
X136530186Y-126359814D01*
X136613448Y-126461271D01*
X136642778Y-126497009D01*
X136642779Y-126497011D01*
X136726443Y-126653533D01*
X136726443Y-126653534D01*
X136777963Y-126823373D01*
X136795359Y-127000000D01*
X136777963Y-127176627D01*
X136757947Y-127242611D01*
X136726443Y-127346467D01*
X136670853Y-127450467D01*
X136642778Y-127502991D01*
X136613448Y-127538729D01*
X136530186Y-127640186D01*
X136428729Y-127723448D01*
X136392991Y-127752778D01*
X136392989Y-127752779D01*
X136236467Y-127836443D01*
X136215622Y-127842766D01*
X136066627Y-127887963D01*
X136000442Y-127894482D01*
X135934260Y-127901000D01*
X135845740Y-127901000D01*
X135779558Y-127894482D01*
X135713373Y-127887963D01*
X135564378Y-127842766D01*
X135543533Y-127836443D01*
X135387011Y-127752779D01*
X135387009Y-127752778D01*
X135351271Y-127723448D01*
X135249814Y-127640186D01*
X135166552Y-127538729D01*
X135137222Y-127502991D01*
X135109147Y-127450467D01*
X135053557Y-127346467D01*
X135022053Y-127242611D01*
X135002037Y-127176627D01*
X134984641Y-127000000D01*
X135002037Y-126823373D01*
X135053557Y-126653534D01*
X135053557Y-126653533D01*
X135137221Y-126497011D01*
X135137222Y-126497009D01*
X135166552Y-126461271D01*
X135249814Y-126359814D01*
X135364947Y-126265328D01*
X135387009Y-126247222D01*
X135404913Y-126237652D01*
X135543533Y-126163557D01*
X135600147Y-126146384D01*
X135713373Y-126112037D01*
X135779557Y-126105519D01*
X135845740Y-126099000D01*
X135934260Y-126099000D01*
X136000443Y-126105519D01*
X136000443Y-126105519D01*
G37*
G36*
X133460443Y-126105519D02*
X133526627Y-126112037D01*
X133639853Y-126146384D01*
X133696467Y-126163557D01*
X133835087Y-126237652D01*
X133852991Y-126247222D01*
X133875053Y-126265328D01*
X133990186Y-126359814D01*
X134073448Y-126461271D01*
X134102778Y-126497009D01*
X134102779Y-126497011D01*
X134186443Y-126653533D01*
X134186443Y-126653534D01*
X134237963Y-126823373D01*
X134255359Y-127000000D01*
X134237963Y-127176627D01*
X134217947Y-127242611D01*
X134186443Y-127346467D01*
X134130853Y-127450467D01*
X134102778Y-127502991D01*
X134073448Y-127538729D01*
X133990186Y-127640186D01*
X133888729Y-127723448D01*
X133852991Y-127752778D01*
X133852989Y-127752779D01*
X133696467Y-127836443D01*
X133675622Y-127842766D01*
X133526627Y-127887963D01*
X133460442Y-127894482D01*
X133394260Y-127901000D01*
X133305740Y-127901000D01*
X133239558Y-127894482D01*
X133173373Y-127887963D01*
X133024378Y-127842766D01*
X133003533Y-127836443D01*
X132847011Y-127752779D01*
X132847009Y-127752778D01*
X132811271Y-127723448D01*
X132709814Y-127640186D01*
X132626552Y-127538729D01*
X132597222Y-127502991D01*
X132569147Y-127450467D01*
X132513557Y-127346467D01*
X132482053Y-127242611D01*
X132462037Y-127176627D01*
X132444641Y-127000000D01*
X132462037Y-126823373D01*
X132513557Y-126653534D01*
X132513557Y-126653533D01*
X132597221Y-126497011D01*
X132597222Y-126497009D01*
X132626552Y-126461271D01*
X132709814Y-126359814D01*
X132824947Y-126265328D01*
X132847009Y-126247222D01*
X132864913Y-126237652D01*
X133003533Y-126163557D01*
X133060147Y-126146384D01*
X133173373Y-126112037D01*
X133239557Y-126105519D01*
X133305740Y-126099000D01*
X133394260Y-126099000D01*
X133460443Y-126105519D01*
X133460443Y-126105519D01*
G37*
G36*
X129171000Y-127901000D02*
X127369000Y-127901000D01*
X127369000Y-126099000D01*
X129171000Y-126099000D01*
X129171000Y-127901000D01*
X129171000Y-127901000D01*
G37*
G36*
X130920443Y-126105519D02*
X130986627Y-126112037D01*
X131099853Y-126146384D01*
X131156467Y-126163557D01*
X131295087Y-126237652D01*
X131312991Y-126247222D01*
X131335053Y-126265328D01*
X131450186Y-126359814D01*
X131533448Y-126461271D01*
X131562778Y-126497009D01*
X131562779Y-126497011D01*
X131646443Y-126653533D01*
X131646443Y-126653534D01*
X131697963Y-126823373D01*
X131715359Y-127000000D01*
X131697963Y-127176627D01*
X131677947Y-127242611D01*
X131646443Y-127346467D01*
X131590853Y-127450467D01*
X131562778Y-127502991D01*
X131533448Y-127538729D01*
X131450186Y-127640186D01*
X131348729Y-127723448D01*
X131312991Y-127752778D01*
X131312989Y-127752779D01*
X131156467Y-127836443D01*
X131135622Y-127842766D01*
X130986627Y-127887963D01*
X130920442Y-127894482D01*
X130854260Y-127901000D01*
X130765740Y-127901000D01*
X130699558Y-127894482D01*
X130633373Y-127887963D01*
X130484378Y-127842766D01*
X130463533Y-127836443D01*
X130307011Y-127752779D01*
X130307009Y-127752778D01*
X130271271Y-127723448D01*
X130169814Y-127640186D01*
X130086552Y-127538729D01*
X130057222Y-127502991D01*
X130029147Y-127450467D01*
X129973557Y-127346467D01*
X129942053Y-127242611D01*
X129922037Y-127176627D01*
X129904641Y-127000000D01*
X129922037Y-126823373D01*
X129973557Y-126653534D01*
X129973557Y-126653533D01*
X130057221Y-126497011D01*
X130057222Y-126497009D01*
X130086552Y-126461271D01*
X130169814Y-126359814D01*
X130284947Y-126265328D01*
X130307009Y-126247222D01*
X130324913Y-126237652D01*
X130463533Y-126163557D01*
X130520147Y-126146384D01*
X130633373Y-126112037D01*
X130699557Y-126105519D01*
X130765740Y-126099000D01*
X130854260Y-126099000D01*
X130920443Y-126105519D01*
X130920443Y-126105519D01*
G37*
G36*
X138540443Y-126105519D02*
X138606627Y-126112037D01*
X138719853Y-126146384D01*
X138776467Y-126163557D01*
X138915087Y-126237652D01*
X138932991Y-126247222D01*
X138955053Y-126265328D01*
X139070186Y-126359814D01*
X139153448Y-126461271D01*
X139182778Y-126497009D01*
X139182779Y-126497011D01*
X139266443Y-126653533D01*
X139266443Y-126653534D01*
X139317963Y-126823373D01*
X139335359Y-127000000D01*
X139317963Y-127176627D01*
X139297947Y-127242611D01*
X139266443Y-127346467D01*
X139210853Y-127450467D01*
X139182778Y-127502991D01*
X139153448Y-127538729D01*
X139070186Y-127640186D01*
X138968729Y-127723448D01*
X138932991Y-127752778D01*
X138932989Y-127752779D01*
X138776467Y-127836443D01*
X138755622Y-127842766D01*
X138606627Y-127887963D01*
X138540442Y-127894482D01*
X138474260Y-127901000D01*
X138385740Y-127901000D01*
X138319558Y-127894482D01*
X138253373Y-127887963D01*
X138104378Y-127842766D01*
X138083533Y-127836443D01*
X137927011Y-127752779D01*
X137927009Y-127752778D01*
X137891271Y-127723448D01*
X137789814Y-127640186D01*
X137706552Y-127538729D01*
X137677222Y-127502991D01*
X137649147Y-127450467D01*
X137593557Y-127346467D01*
X137562053Y-127242611D01*
X137542037Y-127176627D01*
X137524641Y-127000000D01*
X137542037Y-126823373D01*
X137593557Y-126653534D01*
X137593557Y-126653533D01*
X137677221Y-126497011D01*
X137677222Y-126497009D01*
X137706552Y-126461271D01*
X137789814Y-126359814D01*
X137904947Y-126265328D01*
X137927009Y-126247222D01*
X137944913Y-126237652D01*
X138083533Y-126163557D01*
X138140147Y-126146384D01*
X138253373Y-126112037D01*
X138319557Y-126105519D01*
X138385740Y-126099000D01*
X138474260Y-126099000D01*
X138540443Y-126105519D01*
X138540443Y-126105519D01*
G37*
G36*
X128380442Y-123565518D02*
X128446627Y-123572037D01*
X128559853Y-123606384D01*
X128616467Y-123623557D01*
X128755087Y-123697652D01*
X128772991Y-123707222D01*
X128808729Y-123736552D01*
X128910186Y-123819814D01*
X128993448Y-123921271D01*
X129022778Y-123957009D01*
X129022779Y-123957011D01*
X129106443Y-124113533D01*
X129106443Y-124113534D01*
X129157963Y-124283373D01*
X129175359Y-124460000D01*
X129157963Y-124636627D01*
X129123616Y-124749853D01*
X129106443Y-124806467D01*
X129032348Y-124945087D01*
X129022778Y-124962991D01*
X128993448Y-124998729D01*
X128910186Y-125100186D01*
X128808729Y-125183448D01*
X128772991Y-125212778D01*
X128772989Y-125212779D01*
X128616467Y-125296443D01*
X128559853Y-125313616D01*
X128446627Y-125347963D01*
X128380442Y-125354482D01*
X128314260Y-125361000D01*
X128225740Y-125361000D01*
X128159558Y-125354482D01*
X128093373Y-125347963D01*
X127980147Y-125313616D01*
X127923533Y-125296443D01*
X127767011Y-125212779D01*
X127767009Y-125212778D01*
X127731271Y-125183448D01*
X127629814Y-125100186D01*
X127546552Y-124998729D01*
X127517222Y-124962991D01*
X127507652Y-124945087D01*
X127433557Y-124806467D01*
X127416384Y-124749853D01*
X127382037Y-124636627D01*
X127364641Y-124460000D01*
X127382037Y-124283373D01*
X127433557Y-124113534D01*
X127433557Y-124113533D01*
X127517221Y-123957011D01*
X127517222Y-123957009D01*
X127546552Y-123921271D01*
X127629814Y-123819814D01*
X127731271Y-123736552D01*
X127767009Y-123707222D01*
X127784913Y-123697652D01*
X127923533Y-123623557D01*
X127980147Y-123606384D01*
X128093373Y-123572037D01*
X128159558Y-123565518D01*
X128225740Y-123559000D01*
X128314260Y-123559000D01*
X128380442Y-123565518D01*
X128380442Y-123565518D01*
G37*
G36*
X133460442Y-123565518D02*
X133526627Y-123572037D01*
X133639853Y-123606384D01*
X133696467Y-123623557D01*
X133835087Y-123697652D01*
X133852991Y-123707222D01*
X133888729Y-123736552D01*
X133990186Y-123819814D01*
X134073448Y-123921271D01*
X134102778Y-123957009D01*
X134102779Y-123957011D01*
X134186443Y-124113533D01*
X134186443Y-124113534D01*
X134237963Y-124283373D01*
X134255359Y-124460000D01*
X134237963Y-124636627D01*
X134203616Y-124749853D01*
X134186443Y-124806467D01*
X134112348Y-124945087D01*
X134102778Y-124962991D01*
X134073448Y-124998729D01*
X133990186Y-125100186D01*
X133888729Y-125183448D01*
X133852991Y-125212778D01*
X133852989Y-125212779D01*
X133696467Y-125296443D01*
X133639853Y-125313616D01*
X133526627Y-125347963D01*
X133460442Y-125354482D01*
X133394260Y-125361000D01*
X133305740Y-125361000D01*
X133239558Y-125354482D01*
X133173373Y-125347963D01*
X133060147Y-125313616D01*
X133003533Y-125296443D01*
X132847011Y-125212779D01*
X132847009Y-125212778D01*
X132811271Y-125183448D01*
X132709814Y-125100186D01*
X132626552Y-124998729D01*
X132597222Y-124962991D01*
X132587652Y-124945087D01*
X132513557Y-124806467D01*
X132496384Y-124749853D01*
X132462037Y-124636627D01*
X132444641Y-124460000D01*
X132462037Y-124283373D01*
X132513557Y-124113534D01*
X132513557Y-124113533D01*
X132597221Y-123957011D01*
X132597222Y-123957009D01*
X132626552Y-123921271D01*
X132709814Y-123819814D01*
X132811271Y-123736552D01*
X132847009Y-123707222D01*
X132864913Y-123697652D01*
X133003533Y-123623557D01*
X133060147Y-123606384D01*
X133173373Y-123572037D01*
X133239558Y-123565518D01*
X133305740Y-123559000D01*
X133394260Y-123559000D01*
X133460442Y-123565518D01*
X133460442Y-123565518D01*
G37*
G36*
X130920442Y-123565518D02*
X130986627Y-123572037D01*
X131099853Y-123606384D01*
X131156467Y-123623557D01*
X131295087Y-123697652D01*
X131312991Y-123707222D01*
X131348729Y-123736552D01*
X131450186Y-123819814D01*
X131533448Y-123921271D01*
X131562778Y-123957009D01*
X131562779Y-123957011D01*
X131646443Y-124113533D01*
X131646443Y-124113534D01*
X131697963Y-124283373D01*
X131715359Y-124460000D01*
X131697963Y-124636627D01*
X131663616Y-124749853D01*
X131646443Y-124806467D01*
X131572348Y-124945087D01*
X131562778Y-124962991D01*
X131533448Y-124998729D01*
X131450186Y-125100186D01*
X131348729Y-125183448D01*
X131312991Y-125212778D01*
X131312989Y-125212779D01*
X131156467Y-125296443D01*
X131099853Y-125313616D01*
X130986627Y-125347963D01*
X130920442Y-125354482D01*
X130854260Y-125361000D01*
X130765740Y-125361000D01*
X130699558Y-125354482D01*
X130633373Y-125347963D01*
X130520147Y-125313616D01*
X130463533Y-125296443D01*
X130307011Y-125212779D01*
X130307009Y-125212778D01*
X130271271Y-125183448D01*
X130169814Y-125100186D01*
X130086552Y-124998729D01*
X130057222Y-124962991D01*
X130047652Y-124945087D01*
X129973557Y-124806467D01*
X129956384Y-124749853D01*
X129922037Y-124636627D01*
X129904641Y-124460000D01*
X129922037Y-124283373D01*
X129973557Y-124113534D01*
X129973557Y-124113533D01*
X130057221Y-123957011D01*
X130057222Y-123957009D01*
X130086552Y-123921271D01*
X130169814Y-123819814D01*
X130271271Y-123736552D01*
X130307009Y-123707222D01*
X130324913Y-123697652D01*
X130463533Y-123623557D01*
X130520147Y-123606384D01*
X130633373Y-123572037D01*
X130699558Y-123565518D01*
X130765740Y-123559000D01*
X130854260Y-123559000D01*
X130920442Y-123565518D01*
X130920442Y-123565518D01*
G37*
G36*
X138540442Y-123565518D02*
X138606627Y-123572037D01*
X138719853Y-123606384D01*
X138776467Y-123623557D01*
X138915087Y-123697652D01*
X138932991Y-123707222D01*
X138968729Y-123736552D01*
X139070186Y-123819814D01*
X139153448Y-123921271D01*
X139182778Y-123957009D01*
X139182779Y-123957011D01*
X139266443Y-124113533D01*
X139266443Y-124113534D01*
X139317963Y-124283373D01*
X139335359Y-124460000D01*
X139317963Y-124636627D01*
X139283616Y-124749853D01*
X139266443Y-124806467D01*
X139192348Y-124945087D01*
X139182778Y-124962991D01*
X139153448Y-124998729D01*
X139070186Y-125100186D01*
X138968729Y-125183448D01*
X138932991Y-125212778D01*
X138932989Y-125212779D01*
X138776467Y-125296443D01*
X138719853Y-125313616D01*
X138606627Y-125347963D01*
X138540442Y-125354482D01*
X138474260Y-125361000D01*
X138385740Y-125361000D01*
X138319558Y-125354482D01*
X138253373Y-125347963D01*
X138140147Y-125313616D01*
X138083533Y-125296443D01*
X137927011Y-125212779D01*
X137927009Y-125212778D01*
X137891271Y-125183448D01*
X137789814Y-125100186D01*
X137706552Y-124998729D01*
X137677222Y-124962991D01*
X137667652Y-124945087D01*
X137593557Y-124806467D01*
X137576384Y-124749853D01*
X137542037Y-124636627D01*
X137524641Y-124460000D01*
X137542037Y-124283373D01*
X137593557Y-124113534D01*
X137593557Y-124113533D01*
X137677221Y-123957011D01*
X137677222Y-123957009D01*
X137706552Y-123921271D01*
X137789814Y-123819814D01*
X137891271Y-123736552D01*
X137927009Y-123707222D01*
X137944913Y-123697652D01*
X138083533Y-123623557D01*
X138140147Y-123606384D01*
X138253373Y-123572037D01*
X138319558Y-123565518D01*
X138385740Y-123559000D01*
X138474260Y-123559000D01*
X138540442Y-123565518D01*
X138540442Y-123565518D01*
G37*
G36*
X136000442Y-123565518D02*
X136066627Y-123572037D01*
X136179853Y-123606384D01*
X136236467Y-123623557D01*
X136375087Y-123697652D01*
X136392991Y-123707222D01*
X136428729Y-123736552D01*
X136530186Y-123819814D01*
X136613448Y-123921271D01*
X136642778Y-123957009D01*
X136642779Y-123957011D01*
X136726443Y-124113533D01*
X136726443Y-124113534D01*
X136777963Y-124283373D01*
X136795359Y-124460000D01*
X136777963Y-124636627D01*
X136743616Y-124749853D01*
X136726443Y-124806467D01*
X136652348Y-124945087D01*
X136642778Y-124962991D01*
X136613448Y-124998729D01*
X136530186Y-125100186D01*
X136428729Y-125183448D01*
X136392991Y-125212778D01*
X136392989Y-125212779D01*
X136236467Y-125296443D01*
X136179853Y-125313616D01*
X136066627Y-125347963D01*
X136000442Y-125354482D01*
X135934260Y-125361000D01*
X135845740Y-125361000D01*
X135779558Y-125354482D01*
X135713373Y-125347963D01*
X135600147Y-125313616D01*
X135543533Y-125296443D01*
X135387011Y-125212779D01*
X135387009Y-125212778D01*
X135351271Y-125183448D01*
X135249814Y-125100186D01*
X135166552Y-124998729D01*
X135137222Y-124962991D01*
X135127652Y-124945087D01*
X135053557Y-124806467D01*
X135036384Y-124749853D01*
X135002037Y-124636627D01*
X134984641Y-124460000D01*
X135002037Y-124283373D01*
X135053557Y-124113534D01*
X135053557Y-124113533D01*
X135137221Y-123957011D01*
X135137222Y-123957009D01*
X135166552Y-123921271D01*
X135249814Y-123819814D01*
X135351271Y-123736552D01*
X135387009Y-123707222D01*
X135404913Y-123697652D01*
X135543533Y-123623557D01*
X135600147Y-123606384D01*
X135713373Y-123572037D01*
X135779558Y-123565518D01*
X135845740Y-123559000D01*
X135934260Y-123559000D01*
X136000442Y-123565518D01*
X136000442Y-123565518D01*
G37*
G36*
X147001000Y-122871000D02*
X145099000Y-122871000D01*
X145099000Y-120969000D01*
X147001000Y-120969000D01*
X147001000Y-122871000D01*
X147001000Y-122871000D01*
G37*
G36*
X148867396Y-121005546D02*
X149040466Y-121077234D01*
X149196230Y-121181312D01*
X149328688Y-121313770D01*
X149432766Y-121469534D01*
X149504454Y-121642604D01*
X149541000Y-121826333D01*
X149541000Y-122013667D01*
X149504454Y-122197396D01*
X149432766Y-122370466D01*
X149328688Y-122526230D01*
X149196230Y-122658688D01*
X149040466Y-122762766D01*
X148867396Y-122834454D01*
X148683667Y-122871000D01*
X148496333Y-122871000D01*
X148312604Y-122834454D01*
X148139534Y-122762766D01*
X147983770Y-122658688D01*
X147851312Y-122526230D01*
X147747234Y-122370466D01*
X147675546Y-122197396D01*
X147639000Y-122013667D01*
X147639000Y-121826333D01*
X147675546Y-121642604D01*
X147747234Y-121469534D01*
X147851312Y-121313770D01*
X147983770Y-121181312D01*
X148139534Y-121077234D01*
X148312604Y-121005546D01*
X148496333Y-120969000D01*
X148683667Y-120969000D01*
X148867396Y-121005546D01*
X148867396Y-121005546D01*
G37*
G36*
X174156820Y-116871313D02*
X174156823Y-116871314D01*
X174156824Y-116871314D01*
X174317238Y-116919975D01*
X174317240Y-116919976D01*
X174317243Y-116919977D01*
X174465078Y-116998995D01*
X174594659Y-117105341D01*
X174701005Y-117234922D01*
X174780023Y-117382756D01*
X174828687Y-117543179D01*
X174841000Y-117668196D01*
X174841000Y-118551803D01*
X174828687Y-118676820D01*
X174828686Y-118676822D01*
X174828686Y-118676825D01*
X174827802Y-118679738D01*
X174780023Y-118837244D01*
X174701005Y-118985078D01*
X174594659Y-119114659D01*
X174465078Y-119221005D01*
X174317244Y-119300023D01*
X174317241Y-119300024D01*
X174317239Y-119300025D01*
X174156825Y-119348686D01*
X174156824Y-119348686D01*
X174156821Y-119348687D01*
X173990000Y-119365117D01*
X173823180Y-119348687D01*
X173823177Y-119348686D01*
X173823176Y-119348686D01*
X173662762Y-119300025D01*
X173662760Y-119300024D01*
X173662757Y-119300023D01*
X173514923Y-119221005D01*
X173385342Y-119114659D01*
X173278996Y-118985078D01*
X173199978Y-118837244D01*
X173151314Y-118676821D01*
X173139000Y-118551803D01*
X173139000Y-117668197D01*
X173151313Y-117543180D01*
X173151314Y-117543176D01*
X173199975Y-117382762D01*
X173199976Y-117382760D01*
X173199977Y-117382757D01*
X173278995Y-117234922D01*
X173385341Y-117105341D01*
X173514922Y-116998995D01*
X173662756Y-116919977D01*
X173662759Y-116919976D01*
X173662761Y-116919975D01*
X173823175Y-116871314D01*
X173823176Y-116871314D01*
X173823179Y-116871313D01*
X173990000Y-116854883D01*
X174156820Y-116871313D01*
X174156820Y-116871313D01*
G37*
G36*
X171616820Y-116871313D02*
X171616823Y-116871314D01*
X171616824Y-116871314D01*
X171777238Y-116919975D01*
X171777240Y-116919976D01*
X171777243Y-116919977D01*
X171925078Y-116998995D01*
X172054659Y-117105341D01*
X172161005Y-117234922D01*
X172240023Y-117382756D01*
X172288687Y-117543179D01*
X172301000Y-117668196D01*
X172301000Y-118551803D01*
X172288687Y-118676820D01*
X172288686Y-118676822D01*
X172288686Y-118676825D01*
X172287802Y-118679738D01*
X172240023Y-118837244D01*
X172161005Y-118985078D01*
X172054659Y-119114659D01*
X171925078Y-119221005D01*
X171777244Y-119300023D01*
X171777241Y-119300024D01*
X171777239Y-119300025D01*
X171616825Y-119348686D01*
X171616824Y-119348686D01*
X171616821Y-119348687D01*
X171450000Y-119365117D01*
X171283180Y-119348687D01*
X171283177Y-119348686D01*
X171283176Y-119348686D01*
X171122762Y-119300025D01*
X171122760Y-119300024D01*
X171122757Y-119300023D01*
X170974923Y-119221005D01*
X170845342Y-119114659D01*
X170738996Y-118985078D01*
X170659978Y-118837244D01*
X170611314Y-118676821D01*
X170599000Y-118551803D01*
X170599000Y-117668197D01*
X170611313Y-117543180D01*
X170611314Y-117543176D01*
X170659975Y-117382762D01*
X170659976Y-117382760D01*
X170659977Y-117382757D01*
X170738995Y-117234922D01*
X170845341Y-117105341D01*
X170974922Y-116998995D01*
X171122756Y-116919977D01*
X171122759Y-116919976D01*
X171122761Y-116919975D01*
X171283175Y-116871314D01*
X171283176Y-116871314D01*
X171283179Y-116871313D01*
X171450000Y-116854883D01*
X171616820Y-116871313D01*
X171616820Y-116871313D01*
G37*
G36*
X169076820Y-116871313D02*
X169076823Y-116871314D01*
X169076824Y-116871314D01*
X169237238Y-116919975D01*
X169237240Y-116919976D01*
X169237243Y-116919977D01*
X169385078Y-116998995D01*
X169514659Y-117105341D01*
X169621005Y-117234922D01*
X169700023Y-117382756D01*
X169748687Y-117543179D01*
X169761000Y-117668196D01*
X169761000Y-118551803D01*
X169748687Y-118676820D01*
X169748686Y-118676822D01*
X169748686Y-118676825D01*
X169747802Y-118679738D01*
X169700023Y-118837244D01*
X169621005Y-118985078D01*
X169514659Y-119114659D01*
X169385078Y-119221005D01*
X169237244Y-119300023D01*
X169237241Y-119300024D01*
X169237239Y-119300025D01*
X169076825Y-119348686D01*
X169076824Y-119348686D01*
X169076821Y-119348687D01*
X168910000Y-119365117D01*
X168743180Y-119348687D01*
X168743177Y-119348686D01*
X168743176Y-119348686D01*
X168582762Y-119300025D01*
X168582760Y-119300024D01*
X168582757Y-119300023D01*
X168434923Y-119221005D01*
X168305342Y-119114659D01*
X168198996Y-118985078D01*
X168119978Y-118837244D01*
X168071314Y-118676821D01*
X168059000Y-118551803D01*
X168059000Y-117668197D01*
X168071313Y-117543180D01*
X168071314Y-117543176D01*
X168119975Y-117382762D01*
X168119976Y-117382760D01*
X168119977Y-117382757D01*
X168198995Y-117234922D01*
X168305341Y-117105341D01*
X168434922Y-116998995D01*
X168582756Y-116919977D01*
X168582759Y-116919976D01*
X168582761Y-116919975D01*
X168743175Y-116871314D01*
X168743176Y-116871314D01*
X168743179Y-116871313D01*
X168910000Y-116854883D01*
X169076820Y-116871313D01*
X169076820Y-116871313D01*
G37*
G36*
X166536820Y-116871313D02*
X166536823Y-116871314D01*
X166536824Y-116871314D01*
X166697238Y-116919975D01*
X166697240Y-116919976D01*
X166697243Y-116919977D01*
X166845078Y-116998995D01*
X166974659Y-117105341D01*
X167081005Y-117234922D01*
X167160023Y-117382756D01*
X167208687Y-117543179D01*
X167221000Y-117668196D01*
X167221000Y-118551803D01*
X167208687Y-118676820D01*
X167208686Y-118676822D01*
X167208686Y-118676825D01*
X167207802Y-118679738D01*
X167160023Y-118837244D01*
X167081005Y-118985078D01*
X166974659Y-119114659D01*
X166845078Y-119221005D01*
X166697244Y-119300023D01*
X166697241Y-119300024D01*
X166697239Y-119300025D01*
X166536825Y-119348686D01*
X166536824Y-119348686D01*
X166536821Y-119348687D01*
X166370000Y-119365117D01*
X166203180Y-119348687D01*
X166203177Y-119348686D01*
X166203176Y-119348686D01*
X166042762Y-119300025D01*
X166042760Y-119300024D01*
X166042757Y-119300023D01*
X165894923Y-119221005D01*
X165765342Y-119114659D01*
X165658996Y-118985078D01*
X165579978Y-118837244D01*
X165531314Y-118676821D01*
X165519000Y-118551803D01*
X165519000Y-117668197D01*
X165531313Y-117543180D01*
X165531314Y-117543176D01*
X165579975Y-117382762D01*
X165579976Y-117382760D01*
X165579977Y-117382757D01*
X165658995Y-117234922D01*
X165765341Y-117105341D01*
X165894922Y-116998995D01*
X166042756Y-116919977D01*
X166042759Y-116919976D01*
X166042761Y-116919975D01*
X166203175Y-116871314D01*
X166203176Y-116871314D01*
X166203179Y-116871313D01*
X166370000Y-116854883D01*
X166536820Y-116871313D01*
X166536820Y-116871313D01*
G37*
G36*
X163996820Y-116871313D02*
X163996823Y-116871314D01*
X163996824Y-116871314D01*
X164157238Y-116919975D01*
X164157240Y-116919976D01*
X164157243Y-116919977D01*
X164305078Y-116998995D01*
X164434659Y-117105341D01*
X164541005Y-117234922D01*
X164620023Y-117382756D01*
X164668687Y-117543179D01*
X164681000Y-117668196D01*
X164681000Y-118551803D01*
X164668687Y-118676820D01*
X164668686Y-118676822D01*
X164668686Y-118676825D01*
X164667802Y-118679738D01*
X164620023Y-118837244D01*
X164541005Y-118985078D01*
X164434659Y-119114659D01*
X164305078Y-119221005D01*
X164157244Y-119300023D01*
X164157241Y-119300024D01*
X164157239Y-119300025D01*
X163996825Y-119348686D01*
X163996824Y-119348686D01*
X163996821Y-119348687D01*
X163830000Y-119365117D01*
X163663180Y-119348687D01*
X163663177Y-119348686D01*
X163663176Y-119348686D01*
X163502762Y-119300025D01*
X163502760Y-119300024D01*
X163502757Y-119300023D01*
X163354923Y-119221005D01*
X163225342Y-119114659D01*
X163118996Y-118985078D01*
X163039978Y-118837244D01*
X162991314Y-118676821D01*
X162979000Y-118551803D01*
X162979000Y-117668197D01*
X162991313Y-117543180D01*
X162991314Y-117543176D01*
X163039975Y-117382762D01*
X163039976Y-117382760D01*
X163039977Y-117382757D01*
X163118995Y-117234922D01*
X163225341Y-117105341D01*
X163354922Y-116998995D01*
X163502756Y-116919977D01*
X163502759Y-116919976D01*
X163502761Y-116919975D01*
X163663175Y-116871314D01*
X163663176Y-116871314D01*
X163663179Y-116871313D01*
X163830000Y-116854883D01*
X163996820Y-116871313D01*
X163996820Y-116871313D01*
G37*
G36*
X162141000Y-119361000D02*
X160439000Y-119361000D01*
X160439000Y-116859000D01*
X162141000Y-116859000D01*
X162141000Y-119361000D01*
X162141000Y-119361000D01*
G37*
G36*
X189582527Y-115963736D02*
X189682410Y-115983604D01*
X189964674Y-116100521D01*
X190218705Y-116270259D01*
X190434741Y-116486295D01*
X190604479Y-116740326D01*
X190711623Y-116998996D01*
X190721396Y-117022591D01*
X190763632Y-117234922D01*
X190781000Y-117322240D01*
X190781000Y-117627760D01*
X190721396Y-117927410D01*
X190604479Y-118209674D01*
X190434741Y-118463705D01*
X190218705Y-118679741D01*
X189964674Y-118849479D01*
X189682410Y-118966396D01*
X189588489Y-118985078D01*
X189382762Y-119026000D01*
X189077238Y-119026000D01*
X188871511Y-118985078D01*
X188777590Y-118966396D01*
X188495326Y-118849479D01*
X188241295Y-118679741D01*
X188025259Y-118463705D01*
X187855521Y-118209674D01*
X187738604Y-117927410D01*
X187679000Y-117627760D01*
X187679000Y-117322240D01*
X187696369Y-117234922D01*
X187738604Y-117022591D01*
X187748377Y-116998996D01*
X187855521Y-116740326D01*
X188025259Y-116486295D01*
X188241295Y-116270259D01*
X188495326Y-116100521D01*
X188777590Y-115983604D01*
X188877473Y-115963736D01*
X189077238Y-115924000D01*
X189382762Y-115924000D01*
X189582527Y-115963736D01*
X189582527Y-115963736D01*
G37*
G36*
X155206000Y-115836000D02*
X153404000Y-115836000D01*
X153404000Y-114034000D01*
X155206000Y-114034000D01*
X155206000Y-115836000D01*
X155206000Y-115836000D01*
G37*
G36*
X151875442Y-114040518D02*
X151941627Y-114047037D01*
X152054853Y-114081384D01*
X152111467Y-114098557D01*
X152250087Y-114172652D01*
X152267991Y-114182222D01*
X152303729Y-114211552D01*
X152405186Y-114294814D01*
X152488448Y-114396271D01*
X152517778Y-114432009D01*
X152517779Y-114432011D01*
X152601443Y-114588533D01*
X152601443Y-114588534D01*
X152652963Y-114758373D01*
X152670359Y-114935000D01*
X152652963Y-115111627D01*
X152618616Y-115224853D01*
X152601443Y-115281467D01*
X152527348Y-115420087D01*
X152517778Y-115437991D01*
X152488448Y-115473729D01*
X152405186Y-115575186D01*
X152303729Y-115658448D01*
X152267991Y-115687778D01*
X152267989Y-115687779D01*
X152111467Y-115771443D01*
X152054853Y-115788616D01*
X151941627Y-115822963D01*
X151875443Y-115829481D01*
X151809260Y-115836000D01*
X151720740Y-115836000D01*
X151654557Y-115829481D01*
X151588373Y-115822963D01*
X151475147Y-115788616D01*
X151418533Y-115771443D01*
X151262011Y-115687779D01*
X151262009Y-115687778D01*
X151226271Y-115658448D01*
X151124814Y-115575186D01*
X151041552Y-115473729D01*
X151012222Y-115437991D01*
X151002652Y-115420087D01*
X150928557Y-115281467D01*
X150911384Y-115224853D01*
X150877037Y-115111627D01*
X150859641Y-114935000D01*
X150877037Y-114758373D01*
X150928557Y-114588534D01*
X150928557Y-114588533D01*
X151012221Y-114432011D01*
X151012222Y-114432009D01*
X151041552Y-114396271D01*
X151124814Y-114294814D01*
X151226271Y-114211552D01*
X151262009Y-114182222D01*
X151279913Y-114172652D01*
X151418533Y-114098557D01*
X151475147Y-114081384D01*
X151588373Y-114047037D01*
X151654558Y-114040518D01*
X151720740Y-114034000D01*
X151809260Y-114034000D01*
X151875442Y-114040518D01*
X151875442Y-114040518D01*
G37*
G36*
X190781000Y-113946000D02*
X187679000Y-113946000D01*
X187679000Y-110844000D01*
X190781000Y-110844000D01*
X190781000Y-113946000D01*
X190781000Y-113946000D01*
G37*
G36*
X154415443Y-111500519D02*
X154481627Y-111507037D01*
X154594853Y-111541384D01*
X154651467Y-111558557D01*
X154730880Y-111601005D01*
X154807991Y-111642222D01*
X154843729Y-111671552D01*
X154945186Y-111754814D01*
X155028448Y-111856271D01*
X155057778Y-111892009D01*
X155057779Y-111892011D01*
X155141443Y-112048533D01*
X155141443Y-112048534D01*
X155192963Y-112218373D01*
X155210359Y-112395000D01*
X155192963Y-112571627D01*
X155158616Y-112684853D01*
X155141443Y-112741467D01*
X155067348Y-112880087D01*
X155057778Y-112897991D01*
X155028448Y-112933729D01*
X154945186Y-113035186D01*
X154843729Y-113118448D01*
X154807991Y-113147778D01*
X154807989Y-113147779D01*
X154651467Y-113231443D01*
X154594853Y-113248616D01*
X154481627Y-113282963D01*
X154415443Y-113289481D01*
X154349260Y-113296000D01*
X154260740Y-113296000D01*
X154194557Y-113289481D01*
X154128373Y-113282963D01*
X154015147Y-113248616D01*
X153958533Y-113231443D01*
X153802011Y-113147779D01*
X153802009Y-113147778D01*
X153766271Y-113118448D01*
X153664814Y-113035186D01*
X153581552Y-112933729D01*
X153552222Y-112897991D01*
X153542652Y-112880087D01*
X153468557Y-112741467D01*
X153451384Y-112684853D01*
X153417037Y-112571627D01*
X153399641Y-112395000D01*
X153417037Y-112218373D01*
X153468557Y-112048534D01*
X153468557Y-112048533D01*
X153552221Y-111892011D01*
X153552222Y-111892009D01*
X153581552Y-111856271D01*
X153664814Y-111754814D01*
X153766271Y-111671552D01*
X153802009Y-111642222D01*
X153879120Y-111601005D01*
X153958533Y-111558557D01*
X154015147Y-111541384D01*
X154128373Y-111507037D01*
X154194557Y-111500519D01*
X154260740Y-111494000D01*
X154349260Y-111494000D01*
X154415443Y-111500519D01*
X154415443Y-111500519D01*
G37*
G36*
X151875443Y-111500519D02*
X151941627Y-111507037D01*
X152054853Y-111541384D01*
X152111467Y-111558557D01*
X152190880Y-111601005D01*
X152267991Y-111642222D01*
X152303729Y-111671552D01*
X152405186Y-111754814D01*
X152488448Y-111856271D01*
X152517778Y-111892009D01*
X152517779Y-111892011D01*
X152601443Y-112048533D01*
X152601443Y-112048534D01*
X152652963Y-112218373D01*
X152670359Y-112395000D01*
X152652963Y-112571627D01*
X152618616Y-112684853D01*
X152601443Y-112741467D01*
X152527348Y-112880087D01*
X152517778Y-112897991D01*
X152488448Y-112933729D01*
X152405186Y-113035186D01*
X152303729Y-113118448D01*
X152267991Y-113147778D01*
X152267989Y-113147779D01*
X152111467Y-113231443D01*
X152054853Y-113248616D01*
X151941627Y-113282963D01*
X151875443Y-113289481D01*
X151809260Y-113296000D01*
X151720740Y-113296000D01*
X151654557Y-113289481D01*
X151588373Y-113282963D01*
X151475147Y-113248616D01*
X151418533Y-113231443D01*
X151262011Y-113147779D01*
X151262009Y-113147778D01*
X151226271Y-113118448D01*
X151124814Y-113035186D01*
X151041552Y-112933729D01*
X151012222Y-112897991D01*
X151002652Y-112880087D01*
X150928557Y-112741467D01*
X150911384Y-112684853D01*
X150877037Y-112571627D01*
X150859641Y-112395000D01*
X150877037Y-112218373D01*
X150928557Y-112048534D01*
X150928557Y-112048533D01*
X151012221Y-111892011D01*
X151012222Y-111892009D01*
X151041552Y-111856271D01*
X151124814Y-111754814D01*
X151226271Y-111671552D01*
X151262009Y-111642222D01*
X151339120Y-111601005D01*
X151418533Y-111558557D01*
X151475147Y-111541384D01*
X151588373Y-111507037D01*
X151654557Y-111500519D01*
X151720740Y-111494000D01*
X151809260Y-111494000D01*
X151875443Y-111500519D01*
X151875443Y-111500519D01*
G37*
G36*
X169076820Y-109251313D02*
X169076823Y-109251314D01*
X169076824Y-109251314D01*
X169237238Y-109299975D01*
X169237240Y-109299976D01*
X169237243Y-109299977D01*
X169385078Y-109378995D01*
X169514659Y-109485341D01*
X169621005Y-109614922D01*
X169700023Y-109762756D01*
X169748687Y-109923179D01*
X169761000Y-110048196D01*
X169761000Y-110931803D01*
X169748687Y-111056820D01*
X169748686Y-111056822D01*
X169748686Y-111056825D01*
X169700025Y-111217239D01*
X169700023Y-111217244D01*
X169621005Y-111365078D01*
X169514659Y-111494659D01*
X169385078Y-111601005D01*
X169237244Y-111680023D01*
X169237241Y-111680024D01*
X169237239Y-111680025D01*
X169076825Y-111728686D01*
X169076824Y-111728686D01*
X169076821Y-111728687D01*
X168910000Y-111745117D01*
X168743180Y-111728687D01*
X168743177Y-111728686D01*
X168743176Y-111728686D01*
X168582762Y-111680025D01*
X168582760Y-111680024D01*
X168582757Y-111680023D01*
X168434923Y-111601005D01*
X168305342Y-111494659D01*
X168198996Y-111365078D01*
X168119978Y-111217244D01*
X168071314Y-111056821D01*
X168059000Y-110931803D01*
X168059000Y-110048197D01*
X168071313Y-109923180D01*
X168071314Y-109923176D01*
X168119975Y-109762762D01*
X168119976Y-109762760D01*
X168119977Y-109762757D01*
X168198995Y-109614922D01*
X168305341Y-109485341D01*
X168434922Y-109378995D01*
X168582756Y-109299977D01*
X168582759Y-109299976D01*
X168582761Y-109299975D01*
X168743175Y-109251314D01*
X168743176Y-109251314D01*
X168743179Y-109251313D01*
X168910000Y-109234883D01*
X169076820Y-109251313D01*
X169076820Y-109251313D01*
G37*
G36*
X166536820Y-109251313D02*
X166536823Y-109251314D01*
X166536824Y-109251314D01*
X166697238Y-109299975D01*
X166697240Y-109299976D01*
X166697243Y-109299977D01*
X166845078Y-109378995D01*
X166974659Y-109485341D01*
X167081005Y-109614922D01*
X167160023Y-109762756D01*
X167208687Y-109923179D01*
X167221000Y-110048196D01*
X167221000Y-110931803D01*
X167208687Y-111056820D01*
X167208686Y-111056822D01*
X167208686Y-111056825D01*
X167160025Y-111217239D01*
X167160023Y-111217244D01*
X167081005Y-111365078D01*
X166974659Y-111494659D01*
X166845078Y-111601005D01*
X166697244Y-111680023D01*
X166697241Y-111680024D01*
X166697239Y-111680025D01*
X166536825Y-111728686D01*
X166536824Y-111728686D01*
X166536821Y-111728687D01*
X166370000Y-111745117D01*
X166203180Y-111728687D01*
X166203177Y-111728686D01*
X166203176Y-111728686D01*
X166042762Y-111680025D01*
X166042760Y-111680024D01*
X166042757Y-111680023D01*
X165894923Y-111601005D01*
X165765342Y-111494659D01*
X165658996Y-111365078D01*
X165579978Y-111217244D01*
X165531314Y-111056821D01*
X165519000Y-110931803D01*
X165519000Y-110048197D01*
X165531313Y-109923180D01*
X165531314Y-109923176D01*
X165579975Y-109762762D01*
X165579976Y-109762760D01*
X165579977Y-109762757D01*
X165658995Y-109614922D01*
X165765341Y-109485341D01*
X165894922Y-109378995D01*
X166042756Y-109299977D01*
X166042759Y-109299976D01*
X166042761Y-109299975D01*
X166203175Y-109251314D01*
X166203176Y-109251314D01*
X166203179Y-109251313D01*
X166370000Y-109234883D01*
X166536820Y-109251313D01*
X166536820Y-109251313D01*
G37*
G36*
X163996820Y-109251313D02*
X163996823Y-109251314D01*
X163996824Y-109251314D01*
X164157238Y-109299975D01*
X164157240Y-109299976D01*
X164157243Y-109299977D01*
X164305078Y-109378995D01*
X164434659Y-109485341D01*
X164541005Y-109614922D01*
X164620023Y-109762756D01*
X164668687Y-109923179D01*
X164681000Y-110048196D01*
X164681000Y-110931803D01*
X164668687Y-111056820D01*
X164668686Y-111056822D01*
X164668686Y-111056825D01*
X164620025Y-111217239D01*
X164620023Y-111217244D01*
X164541005Y-111365078D01*
X164434659Y-111494659D01*
X164305078Y-111601005D01*
X164157244Y-111680023D01*
X164157241Y-111680024D01*
X164157239Y-111680025D01*
X163996825Y-111728686D01*
X163996824Y-111728686D01*
X163996821Y-111728687D01*
X163830000Y-111745117D01*
X163663180Y-111728687D01*
X163663177Y-111728686D01*
X163663176Y-111728686D01*
X163502762Y-111680025D01*
X163502760Y-111680024D01*
X163502757Y-111680023D01*
X163354923Y-111601005D01*
X163225342Y-111494659D01*
X163118996Y-111365078D01*
X163039978Y-111217244D01*
X162991314Y-111056821D01*
X162979000Y-110931803D01*
X162979000Y-110048197D01*
X162991313Y-109923180D01*
X162991314Y-109923176D01*
X163039975Y-109762762D01*
X163039976Y-109762760D01*
X163039977Y-109762757D01*
X163118995Y-109614922D01*
X163225341Y-109485341D01*
X163354922Y-109378995D01*
X163502756Y-109299977D01*
X163502759Y-109299976D01*
X163502761Y-109299975D01*
X163663175Y-109251314D01*
X163663176Y-109251314D01*
X163663179Y-109251313D01*
X163830000Y-109234883D01*
X163996820Y-109251313D01*
X163996820Y-109251313D01*
G37*
G36*
X161456820Y-109251313D02*
X161456823Y-109251314D01*
X161456824Y-109251314D01*
X161617238Y-109299975D01*
X161617240Y-109299976D01*
X161617243Y-109299977D01*
X161765078Y-109378995D01*
X161894659Y-109485341D01*
X162001005Y-109614922D01*
X162080023Y-109762756D01*
X162128687Y-109923179D01*
X162141000Y-110048196D01*
X162141000Y-110931803D01*
X162128687Y-111056820D01*
X162128686Y-111056822D01*
X162128686Y-111056825D01*
X162080025Y-111217239D01*
X162080023Y-111217244D01*
X162001005Y-111365078D01*
X161894659Y-111494659D01*
X161765078Y-111601005D01*
X161617244Y-111680023D01*
X161617241Y-111680024D01*
X161617239Y-111680025D01*
X161456825Y-111728686D01*
X161456824Y-111728686D01*
X161456821Y-111728687D01*
X161290000Y-111745117D01*
X161123180Y-111728687D01*
X161123177Y-111728686D01*
X161123176Y-111728686D01*
X160962762Y-111680025D01*
X160962760Y-111680024D01*
X160962757Y-111680023D01*
X160814923Y-111601005D01*
X160685342Y-111494659D01*
X160578996Y-111365078D01*
X160499978Y-111217244D01*
X160451314Y-111056821D01*
X160439000Y-110931803D01*
X160439000Y-110048197D01*
X160451313Y-109923180D01*
X160451314Y-109923176D01*
X160499975Y-109762762D01*
X160499976Y-109762760D01*
X160499977Y-109762757D01*
X160578995Y-109614922D01*
X160685341Y-109485341D01*
X160814922Y-109378995D01*
X160962756Y-109299977D01*
X160962759Y-109299976D01*
X160962761Y-109299975D01*
X161123175Y-109251314D01*
X161123176Y-109251314D01*
X161123179Y-109251313D01*
X161290000Y-109234883D01*
X161456820Y-109251313D01*
X161456820Y-109251313D01*
G37*
G36*
X174156820Y-109251313D02*
X174156823Y-109251314D01*
X174156824Y-109251314D01*
X174317238Y-109299975D01*
X174317240Y-109299976D01*
X174317243Y-109299977D01*
X174465078Y-109378995D01*
X174594659Y-109485341D01*
X174701005Y-109614922D01*
X174780023Y-109762756D01*
X174828687Y-109923179D01*
X174841000Y-110048196D01*
X174841000Y-110931803D01*
X174828687Y-111056820D01*
X174828686Y-111056822D01*
X174828686Y-111056825D01*
X174780025Y-111217239D01*
X174780023Y-111217244D01*
X174701005Y-111365078D01*
X174594659Y-111494659D01*
X174465078Y-111601005D01*
X174317244Y-111680023D01*
X174317241Y-111680024D01*
X174317239Y-111680025D01*
X174156825Y-111728686D01*
X174156824Y-111728686D01*
X174156821Y-111728687D01*
X173990000Y-111745117D01*
X173823180Y-111728687D01*
X173823177Y-111728686D01*
X173823176Y-111728686D01*
X173662762Y-111680025D01*
X173662760Y-111680024D01*
X173662757Y-111680023D01*
X173514923Y-111601005D01*
X173385342Y-111494659D01*
X173278996Y-111365078D01*
X173199978Y-111217244D01*
X173151314Y-111056821D01*
X173139000Y-110931803D01*
X173139000Y-110048197D01*
X173151313Y-109923180D01*
X173151314Y-109923176D01*
X173199975Y-109762762D01*
X173199976Y-109762760D01*
X173199977Y-109762757D01*
X173278995Y-109614922D01*
X173385341Y-109485341D01*
X173514922Y-109378995D01*
X173662756Y-109299977D01*
X173662759Y-109299976D01*
X173662761Y-109299975D01*
X173823175Y-109251314D01*
X173823176Y-109251314D01*
X173823179Y-109251313D01*
X173990000Y-109234883D01*
X174156820Y-109251313D01*
X174156820Y-109251313D01*
G37*
G36*
X171616820Y-109251313D02*
X171616823Y-109251314D01*
X171616824Y-109251314D01*
X171777238Y-109299975D01*
X171777240Y-109299976D01*
X171777243Y-109299977D01*
X171925078Y-109378995D01*
X172054659Y-109485341D01*
X172161005Y-109614922D01*
X172240023Y-109762756D01*
X172288687Y-109923179D01*
X172301000Y-110048196D01*
X172301000Y-110931803D01*
X172288687Y-111056820D01*
X172288686Y-111056822D01*
X172288686Y-111056825D01*
X172240025Y-111217239D01*
X172240023Y-111217244D01*
X172161005Y-111365078D01*
X172054659Y-111494659D01*
X171925078Y-111601005D01*
X171777244Y-111680023D01*
X171777241Y-111680024D01*
X171777239Y-111680025D01*
X171616825Y-111728686D01*
X171616824Y-111728686D01*
X171616821Y-111728687D01*
X171450000Y-111745117D01*
X171283180Y-111728687D01*
X171283177Y-111728686D01*
X171283176Y-111728686D01*
X171122762Y-111680025D01*
X171122760Y-111680024D01*
X171122757Y-111680023D01*
X170974923Y-111601005D01*
X170845342Y-111494659D01*
X170738996Y-111365078D01*
X170659978Y-111217244D01*
X170611314Y-111056821D01*
X170599000Y-110931803D01*
X170599000Y-110048197D01*
X170611313Y-109923180D01*
X170611314Y-109923176D01*
X170659975Y-109762762D01*
X170659976Y-109762760D01*
X170659977Y-109762757D01*
X170738995Y-109614922D01*
X170845341Y-109485341D01*
X170974922Y-109378995D01*
X171122756Y-109299977D01*
X171122759Y-109299976D01*
X171122761Y-109299975D01*
X171283175Y-109251314D01*
X171283176Y-109251314D01*
X171283179Y-109251313D01*
X171450000Y-109234883D01*
X171616820Y-109251313D01*
X171616820Y-109251313D01*
G37*
G36*
X151875443Y-108960519D02*
X151941627Y-108967037D01*
X152054853Y-109001384D01*
X152111467Y-109018557D01*
X152250087Y-109092652D01*
X152267991Y-109102222D01*
X152303729Y-109131552D01*
X152405186Y-109214814D01*
X152475076Y-109299977D01*
X152517778Y-109352009D01*
X152517779Y-109352011D01*
X152601443Y-109508533D01*
X152601443Y-109508534D01*
X152652963Y-109678373D01*
X152670359Y-109855000D01*
X152652963Y-110031627D01*
X152647935Y-110048201D01*
X152601443Y-110201467D01*
X152527348Y-110340087D01*
X152517778Y-110357991D01*
X152488448Y-110393729D01*
X152405186Y-110495186D01*
X152303729Y-110578448D01*
X152267991Y-110607778D01*
X152267989Y-110607779D01*
X152111467Y-110691443D01*
X152054853Y-110708616D01*
X151941627Y-110742963D01*
X151875442Y-110749482D01*
X151809260Y-110756000D01*
X151720740Y-110756000D01*
X151654558Y-110749482D01*
X151588373Y-110742963D01*
X151475147Y-110708616D01*
X151418533Y-110691443D01*
X151262011Y-110607779D01*
X151262009Y-110607778D01*
X151226271Y-110578448D01*
X151124814Y-110495186D01*
X151041552Y-110393729D01*
X151012222Y-110357991D01*
X151002652Y-110340087D01*
X150928557Y-110201467D01*
X150882065Y-110048201D01*
X150877037Y-110031627D01*
X150859641Y-109855000D01*
X150877037Y-109678373D01*
X150928557Y-109508534D01*
X150928557Y-109508533D01*
X151012221Y-109352011D01*
X151012222Y-109352009D01*
X151054924Y-109299977D01*
X151124814Y-109214814D01*
X151226271Y-109131552D01*
X151262009Y-109102222D01*
X151279913Y-109092652D01*
X151418533Y-109018557D01*
X151475147Y-109001384D01*
X151588373Y-108967037D01*
X151654557Y-108960519D01*
X151720740Y-108954000D01*
X151809260Y-108954000D01*
X151875443Y-108960519D01*
X151875443Y-108960519D01*
G37*
G36*
X154415443Y-108960519D02*
X154481627Y-108967037D01*
X154594853Y-109001384D01*
X154651467Y-109018557D01*
X154790087Y-109092652D01*
X154807991Y-109102222D01*
X154843729Y-109131552D01*
X154945186Y-109214814D01*
X155015076Y-109299977D01*
X155057778Y-109352009D01*
X155057779Y-109352011D01*
X155141443Y-109508533D01*
X155141443Y-109508534D01*
X155192963Y-109678373D01*
X155210359Y-109855000D01*
X155192963Y-110031627D01*
X155187935Y-110048201D01*
X155141443Y-110201467D01*
X155067348Y-110340087D01*
X155057778Y-110357991D01*
X155028448Y-110393729D01*
X154945186Y-110495186D01*
X154843729Y-110578448D01*
X154807991Y-110607778D01*
X154807989Y-110607779D01*
X154651467Y-110691443D01*
X154594853Y-110708616D01*
X154481627Y-110742963D01*
X154415442Y-110749482D01*
X154349260Y-110756000D01*
X154260740Y-110756000D01*
X154194558Y-110749482D01*
X154128373Y-110742963D01*
X154015147Y-110708616D01*
X153958533Y-110691443D01*
X153802011Y-110607779D01*
X153802009Y-110607778D01*
X153766271Y-110578448D01*
X153664814Y-110495186D01*
X153581552Y-110393729D01*
X153552222Y-110357991D01*
X153542652Y-110340087D01*
X153468557Y-110201467D01*
X153422065Y-110048201D01*
X153417037Y-110031627D01*
X153399641Y-109855000D01*
X153417037Y-109678373D01*
X153468557Y-109508534D01*
X153468557Y-109508533D01*
X153552221Y-109352011D01*
X153552222Y-109352009D01*
X153594924Y-109299977D01*
X153664814Y-109214814D01*
X153766271Y-109131552D01*
X153802009Y-109102222D01*
X153819913Y-109092652D01*
X153958533Y-109018557D01*
X154015147Y-109001384D01*
X154128373Y-108967037D01*
X154194557Y-108960519D01*
X154260740Y-108954000D01*
X154349260Y-108954000D01*
X154415443Y-108960519D01*
X154415443Y-108960519D01*
G37*
G36*
X180606000Y-109486000D02*
X178804000Y-109486000D01*
X178804000Y-107684000D01*
X180606000Y-107684000D01*
X180606000Y-109486000D01*
X180606000Y-109486000D01*
G37*
G36*
X151875443Y-106420519D02*
X151941627Y-106427037D01*
X152054853Y-106461384D01*
X152111467Y-106478557D01*
X152241363Y-106547989D01*
X152267991Y-106562222D01*
X152303729Y-106591552D01*
X152405186Y-106674814D01*
X152488448Y-106776271D01*
X152517778Y-106812009D01*
X152517779Y-106812011D01*
X152601443Y-106968533D01*
X152601443Y-106968534D01*
X152652963Y-107138373D01*
X152670359Y-107315000D01*
X152652963Y-107491627D01*
X152651636Y-107496000D01*
X152601443Y-107661467D01*
X152527348Y-107800087D01*
X152517778Y-107817991D01*
X152488448Y-107853729D01*
X152405186Y-107955186D01*
X152303729Y-108038448D01*
X152267991Y-108067778D01*
X152267989Y-108067779D01*
X152111467Y-108151443D01*
X152054853Y-108168616D01*
X151941627Y-108202963D01*
X151875443Y-108209481D01*
X151809260Y-108216000D01*
X151720740Y-108216000D01*
X151654557Y-108209481D01*
X151588373Y-108202963D01*
X151475147Y-108168616D01*
X151418533Y-108151443D01*
X151262011Y-108067779D01*
X151262009Y-108067778D01*
X151226271Y-108038448D01*
X151124814Y-107955186D01*
X151041552Y-107853729D01*
X151012222Y-107817991D01*
X151002652Y-107800087D01*
X150928557Y-107661467D01*
X150878364Y-107496000D01*
X150877037Y-107491627D01*
X150859641Y-107315000D01*
X150877037Y-107138373D01*
X150928557Y-106968534D01*
X150928557Y-106968533D01*
X151012221Y-106812011D01*
X151012222Y-106812009D01*
X151041552Y-106776271D01*
X151124814Y-106674814D01*
X151226271Y-106591552D01*
X151262009Y-106562222D01*
X151288637Y-106547989D01*
X151418533Y-106478557D01*
X151475147Y-106461384D01*
X151588373Y-106427037D01*
X151654557Y-106420519D01*
X151720740Y-106414000D01*
X151809260Y-106414000D01*
X151875443Y-106420519D01*
X151875443Y-106420519D01*
G37*
G36*
X154415443Y-106420519D02*
X154481627Y-106427037D01*
X154594853Y-106461384D01*
X154651467Y-106478557D01*
X154781363Y-106547989D01*
X154807991Y-106562222D01*
X154843729Y-106591552D01*
X154945186Y-106674814D01*
X155028448Y-106776271D01*
X155057778Y-106812009D01*
X155057779Y-106812011D01*
X155141443Y-106968533D01*
X155141443Y-106968534D01*
X155192963Y-107138373D01*
X155210359Y-107315000D01*
X155192963Y-107491627D01*
X155191636Y-107496000D01*
X155141443Y-107661467D01*
X155067348Y-107800087D01*
X155057778Y-107817991D01*
X155028448Y-107853729D01*
X154945186Y-107955186D01*
X154843729Y-108038448D01*
X154807991Y-108067778D01*
X154807989Y-108067779D01*
X154651467Y-108151443D01*
X154594853Y-108168616D01*
X154481627Y-108202963D01*
X154415443Y-108209481D01*
X154349260Y-108216000D01*
X154260740Y-108216000D01*
X154194557Y-108209481D01*
X154128373Y-108202963D01*
X154015147Y-108168616D01*
X153958533Y-108151443D01*
X153802011Y-108067779D01*
X153802009Y-108067778D01*
X153766271Y-108038448D01*
X153664814Y-107955186D01*
X153581552Y-107853729D01*
X153552222Y-107817991D01*
X153542652Y-107800087D01*
X153468557Y-107661467D01*
X153418364Y-107496000D01*
X153417037Y-107491627D01*
X153399641Y-107315000D01*
X153417037Y-107138373D01*
X153468557Y-106968534D01*
X153468557Y-106968533D01*
X153552221Y-106812011D01*
X153552222Y-106812009D01*
X153581552Y-106776271D01*
X153664814Y-106674814D01*
X153766271Y-106591552D01*
X153802009Y-106562222D01*
X153828637Y-106547989D01*
X153958533Y-106478557D01*
X154015147Y-106461384D01*
X154128373Y-106427037D01*
X154194557Y-106420519D01*
X154260740Y-106414000D01*
X154349260Y-106414000D01*
X154415443Y-106420519D01*
X154415443Y-106420519D01*
G37*
G36*
X190655331Y-103963211D02*
X190983092Y-104098974D01*
X191278073Y-104296074D01*
X191528926Y-104546927D01*
X191726026Y-104841908D01*
X191861789Y-105169669D01*
X191931000Y-105517616D01*
X191931000Y-105872384D01*
X191861789Y-106220331D01*
X191726026Y-106548092D01*
X191528926Y-106843073D01*
X191278073Y-107093926D01*
X190983092Y-107291026D01*
X190655331Y-107426789D01*
X190307384Y-107496000D01*
X189952616Y-107496000D01*
X189604669Y-107426789D01*
X189276908Y-107291026D01*
X188981927Y-107093926D01*
X188731074Y-106843073D01*
X188533974Y-106548092D01*
X188398211Y-106220331D01*
X188329000Y-105872384D01*
X188329000Y-105517616D01*
X188398211Y-105169669D01*
X188533974Y-104841908D01*
X188731074Y-104546927D01*
X188981927Y-104296074D01*
X189276908Y-104098974D01*
X189604669Y-103963211D01*
X189952616Y-103894000D01*
X190307384Y-103894000D01*
X190655331Y-103963211D01*
X190655331Y-103963211D01*
G37*
G36*
X179815443Y-105150519D02*
X179881627Y-105157037D01*
X179994853Y-105191384D01*
X180051467Y-105208557D01*
X180181363Y-105277989D01*
X180207991Y-105292222D01*
X180243729Y-105321552D01*
X180345186Y-105404814D01*
X180428448Y-105506271D01*
X180457778Y-105542009D01*
X180457779Y-105542011D01*
X180541443Y-105698533D01*
X180541443Y-105698534D01*
X180592963Y-105868373D01*
X180610359Y-106045000D01*
X180592963Y-106221627D01*
X180558616Y-106334853D01*
X180541443Y-106391467D01*
X180522430Y-106427037D01*
X180457778Y-106547991D01*
X180428448Y-106583729D01*
X180345186Y-106685186D01*
X180243729Y-106768448D01*
X180207991Y-106797778D01*
X180207989Y-106797779D01*
X180051467Y-106881443D01*
X179994853Y-106898616D01*
X179881627Y-106932963D01*
X179815442Y-106939482D01*
X179749260Y-106946000D01*
X179660740Y-106946000D01*
X179594558Y-106939482D01*
X179528373Y-106932963D01*
X179415147Y-106898616D01*
X179358533Y-106881443D01*
X179202011Y-106797779D01*
X179202009Y-106797778D01*
X179166271Y-106768448D01*
X179064814Y-106685186D01*
X178981552Y-106583729D01*
X178952222Y-106547991D01*
X178887570Y-106427037D01*
X178868557Y-106391467D01*
X178851384Y-106334853D01*
X178817037Y-106221627D01*
X178799641Y-106045000D01*
X178817037Y-105868373D01*
X178868557Y-105698534D01*
X178868557Y-105698533D01*
X178952221Y-105542011D01*
X178952222Y-105542009D01*
X178981552Y-105506271D01*
X179064814Y-105404814D01*
X179166271Y-105321552D01*
X179202009Y-105292222D01*
X179228637Y-105277989D01*
X179358533Y-105208557D01*
X179415147Y-105191384D01*
X179528373Y-105157037D01*
X179594558Y-105150518D01*
X179660740Y-105144000D01*
X179749260Y-105144000D01*
X179815443Y-105150519D01*
X179815443Y-105150519D01*
G37*
G36*
X151875443Y-103880519D02*
X151941627Y-103887037D01*
X152054853Y-103921384D01*
X152111467Y-103938557D01*
X152241363Y-104007989D01*
X152267991Y-104022222D01*
X152303729Y-104051552D01*
X152405186Y-104134814D01*
X152488448Y-104236271D01*
X152517778Y-104272009D01*
X152517779Y-104272011D01*
X152601443Y-104428533D01*
X152601443Y-104428534D01*
X152652963Y-104598373D01*
X152670359Y-104775000D01*
X152652963Y-104951627D01*
X152618616Y-105064853D01*
X152601443Y-105121467D01*
X152575678Y-105169669D01*
X152517778Y-105277991D01*
X152488448Y-105313729D01*
X152405186Y-105415186D01*
X152303729Y-105498448D01*
X152267991Y-105527778D01*
X152267989Y-105527779D01*
X152111467Y-105611443D01*
X152054853Y-105628616D01*
X151941627Y-105662963D01*
X151875443Y-105669481D01*
X151809260Y-105676000D01*
X151720740Y-105676000D01*
X151654557Y-105669481D01*
X151588373Y-105662963D01*
X151475147Y-105628616D01*
X151418533Y-105611443D01*
X151262011Y-105527779D01*
X151262009Y-105527778D01*
X151226271Y-105498448D01*
X151124814Y-105415186D01*
X151041552Y-105313729D01*
X151012222Y-105277991D01*
X150954322Y-105169669D01*
X150928557Y-105121467D01*
X150911384Y-105064853D01*
X150877037Y-104951627D01*
X150859641Y-104775000D01*
X150877037Y-104598373D01*
X150928557Y-104428534D01*
X150928557Y-104428533D01*
X151012221Y-104272011D01*
X151012222Y-104272009D01*
X151041552Y-104236271D01*
X151124814Y-104134814D01*
X151226271Y-104051552D01*
X151262009Y-104022222D01*
X151288637Y-104007989D01*
X151418533Y-103938557D01*
X151475147Y-103921384D01*
X151588373Y-103887037D01*
X151654557Y-103880519D01*
X151720740Y-103874000D01*
X151809260Y-103874000D01*
X151875443Y-103880519D01*
X151875443Y-103880519D01*
G37*
G36*
X154415443Y-103880519D02*
X154481627Y-103887037D01*
X154594853Y-103921384D01*
X154651467Y-103938557D01*
X154781363Y-104007989D01*
X154807991Y-104022222D01*
X154843729Y-104051552D01*
X154945186Y-104134814D01*
X155028448Y-104236271D01*
X155057778Y-104272009D01*
X155057779Y-104272011D01*
X155141443Y-104428533D01*
X155141443Y-104428534D01*
X155192963Y-104598373D01*
X155210359Y-104775000D01*
X155192963Y-104951627D01*
X155158616Y-105064853D01*
X155141443Y-105121467D01*
X155115678Y-105169669D01*
X155057778Y-105277991D01*
X155028448Y-105313729D01*
X154945186Y-105415186D01*
X154843729Y-105498448D01*
X154807991Y-105527778D01*
X154807989Y-105527779D01*
X154651467Y-105611443D01*
X154594853Y-105628616D01*
X154481627Y-105662963D01*
X154415443Y-105669481D01*
X154349260Y-105676000D01*
X154260740Y-105676000D01*
X154194557Y-105669481D01*
X154128373Y-105662963D01*
X154015147Y-105628616D01*
X153958533Y-105611443D01*
X153802011Y-105527779D01*
X153802009Y-105527778D01*
X153766271Y-105498448D01*
X153664814Y-105415186D01*
X153581552Y-105313729D01*
X153552222Y-105277991D01*
X153494322Y-105169669D01*
X153468557Y-105121467D01*
X153451384Y-105064853D01*
X153417037Y-104951627D01*
X153399641Y-104775000D01*
X153417037Y-104598373D01*
X153468557Y-104428534D01*
X153468557Y-104428533D01*
X153552221Y-104272011D01*
X153552222Y-104272009D01*
X153581552Y-104236271D01*
X153664814Y-104134814D01*
X153766271Y-104051552D01*
X153802009Y-104022222D01*
X153828637Y-104007989D01*
X153958533Y-103938557D01*
X154015147Y-103921384D01*
X154128373Y-103887037D01*
X154194557Y-103880519D01*
X154260740Y-103874000D01*
X154349260Y-103874000D01*
X154415443Y-103880519D01*
X154415443Y-103880519D01*
G37*
G36*
X179815442Y-102610518D02*
X179881627Y-102617037D01*
X179994853Y-102651384D01*
X180051467Y-102668557D01*
X180190087Y-102742652D01*
X180207991Y-102752222D01*
X180243729Y-102781552D01*
X180345186Y-102864814D01*
X180428448Y-102966271D01*
X180457778Y-103002009D01*
X180457779Y-103002011D01*
X180541443Y-103158533D01*
X180541443Y-103158534D01*
X180592963Y-103328373D01*
X180610359Y-103505000D01*
X180592963Y-103681627D01*
X180558616Y-103794853D01*
X180541443Y-103851467D01*
X180522430Y-103887037D01*
X180457778Y-104007991D01*
X180428448Y-104043729D01*
X180345186Y-104145186D01*
X180243729Y-104228448D01*
X180207991Y-104257778D01*
X180207989Y-104257779D01*
X180051467Y-104341443D01*
X179994853Y-104358616D01*
X179881627Y-104392963D01*
X179815442Y-104399482D01*
X179749260Y-104406000D01*
X179660740Y-104406000D01*
X179594558Y-104399482D01*
X179528373Y-104392963D01*
X179415147Y-104358616D01*
X179358533Y-104341443D01*
X179202011Y-104257779D01*
X179202009Y-104257778D01*
X179166271Y-104228448D01*
X179064814Y-104145186D01*
X178981552Y-104043729D01*
X178952222Y-104007991D01*
X178887570Y-103887037D01*
X178868557Y-103851467D01*
X178851384Y-103794853D01*
X178817037Y-103681627D01*
X178799641Y-103505000D01*
X178817037Y-103328373D01*
X178868557Y-103158534D01*
X178868557Y-103158533D01*
X178952221Y-103002011D01*
X178952222Y-103002009D01*
X178981552Y-102966271D01*
X179064814Y-102864814D01*
X179166271Y-102781552D01*
X179202009Y-102752222D01*
X179219913Y-102742652D01*
X179358533Y-102668557D01*
X179415147Y-102651384D01*
X179528373Y-102617037D01*
X179594558Y-102610518D01*
X179660740Y-102604000D01*
X179749260Y-102604000D01*
X179815442Y-102610518D01*
X179815442Y-102610518D01*
G37*
G36*
X185682812Y-100058624D02*
X185846784Y-100126544D01*
X185994354Y-100225147D01*
X186119853Y-100350646D01*
X186218456Y-100498216D01*
X186286376Y-100662188D01*
X186297404Y-100717633D01*
X186304515Y-100741074D01*
X186316067Y-100762685D01*
X186331612Y-100781627D01*
X186350554Y-100797172D01*
X186372165Y-100808723D01*
X186395614Y-100815836D01*
X186420000Y-100818238D01*
X186444387Y-100815836D01*
X186467836Y-100808723D01*
X186489447Y-100797171D01*
X186508389Y-100781626D01*
X186523934Y-100762684D01*
X186535485Y-100741073D01*
X186542596Y-100717633D01*
X186553624Y-100662188D01*
X186621544Y-100498216D01*
X186720147Y-100350646D01*
X186845646Y-100225147D01*
X186993216Y-100126544D01*
X187157188Y-100058624D01*
X187331259Y-100024000D01*
X187508741Y-100024000D01*
X187682812Y-100058624D01*
X187846784Y-100126544D01*
X187994354Y-100225147D01*
X188119853Y-100350646D01*
X188218456Y-100498216D01*
X188286376Y-100662188D01*
X188321000Y-100836259D01*
X188321000Y-101013741D01*
X188286376Y-101187812D01*
X188218456Y-101351784D01*
X188119853Y-101499354D01*
X187994354Y-101624853D01*
X187846784Y-101723456D01*
X187682812Y-101791376D01*
X187508741Y-101826000D01*
X187331259Y-101826000D01*
X187157188Y-101791376D01*
X186993216Y-101723456D01*
X186845646Y-101624853D01*
X186720147Y-101499354D01*
X186621544Y-101351784D01*
X186553624Y-101187812D01*
X186542596Y-101132367D01*
X186535485Y-101108926D01*
X186523933Y-101087315D01*
X186508388Y-101068373D01*
X186489446Y-101052828D01*
X186467835Y-101041277D01*
X186444386Y-101034164D01*
X186420000Y-101031762D01*
X186395613Y-101034164D01*
X186372164Y-101041277D01*
X186350553Y-101052829D01*
X186331611Y-101068374D01*
X186316066Y-101087316D01*
X186304515Y-101108927D01*
X186297404Y-101132367D01*
X186286376Y-101187812D01*
X186218456Y-101351784D01*
X186119853Y-101499354D01*
X185994354Y-101624853D01*
X185846784Y-101723456D01*
X185682812Y-101791376D01*
X185508741Y-101826000D01*
X185331259Y-101826000D01*
X185157188Y-101791376D01*
X184993216Y-101723456D01*
X184845646Y-101624853D01*
X184720147Y-101499354D01*
X184621544Y-101351784D01*
X184553624Y-101187812D01*
X184519000Y-101013741D01*
X184519000Y-100836259D01*
X184553624Y-100662188D01*
X184621544Y-100498216D01*
X184720147Y-100350646D01*
X184845646Y-100225147D01*
X184993216Y-100126544D01*
X185157188Y-100058624D01*
X185331259Y-100024000D01*
X185508741Y-100024000D01*
X185682812Y-100058624D01*
X185682812Y-100058624D01*
G37*
G36*
X186321000Y-98095378D02*
X186323402Y-98119764D01*
X186330515Y-98143213D01*
X186342066Y-98164824D01*
X186357612Y-98183766D01*
X186376554Y-98199312D01*
X186398165Y-98210863D01*
X186421614Y-98217976D01*
X186446000Y-98220378D01*
X186470386Y-98217976D01*
X186493835Y-98210863D01*
X186515446Y-98199312D01*
X186534388Y-98183766D01*
X186549934Y-98164824D01*
X186561480Y-98143223D01*
X186621544Y-97998216D01*
X186720147Y-97850646D01*
X186845646Y-97725147D01*
X186993216Y-97626544D01*
X187157188Y-97558624D01*
X187331259Y-97524000D01*
X187508741Y-97524000D01*
X187682812Y-97558624D01*
X187846784Y-97626544D01*
X187994354Y-97725147D01*
X188119853Y-97850646D01*
X188218456Y-97998216D01*
X188286376Y-98162188D01*
X188321000Y-98336259D01*
X188321000Y-98513741D01*
X188286376Y-98687812D01*
X188218456Y-98851784D01*
X188119853Y-98999354D01*
X187994354Y-99124853D01*
X187846784Y-99223456D01*
X187682812Y-99291376D01*
X187508741Y-99326000D01*
X187331259Y-99326000D01*
X187157188Y-99291376D01*
X186993216Y-99223456D01*
X186845646Y-99124853D01*
X186720147Y-98999354D01*
X186621544Y-98851784D01*
X186561480Y-98706777D01*
X186549934Y-98685176D01*
X186534388Y-98666234D01*
X186515446Y-98650688D01*
X186493835Y-98639137D01*
X186470386Y-98632024D01*
X186446000Y-98629622D01*
X186421614Y-98632024D01*
X186398165Y-98639137D01*
X186376554Y-98650688D01*
X186357612Y-98666234D01*
X186342066Y-98685176D01*
X186330515Y-98706787D01*
X186323402Y-98730236D01*
X186321000Y-98754622D01*
X186321000Y-99326000D01*
X184519000Y-99326000D01*
X184519000Y-97524000D01*
X186321000Y-97524000D01*
X186321000Y-98095378D01*
X186321000Y-98095378D01*
G37*
G36*
X190655331Y-91923211D02*
X190983092Y-92058974D01*
X191278073Y-92256074D01*
X191528926Y-92506927D01*
X191726026Y-92801908D01*
X191861789Y-93129669D01*
X191931000Y-93477616D01*
X191931000Y-93832384D01*
X191861789Y-94180331D01*
X191726026Y-94508092D01*
X191528926Y-94803073D01*
X191278073Y-95053926D01*
X190983092Y-95251026D01*
X190655331Y-95386789D01*
X190307384Y-95456000D01*
X189952616Y-95456000D01*
X189604669Y-95386789D01*
X189276908Y-95251026D01*
X188981927Y-95053926D01*
X188731074Y-94803073D01*
X188533974Y-94508092D01*
X188398211Y-94180331D01*
X188329000Y-93832384D01*
X188329000Y-93477616D01*
X188398211Y-93129669D01*
X188533974Y-92801908D01*
X188731074Y-92506927D01*
X188981927Y-92256074D01*
X189276908Y-92058974D01*
X189604669Y-91923211D01*
X189952616Y-91854000D01*
X190307384Y-91854000D01*
X190655331Y-91923211D01*
X190655331Y-91923211D01*
G37*
G36*
X162202396Y-91160546D02*
X162375466Y-91232234D01*
X162531230Y-91336312D01*
X162663688Y-91468770D01*
X162767766Y-91624534D01*
X162839454Y-91797604D01*
X162876000Y-91981333D01*
X162876000Y-92168667D01*
X162839454Y-92352396D01*
X162767766Y-92525466D01*
X162663688Y-92681230D01*
X162531230Y-92813688D01*
X162375466Y-92917766D01*
X162202396Y-92989454D01*
X162018667Y-93026000D01*
X161831333Y-93026000D01*
X161647604Y-92989454D01*
X161474534Y-92917766D01*
X161318770Y-92813688D01*
X161186312Y-92681230D01*
X161082234Y-92525466D01*
X161010546Y-92352396D01*
X160974000Y-92168667D01*
X160974000Y-91981333D01*
X161010546Y-91797604D01*
X161082234Y-91624534D01*
X161186312Y-91468770D01*
X161318770Y-91336312D01*
X161474534Y-91232234D01*
X161647604Y-91160546D01*
X161831333Y-91124000D01*
X162018667Y-91124000D01*
X162202396Y-91160546D01*
X162202396Y-91160546D01*
G37*
G36*
X133711565Y-90429389D02*
X133902834Y-90508615D01*
X134074976Y-90623637D01*
X134221363Y-90770024D01*
X134336385Y-90942166D01*
X134415611Y-91133435D01*
X134456000Y-91336484D01*
X134456000Y-91543516D01*
X134415611Y-91746565D01*
X134336385Y-91937834D01*
X134221363Y-92109976D01*
X134074976Y-92256363D01*
X133902834Y-92371385D01*
X133711565Y-92450611D01*
X133508516Y-92491000D01*
X133301484Y-92491000D01*
X133098435Y-92450611D01*
X132907166Y-92371385D01*
X132735024Y-92256363D01*
X132588637Y-92109976D01*
X132473615Y-91937834D01*
X132394389Y-91746565D01*
X132354000Y-91543516D01*
X132354000Y-91336484D01*
X132394389Y-91133435D01*
X132473615Y-90942166D01*
X132588637Y-90770024D01*
X132735024Y-90623637D01*
X132907166Y-90508615D01*
X133098435Y-90429389D01*
X133301484Y-90389000D01*
X133508516Y-90389000D01*
X133711565Y-90429389D01*
X133711565Y-90429389D01*
G37*
G36*
X129211565Y-90429389D02*
X129402834Y-90508615D01*
X129574976Y-90623637D01*
X129721363Y-90770024D01*
X129836385Y-90942166D01*
X129915611Y-91133435D01*
X129956000Y-91336484D01*
X129956000Y-91543516D01*
X129915611Y-91746565D01*
X129836385Y-91937834D01*
X129721363Y-92109976D01*
X129574976Y-92256363D01*
X129402834Y-92371385D01*
X129211565Y-92450611D01*
X129008516Y-92491000D01*
X128801484Y-92491000D01*
X128598435Y-92450611D01*
X128407166Y-92371385D01*
X128235024Y-92256363D01*
X128088637Y-92109976D01*
X127973615Y-91937834D01*
X127894389Y-91746565D01*
X127854000Y-91543516D01*
X127854000Y-91336484D01*
X127894389Y-91133435D01*
X127973615Y-90942166D01*
X128088637Y-90770024D01*
X128235024Y-90623637D01*
X128407166Y-90508615D01*
X128598435Y-90429389D01*
X128801484Y-90389000D01*
X129008516Y-90389000D01*
X129211565Y-90429389D01*
X129211565Y-90429389D01*
G37*
G36*
X138101565Y-90429389D02*
X138292834Y-90508615D01*
X138464976Y-90623637D01*
X138611363Y-90770024D01*
X138726385Y-90942166D01*
X138805611Y-91133435D01*
X138846000Y-91336484D01*
X138846000Y-91543516D01*
X138805611Y-91746565D01*
X138726385Y-91937834D01*
X138611363Y-92109976D01*
X138464976Y-92256363D01*
X138292834Y-92371385D01*
X138101565Y-92450611D01*
X137898516Y-92491000D01*
X137691484Y-92491000D01*
X137488435Y-92450611D01*
X137297166Y-92371385D01*
X137125024Y-92256363D01*
X136978637Y-92109976D01*
X136863615Y-91937834D01*
X136784389Y-91746565D01*
X136744000Y-91543516D01*
X136744000Y-91336484D01*
X136784389Y-91133435D01*
X136863615Y-90942166D01*
X136978637Y-90770024D01*
X137125024Y-90623637D01*
X137297166Y-90508615D01*
X137488435Y-90429389D01*
X137691484Y-90389000D01*
X137898516Y-90389000D01*
X138101565Y-90429389D01*
X138101565Y-90429389D01*
G37*
G36*
X151491565Y-90429389D02*
X151682834Y-90508615D01*
X151854976Y-90623637D01*
X152001363Y-90770024D01*
X152116385Y-90942166D01*
X152195611Y-91133435D01*
X152236000Y-91336484D01*
X152236000Y-91543516D01*
X152195611Y-91746565D01*
X152116385Y-91937834D01*
X152001363Y-92109976D01*
X151854976Y-92256363D01*
X151682834Y-92371385D01*
X151491565Y-92450611D01*
X151288516Y-92491000D01*
X151081484Y-92491000D01*
X150878435Y-92450611D01*
X150687166Y-92371385D01*
X150515024Y-92256363D01*
X150368637Y-92109976D01*
X150253615Y-91937834D01*
X150174389Y-91746565D01*
X150134000Y-91543516D01*
X150134000Y-91336484D01*
X150174389Y-91133435D01*
X150253615Y-90942166D01*
X150368637Y-90770024D01*
X150515024Y-90623637D01*
X150687166Y-90508615D01*
X150878435Y-90429389D01*
X151081484Y-90389000D01*
X151288516Y-90389000D01*
X151491565Y-90429389D01*
X151491565Y-90429389D01*
G37*
G36*
X146991565Y-90429389D02*
X147182834Y-90508615D01*
X147354976Y-90623637D01*
X147501363Y-90770024D01*
X147616385Y-90942166D01*
X147695611Y-91133435D01*
X147736000Y-91336484D01*
X147736000Y-91543516D01*
X147695611Y-91746565D01*
X147616385Y-91937834D01*
X147501363Y-92109976D01*
X147354976Y-92256363D01*
X147182834Y-92371385D01*
X146991565Y-92450611D01*
X146788516Y-92491000D01*
X146581484Y-92491000D01*
X146378435Y-92450611D01*
X146187166Y-92371385D01*
X146015024Y-92256363D01*
X145868637Y-92109976D01*
X145753615Y-91937834D01*
X145674389Y-91746565D01*
X145634000Y-91543516D01*
X145634000Y-91336484D01*
X145674389Y-91133435D01*
X145753615Y-90942166D01*
X145868637Y-90770024D01*
X146015024Y-90623637D01*
X146187166Y-90508615D01*
X146378435Y-90429389D01*
X146581484Y-90389000D01*
X146788516Y-90389000D01*
X146991565Y-90429389D01*
X146991565Y-90429389D01*
G37*
G36*
X142601565Y-90429389D02*
X142792834Y-90508615D01*
X142964976Y-90623637D01*
X143111363Y-90770024D01*
X143226385Y-90942166D01*
X143305611Y-91133435D01*
X143346000Y-91336484D01*
X143346000Y-91543516D01*
X143305611Y-91746565D01*
X143226385Y-91937834D01*
X143111363Y-92109976D01*
X142964976Y-92256363D01*
X142792834Y-92371385D01*
X142601565Y-92450611D01*
X142398516Y-92491000D01*
X142191484Y-92491000D01*
X141988435Y-92450611D01*
X141797166Y-92371385D01*
X141625024Y-92256363D01*
X141478637Y-92109976D01*
X141363615Y-91937834D01*
X141284389Y-91746565D01*
X141244000Y-91543516D01*
X141244000Y-91336484D01*
X141284389Y-91133435D01*
X141363615Y-90942166D01*
X141478637Y-90770024D01*
X141625024Y-90623637D01*
X141797166Y-90508615D01*
X141988435Y-90429389D01*
X142191484Y-90389000D01*
X142398516Y-90389000D01*
X142601565Y-90429389D01*
X142601565Y-90429389D01*
G37*
G36*
X162876000Y-90486000D02*
X160974000Y-90486000D01*
X160974000Y-88584000D01*
X162876000Y-88584000D01*
X162876000Y-90486000D01*
X162876000Y-90486000D01*
G37*
G36*
X121485256Y-85471298D02*
X121591579Y-85492447D01*
X121892042Y-85616903D01*
X122100758Y-85756363D01*
X122162454Y-85797587D01*
X122392413Y-86027546D01*
X122573098Y-86297960D01*
X122697553Y-86598422D01*
X122761000Y-86917389D01*
X122761000Y-87242611D01*
X122697553Y-87561578D01*
X122573098Y-87862040D01*
X122392413Y-88132454D01*
X122162454Y-88362413D01*
X122162451Y-88362415D01*
X121892042Y-88543097D01*
X121591579Y-88667553D01*
X121485256Y-88688702D01*
X121272611Y-88731000D01*
X120947389Y-88731000D01*
X120734744Y-88688702D01*
X120628421Y-88667553D01*
X120327958Y-88543097D01*
X120057549Y-88362415D01*
X120057546Y-88362413D01*
X119827587Y-88132454D01*
X119646902Y-87862040D01*
X119522447Y-87561578D01*
X119459000Y-87242611D01*
X119459000Y-86917389D01*
X119522447Y-86598422D01*
X119646902Y-86297960D01*
X119827587Y-86027546D01*
X120057546Y-85797587D01*
X120119242Y-85756363D01*
X120327958Y-85616903D01*
X120628421Y-85492447D01*
X120734744Y-85471298D01*
X120947389Y-85429000D01*
X121272611Y-85429000D01*
X121485256Y-85471298D01*
X121485256Y-85471298D01*
G37*
G36*
X191485256Y-85471298D02*
X191591579Y-85492447D01*
X191892042Y-85616903D01*
X192100758Y-85756363D01*
X192162454Y-85797587D01*
X192392413Y-86027546D01*
X192573098Y-86297960D01*
X192697553Y-86598422D01*
X192761000Y-86917389D01*
X192761000Y-87242611D01*
X192697553Y-87561578D01*
X192573098Y-87862040D01*
X192392413Y-88132454D01*
X192162454Y-88362413D01*
X192162451Y-88362415D01*
X191892042Y-88543097D01*
X191591579Y-88667553D01*
X191485256Y-88688702D01*
X191272611Y-88731000D01*
X190947389Y-88731000D01*
X190734744Y-88688702D01*
X190628421Y-88667553D01*
X190327958Y-88543097D01*
X190057549Y-88362415D01*
X190057546Y-88362413D01*
X189827587Y-88132454D01*
X189646902Y-87862040D01*
X189522447Y-87561578D01*
X189459000Y-87242611D01*
X189459000Y-86917389D01*
X189522447Y-86598422D01*
X189646902Y-86297960D01*
X189827587Y-86027546D01*
X190057546Y-85797587D01*
X190119242Y-85756363D01*
X190327958Y-85616903D01*
X190628421Y-85492447D01*
X190734744Y-85471298D01*
X190947389Y-85429000D01*
X191272611Y-85429000D01*
X191485256Y-85471298D01*
X191485256Y-85471298D01*
G37*
G36*
X142601565Y-83929389D02*
X142792834Y-84008615D01*
X142964976Y-84123637D01*
X143111363Y-84270024D01*
X143226385Y-84442166D01*
X143305611Y-84633435D01*
X143346000Y-84836484D01*
X143346000Y-85043516D01*
X143305611Y-85246565D01*
X143226385Y-85437834D01*
X143111363Y-85609976D01*
X142964976Y-85756363D01*
X142792834Y-85871385D01*
X142601565Y-85950611D01*
X142398516Y-85991000D01*
X142191484Y-85991000D01*
X141988435Y-85950611D01*
X141797166Y-85871385D01*
X141625024Y-85756363D01*
X141478637Y-85609976D01*
X141363615Y-85437834D01*
X141284389Y-85246565D01*
X141244000Y-85043516D01*
X141244000Y-84836484D01*
X141284389Y-84633435D01*
X141363615Y-84442166D01*
X141478637Y-84270024D01*
X141625024Y-84123637D01*
X141797166Y-84008615D01*
X141988435Y-83929389D01*
X142191484Y-83889000D01*
X142398516Y-83889000D01*
X142601565Y-83929389D01*
X142601565Y-83929389D01*
G37*
G36*
X129211565Y-83929389D02*
X129402834Y-84008615D01*
X129574976Y-84123637D01*
X129721363Y-84270024D01*
X129836385Y-84442166D01*
X129915611Y-84633435D01*
X129956000Y-84836484D01*
X129956000Y-85043516D01*
X129915611Y-85246565D01*
X129836385Y-85437834D01*
X129721363Y-85609976D01*
X129574976Y-85756363D01*
X129402834Y-85871385D01*
X129211565Y-85950611D01*
X129008516Y-85991000D01*
X128801484Y-85991000D01*
X128598435Y-85950611D01*
X128407166Y-85871385D01*
X128235024Y-85756363D01*
X128088637Y-85609976D01*
X127973615Y-85437834D01*
X127894389Y-85246565D01*
X127854000Y-85043516D01*
X127854000Y-84836484D01*
X127894389Y-84633435D01*
X127973615Y-84442166D01*
X128088637Y-84270024D01*
X128235024Y-84123637D01*
X128407166Y-84008615D01*
X128598435Y-83929389D01*
X128801484Y-83889000D01*
X129008516Y-83889000D01*
X129211565Y-83929389D01*
X129211565Y-83929389D01*
G37*
G36*
X133711565Y-83929389D02*
X133902834Y-84008615D01*
X134074976Y-84123637D01*
X134221363Y-84270024D01*
X134336385Y-84442166D01*
X134415611Y-84633435D01*
X134456000Y-84836484D01*
X134456000Y-85043516D01*
X134415611Y-85246565D01*
X134336385Y-85437834D01*
X134221363Y-85609976D01*
X134074976Y-85756363D01*
X133902834Y-85871385D01*
X133711565Y-85950611D01*
X133508516Y-85991000D01*
X133301484Y-85991000D01*
X133098435Y-85950611D01*
X132907166Y-85871385D01*
X132735024Y-85756363D01*
X132588637Y-85609976D01*
X132473615Y-85437834D01*
X132394389Y-85246565D01*
X132354000Y-85043516D01*
X132354000Y-84836484D01*
X132394389Y-84633435D01*
X132473615Y-84442166D01*
X132588637Y-84270024D01*
X132735024Y-84123637D01*
X132907166Y-84008615D01*
X133098435Y-83929389D01*
X133301484Y-83889000D01*
X133508516Y-83889000D01*
X133711565Y-83929389D01*
X133711565Y-83929389D01*
G37*
G36*
X138101565Y-83929389D02*
X138292834Y-84008615D01*
X138464976Y-84123637D01*
X138611363Y-84270024D01*
X138726385Y-84442166D01*
X138805611Y-84633435D01*
X138846000Y-84836484D01*
X138846000Y-85043516D01*
X138805611Y-85246565D01*
X138726385Y-85437834D01*
X138611363Y-85609976D01*
X138464976Y-85756363D01*
X138292834Y-85871385D01*
X138101565Y-85950611D01*
X137898516Y-85991000D01*
X137691484Y-85991000D01*
X137488435Y-85950611D01*
X137297166Y-85871385D01*
X137125024Y-85756363D01*
X136978637Y-85609976D01*
X136863615Y-85437834D01*
X136784389Y-85246565D01*
X136744000Y-85043516D01*
X136744000Y-84836484D01*
X136784389Y-84633435D01*
X136863615Y-84442166D01*
X136978637Y-84270024D01*
X137125024Y-84123637D01*
X137297166Y-84008615D01*
X137488435Y-83929389D01*
X137691484Y-83889000D01*
X137898516Y-83889000D01*
X138101565Y-83929389D01*
X138101565Y-83929389D01*
G37*
G36*
X146991565Y-83929389D02*
X147182834Y-84008615D01*
X147354976Y-84123637D01*
X147501363Y-84270024D01*
X147616385Y-84442166D01*
X147695611Y-84633435D01*
X147736000Y-84836484D01*
X147736000Y-85043516D01*
X147695611Y-85246565D01*
X147616385Y-85437834D01*
X147501363Y-85609976D01*
X147354976Y-85756363D01*
X147182834Y-85871385D01*
X146991565Y-85950611D01*
X146788516Y-85991000D01*
X146581484Y-85991000D01*
X146378435Y-85950611D01*
X146187166Y-85871385D01*
X146015024Y-85756363D01*
X145868637Y-85609976D01*
X145753615Y-85437834D01*
X145674389Y-85246565D01*
X145634000Y-85043516D01*
X145634000Y-84836484D01*
X145674389Y-84633435D01*
X145753615Y-84442166D01*
X145868637Y-84270024D01*
X146015024Y-84123637D01*
X146187166Y-84008615D01*
X146378435Y-83929389D01*
X146581484Y-83889000D01*
X146788516Y-83889000D01*
X146991565Y-83929389D01*
X146991565Y-83929389D01*
G37*
G36*
X151491565Y-83929389D02*
X151682834Y-84008615D01*
X151854976Y-84123637D01*
X152001363Y-84270024D01*
X152116385Y-84442166D01*
X152195611Y-84633435D01*
X152236000Y-84836484D01*
X152236000Y-85043516D01*
X152195611Y-85246565D01*
X152116385Y-85437834D01*
X152001363Y-85609976D01*
X151854976Y-85756363D01*
X151682834Y-85871385D01*
X151491565Y-85950611D01*
X151288516Y-85991000D01*
X151081484Y-85991000D01*
X150878435Y-85950611D01*
X150687166Y-85871385D01*
X150515024Y-85756363D01*
X150368637Y-85609976D01*
X150253615Y-85437834D01*
X150174389Y-85246565D01*
X150134000Y-85043516D01*
X150134000Y-84836484D01*
X150174389Y-84633435D01*
X150253615Y-84442166D01*
X150368637Y-84270024D01*
X150515024Y-84123637D01*
X150687166Y-84008615D01*
X150878435Y-83929389D01*
X151081484Y-83889000D01*
X151288516Y-83889000D01*
X151491565Y-83929389D01*
X151491565Y-83929389D01*
G37*
M02*
