M48
;DRILL file {KiCad (5.0.2)-1} date 2019/08/20 1:32:25
;FORMAT={3:3/ absolute / metric / suppress leading zeros}
FMAT,2
METRIC,TZ
T1C0.300
T2C0.600
T3C0.800
T4C0.900
T5C0.920
T6C1.000
T7C1.100
T8C1.520
T9C2.330
%
G90
G05
T1
X121920Y-101600
X131445Y-94615
X132715Y-95250
X133985Y-95885
X135255Y-96520
X141732Y-110782
X141732Y-109982
X142748Y-102362
X147955Y-99705
X147955Y-100965
X148082Y-102362
X148590Y-100330
X148590Y-101600
X155575Y-88900
X156210Y-99695
X156210Y-100965
X156210Y-102362
X156845Y-100330
X156845Y-101600
X160020Y-87630
X170180Y-86614
X175163Y-84582
T2
X119380Y-92075
X119380Y-94615
X119380Y-97028
X119380Y-117856
X123190Y-104648
X123190Y-112268
X124460Y-130810
X127000Y-130810
X130556Y-104648
X130556Y-112268
X134620Y-101092
X135128Y-118364
X137414Y-100076
X137414Y-115824
X138684Y-113030
X139446Y-105410
X139446Y-110744
X140208Y-103632
X141732Y-97536
X144780Y-118364
X146558Y-97536
X146558Y-108458
X146558Y-115824
X149606Y-112014
X149860Y-98552
X151892Y-117094
X154940Y-130810
X156718Y-91694
X160020Y-130810
X163068Y-107442
X164084Y-107442
X165100Y-130810
X169164Y-101092
X170180Y-88583
X170180Y-130810
X171450Y-100838
X172720Y-87948
X172720Y-100838
X175260Y-130810
X176530Y-92202
X177038Y-86360
X177800Y-99822
X178308Y-93726
X180340Y-130810
X181356Y-84582
X185420Y-130810
X186690Y-83820
X190500Y-130810
T3
X161290Y-110490
X161290Y-118110
X163830Y-110490
X163830Y-118110
X166370Y-110490
X166370Y-118110
X168910Y-110490
X168910Y-118110
X171450Y-110490
X171450Y-118110
X173990Y-110490
X173990Y-118110
T4
X146050Y-127000
X148590Y-127000
X161925Y-89535
X161925Y-92075
X146050Y-121920
X148590Y-121920
T5
X185420Y-98425
X185420Y-100925
X187420Y-98425
X187420Y-100925
T6
X179705Y-103505
X179705Y-106045
X179705Y-108585
X151765Y-104775
X151765Y-107315
X151765Y-109855
X151765Y-112395
X151765Y-114935
X154305Y-104775
X154305Y-107315
X154305Y-109855
X154305Y-112395
X154305Y-114935
X128270Y-124460
X128270Y-127000
X130810Y-124460
X130810Y-127000
X133350Y-124460
X133350Y-127000
X135890Y-124460
X135890Y-127000
X138430Y-124460
X138430Y-127000
T7
X137795Y-84940
X137795Y-91440
X142295Y-84940
X142295Y-91440
X128905Y-84940
X128905Y-91440
X133405Y-84940
X133405Y-91440
X146685Y-84940
X146685Y-91440
X151185Y-84940
X151185Y-91440
T8
X175260Y-127000
X180340Y-127000
X165100Y-127000
X170180Y-127000
X154940Y-127000
X160020Y-127000
X189230Y-112395
X189230Y-117475
T9
X190130Y-93655
X190130Y-105695
T0
M30
