G04 #@! TF.GenerationSoftware,KiCad,Pcbnew,(5.0.2)-1*
G04 #@! TF.CreationDate,2019-08-20T01:58:35+09:00*
G04 #@! TF.ProjectId,robocar-sensorbar-fab,726f626f-6361-4722-9d73-656e736f7262,rev?*
G04 #@! TF.SameCoordinates,Original*
G04 #@! TF.FileFunction,Profile,NP*
%FSLAX46Y46*%
G04 Gerber Fmt 4.6, Leading zero omitted, Abs format (unit mm)*
G04 Created by KiCad (PCBNEW (5.0.2)-1) date 2019/08/20 1:58:35*
%MOMM*%
%LPD*%
G01*
G04 APERTURE LIST*
%ADD10C,0.150000*%
G04 APERTURE END LIST*
D10*
X124000000Y-111000000D02*
X172000000Y-111000000D01*
X124000000Y-114000000D02*
X172000000Y-114000000D01*
X180000000Y-114000000D02*
X184000000Y-114000000D01*
X180000000Y-111000000D02*
X184000000Y-111000000D01*
X172000000Y-111000000D02*
G75*
G02X172000000Y-114000000I0J-1500000D01*
G01*
X180000000Y-114000000D02*
G75*
G02X180000000Y-111000000I0J1500000D01*
G01*
X177500000Y-112500000D02*
G75*
G03X177500000Y-112500000I-1500000J0D01*
G01*
X124000000Y-114000000D02*
G75*
G02X124000000Y-111000000I0J1500000D01*
G01*
X121500000Y-112500000D02*
G75*
G03X121500000Y-112500000I-1500000J0D01*
G01*
X116000000Y-111000000D02*
G75*
G02X116000000Y-114000000I0J-1500000D01*
G01*
X124000000Y-87000000D02*
X172000000Y-87000000D01*
X124000000Y-84000000D02*
X172000000Y-84000000D01*
X124000000Y-87000000D02*
G75*
G02X124000000Y-84000000I0J1500000D01*
G01*
X116000000Y-84000000D02*
G75*
G02X116000000Y-87000000I0J-1500000D01*
G01*
X121500000Y-85500000D02*
G75*
G03X121500000Y-85500000I-1500000J0D01*
G01*
X180000000Y-87000000D02*
X184000000Y-87000000D01*
X180000000Y-84000000D02*
X184000000Y-84000000D01*
X172000000Y-84000000D02*
G75*
G02X172000000Y-87000000I0J-1500000D01*
G01*
X177500000Y-85500000D02*
G75*
G03X177500000Y-85500000I-1500000J0D01*
G01*
X180000000Y-87000000D02*
G75*
G02X180000000Y-84000000I0J1500000D01*
G01*
X110000000Y-116000000D02*
X110000000Y-136000000D01*
X110000000Y-89000000D02*
X110000000Y-109000000D01*
X186000000Y-116000000D02*
X186000000Y-136000000D01*
X186000000Y-89000000D02*
X186000000Y-109000000D01*
X112000000Y-114000000D02*
X116000000Y-114000000D01*
X112000000Y-87000000D02*
X116000000Y-87000000D01*
X112000000Y-138000000D02*
X184000000Y-138000000D01*
X112000000Y-111000000D02*
X116000000Y-111000000D01*
X184000000Y-114000000D02*
G75*
G02X186000000Y-116000000I0J-2000000D01*
G01*
X184000000Y-87000000D02*
G75*
G02X186000000Y-89000000I0J-2000000D01*
G01*
X110000000Y-116000000D02*
G75*
G02X112000000Y-114000000I2000000J0D01*
G01*
X110000000Y-89000000D02*
G75*
G02X112000000Y-87000000I2000000J0D01*
G01*
X112000000Y-138000000D02*
G75*
G02X110000000Y-136000000I0J2000000D01*
G01*
X112000000Y-111000000D02*
G75*
G02X110000000Y-109000000I0J2000000D01*
G01*
X186000000Y-136000000D02*
G75*
G02X184000000Y-138000000I-2000000J0D01*
G01*
X186000000Y-109000000D02*
G75*
G02X184000000Y-111000000I-2000000J0D01*
G01*
X186000000Y-82000000D02*
G75*
G02X184000000Y-84000000I-2000000J0D01*
G01*
X112000000Y-84000000D02*
G75*
G02X110000000Y-82000000I0J2000000D01*
G01*
X110000000Y-62000000D02*
G75*
G02X112000000Y-60000000I2000000J0D01*
G01*
X184000000Y-60000000D02*
G75*
G02X186000000Y-62000000I0J-2000000D01*
G01*
X186000000Y-62000000D02*
X186000000Y-82000000D01*
X110000000Y-62000000D02*
X110000000Y-82000000D01*
X112000000Y-60000000D02*
X184000000Y-60000000D01*
X112000000Y-84000000D02*
X116000000Y-84000000D01*
M02*
