G04 #@! TF.GenerationSoftware,KiCad,Pcbnew,(5.0.2)-1*
G04 #@! TF.CreationDate,2019-08-20T01:58:35+09:00*
G04 #@! TF.ProjectId,robocar-sensorbar-fab,726f626f-6361-4722-9d73-656e736f7262,rev?*
G04 #@! TF.SameCoordinates,Original*
G04 #@! TF.FileFunction,Copper,L1,Top*
G04 #@! TF.FilePolarity,Positive*
%FSLAX46Y46*%
G04 Gerber Fmt 4.6, Leading zero omitted, Abs format (unit mm)*
G04 Created by KiCad (PCBNEW (5.0.2)-1) date 2019/08/20 1:58:35*
%MOMM*%
%LPD*%
G01*
G04 APERTURE LIST*
G04 #@! TA.AperFunction,ComponentPad*
%ADD10C,1.524000*%
G04 #@! TD*
G04 #@! TA.AperFunction,SMDPad,CuDef*
%ADD11R,0.900000X1.200000*%
G04 #@! TD*
G04 #@! TA.AperFunction,ComponentPad*
%ADD12R,1.650000X1.650000*%
G04 #@! TD*
G04 #@! TA.AperFunction,ComponentPad*
%ADD13C,1.650000*%
G04 #@! TD*
G04 #@! TA.AperFunction,ComponentPad*
%ADD14R,1.700000X1.700000*%
G04 #@! TD*
G04 #@! TA.AperFunction,ComponentPad*
%ADD15O,1.700000X1.700000*%
G04 #@! TD*
G04 #@! TA.AperFunction,SMDPad,CuDef*
%ADD16R,1.200000X0.900000*%
G04 #@! TD*
G04 #@! TA.AperFunction,SMDPad,CuDef*
%ADD17R,0.750000X1.200000*%
G04 #@! TD*
G04 #@! TA.AperFunction,Conductor*
%ADD18C,0.800000*%
G04 #@! TD*
G04 #@! TA.AperFunction,Conductor*
%ADD19C,0.400000*%
G04 #@! TD*
G04 #@! TA.AperFunction,Conductor*
%ADD20C,0.254000*%
G04 #@! TD*
G04 APERTURE END LIST*
D10*
G04 #@! TO.P,U4,1*
G04 #@! TO.N,GND*
X164270000Y-117950000D03*
G04 #@! TO.P,U4,2*
G04 #@! TO.N,Net-(R7-Pad2)*
X161730000Y-117950000D03*
G04 #@! TO.P,U4,3*
G04 #@! TO.N,/OUT4*
X164270000Y-122049999D03*
G04 #@! TO.P,U4,4*
G04 #@! TO.N,GND*
X161730000Y-122049999D03*
G04 #@! TD*
G04 #@! TO.P,U4,1*
G04 #@! TO.N,GND*
X164270000Y-90950000D03*
G04 #@! TO.P,U4,2*
G04 #@! TO.N,Net-(R7-Pad2)*
X161730000Y-90950000D03*
G04 #@! TO.P,U4,3*
G04 #@! TO.N,/OUT4*
X164270000Y-95049999D03*
G04 #@! TO.P,U4,4*
G04 #@! TO.N,GND*
X161730000Y-95049999D03*
G04 #@! TD*
G04 #@! TO.P,U2,1*
G04 #@! TO.N,GND*
X134270000Y-117950000D03*
G04 #@! TO.P,U2,2*
G04 #@! TO.N,Net-(R3-Pad2)*
X131730000Y-117950000D03*
G04 #@! TO.P,U2,3*
G04 #@! TO.N,/OUT2*
X134270000Y-122049999D03*
G04 #@! TO.P,U2,4*
G04 #@! TO.N,GND*
X131730000Y-122049999D03*
G04 #@! TD*
G04 #@! TO.P,U2,1*
G04 #@! TO.N,GND*
X134270000Y-90950000D03*
G04 #@! TO.P,U2,2*
G04 #@! TO.N,Net-(R3-Pad2)*
X131730000Y-90950000D03*
G04 #@! TO.P,U2,3*
G04 #@! TO.N,/OUT2*
X134270000Y-95049999D03*
G04 #@! TO.P,U2,4*
G04 #@! TO.N,GND*
X131730000Y-95049999D03*
G04 #@! TD*
G04 #@! TO.P,U1,4*
G04 #@! TO.N,GND*
X116730000Y-122049999D03*
G04 #@! TO.P,U1,3*
G04 #@! TO.N,/OUT1*
X119270000Y-122049999D03*
G04 #@! TO.P,U1,2*
G04 #@! TO.N,Net-(R1-Pad2)*
X116730000Y-117950000D03*
G04 #@! TO.P,U1,1*
G04 #@! TO.N,GND*
X119270000Y-117950000D03*
G04 #@! TD*
G04 #@! TO.P,U1,4*
G04 #@! TO.N,GND*
X116730000Y-95049999D03*
G04 #@! TO.P,U1,3*
G04 #@! TO.N,/OUT1*
X119270000Y-95049999D03*
G04 #@! TO.P,U1,2*
G04 #@! TO.N,Net-(R1-Pad2)*
X116730000Y-90950000D03*
G04 #@! TO.P,U1,1*
G04 #@! TO.N,GND*
X119270000Y-90950000D03*
G04 #@! TD*
D11*
G04 #@! TO.P,R9,2*
G04 #@! TO.N,Net-(R9-Pad2)*
X178480000Y-126520000D03*
G04 #@! TO.P,R9,1*
G04 #@! TO.N,VCC*
X178480000Y-128720000D03*
G04 #@! TD*
G04 #@! TO.P,R9,2*
G04 #@! TO.N,Net-(R9-Pad2)*
X178480000Y-99520000D03*
G04 #@! TO.P,R9,1*
G04 #@! TO.N,VCC*
X178480000Y-101720000D03*
G04 #@! TD*
D12*
G04 #@! TO.P,RV1,1*
G04 #@! TO.N,VCC*
X120060000Y-132700000D03*
D13*
G04 #@! TO.P,RV1,2*
G04 #@! TO.N,/OUT1*
X117560000Y-130200000D03*
G04 #@! TO.P,RV1,3*
X120060000Y-127700000D03*
G04 #@! TD*
D12*
G04 #@! TO.P,RV1,1*
G04 #@! TO.N,VCC*
X120060000Y-105700000D03*
D13*
G04 #@! TO.P,RV1,2*
G04 #@! TO.N,/OUT1*
X117560000Y-103200000D03*
G04 #@! TO.P,RV1,3*
X120060000Y-100700000D03*
G04 #@! TD*
D11*
G04 #@! TO.P,R10,1*
G04 #@! TO.N,VCC*
X175940000Y-128720000D03*
G04 #@! TO.P,R10,2*
G04 #@! TO.N,/OUT5*
X175940000Y-126520000D03*
G04 #@! TD*
G04 #@! TO.P,R10,1*
G04 #@! TO.N,VCC*
X175940000Y-101720000D03*
G04 #@! TO.P,R10,2*
G04 #@! TO.N,/OUT5*
X175940000Y-99520000D03*
G04 #@! TD*
D10*
G04 #@! TO.P,U3,4*
G04 #@! TO.N,GND*
X146730000Y-122049999D03*
G04 #@! TO.P,U3,3*
G04 #@! TO.N,/OUT3*
X149270000Y-122049999D03*
G04 #@! TO.P,U3,2*
G04 #@! TO.N,Net-(R5-Pad2)*
X146730000Y-117950000D03*
G04 #@! TO.P,U3,1*
G04 #@! TO.N,GND*
X149270000Y-117950000D03*
G04 #@! TD*
G04 #@! TO.P,U3,4*
G04 #@! TO.N,GND*
X146730000Y-95049999D03*
G04 #@! TO.P,U3,3*
G04 #@! TO.N,/OUT3*
X149270000Y-95049999D03*
G04 #@! TO.P,U3,2*
G04 #@! TO.N,Net-(R5-Pad2)*
X146730000Y-90950000D03*
G04 #@! TO.P,U3,1*
G04 #@! TO.N,GND*
X149270000Y-90950000D03*
G04 #@! TD*
G04 #@! TO.P,U5,4*
G04 #@! TO.N,GND*
X176730000Y-122049999D03*
G04 #@! TO.P,U5,3*
G04 #@! TO.N,/OUT5*
X179270000Y-122049999D03*
G04 #@! TO.P,U5,2*
G04 #@! TO.N,Net-(R9-Pad2)*
X176730000Y-117950000D03*
G04 #@! TO.P,U5,1*
G04 #@! TO.N,GND*
X179270000Y-117950000D03*
G04 #@! TD*
G04 #@! TO.P,U5,4*
G04 #@! TO.N,GND*
X176730000Y-95049999D03*
G04 #@! TO.P,U5,3*
G04 #@! TO.N,/OUT5*
X179270000Y-95049999D03*
G04 #@! TO.P,U5,2*
G04 #@! TO.N,Net-(R9-Pad2)*
X176730000Y-90950000D03*
G04 #@! TO.P,U5,1*
G04 #@! TO.N,GND*
X179270000Y-90950000D03*
G04 #@! TD*
D14*
G04 #@! TO.P,J1,1*
G04 #@! TO.N,VCC*
X142920000Y-132700000D03*
D15*
G04 #@! TO.P,J1,2*
G04 #@! TO.N,GND*
X142920000Y-130160000D03*
G04 #@! TO.P,J1,3*
G04 #@! TO.N,/OUT1*
X145460000Y-132700000D03*
G04 #@! TO.P,J1,4*
G04 #@! TO.N,/OUT2*
X145460000Y-130160000D03*
G04 #@! TO.P,J1,5*
G04 #@! TO.N,/OUT3*
X148000000Y-132700000D03*
G04 #@! TO.P,J1,6*
G04 #@! TO.N,/OUT4*
X148000000Y-130160000D03*
G04 #@! TO.P,J1,7*
G04 #@! TO.N,/OUT5*
X150540000Y-132700000D03*
G04 #@! TO.P,J1,8*
G04 #@! TO.N,Net-(J1-Pad8)*
X150540000Y-130160000D03*
G04 #@! TO.P,J1,9*
G04 #@! TO.N,Net-(J1-Pad9)*
X153080000Y-132700000D03*
G04 #@! TO.P,J1,10*
G04 #@! TO.N,Net-(J1-Pad10)*
X153080000Y-130160000D03*
G04 #@! TD*
D14*
G04 #@! TO.P,J1,1*
G04 #@! TO.N,VCC*
X142920000Y-105700000D03*
D15*
G04 #@! TO.P,J1,2*
G04 #@! TO.N,GND*
X142920000Y-103160000D03*
G04 #@! TO.P,J1,3*
G04 #@! TO.N,/OUT1*
X145460000Y-105700000D03*
G04 #@! TO.P,J1,4*
G04 #@! TO.N,/OUT2*
X145460000Y-103160000D03*
G04 #@! TO.P,J1,5*
G04 #@! TO.N,/OUT3*
X148000000Y-105700000D03*
G04 #@! TO.P,J1,6*
G04 #@! TO.N,/OUT4*
X148000000Y-103160000D03*
G04 #@! TO.P,J1,7*
G04 #@! TO.N,/OUT5*
X150540000Y-105700000D03*
G04 #@! TO.P,J1,8*
G04 #@! TO.N,Net-(J1-Pad8)*
X150540000Y-103160000D03*
G04 #@! TO.P,J1,9*
G04 #@! TO.N,Net-(J1-Pad9)*
X153080000Y-105700000D03*
G04 #@! TO.P,J1,10*
G04 #@! TO.N,Net-(J1-Pad10)*
X153080000Y-103160000D03*
G04 #@! TD*
D16*
G04 #@! TO.P,R7,2*
G04 #@! TO.N,Net-(R7-Pad2)*
X168490000Y-120000000D03*
G04 #@! TO.P,R7,1*
G04 #@! TO.N,VCC*
X170690000Y-120000000D03*
G04 #@! TD*
G04 #@! TO.P,R7,2*
G04 #@! TO.N,Net-(R7-Pad2)*
X168490000Y-93000000D03*
G04 #@! TO.P,R7,1*
G04 #@! TO.N,VCC*
X170690000Y-93000000D03*
G04 #@! TD*
G04 #@! TO.P,R6,1*
G04 #@! TO.N,VCC*
X155450000Y-122540000D03*
G04 #@! TO.P,R6,2*
G04 #@! TO.N,/OUT3*
X153250000Y-122540000D03*
G04 #@! TD*
G04 #@! TO.P,R6,1*
G04 #@! TO.N,VCC*
X155450000Y-95540000D03*
G04 #@! TO.P,R6,2*
G04 #@! TO.N,/OUT3*
X153250000Y-95540000D03*
G04 #@! TD*
G04 #@! TO.P,R5,2*
G04 #@! TO.N,Net-(R5-Pad2)*
X153250000Y-120000000D03*
G04 #@! TO.P,R5,1*
G04 #@! TO.N,VCC*
X155450000Y-120000000D03*
G04 #@! TD*
G04 #@! TO.P,R5,2*
G04 #@! TO.N,Net-(R5-Pad2)*
X153250000Y-93000000D03*
G04 #@! TO.P,R5,1*
G04 #@! TO.N,VCC*
X155450000Y-93000000D03*
G04 #@! TD*
G04 #@! TO.P,R4,2*
G04 #@! TO.N,/OUT2*
X138010000Y-122540000D03*
G04 #@! TO.P,R4,1*
G04 #@! TO.N,VCC*
X140210000Y-122540000D03*
G04 #@! TD*
G04 #@! TO.P,R4,2*
G04 #@! TO.N,/OUT2*
X138010000Y-95540000D03*
G04 #@! TO.P,R4,1*
G04 #@! TO.N,VCC*
X140210000Y-95540000D03*
G04 #@! TD*
G04 #@! TO.P,R3,1*
G04 #@! TO.N,VCC*
X140210000Y-120000000D03*
G04 #@! TO.P,R3,2*
G04 #@! TO.N,Net-(R3-Pad2)*
X138010000Y-120000000D03*
G04 #@! TD*
G04 #@! TO.P,R3,1*
G04 #@! TO.N,VCC*
X140210000Y-93000000D03*
G04 #@! TO.P,R3,2*
G04 #@! TO.N,Net-(R3-Pad2)*
X138010000Y-93000000D03*
G04 #@! TD*
G04 #@! TO.P,R2,2*
G04 #@! TO.N,/OUT1*
X122770000Y-122540000D03*
G04 #@! TO.P,R2,1*
G04 #@! TO.N,VCC*
X124970000Y-122540000D03*
G04 #@! TD*
G04 #@! TO.P,R2,2*
G04 #@! TO.N,/OUT1*
X122770000Y-95540000D03*
G04 #@! TO.P,R2,1*
G04 #@! TO.N,VCC*
X124970000Y-95540000D03*
G04 #@! TD*
G04 #@! TO.P,R1,1*
G04 #@! TO.N,VCC*
X124970000Y-120000000D03*
G04 #@! TO.P,R1,2*
G04 #@! TO.N,Net-(R1-Pad2)*
X122770000Y-120000000D03*
G04 #@! TD*
G04 #@! TO.P,R1,1*
G04 #@! TO.N,VCC*
X124970000Y-93000000D03*
G04 #@! TO.P,R1,2*
G04 #@! TO.N,Net-(R1-Pad2)*
X122770000Y-93000000D03*
G04 #@! TD*
D17*
G04 #@! TO.P,C1,1*
G04 #@! TO.N,GND*
X135300000Y-128895000D03*
G04 #@! TO.P,C1,2*
G04 #@! TO.N,VCC*
X135300000Y-130795000D03*
G04 #@! TD*
G04 #@! TO.P,C1,1*
G04 #@! TO.N,GND*
X135300000Y-101895000D03*
G04 #@! TO.P,C1,2*
G04 #@! TO.N,VCC*
X135300000Y-103795000D03*
G04 #@! TD*
D16*
G04 #@! TO.P,R8,1*
G04 #@! TO.N,VCC*
X170690000Y-122540000D03*
G04 #@! TO.P,R8,2*
G04 #@! TO.N,/OUT4*
X168490000Y-122540000D03*
G04 #@! TD*
G04 #@! TO.P,R8,1*
G04 #@! TO.N,VCC*
X170690000Y-95540000D03*
G04 #@! TO.P,R8,2*
G04 #@! TO.N,/OUT4*
X168490000Y-95540000D03*
G04 #@! TD*
D17*
G04 #@! TO.P,C1,2*
G04 #@! TO.N,VCC*
X135300000Y-76795000D03*
G04 #@! TO.P,C1,1*
G04 #@! TO.N,GND*
X135300000Y-74895000D03*
G04 #@! TD*
D16*
G04 #@! TO.P,R1,2*
G04 #@! TO.N,Net-(R1-Pad2)*
X122770000Y-66000000D03*
G04 #@! TO.P,R1,1*
G04 #@! TO.N,VCC*
X124970000Y-66000000D03*
G04 #@! TD*
G04 #@! TO.P,R2,1*
G04 #@! TO.N,VCC*
X124970000Y-68540000D03*
G04 #@! TO.P,R2,2*
G04 #@! TO.N,/OUT1*
X122770000Y-68540000D03*
G04 #@! TD*
G04 #@! TO.P,R3,2*
G04 #@! TO.N,Net-(R3-Pad2)*
X138010000Y-66000000D03*
G04 #@! TO.P,R3,1*
G04 #@! TO.N,VCC*
X140210000Y-66000000D03*
G04 #@! TD*
G04 #@! TO.P,R4,1*
G04 #@! TO.N,VCC*
X140210000Y-68540000D03*
G04 #@! TO.P,R4,2*
G04 #@! TO.N,/OUT2*
X138010000Y-68540000D03*
G04 #@! TD*
G04 #@! TO.P,R5,1*
G04 #@! TO.N,VCC*
X155450000Y-66000000D03*
G04 #@! TO.P,R5,2*
G04 #@! TO.N,Net-(R5-Pad2)*
X153250000Y-66000000D03*
G04 #@! TD*
G04 #@! TO.P,R6,2*
G04 #@! TO.N,/OUT3*
X153250000Y-68540000D03*
G04 #@! TO.P,R6,1*
G04 #@! TO.N,VCC*
X155450000Y-68540000D03*
G04 #@! TD*
G04 #@! TO.P,R7,1*
G04 #@! TO.N,VCC*
X170690000Y-66000000D03*
G04 #@! TO.P,R7,2*
G04 #@! TO.N,Net-(R7-Pad2)*
X168490000Y-66000000D03*
G04 #@! TD*
G04 #@! TO.P,R8,2*
G04 #@! TO.N,/OUT4*
X168490000Y-68540000D03*
G04 #@! TO.P,R8,1*
G04 #@! TO.N,VCC*
X170690000Y-68540000D03*
G04 #@! TD*
D11*
G04 #@! TO.P,R9,1*
G04 #@! TO.N,VCC*
X178480000Y-74720000D03*
G04 #@! TO.P,R9,2*
G04 #@! TO.N,Net-(R9-Pad2)*
X178480000Y-72520000D03*
G04 #@! TD*
G04 #@! TO.P,R10,2*
G04 #@! TO.N,/OUT5*
X175940000Y-72520000D03*
G04 #@! TO.P,R10,1*
G04 #@! TO.N,VCC*
X175940000Y-74720000D03*
G04 #@! TD*
D10*
G04 #@! TO.P,U1,1*
G04 #@! TO.N,GND*
X119270000Y-63950000D03*
G04 #@! TO.P,U1,2*
G04 #@! TO.N,Net-(R1-Pad2)*
X116730000Y-63950000D03*
G04 #@! TO.P,U1,3*
G04 #@! TO.N,/OUT1*
X119270000Y-68049999D03*
G04 #@! TO.P,U1,4*
G04 #@! TO.N,GND*
X116730000Y-68049999D03*
G04 #@! TD*
G04 #@! TO.P,U2,4*
G04 #@! TO.N,GND*
X131730000Y-68049999D03*
G04 #@! TO.P,U2,3*
G04 #@! TO.N,/OUT2*
X134270000Y-68049999D03*
G04 #@! TO.P,U2,2*
G04 #@! TO.N,Net-(R3-Pad2)*
X131730000Y-63950000D03*
G04 #@! TO.P,U2,1*
G04 #@! TO.N,GND*
X134270000Y-63950000D03*
G04 #@! TD*
G04 #@! TO.P,U3,1*
G04 #@! TO.N,GND*
X149270000Y-63950000D03*
G04 #@! TO.P,U3,2*
G04 #@! TO.N,Net-(R5-Pad2)*
X146730000Y-63950000D03*
G04 #@! TO.P,U3,3*
G04 #@! TO.N,/OUT3*
X149270000Y-68049999D03*
G04 #@! TO.P,U3,4*
G04 #@! TO.N,GND*
X146730000Y-68049999D03*
G04 #@! TD*
G04 #@! TO.P,U4,4*
G04 #@! TO.N,GND*
X161730000Y-68049999D03*
G04 #@! TO.P,U4,3*
G04 #@! TO.N,/OUT4*
X164270000Y-68049999D03*
G04 #@! TO.P,U4,2*
G04 #@! TO.N,Net-(R7-Pad2)*
X161730000Y-63950000D03*
G04 #@! TO.P,U4,1*
G04 #@! TO.N,GND*
X164270000Y-63950000D03*
G04 #@! TD*
G04 #@! TO.P,U5,1*
G04 #@! TO.N,GND*
X179270000Y-63950000D03*
G04 #@! TO.P,U5,2*
G04 #@! TO.N,Net-(R9-Pad2)*
X176730000Y-63950000D03*
G04 #@! TO.P,U5,3*
G04 #@! TO.N,/OUT5*
X179270000Y-68049999D03*
G04 #@! TO.P,U5,4*
G04 #@! TO.N,GND*
X176730000Y-68049999D03*
G04 #@! TD*
D15*
G04 #@! TO.P,J1,10*
G04 #@! TO.N,Net-(J1-Pad10)*
X153080000Y-76160000D03*
G04 #@! TO.P,J1,9*
G04 #@! TO.N,Net-(J1-Pad9)*
X153080000Y-78700000D03*
G04 #@! TO.P,J1,8*
G04 #@! TO.N,Net-(J1-Pad8)*
X150540000Y-76160000D03*
G04 #@! TO.P,J1,7*
G04 #@! TO.N,/OUT5*
X150540000Y-78700000D03*
G04 #@! TO.P,J1,6*
G04 #@! TO.N,/OUT4*
X148000000Y-76160000D03*
G04 #@! TO.P,J1,5*
G04 #@! TO.N,/OUT3*
X148000000Y-78700000D03*
G04 #@! TO.P,J1,4*
G04 #@! TO.N,/OUT2*
X145460000Y-76160000D03*
G04 #@! TO.P,J1,3*
G04 #@! TO.N,/OUT1*
X145460000Y-78700000D03*
G04 #@! TO.P,J1,2*
G04 #@! TO.N,GND*
X142920000Y-76160000D03*
D14*
G04 #@! TO.P,J1,1*
G04 #@! TO.N,VCC*
X142920000Y-78700000D03*
G04 #@! TD*
D13*
G04 #@! TO.P,RV1,3*
G04 #@! TO.N,/OUT1*
X120060000Y-73700000D03*
G04 #@! TO.P,RV1,2*
X117560000Y-76200000D03*
D12*
G04 #@! TO.P,RV1,1*
G04 #@! TO.N,VCC*
X120060000Y-78700000D03*
G04 #@! TD*
D18*
G04 #@! TO.N,VCC*
X124970000Y-68540000D02*
X124970000Y-66000000D01*
X140210000Y-66000000D02*
X140210000Y-68540000D01*
X155450000Y-66000000D02*
X155450000Y-68540000D01*
X170690000Y-66000000D02*
X170690000Y-68540000D01*
X178480000Y-74720000D02*
X175940000Y-74720000D01*
X173865000Y-76795000D02*
X175940000Y-74720000D01*
X160700000Y-76795000D02*
X173865000Y-76795000D01*
X157344999Y-80150001D02*
X160700000Y-76795000D01*
X142920000Y-78700000D02*
X144370001Y-80150001D01*
X144370001Y-80150001D02*
X157344999Y-80150001D01*
X121965000Y-76795000D02*
X120060000Y-78700000D01*
X139365000Y-76795000D02*
X121965000Y-76795000D01*
X142920000Y-78700000D02*
X141270000Y-78700000D01*
X141270000Y-78700000D02*
X139365000Y-76795000D01*
X140210000Y-64560000D02*
X140210000Y-66000000D01*
X117520000Y-78700000D02*
X114345000Y-75525000D01*
X120060000Y-78700000D02*
X117520000Y-78700000D01*
X114345000Y-75525000D02*
X114345000Y-63460000D01*
X114345000Y-63460000D02*
X116250000Y-61555000D01*
X137205000Y-61555000D02*
X140210000Y-64560000D01*
X155450000Y-64900000D02*
X155450000Y-66000000D01*
X179730000Y-74720000D02*
X182290000Y-72160000D01*
X178480000Y-74720000D02*
X179730000Y-74720000D01*
X182290000Y-63460000D02*
X180385000Y-61555000D01*
X182290000Y-72160000D02*
X182290000Y-63460000D01*
X158795000Y-61555000D02*
X155450000Y-64900000D01*
X180385000Y-61555000D02*
X170860000Y-61555000D01*
X170860000Y-61555000D02*
X158795000Y-61555000D01*
X170690000Y-61725000D02*
X170860000Y-61555000D01*
X170690000Y-66000000D02*
X170690000Y-61725000D01*
X116250000Y-61555000D02*
X125140000Y-61555000D01*
X125140000Y-61555000D02*
X137205000Y-61555000D01*
X124970000Y-61725000D02*
X125140000Y-61555000D01*
X124970000Y-66000000D02*
X124970000Y-61725000D01*
X124970000Y-95540000D02*
X124970000Y-93000000D01*
X124970000Y-122540000D02*
X124970000Y-120000000D01*
X140210000Y-93000000D02*
X140210000Y-95540000D01*
X140210000Y-120000000D02*
X140210000Y-122540000D01*
X170690000Y-93000000D02*
X170690000Y-95540000D01*
X170690000Y-120000000D02*
X170690000Y-122540000D01*
X178480000Y-101720000D02*
X175940000Y-101720000D01*
X178480000Y-128720000D02*
X175940000Y-128720000D01*
X155450000Y-93000000D02*
X155450000Y-95540000D01*
X155450000Y-120000000D02*
X155450000Y-122540000D01*
X173865000Y-103795000D02*
X175940000Y-101720000D01*
X173865000Y-130795000D02*
X175940000Y-128720000D01*
X117520000Y-105700000D02*
X114345000Y-102525000D01*
X117520000Y-132700000D02*
X114345000Y-129525000D01*
X179730000Y-101720000D02*
X182290000Y-99160000D01*
X179730000Y-128720000D02*
X182290000Y-126160000D01*
X182290000Y-90460000D02*
X180385000Y-88555000D01*
X182290000Y-117460000D02*
X180385000Y-115555000D01*
X139365000Y-103795000D02*
X121965000Y-103795000D01*
X139365000Y-130795000D02*
X121965000Y-130795000D01*
X178480000Y-101720000D02*
X179730000Y-101720000D01*
X178480000Y-128720000D02*
X179730000Y-128720000D01*
X182290000Y-99160000D02*
X182290000Y-90460000D01*
X182290000Y-126160000D02*
X182290000Y-117460000D01*
X158795000Y-88555000D02*
X155450000Y-91900000D01*
X158795000Y-115555000D02*
X155450000Y-118900000D01*
X142920000Y-105700000D02*
X141270000Y-105700000D01*
X142920000Y-132700000D02*
X141270000Y-132700000D01*
X144370001Y-107150001D02*
X157344999Y-107150001D01*
X144370001Y-134150001D02*
X157344999Y-134150001D01*
X121965000Y-103795000D02*
X120060000Y-105700000D01*
X121965000Y-130795000D02*
X120060000Y-132700000D01*
X120060000Y-105700000D02*
X117520000Y-105700000D01*
X120060000Y-132700000D02*
X117520000Y-132700000D01*
X114345000Y-102525000D02*
X114345000Y-90460000D01*
X114345000Y-129525000D02*
X114345000Y-117460000D01*
X114345000Y-90460000D02*
X116250000Y-88555000D01*
X114345000Y-117460000D02*
X116250000Y-115555000D01*
X157344999Y-107150001D02*
X160700000Y-103795000D01*
X157344999Y-134150001D02*
X160700000Y-130795000D01*
X141270000Y-105700000D02*
X139365000Y-103795000D01*
X141270000Y-132700000D02*
X139365000Y-130795000D01*
X140210000Y-91560000D02*
X140210000Y-93000000D01*
X140210000Y-118560000D02*
X140210000Y-120000000D01*
X137205000Y-88555000D02*
X140210000Y-91560000D01*
X137205000Y-115555000D02*
X140210000Y-118560000D01*
X160700000Y-103795000D02*
X173865000Y-103795000D01*
X160700000Y-130795000D02*
X173865000Y-130795000D01*
X142920000Y-105700000D02*
X144370001Y-107150001D01*
X142920000Y-132700000D02*
X144370001Y-134150001D01*
X155450000Y-91900000D02*
X155450000Y-93000000D01*
X155450000Y-118900000D02*
X155450000Y-120000000D01*
X170690000Y-93000000D02*
X170690000Y-88725000D01*
X170690000Y-120000000D02*
X170690000Y-115725000D01*
X116250000Y-88555000D02*
X125140000Y-88555000D01*
X116250000Y-115555000D02*
X125140000Y-115555000D01*
X124970000Y-88725000D02*
X125140000Y-88555000D01*
X124970000Y-115725000D02*
X125140000Y-115555000D01*
X180385000Y-88555000D02*
X170860000Y-88555000D01*
X180385000Y-115555000D02*
X170860000Y-115555000D01*
X170860000Y-88555000D02*
X158795000Y-88555000D01*
X170860000Y-115555000D02*
X158795000Y-115555000D01*
X125140000Y-88555000D02*
X137205000Y-88555000D01*
X125140000Y-115555000D02*
X137205000Y-115555000D01*
X124970000Y-93000000D02*
X124970000Y-88725000D01*
X124970000Y-120000000D02*
X124970000Y-115725000D01*
X170690000Y-88725000D02*
X170860000Y-88555000D01*
X170690000Y-115725000D02*
X170860000Y-115555000D01*
D19*
G04 #@! TO.N,/OUT5*
X175090000Y-72520000D02*
X175940000Y-72520000D01*
X154180000Y-72520000D02*
X175090000Y-72520000D01*
X151829999Y-74870001D02*
X154180000Y-72520000D01*
X150540000Y-78700000D02*
X151829999Y-77410001D01*
X151829999Y-77410001D02*
X151829999Y-74870001D01*
X175940000Y-71715000D02*
X175940000Y-72520000D01*
X179270000Y-68049999D02*
X179270000Y-68385000D01*
X179270000Y-68385000D02*
X175940000Y-71715000D01*
X151829999Y-104410001D02*
X151829999Y-101870001D01*
X151829999Y-131410001D02*
X151829999Y-128870001D01*
X150540000Y-105700000D02*
X151829999Y-104410001D01*
X150540000Y-132700000D02*
X151829999Y-131410001D01*
X179270000Y-95049999D02*
X179270000Y-95385000D01*
X179270000Y-122049999D02*
X179270000Y-122385000D01*
X175940000Y-98715000D02*
X175940000Y-99520000D01*
X175940000Y-125715000D02*
X175940000Y-126520000D01*
X179270000Y-95385000D02*
X175940000Y-98715000D01*
X179270000Y-122385000D02*
X175940000Y-125715000D01*
X175090000Y-99520000D02*
X175940000Y-99520000D01*
X175090000Y-126520000D02*
X175940000Y-126520000D01*
X154180000Y-99520000D02*
X175090000Y-99520000D01*
X154180000Y-126520000D02*
X175090000Y-126520000D01*
X151829999Y-101870001D02*
X154180000Y-99520000D01*
X151829999Y-128870001D02*
X154180000Y-126520000D01*
G04 #@! TO.N,/OUT4*
X167999999Y-68049999D02*
X168490000Y-68540000D01*
X164270000Y-68049999D02*
X167999999Y-68049999D01*
X164270000Y-68049999D02*
X162509999Y-69810000D01*
X150540000Y-69810000D02*
X148849999Y-71500001D01*
X148849999Y-75310001D02*
X148000000Y-76160000D01*
X148849999Y-71500001D02*
X148849999Y-75310001D01*
X162509999Y-69810000D02*
X150540000Y-69810000D01*
X148849999Y-102310001D02*
X148000000Y-103160000D01*
X148849999Y-129310001D02*
X148000000Y-130160000D01*
X148849999Y-98500001D02*
X148849999Y-102310001D01*
X148849999Y-125500001D02*
X148849999Y-129310001D01*
X150540000Y-96810000D02*
X148849999Y-98500001D01*
X150540000Y-123810000D02*
X148849999Y-125500001D01*
X164270000Y-95049999D02*
X167999999Y-95049999D01*
X164270000Y-122049999D02*
X167999999Y-122049999D01*
X164270000Y-95049999D02*
X162509999Y-96810000D01*
X164270000Y-122049999D02*
X162509999Y-123810000D01*
X167999999Y-95049999D02*
X168490000Y-95540000D01*
X167999999Y-122049999D02*
X168490000Y-122540000D01*
X162509999Y-96810000D02*
X150540000Y-96810000D01*
X162509999Y-123810000D02*
X150540000Y-123810000D01*
G04 #@! TO.N,/OUT3*
X149760001Y-68540000D02*
X153250000Y-68540000D01*
X149270000Y-68049999D02*
X149760001Y-68540000D01*
X146730000Y-77430000D02*
X148000000Y-78700000D01*
X149270000Y-68049999D02*
X146730000Y-70589999D01*
X146730000Y-70589999D02*
X146730000Y-77430000D01*
X149270000Y-95049999D02*
X146730000Y-97589999D01*
X149270000Y-122049999D02*
X146730000Y-124589999D01*
X146730000Y-97589999D02*
X146730000Y-104430000D01*
X146730000Y-124589999D02*
X146730000Y-131430000D01*
X146730000Y-104430000D02*
X148000000Y-105700000D01*
X146730000Y-131430000D02*
X148000000Y-132700000D01*
X149270000Y-95049999D02*
X149760001Y-95540000D01*
X149270000Y-122049999D02*
X149760001Y-122540000D01*
X149760001Y-95540000D02*
X153250000Y-95540000D01*
X149760001Y-122540000D02*
X153250000Y-122540000D01*
G04 #@! TO.N,/OUT2*
X138010000Y-68710000D02*
X138010000Y-68540000D01*
X140380000Y-71080000D02*
X138010000Y-68710000D01*
X142920000Y-71080000D02*
X140380000Y-71080000D01*
X145460000Y-76160000D02*
X145460000Y-73620000D01*
X145460000Y-73620000D02*
X142920000Y-71080000D01*
X134760001Y-68540000D02*
X138010000Y-68540000D01*
X134270000Y-68049999D02*
X134760001Y-68540000D01*
X138010000Y-95710000D02*
X138010000Y-95540000D01*
X138010000Y-122710000D02*
X138010000Y-122540000D01*
X145460000Y-103160000D02*
X145460000Y-100620000D01*
X145460000Y-130160000D02*
X145460000Y-127620000D01*
X142920000Y-98080000D02*
X140380000Y-98080000D01*
X142920000Y-125080000D02*
X140380000Y-125080000D01*
X134760001Y-95540000D02*
X138010000Y-95540000D01*
X134760001Y-122540000D02*
X138010000Y-122540000D01*
X134270000Y-95049999D02*
X134760001Y-95540000D01*
X134270000Y-122049999D02*
X134760001Y-122540000D01*
X145460000Y-100620000D02*
X142920000Y-98080000D01*
X145460000Y-127620000D02*
X142920000Y-125080000D01*
X140380000Y-98080000D02*
X138010000Y-95710000D01*
X140380000Y-125080000D02*
X138010000Y-122710000D01*
G04 #@! TO.N,/OUT1*
X122279999Y-68049999D02*
X122770000Y-68540000D01*
X119270000Y-68049999D02*
X122279999Y-68049999D01*
X142285000Y-72350000D02*
X125140000Y-72350000D01*
X144190000Y-74255000D02*
X142285000Y-72350000D01*
X145460000Y-78700000D02*
X144190000Y-77430000D01*
X144190000Y-77430000D02*
X144190000Y-74255000D01*
X117560000Y-76200000D02*
X120060000Y-73700000D01*
X120031999Y-68811998D02*
X119270000Y-68049999D01*
X120884999Y-69664998D02*
X120031999Y-68811998D01*
X120060000Y-73700000D02*
X120884999Y-72875001D01*
X125140000Y-72350000D02*
X120884999Y-72350000D01*
X120884999Y-72875001D02*
X120884999Y-72350000D01*
X120884999Y-72350000D02*
X120884999Y-69664998D01*
X145460000Y-105700000D02*
X144190000Y-104430000D01*
X145460000Y-132700000D02*
X144190000Y-131430000D01*
X117560000Y-103200000D02*
X120060000Y-100700000D01*
X117560000Y-130200000D02*
X120060000Y-127700000D01*
X120060000Y-100700000D02*
X120884999Y-99875001D01*
X120060000Y-127700000D02*
X120884999Y-126875001D01*
X120884999Y-96664998D02*
X120031999Y-95811998D01*
X120884999Y-123664998D02*
X120031999Y-122811998D01*
X122279999Y-95049999D02*
X122770000Y-95540000D01*
X122279999Y-122049999D02*
X122770000Y-122540000D01*
X142285000Y-99350000D02*
X125140000Y-99350000D01*
X142285000Y-126350000D02*
X125140000Y-126350000D01*
X125140000Y-99350000D02*
X120884999Y-99350000D01*
X125140000Y-126350000D02*
X120884999Y-126350000D01*
X120884999Y-99875001D02*
X120884999Y-99350000D01*
X120884999Y-126875001D02*
X120884999Y-126350000D01*
X119270000Y-95049999D02*
X122279999Y-95049999D01*
X119270000Y-122049999D02*
X122279999Y-122049999D01*
X144190000Y-104430000D02*
X144190000Y-101255000D01*
X144190000Y-131430000D02*
X144190000Y-128255000D01*
X144190000Y-101255000D02*
X142285000Y-99350000D01*
X144190000Y-128255000D02*
X142285000Y-126350000D01*
X120031999Y-95811998D02*
X119270000Y-95049999D01*
X120031999Y-122811998D02*
X119270000Y-122049999D01*
X120884999Y-99350000D02*
X120884999Y-96664998D01*
X120884999Y-126350000D02*
X120884999Y-123664998D01*
G04 #@! TO.N,Net-(R1-Pad2)*
X118780000Y-66000000D02*
X116730000Y-63950000D01*
X122770000Y-66000000D02*
X118780000Y-66000000D01*
X118780000Y-93000000D02*
X116730000Y-90950000D01*
X118780000Y-120000000D02*
X116730000Y-117950000D01*
X122770000Y-93000000D02*
X118780000Y-93000000D01*
X122770000Y-120000000D02*
X118780000Y-120000000D01*
G04 #@! TO.N,Net-(R3-Pad2)*
X133780000Y-66000000D02*
X131730000Y-63950000D01*
X138010000Y-66000000D02*
X133780000Y-66000000D01*
X138010000Y-93000000D02*
X133780000Y-93000000D01*
X138010000Y-120000000D02*
X133780000Y-120000000D01*
X133780000Y-93000000D02*
X131730000Y-90950000D01*
X133780000Y-120000000D02*
X131730000Y-117950000D01*
G04 #@! TO.N,Net-(R5-Pad2)*
X148780000Y-66000000D02*
X153250000Y-66000000D01*
X146730000Y-63950000D02*
X148780000Y-66000000D01*
X146730000Y-90950000D02*
X148780000Y-93000000D01*
X146730000Y-117950000D02*
X148780000Y-120000000D01*
X148780000Y-93000000D02*
X153250000Y-93000000D01*
X148780000Y-120000000D02*
X153250000Y-120000000D01*
G04 #@! TO.N,Net-(R7-Pad2)*
X163780000Y-66000000D02*
X161730000Y-63950000D01*
X168490000Y-66000000D02*
X163780000Y-66000000D01*
X168490000Y-93000000D02*
X163780000Y-93000000D01*
X168490000Y-120000000D02*
X163780000Y-120000000D01*
X163780000Y-93000000D02*
X161730000Y-90950000D01*
X163780000Y-120000000D02*
X161730000Y-117950000D01*
G04 #@! TO.N,Net-(R9-Pad2)*
X177065000Y-63950000D02*
X176730000Y-63950000D01*
X181020000Y-67905000D02*
X177065000Y-63950000D01*
X181020000Y-69830000D02*
X181020000Y-67905000D01*
X178480000Y-72520000D02*
X178480000Y-72370000D01*
X178480000Y-72370000D02*
X181020000Y-69830000D01*
X177065000Y-90950000D02*
X176730000Y-90950000D01*
X177065000Y-117950000D02*
X176730000Y-117950000D01*
X181020000Y-96830000D02*
X181020000Y-94905000D01*
X181020000Y-123830000D02*
X181020000Y-121905000D01*
X181020000Y-94905000D02*
X177065000Y-90950000D01*
X181020000Y-121905000D02*
X177065000Y-117950000D01*
X178480000Y-99520000D02*
X178480000Y-99370000D01*
X178480000Y-126520000D02*
X178480000Y-126370000D01*
X178480000Y-99370000D02*
X181020000Y-96830000D01*
X178480000Y-126370000D02*
X181020000Y-123830000D01*
G04 #@! TD*
D20*
G04 #@! TO.N,GND*
G36*
X143355001Y-74600869D02*
X143355001Y-74750877D01*
X143276890Y-74718524D01*
X143047000Y-74839845D01*
X143047000Y-76033000D01*
X143067000Y-76033000D01*
X143067000Y-76287000D01*
X143047000Y-76287000D01*
X143047000Y-76307000D01*
X142793000Y-76307000D01*
X142793000Y-76287000D01*
X141599181Y-76287000D01*
X141478514Y-76516892D01*
X141724817Y-77041358D01*
X141931855Y-77230039D01*
X141822235Y-77251843D01*
X141612191Y-77392191D01*
X141537574Y-77503863D01*
X140168937Y-76135227D01*
X140111193Y-76048807D01*
X139768837Y-75820052D01*
X139683654Y-75803108D01*
X141478514Y-75803108D01*
X141599181Y-76033000D01*
X142793000Y-76033000D01*
X142793000Y-74839845D01*
X142563110Y-74718524D01*
X142153076Y-74888355D01*
X141724817Y-75278642D01*
X141478514Y-75803108D01*
X139683654Y-75803108D01*
X139466935Y-75760000D01*
X139466934Y-75760000D01*
X139365000Y-75739724D01*
X139263066Y-75760000D01*
X136252552Y-75760000D01*
X136310000Y-75621309D01*
X136310000Y-75180750D01*
X136151250Y-75022000D01*
X135427000Y-75022000D01*
X135427000Y-75042000D01*
X135173000Y-75042000D01*
X135173000Y-75022000D01*
X134448750Y-75022000D01*
X134290000Y-75180750D01*
X134290000Y-75621309D01*
X134347448Y-75760000D01*
X122066934Y-75760000D01*
X121965000Y-75739724D01*
X121863065Y-75760000D01*
X121561163Y-75820052D01*
X121218807Y-76048807D01*
X121161065Y-76135224D01*
X120068730Y-77227560D01*
X119235000Y-77227560D01*
X118987235Y-77276843D01*
X118777191Y-77417191D01*
X118636843Y-77627235D01*
X118629331Y-77665000D01*
X117948711Y-77665000D01*
X117916384Y-77632673D01*
X118387024Y-77437728D01*
X118797728Y-77027024D01*
X119020000Y-76490412D01*
X119020000Y-75920867D01*
X119780868Y-75160000D01*
X120350412Y-75160000D01*
X120887024Y-74937728D01*
X121297728Y-74527024D01*
X121446154Y-74168691D01*
X134290000Y-74168691D01*
X134290000Y-74609250D01*
X134448750Y-74768000D01*
X135173000Y-74768000D01*
X135173000Y-73818750D01*
X135427000Y-73818750D01*
X135427000Y-74768000D01*
X136151250Y-74768000D01*
X136310000Y-74609250D01*
X136310000Y-74168691D01*
X136213327Y-73935302D01*
X136034699Y-73756673D01*
X135801310Y-73660000D01*
X135585750Y-73660000D01*
X135427000Y-73818750D01*
X135173000Y-73818750D01*
X135014250Y-73660000D01*
X134798690Y-73660000D01*
X134565301Y-73756673D01*
X134386673Y-73935302D01*
X134290000Y-74168691D01*
X121446154Y-74168691D01*
X121520000Y-73990412D01*
X121520000Y-73427614D01*
X121671551Y-73200802D01*
X121674694Y-73185000D01*
X141939133Y-73185000D01*
X143355001Y-74600869D01*
X143355001Y-74600869D01*
G37*
X143355001Y-74600869D02*
X143355001Y-74750877D01*
X143276890Y-74718524D01*
X143047000Y-74839845D01*
X143047000Y-76033000D01*
X143067000Y-76033000D01*
X143067000Y-76287000D01*
X143047000Y-76287000D01*
X143047000Y-76307000D01*
X142793000Y-76307000D01*
X142793000Y-76287000D01*
X141599181Y-76287000D01*
X141478514Y-76516892D01*
X141724817Y-77041358D01*
X141931855Y-77230039D01*
X141822235Y-77251843D01*
X141612191Y-77392191D01*
X141537574Y-77503863D01*
X140168937Y-76135227D01*
X140111193Y-76048807D01*
X139768837Y-75820052D01*
X139683654Y-75803108D01*
X141478514Y-75803108D01*
X141599181Y-76033000D01*
X142793000Y-76033000D01*
X142793000Y-74839845D01*
X142563110Y-74718524D01*
X142153076Y-74888355D01*
X141724817Y-75278642D01*
X141478514Y-75803108D01*
X139683654Y-75803108D01*
X139466935Y-75760000D01*
X139466934Y-75760000D01*
X139365000Y-75739724D01*
X139263066Y-75760000D01*
X136252552Y-75760000D01*
X136310000Y-75621309D01*
X136310000Y-75180750D01*
X136151250Y-75022000D01*
X135427000Y-75022000D01*
X135427000Y-75042000D01*
X135173000Y-75042000D01*
X135173000Y-75022000D01*
X134448750Y-75022000D01*
X134290000Y-75180750D01*
X134290000Y-75621309D01*
X134347448Y-75760000D01*
X122066934Y-75760000D01*
X121965000Y-75739724D01*
X121863065Y-75760000D01*
X121561163Y-75820052D01*
X121218807Y-76048807D01*
X121161065Y-76135224D01*
X120068730Y-77227560D01*
X119235000Y-77227560D01*
X118987235Y-77276843D01*
X118777191Y-77417191D01*
X118636843Y-77627235D01*
X118629331Y-77665000D01*
X117948711Y-77665000D01*
X117916384Y-77632673D01*
X118387024Y-77437728D01*
X118797728Y-77027024D01*
X119020000Y-76490412D01*
X119020000Y-75920867D01*
X119780868Y-75160000D01*
X120350412Y-75160000D01*
X120887024Y-74937728D01*
X121297728Y-74527024D01*
X121446154Y-74168691D01*
X134290000Y-74168691D01*
X134290000Y-74609250D01*
X134448750Y-74768000D01*
X135173000Y-74768000D01*
X135173000Y-73818750D01*
X135427000Y-73818750D01*
X135427000Y-74768000D01*
X136151250Y-74768000D01*
X136310000Y-74609250D01*
X136310000Y-74168691D01*
X136213327Y-73935302D01*
X136034699Y-73756673D01*
X135801310Y-73660000D01*
X135585750Y-73660000D01*
X135427000Y-73818750D01*
X135173000Y-73818750D01*
X135014250Y-73660000D01*
X134798690Y-73660000D01*
X134565301Y-73756673D01*
X134386673Y-73935302D01*
X134290000Y-74168691D01*
X121446154Y-74168691D01*
X121520000Y-73990412D01*
X121520000Y-73427614D01*
X121671551Y-73200802D01*
X121674694Y-73185000D01*
X141939133Y-73185000D01*
X143355001Y-74600869D01*
G36*
X115545680Y-64741337D02*
X115938663Y-65134320D01*
X116452119Y-65347000D01*
X116946133Y-65347000D01*
X118131415Y-66532283D01*
X118177999Y-66602001D01*
X118254323Y-66652999D01*
X118454199Y-66786552D01*
X118599781Y-66815510D01*
X118478663Y-66865679D01*
X118085680Y-67258662D01*
X118006572Y-67449646D01*
X117952397Y-67318856D01*
X117710213Y-67249391D01*
X116909605Y-68049999D01*
X117710213Y-68850607D01*
X117952397Y-68781142D01*
X118002535Y-68640606D01*
X118085680Y-68841336D01*
X118478663Y-69234319D01*
X118992119Y-69446999D01*
X119486131Y-69446999D01*
X119499714Y-69460582D01*
X119499720Y-69460586D01*
X120050000Y-70010867D01*
X120049999Y-72240000D01*
X119769588Y-72240000D01*
X119232976Y-72462272D01*
X118822272Y-72872976D01*
X118600000Y-73409588D01*
X118600000Y-73979132D01*
X117839133Y-74740000D01*
X117269588Y-74740000D01*
X116732976Y-74962272D01*
X116322272Y-75372976D01*
X116127326Y-75843616D01*
X115380000Y-75096290D01*
X115380000Y-69030212D01*
X115929392Y-69030212D01*
X115998857Y-69272396D01*
X116522302Y-69459143D01*
X117077368Y-69431361D01*
X117461143Y-69272396D01*
X117530608Y-69030212D01*
X116730000Y-68229604D01*
X115929392Y-69030212D01*
X115380000Y-69030212D01*
X115380000Y-68473081D01*
X115507603Y-68781142D01*
X115749787Y-68850607D01*
X116550395Y-68049999D01*
X115749787Y-67249391D01*
X115507603Y-67318856D01*
X115380000Y-67676523D01*
X115380000Y-67069786D01*
X115929392Y-67069786D01*
X116730000Y-67870394D01*
X117530608Y-67069786D01*
X117461143Y-66827602D01*
X116937698Y-66640855D01*
X116382632Y-66668637D01*
X115998857Y-66827602D01*
X115929392Y-67069786D01*
X115380000Y-67069786D01*
X115380000Y-64341349D01*
X115545680Y-64741337D01*
X115545680Y-64741337D01*
G37*
X115545680Y-64741337D02*
X115938663Y-65134320D01*
X116452119Y-65347000D01*
X116946133Y-65347000D01*
X118131415Y-66532283D01*
X118177999Y-66602001D01*
X118254323Y-66652999D01*
X118454199Y-66786552D01*
X118599781Y-66815510D01*
X118478663Y-66865679D01*
X118085680Y-67258662D01*
X118006572Y-67449646D01*
X117952397Y-67318856D01*
X117710213Y-67249391D01*
X116909605Y-68049999D01*
X117710213Y-68850607D01*
X117952397Y-68781142D01*
X118002535Y-68640606D01*
X118085680Y-68841336D01*
X118478663Y-69234319D01*
X118992119Y-69446999D01*
X119486131Y-69446999D01*
X119499714Y-69460582D01*
X119499720Y-69460586D01*
X120050000Y-70010867D01*
X120049999Y-72240000D01*
X119769588Y-72240000D01*
X119232976Y-72462272D01*
X118822272Y-72872976D01*
X118600000Y-73409588D01*
X118600000Y-73979132D01*
X117839133Y-74740000D01*
X117269588Y-74740000D01*
X116732976Y-74962272D01*
X116322272Y-75372976D01*
X116127326Y-75843616D01*
X115380000Y-75096290D01*
X115380000Y-69030212D01*
X115929392Y-69030212D01*
X115998857Y-69272396D01*
X116522302Y-69459143D01*
X117077368Y-69431361D01*
X117461143Y-69272396D01*
X117530608Y-69030212D01*
X116730000Y-68229604D01*
X115929392Y-69030212D01*
X115380000Y-69030212D01*
X115380000Y-68473081D01*
X115507603Y-68781142D01*
X115749787Y-68850607D01*
X116550395Y-68049999D01*
X115749787Y-67249391D01*
X115507603Y-67318856D01*
X115380000Y-67676523D01*
X115380000Y-67069786D01*
X115929392Y-67069786D01*
X116730000Y-67870394D01*
X117530608Y-67069786D01*
X117461143Y-66827602D01*
X116937698Y-66640855D01*
X116382632Y-66668637D01*
X115998857Y-66827602D01*
X115929392Y-67069786D01*
X115380000Y-67069786D01*
X115380000Y-64341349D01*
X115545680Y-64741337D01*
G36*
X175938663Y-62765680D02*
X175545680Y-63158663D01*
X175333000Y-63672119D01*
X175333000Y-64227881D01*
X175545680Y-64741337D01*
X175938663Y-65134320D01*
X176452119Y-65347000D01*
X177007881Y-65347000D01*
X177201099Y-65266967D01*
X178705749Y-66771617D01*
X178478663Y-66865679D01*
X178085680Y-67258662D01*
X178006572Y-67449646D01*
X177952397Y-67318856D01*
X177710213Y-67249391D01*
X176909605Y-68049999D01*
X176923748Y-68064142D01*
X176744143Y-68243747D01*
X176730000Y-68229604D01*
X175929392Y-69030212D01*
X175998857Y-69272396D01*
X176522302Y-69459143D01*
X177040949Y-69433184D01*
X175407720Y-71066413D01*
X175337999Y-71112999D01*
X175163142Y-71374692D01*
X175032191Y-71462191D01*
X174891843Y-71672235D01*
X174889304Y-71685000D01*
X154262232Y-71685000D01*
X154179999Y-71668643D01*
X154097766Y-71685000D01*
X154097763Y-71685000D01*
X153854199Y-71733448D01*
X153577999Y-71917999D01*
X153531417Y-71987715D01*
X151297717Y-74221416D01*
X151227999Y-74268000D01*
X151151091Y-74383101D01*
X151043447Y-74544201D01*
X151004825Y-74738367D01*
X150686256Y-74675000D01*
X150393744Y-74675000D01*
X149960582Y-74761161D01*
X149684999Y-74945300D01*
X149684999Y-71845868D01*
X150885869Y-70645000D01*
X162427766Y-70645000D01*
X162509999Y-70661357D01*
X162592232Y-70645000D01*
X162592236Y-70645000D01*
X162835800Y-70596552D01*
X163112000Y-70412001D01*
X163158586Y-70342280D01*
X164053868Y-69446999D01*
X164547881Y-69446999D01*
X165061337Y-69234319D01*
X165410657Y-68884999D01*
X167242560Y-68884999D01*
X167242560Y-68990000D01*
X167291843Y-69237765D01*
X167432191Y-69447809D01*
X167642235Y-69588157D01*
X167890000Y-69637440D01*
X169090000Y-69637440D01*
X169337765Y-69588157D01*
X169547809Y-69447809D01*
X169590000Y-69384666D01*
X169632191Y-69447809D01*
X169842235Y-69588157D01*
X170090000Y-69637440D01*
X171290000Y-69637440D01*
X171537765Y-69588157D01*
X171747809Y-69447809D01*
X171888157Y-69237765D01*
X171937440Y-68990000D01*
X171937440Y-68090000D01*
X171888171Y-67842301D01*
X175320856Y-67842301D01*
X175348638Y-68397367D01*
X175507603Y-68781142D01*
X175749787Y-68850607D01*
X176550395Y-68049999D01*
X175749787Y-67249391D01*
X175507603Y-67318856D01*
X175320856Y-67842301D01*
X171888171Y-67842301D01*
X171888157Y-67842235D01*
X171747809Y-67632191D01*
X171725000Y-67616950D01*
X171725000Y-67069786D01*
X175929392Y-67069786D01*
X176730000Y-67870394D01*
X177530608Y-67069786D01*
X177461143Y-66827602D01*
X176937698Y-66640855D01*
X176382632Y-66668637D01*
X175998857Y-66827602D01*
X175929392Y-67069786D01*
X171725000Y-67069786D01*
X171725000Y-66923050D01*
X171747809Y-66907809D01*
X171888157Y-66697765D01*
X171937440Y-66450000D01*
X171937440Y-65550000D01*
X171888157Y-65302235D01*
X171747809Y-65092191D01*
X171725000Y-65076950D01*
X171725000Y-62590000D01*
X176362793Y-62590000D01*
X175938663Y-62765680D01*
X175938663Y-62765680D01*
G37*
X175938663Y-62765680D02*
X175545680Y-63158663D01*
X175333000Y-63672119D01*
X175333000Y-64227881D01*
X175545680Y-64741337D01*
X175938663Y-65134320D01*
X176452119Y-65347000D01*
X177007881Y-65347000D01*
X177201099Y-65266967D01*
X178705749Y-66771617D01*
X178478663Y-66865679D01*
X178085680Y-67258662D01*
X178006572Y-67449646D01*
X177952397Y-67318856D01*
X177710213Y-67249391D01*
X176909605Y-68049999D01*
X176923748Y-68064142D01*
X176744143Y-68243747D01*
X176730000Y-68229604D01*
X175929392Y-69030212D01*
X175998857Y-69272396D01*
X176522302Y-69459143D01*
X177040949Y-69433184D01*
X175407720Y-71066413D01*
X175337999Y-71112999D01*
X175163142Y-71374692D01*
X175032191Y-71462191D01*
X174891843Y-71672235D01*
X174889304Y-71685000D01*
X154262232Y-71685000D01*
X154179999Y-71668643D01*
X154097766Y-71685000D01*
X154097763Y-71685000D01*
X153854199Y-71733448D01*
X153577999Y-71917999D01*
X153531417Y-71987715D01*
X151297717Y-74221416D01*
X151227999Y-74268000D01*
X151151091Y-74383101D01*
X151043447Y-74544201D01*
X151004825Y-74738367D01*
X150686256Y-74675000D01*
X150393744Y-74675000D01*
X149960582Y-74761161D01*
X149684999Y-74945300D01*
X149684999Y-71845868D01*
X150885869Y-70645000D01*
X162427766Y-70645000D01*
X162509999Y-70661357D01*
X162592232Y-70645000D01*
X162592236Y-70645000D01*
X162835800Y-70596552D01*
X163112000Y-70412001D01*
X163158586Y-70342280D01*
X164053868Y-69446999D01*
X164547881Y-69446999D01*
X165061337Y-69234319D01*
X165410657Y-68884999D01*
X167242560Y-68884999D01*
X167242560Y-68990000D01*
X167291843Y-69237765D01*
X167432191Y-69447809D01*
X167642235Y-69588157D01*
X167890000Y-69637440D01*
X169090000Y-69637440D01*
X169337765Y-69588157D01*
X169547809Y-69447809D01*
X169590000Y-69384666D01*
X169632191Y-69447809D01*
X169842235Y-69588157D01*
X170090000Y-69637440D01*
X171290000Y-69637440D01*
X171537765Y-69588157D01*
X171747809Y-69447809D01*
X171888157Y-69237765D01*
X171937440Y-68990000D01*
X171937440Y-68090000D01*
X171888171Y-67842301D01*
X175320856Y-67842301D01*
X175348638Y-68397367D01*
X175507603Y-68781142D01*
X175749787Y-68850607D01*
X176550395Y-68049999D01*
X175749787Y-67249391D01*
X175507603Y-67318856D01*
X175320856Y-67842301D01*
X171888171Y-67842301D01*
X171888157Y-67842235D01*
X171747809Y-67632191D01*
X171725000Y-67616950D01*
X171725000Y-67069786D01*
X175929392Y-67069786D01*
X176730000Y-67870394D01*
X177530608Y-67069786D01*
X177461143Y-66827602D01*
X176937698Y-66640855D01*
X176382632Y-66668637D01*
X175998857Y-66827602D01*
X175929392Y-67069786D01*
X171725000Y-67069786D01*
X171725000Y-66923050D01*
X171747809Y-66907809D01*
X171888157Y-66697765D01*
X171937440Y-66450000D01*
X171937440Y-65550000D01*
X171888157Y-65302235D01*
X171747809Y-65092191D01*
X171725000Y-65076950D01*
X171725000Y-62590000D01*
X176362793Y-62590000D01*
X175938663Y-62765680D01*
G36*
X158048807Y-60808807D02*
X157991065Y-60895224D01*
X154790227Y-64096063D01*
X154703807Y-64153807D01*
X154515955Y-64434948D01*
X154475052Y-64496164D01*
X154394724Y-64900000D01*
X154415000Y-65001935D01*
X154415000Y-65076950D01*
X154392191Y-65092191D01*
X154350000Y-65155334D01*
X154307809Y-65092191D01*
X154097765Y-64951843D01*
X153850000Y-64902560D01*
X152650000Y-64902560D01*
X152402235Y-64951843D01*
X152192191Y-65092191D01*
X152143541Y-65165000D01*
X150003265Y-65165000D01*
X150070608Y-64930213D01*
X149270000Y-64129605D01*
X149255858Y-64143748D01*
X149076253Y-63964143D01*
X149090395Y-63950000D01*
X149449605Y-63950000D01*
X150250213Y-64750608D01*
X150492397Y-64681143D01*
X150679144Y-64157698D01*
X150651362Y-63602632D01*
X150492397Y-63218857D01*
X150250213Y-63149392D01*
X149449605Y-63950000D01*
X149090395Y-63950000D01*
X148289787Y-63149392D01*
X148047603Y-63218857D01*
X147997465Y-63359393D01*
X147914320Y-63158663D01*
X147725444Y-62969787D01*
X148469392Y-62969787D01*
X149270000Y-63770395D01*
X150070608Y-62969787D01*
X150001143Y-62727603D01*
X149477698Y-62540856D01*
X148922632Y-62568638D01*
X148538857Y-62727603D01*
X148469392Y-62969787D01*
X147725444Y-62969787D01*
X147521337Y-62765680D01*
X147007881Y-62553000D01*
X146452119Y-62553000D01*
X145938663Y-62765680D01*
X145545680Y-63158663D01*
X145333000Y-63672119D01*
X145333000Y-64227881D01*
X145545680Y-64741337D01*
X145938663Y-65134320D01*
X146452119Y-65347000D01*
X146946133Y-65347000D01*
X148131415Y-66532283D01*
X148177999Y-66602001D01*
X148254323Y-66652999D01*
X148454199Y-66786552D01*
X148599781Y-66815510D01*
X148478663Y-66865679D01*
X148085680Y-67258662D01*
X148006572Y-67449646D01*
X147952397Y-67318856D01*
X147710213Y-67249391D01*
X146909605Y-68049999D01*
X146923748Y-68064142D01*
X146744143Y-68243747D01*
X146730000Y-68229604D01*
X145929392Y-69030212D01*
X145998857Y-69272396D01*
X146522302Y-69459143D01*
X146688297Y-69450835D01*
X146197720Y-69941412D01*
X146127999Y-69987998D01*
X145943448Y-70264199D01*
X145895000Y-70507763D01*
X145895000Y-70507766D01*
X145878643Y-70589999D01*
X145895000Y-70672232D01*
X145895000Y-72874131D01*
X143568587Y-70547720D01*
X143522001Y-70477999D01*
X143245801Y-70293448D01*
X143002237Y-70245000D01*
X143002233Y-70245000D01*
X142920000Y-70228643D01*
X142837767Y-70245000D01*
X140725868Y-70245000D01*
X140118308Y-69637440D01*
X140810000Y-69637440D01*
X141057765Y-69588157D01*
X141267809Y-69447809D01*
X141408157Y-69237765D01*
X141457440Y-68990000D01*
X141457440Y-68090000D01*
X141408171Y-67842301D01*
X145320856Y-67842301D01*
X145348638Y-68397367D01*
X145507603Y-68781142D01*
X145749787Y-68850607D01*
X146550395Y-68049999D01*
X145749787Y-67249391D01*
X145507603Y-67318856D01*
X145320856Y-67842301D01*
X141408171Y-67842301D01*
X141408157Y-67842235D01*
X141267809Y-67632191D01*
X141245000Y-67616950D01*
X141245000Y-67069786D01*
X145929392Y-67069786D01*
X146730000Y-67870394D01*
X147530608Y-67069786D01*
X147461143Y-66827602D01*
X146937698Y-66640855D01*
X146382632Y-66668637D01*
X145998857Y-66827602D01*
X145929392Y-67069786D01*
X141245000Y-67069786D01*
X141245000Y-66923050D01*
X141267809Y-66907809D01*
X141408157Y-66697765D01*
X141457440Y-66450000D01*
X141457440Y-65550000D01*
X141408157Y-65302235D01*
X141267809Y-65092191D01*
X141245000Y-65076950D01*
X141245000Y-64661934D01*
X141265276Y-64560000D01*
X141184948Y-64156163D01*
X141183374Y-64153807D01*
X140956193Y-63813807D01*
X140869776Y-63756065D01*
X138008937Y-60895227D01*
X137951193Y-60808807D01*
X137803318Y-60710000D01*
X158196682Y-60710000D01*
X158048807Y-60808807D01*
X158048807Y-60808807D01*
G37*
X158048807Y-60808807D02*
X157991065Y-60895224D01*
X154790227Y-64096063D01*
X154703807Y-64153807D01*
X154515955Y-64434948D01*
X154475052Y-64496164D01*
X154394724Y-64900000D01*
X154415000Y-65001935D01*
X154415000Y-65076950D01*
X154392191Y-65092191D01*
X154350000Y-65155334D01*
X154307809Y-65092191D01*
X154097765Y-64951843D01*
X153850000Y-64902560D01*
X152650000Y-64902560D01*
X152402235Y-64951843D01*
X152192191Y-65092191D01*
X152143541Y-65165000D01*
X150003265Y-65165000D01*
X150070608Y-64930213D01*
X149270000Y-64129605D01*
X149255858Y-64143748D01*
X149076253Y-63964143D01*
X149090395Y-63950000D01*
X149449605Y-63950000D01*
X150250213Y-64750608D01*
X150492397Y-64681143D01*
X150679144Y-64157698D01*
X150651362Y-63602632D01*
X150492397Y-63218857D01*
X150250213Y-63149392D01*
X149449605Y-63950000D01*
X149090395Y-63950000D01*
X148289787Y-63149392D01*
X148047603Y-63218857D01*
X147997465Y-63359393D01*
X147914320Y-63158663D01*
X147725444Y-62969787D01*
X148469392Y-62969787D01*
X149270000Y-63770395D01*
X150070608Y-62969787D01*
X150001143Y-62727603D01*
X149477698Y-62540856D01*
X148922632Y-62568638D01*
X148538857Y-62727603D01*
X148469392Y-62969787D01*
X147725444Y-62969787D01*
X147521337Y-62765680D01*
X147007881Y-62553000D01*
X146452119Y-62553000D01*
X145938663Y-62765680D01*
X145545680Y-63158663D01*
X145333000Y-63672119D01*
X145333000Y-64227881D01*
X145545680Y-64741337D01*
X145938663Y-65134320D01*
X146452119Y-65347000D01*
X146946133Y-65347000D01*
X148131415Y-66532283D01*
X148177999Y-66602001D01*
X148254323Y-66652999D01*
X148454199Y-66786552D01*
X148599781Y-66815510D01*
X148478663Y-66865679D01*
X148085680Y-67258662D01*
X148006572Y-67449646D01*
X147952397Y-67318856D01*
X147710213Y-67249391D01*
X146909605Y-68049999D01*
X146923748Y-68064142D01*
X146744143Y-68243747D01*
X146730000Y-68229604D01*
X145929392Y-69030212D01*
X145998857Y-69272396D01*
X146522302Y-69459143D01*
X146688297Y-69450835D01*
X146197720Y-69941412D01*
X146127999Y-69987998D01*
X145943448Y-70264199D01*
X145895000Y-70507763D01*
X145895000Y-70507766D01*
X145878643Y-70589999D01*
X145895000Y-70672232D01*
X145895000Y-72874131D01*
X143568587Y-70547720D01*
X143522001Y-70477999D01*
X143245801Y-70293448D01*
X143002237Y-70245000D01*
X143002233Y-70245000D01*
X142920000Y-70228643D01*
X142837767Y-70245000D01*
X140725868Y-70245000D01*
X140118308Y-69637440D01*
X140810000Y-69637440D01*
X141057765Y-69588157D01*
X141267809Y-69447809D01*
X141408157Y-69237765D01*
X141457440Y-68990000D01*
X141457440Y-68090000D01*
X141408171Y-67842301D01*
X145320856Y-67842301D01*
X145348638Y-68397367D01*
X145507603Y-68781142D01*
X145749787Y-68850607D01*
X146550395Y-68049999D01*
X145749787Y-67249391D01*
X145507603Y-67318856D01*
X145320856Y-67842301D01*
X141408171Y-67842301D01*
X141408157Y-67842235D01*
X141267809Y-67632191D01*
X141245000Y-67616950D01*
X141245000Y-67069786D01*
X145929392Y-67069786D01*
X146730000Y-67870394D01*
X147530608Y-67069786D01*
X147461143Y-66827602D01*
X146937698Y-66640855D01*
X146382632Y-66668637D01*
X145998857Y-66827602D01*
X145929392Y-67069786D01*
X141245000Y-67069786D01*
X141245000Y-66923050D01*
X141267809Y-66907809D01*
X141408157Y-66697765D01*
X141457440Y-66450000D01*
X141457440Y-65550000D01*
X141408157Y-65302235D01*
X141267809Y-65092191D01*
X141245000Y-65076950D01*
X141245000Y-64661934D01*
X141265276Y-64560000D01*
X141184948Y-64156163D01*
X141183374Y-64153807D01*
X140956193Y-63813807D01*
X140869776Y-63756065D01*
X138008937Y-60895227D01*
X137951193Y-60808807D01*
X137803318Y-60710000D01*
X158196682Y-60710000D01*
X158048807Y-60808807D01*
G36*
X130938663Y-62765680D02*
X130545680Y-63158663D01*
X130333000Y-63672119D01*
X130333000Y-64227881D01*
X130545680Y-64741337D01*
X130938663Y-65134320D01*
X131452119Y-65347000D01*
X131946133Y-65347000D01*
X133131415Y-66532283D01*
X133177999Y-66602001D01*
X133254323Y-66652999D01*
X133454199Y-66786552D01*
X133599781Y-66815510D01*
X133478663Y-66865679D01*
X133085680Y-67258662D01*
X133006572Y-67449646D01*
X132952397Y-67318856D01*
X132710213Y-67249391D01*
X131909605Y-68049999D01*
X132710213Y-68850607D01*
X132952397Y-68781142D01*
X133002535Y-68640606D01*
X133085680Y-68841336D01*
X133478663Y-69234319D01*
X133992119Y-69446999D01*
X134547881Y-69446999D01*
X134707449Y-69380904D01*
X134760000Y-69391357D01*
X134842233Y-69375000D01*
X136903541Y-69375000D01*
X136952191Y-69447809D01*
X137162235Y-69588157D01*
X137410000Y-69637440D01*
X137756573Y-69637440D01*
X139634132Y-71515000D01*
X121719999Y-71515000D01*
X121719999Y-69747230D01*
X121736356Y-69664997D01*
X121719999Y-69582764D01*
X121719999Y-69582761D01*
X121685087Y-69407245D01*
X121712191Y-69447809D01*
X121922235Y-69588157D01*
X122170000Y-69637440D01*
X123370000Y-69637440D01*
X123617765Y-69588157D01*
X123827809Y-69447809D01*
X123870000Y-69384666D01*
X123912191Y-69447809D01*
X124122235Y-69588157D01*
X124370000Y-69637440D01*
X125570000Y-69637440D01*
X125817765Y-69588157D01*
X126027809Y-69447809D01*
X126168157Y-69237765D01*
X126209441Y-69030212D01*
X130929392Y-69030212D01*
X130998857Y-69272396D01*
X131522302Y-69459143D01*
X132077368Y-69431361D01*
X132461143Y-69272396D01*
X132530608Y-69030212D01*
X131730000Y-68229604D01*
X130929392Y-69030212D01*
X126209441Y-69030212D01*
X126217440Y-68990000D01*
X126217440Y-68090000D01*
X126168171Y-67842301D01*
X130320856Y-67842301D01*
X130348638Y-68397367D01*
X130507603Y-68781142D01*
X130749787Y-68850607D01*
X131550395Y-68049999D01*
X130749787Y-67249391D01*
X130507603Y-67318856D01*
X130320856Y-67842301D01*
X126168171Y-67842301D01*
X126168157Y-67842235D01*
X126027809Y-67632191D01*
X126005000Y-67616950D01*
X126005000Y-67069786D01*
X130929392Y-67069786D01*
X131730000Y-67870394D01*
X132530608Y-67069786D01*
X132461143Y-66827602D01*
X131937698Y-66640855D01*
X131382632Y-66668637D01*
X130998857Y-66827602D01*
X130929392Y-67069786D01*
X126005000Y-67069786D01*
X126005000Y-66923050D01*
X126027809Y-66907809D01*
X126168157Y-66697765D01*
X126217440Y-66450000D01*
X126217440Y-65550000D01*
X126168157Y-65302235D01*
X126027809Y-65092191D01*
X126005000Y-65076950D01*
X126005000Y-62590000D01*
X131362793Y-62590000D01*
X130938663Y-62765680D01*
X130938663Y-62765680D01*
G37*
X130938663Y-62765680D02*
X130545680Y-63158663D01*
X130333000Y-63672119D01*
X130333000Y-64227881D01*
X130545680Y-64741337D01*
X130938663Y-65134320D01*
X131452119Y-65347000D01*
X131946133Y-65347000D01*
X133131415Y-66532283D01*
X133177999Y-66602001D01*
X133254323Y-66652999D01*
X133454199Y-66786552D01*
X133599781Y-66815510D01*
X133478663Y-66865679D01*
X133085680Y-67258662D01*
X133006572Y-67449646D01*
X132952397Y-67318856D01*
X132710213Y-67249391D01*
X131909605Y-68049999D01*
X132710213Y-68850607D01*
X132952397Y-68781142D01*
X133002535Y-68640606D01*
X133085680Y-68841336D01*
X133478663Y-69234319D01*
X133992119Y-69446999D01*
X134547881Y-69446999D01*
X134707449Y-69380904D01*
X134760000Y-69391357D01*
X134842233Y-69375000D01*
X136903541Y-69375000D01*
X136952191Y-69447809D01*
X137162235Y-69588157D01*
X137410000Y-69637440D01*
X137756573Y-69637440D01*
X139634132Y-71515000D01*
X121719999Y-71515000D01*
X121719999Y-69747230D01*
X121736356Y-69664997D01*
X121719999Y-69582764D01*
X121719999Y-69582761D01*
X121685087Y-69407245D01*
X121712191Y-69447809D01*
X121922235Y-69588157D01*
X122170000Y-69637440D01*
X123370000Y-69637440D01*
X123617765Y-69588157D01*
X123827809Y-69447809D01*
X123870000Y-69384666D01*
X123912191Y-69447809D01*
X124122235Y-69588157D01*
X124370000Y-69637440D01*
X125570000Y-69637440D01*
X125817765Y-69588157D01*
X126027809Y-69447809D01*
X126168157Y-69237765D01*
X126209441Y-69030212D01*
X130929392Y-69030212D01*
X130998857Y-69272396D01*
X131522302Y-69459143D01*
X132077368Y-69431361D01*
X132461143Y-69272396D01*
X132530608Y-69030212D01*
X131730000Y-68229604D01*
X130929392Y-69030212D01*
X126209441Y-69030212D01*
X126217440Y-68990000D01*
X126217440Y-68090000D01*
X126168171Y-67842301D01*
X130320856Y-67842301D01*
X130348638Y-68397367D01*
X130507603Y-68781142D01*
X130749787Y-68850607D01*
X131550395Y-68049999D01*
X130749787Y-67249391D01*
X130507603Y-67318856D01*
X130320856Y-67842301D01*
X126168171Y-67842301D01*
X126168157Y-67842235D01*
X126027809Y-67632191D01*
X126005000Y-67616950D01*
X126005000Y-67069786D01*
X130929392Y-67069786D01*
X131730000Y-67870394D01*
X132530608Y-67069786D01*
X132461143Y-66827602D01*
X131937698Y-66640855D01*
X131382632Y-66668637D01*
X130998857Y-66827602D01*
X130929392Y-67069786D01*
X126005000Y-67069786D01*
X126005000Y-66923050D01*
X126027809Y-66907809D01*
X126168157Y-66697765D01*
X126217440Y-66450000D01*
X126217440Y-65550000D01*
X126168157Y-65302235D01*
X126027809Y-65092191D01*
X126005000Y-65076950D01*
X126005000Y-62590000D01*
X131362793Y-62590000D01*
X130938663Y-62765680D01*
G36*
X160938663Y-62765680D02*
X160545680Y-63158663D01*
X160333000Y-63672119D01*
X160333000Y-64227881D01*
X160545680Y-64741337D01*
X160938663Y-65134320D01*
X161452119Y-65347000D01*
X161946133Y-65347000D01*
X163131415Y-66532283D01*
X163177999Y-66602001D01*
X163254323Y-66652999D01*
X163454199Y-66786552D01*
X163599781Y-66815510D01*
X163478663Y-66865679D01*
X163085680Y-67258662D01*
X163006572Y-67449646D01*
X162952397Y-67318856D01*
X162710213Y-67249391D01*
X161909605Y-68049999D01*
X161923748Y-68064142D01*
X161744143Y-68243747D01*
X161730000Y-68229604D01*
X161715858Y-68243747D01*
X161536253Y-68064142D01*
X161550395Y-68049999D01*
X160749787Y-67249391D01*
X160507603Y-67318856D01*
X160320856Y-67842301D01*
X160348638Y-68397367D01*
X160507603Y-68781142D01*
X160749785Y-68850606D01*
X160634774Y-68965617D01*
X160644157Y-68975000D01*
X156697440Y-68975000D01*
X156697440Y-68090000D01*
X156648157Y-67842235D01*
X156507809Y-67632191D01*
X156485000Y-67616950D01*
X156485000Y-67069786D01*
X160929392Y-67069786D01*
X161730000Y-67870394D01*
X162530608Y-67069786D01*
X162461143Y-66827602D01*
X161937698Y-66640855D01*
X161382632Y-66668637D01*
X160998857Y-66827602D01*
X160929392Y-67069786D01*
X156485000Y-67069786D01*
X156485000Y-66923050D01*
X156507809Y-66907809D01*
X156648157Y-66697765D01*
X156697440Y-66450000D01*
X156697440Y-65550000D01*
X156648157Y-65302235D01*
X156593410Y-65220300D01*
X159223711Y-62590000D01*
X161362793Y-62590000D01*
X160938663Y-62765680D01*
X160938663Y-62765680D01*
G37*
X160938663Y-62765680D02*
X160545680Y-63158663D01*
X160333000Y-63672119D01*
X160333000Y-64227881D01*
X160545680Y-64741337D01*
X160938663Y-65134320D01*
X161452119Y-65347000D01*
X161946133Y-65347000D01*
X163131415Y-66532283D01*
X163177999Y-66602001D01*
X163254323Y-66652999D01*
X163454199Y-66786552D01*
X163599781Y-66815510D01*
X163478663Y-66865679D01*
X163085680Y-67258662D01*
X163006572Y-67449646D01*
X162952397Y-67318856D01*
X162710213Y-67249391D01*
X161909605Y-68049999D01*
X161923748Y-68064142D01*
X161744143Y-68243747D01*
X161730000Y-68229604D01*
X161715858Y-68243747D01*
X161536253Y-68064142D01*
X161550395Y-68049999D01*
X160749787Y-67249391D01*
X160507603Y-67318856D01*
X160320856Y-67842301D01*
X160348638Y-68397367D01*
X160507603Y-68781142D01*
X160749785Y-68850606D01*
X160634774Y-68965617D01*
X160644157Y-68975000D01*
X156697440Y-68975000D01*
X156697440Y-68090000D01*
X156648157Y-67842235D01*
X156507809Y-67632191D01*
X156485000Y-67616950D01*
X156485000Y-67069786D01*
X160929392Y-67069786D01*
X161730000Y-67870394D01*
X162530608Y-67069786D01*
X162461143Y-66827602D01*
X161937698Y-66640855D01*
X161382632Y-66668637D01*
X160998857Y-66827602D01*
X160929392Y-67069786D01*
X156485000Y-67069786D01*
X156485000Y-66923050D01*
X156507809Y-66907809D01*
X156648157Y-66697765D01*
X156697440Y-66450000D01*
X156697440Y-65550000D01*
X156648157Y-65302235D01*
X156593410Y-65220300D01*
X159223711Y-62590000D01*
X161362793Y-62590000D01*
X160938663Y-62765680D01*
G36*
X178538857Y-62727603D02*
X178469392Y-62969787D01*
X179270000Y-63770395D01*
X180070608Y-62969787D01*
X180001143Y-62727603D01*
X179615447Y-62590000D01*
X179956290Y-62590000D01*
X181255001Y-63888712D01*
X181255001Y-66959133D01*
X179624341Y-65328474D01*
X180001143Y-65172397D01*
X180070608Y-64930213D01*
X179270000Y-64129605D01*
X179255858Y-64143748D01*
X179076253Y-63964143D01*
X179090395Y-63950000D01*
X179449605Y-63950000D01*
X180250213Y-64750608D01*
X180492397Y-64681143D01*
X180679144Y-64157698D01*
X180651362Y-63602632D01*
X180492397Y-63218857D01*
X180250213Y-63149392D01*
X179449605Y-63950000D01*
X179090395Y-63950000D01*
X178289787Y-63149392D01*
X178047603Y-63218857D01*
X177997465Y-63359393D01*
X177914320Y-63158663D01*
X177521337Y-62765680D01*
X177097207Y-62590000D01*
X178871060Y-62590000D01*
X178538857Y-62727603D01*
X178538857Y-62727603D01*
G37*
X178538857Y-62727603D02*
X178469392Y-62969787D01*
X179270000Y-63770395D01*
X180070608Y-62969787D01*
X180001143Y-62727603D01*
X179615447Y-62590000D01*
X179956290Y-62590000D01*
X181255001Y-63888712D01*
X181255001Y-66959133D01*
X179624341Y-65328474D01*
X180001143Y-65172397D01*
X180070608Y-64930213D01*
X179270000Y-64129605D01*
X179255858Y-64143748D01*
X179076253Y-63964143D01*
X179090395Y-63950000D01*
X179449605Y-63950000D01*
X180250213Y-64750608D01*
X180492397Y-64681143D01*
X180679144Y-64157698D01*
X180651362Y-63602632D01*
X180492397Y-63218857D01*
X180250213Y-63149392D01*
X179449605Y-63950000D01*
X179090395Y-63950000D01*
X178289787Y-63149392D01*
X178047603Y-63218857D01*
X177997465Y-63359393D01*
X177914320Y-63158663D01*
X177521337Y-62765680D01*
X177097207Y-62590000D01*
X178871060Y-62590000D01*
X178538857Y-62727603D01*
G36*
X133538857Y-62727603D02*
X133469392Y-62969787D01*
X134270000Y-63770395D01*
X135070608Y-62969787D01*
X135001143Y-62727603D01*
X134615447Y-62590000D01*
X136776290Y-62590000D01*
X139175000Y-64988711D01*
X139175000Y-65076950D01*
X139152191Y-65092191D01*
X139110000Y-65155334D01*
X139067809Y-65092191D01*
X138857765Y-64951843D01*
X138610000Y-64902560D01*
X137410000Y-64902560D01*
X137162235Y-64951843D01*
X136952191Y-65092191D01*
X136903541Y-65165000D01*
X135003265Y-65165000D01*
X135070608Y-64930213D01*
X134270000Y-64129605D01*
X134255858Y-64143748D01*
X134076253Y-63964143D01*
X134090395Y-63950000D01*
X134449605Y-63950000D01*
X135250213Y-64750608D01*
X135492397Y-64681143D01*
X135679144Y-64157698D01*
X135651362Y-63602632D01*
X135492397Y-63218857D01*
X135250213Y-63149392D01*
X134449605Y-63950000D01*
X134090395Y-63950000D01*
X133289787Y-63149392D01*
X133047603Y-63218857D01*
X132997465Y-63359393D01*
X132914320Y-63158663D01*
X132521337Y-62765680D01*
X132097207Y-62590000D01*
X133871060Y-62590000D01*
X133538857Y-62727603D01*
X133538857Y-62727603D01*
G37*
X133538857Y-62727603D02*
X133469392Y-62969787D01*
X134270000Y-63770395D01*
X135070608Y-62969787D01*
X135001143Y-62727603D01*
X134615447Y-62590000D01*
X136776290Y-62590000D01*
X139175000Y-64988711D01*
X139175000Y-65076950D01*
X139152191Y-65092191D01*
X139110000Y-65155334D01*
X139067809Y-65092191D01*
X138857765Y-64951843D01*
X138610000Y-64902560D01*
X137410000Y-64902560D01*
X137162235Y-64951843D01*
X136952191Y-65092191D01*
X136903541Y-65165000D01*
X135003265Y-65165000D01*
X135070608Y-64930213D01*
X134270000Y-64129605D01*
X134255858Y-64143748D01*
X134076253Y-63964143D01*
X134090395Y-63950000D01*
X134449605Y-63950000D01*
X135250213Y-64750608D01*
X135492397Y-64681143D01*
X135679144Y-64157698D01*
X135651362Y-63602632D01*
X135492397Y-63218857D01*
X135250213Y-63149392D01*
X134449605Y-63950000D01*
X134090395Y-63950000D01*
X133289787Y-63149392D01*
X133047603Y-63218857D01*
X132997465Y-63359393D01*
X132914320Y-63158663D01*
X132521337Y-62765680D01*
X132097207Y-62590000D01*
X133871060Y-62590000D01*
X133538857Y-62727603D01*
G36*
X118538857Y-62727603D02*
X118469392Y-62969787D01*
X119270000Y-63770395D01*
X120070608Y-62969787D01*
X120001143Y-62727603D01*
X119615447Y-62590000D01*
X123935001Y-62590000D01*
X123935000Y-65076950D01*
X123912191Y-65092191D01*
X123870000Y-65155334D01*
X123827809Y-65092191D01*
X123617765Y-64951843D01*
X123370000Y-64902560D01*
X122170000Y-64902560D01*
X121922235Y-64951843D01*
X121712191Y-65092191D01*
X121663541Y-65165000D01*
X120003265Y-65165000D01*
X120070608Y-64930213D01*
X119270000Y-64129605D01*
X119255858Y-64143748D01*
X119076253Y-63964143D01*
X119090395Y-63950000D01*
X119449605Y-63950000D01*
X120250213Y-64750608D01*
X120492397Y-64681143D01*
X120679144Y-64157698D01*
X120651362Y-63602632D01*
X120492397Y-63218857D01*
X120250213Y-63149392D01*
X119449605Y-63950000D01*
X119090395Y-63950000D01*
X118289787Y-63149392D01*
X118047603Y-63218857D01*
X117997465Y-63359393D01*
X117914320Y-63158663D01*
X117521337Y-62765680D01*
X117097207Y-62590000D01*
X118871060Y-62590000D01*
X118538857Y-62727603D01*
X118538857Y-62727603D01*
G37*
X118538857Y-62727603D02*
X118469392Y-62969787D01*
X119270000Y-63770395D01*
X120070608Y-62969787D01*
X120001143Y-62727603D01*
X119615447Y-62590000D01*
X123935001Y-62590000D01*
X123935000Y-65076950D01*
X123912191Y-65092191D01*
X123870000Y-65155334D01*
X123827809Y-65092191D01*
X123617765Y-64951843D01*
X123370000Y-64902560D01*
X122170000Y-64902560D01*
X121922235Y-64951843D01*
X121712191Y-65092191D01*
X121663541Y-65165000D01*
X120003265Y-65165000D01*
X120070608Y-64930213D01*
X119270000Y-64129605D01*
X119255858Y-64143748D01*
X119076253Y-63964143D01*
X119090395Y-63950000D01*
X119449605Y-63950000D01*
X120250213Y-64750608D01*
X120492397Y-64681143D01*
X120679144Y-64157698D01*
X120651362Y-63602632D01*
X120492397Y-63218857D01*
X120250213Y-63149392D01*
X119449605Y-63950000D01*
X119090395Y-63950000D01*
X118289787Y-63149392D01*
X118047603Y-63218857D01*
X117997465Y-63359393D01*
X117914320Y-63158663D01*
X117521337Y-62765680D01*
X117097207Y-62590000D01*
X118871060Y-62590000D01*
X118538857Y-62727603D01*
G36*
X163538857Y-62727603D02*
X163469392Y-62969787D01*
X164270000Y-63770395D01*
X165070608Y-62969787D01*
X165001143Y-62727603D01*
X164615447Y-62590000D01*
X169655001Y-62590000D01*
X169655000Y-65076950D01*
X169632191Y-65092191D01*
X169590000Y-65155334D01*
X169547809Y-65092191D01*
X169337765Y-64951843D01*
X169090000Y-64902560D01*
X167890000Y-64902560D01*
X167642235Y-64951843D01*
X167432191Y-65092191D01*
X167383541Y-65165000D01*
X165003265Y-65165000D01*
X165070608Y-64930213D01*
X164270000Y-64129605D01*
X164255858Y-64143748D01*
X164076253Y-63964143D01*
X164090395Y-63950000D01*
X164449605Y-63950000D01*
X165250213Y-64750608D01*
X165492397Y-64681143D01*
X165679144Y-64157698D01*
X165651362Y-63602632D01*
X165492397Y-63218857D01*
X165250213Y-63149392D01*
X164449605Y-63950000D01*
X164090395Y-63950000D01*
X163289787Y-63149392D01*
X163047603Y-63218857D01*
X162997465Y-63359393D01*
X162914320Y-63158663D01*
X162521337Y-62765680D01*
X162097207Y-62590000D01*
X163871060Y-62590000D01*
X163538857Y-62727603D01*
X163538857Y-62727603D01*
G37*
X163538857Y-62727603D02*
X163469392Y-62969787D01*
X164270000Y-63770395D01*
X165070608Y-62969787D01*
X165001143Y-62727603D01*
X164615447Y-62590000D01*
X169655001Y-62590000D01*
X169655000Y-65076950D01*
X169632191Y-65092191D01*
X169590000Y-65155334D01*
X169547809Y-65092191D01*
X169337765Y-64951843D01*
X169090000Y-64902560D01*
X167890000Y-64902560D01*
X167642235Y-64951843D01*
X167432191Y-65092191D01*
X167383541Y-65165000D01*
X165003265Y-65165000D01*
X165070608Y-64930213D01*
X164270000Y-64129605D01*
X164255858Y-64143748D01*
X164076253Y-63964143D01*
X164090395Y-63950000D01*
X164449605Y-63950000D01*
X165250213Y-64750608D01*
X165492397Y-64681143D01*
X165679144Y-64157698D01*
X165651362Y-63602632D01*
X165492397Y-63218857D01*
X165250213Y-63149392D01*
X164449605Y-63950000D01*
X164090395Y-63950000D01*
X163289787Y-63149392D01*
X163047603Y-63218857D01*
X162997465Y-63359393D01*
X162914320Y-63158663D01*
X162521337Y-62765680D01*
X162097207Y-62590000D01*
X163871060Y-62590000D01*
X163538857Y-62727603D01*
G36*
X143355001Y-101600869D02*
X143355001Y-101750877D01*
X143276890Y-101718524D01*
X143047000Y-101839845D01*
X143047000Y-103033000D01*
X143067000Y-103033000D01*
X143067000Y-103287000D01*
X143047000Y-103287000D01*
X143047000Y-103307000D01*
X142793000Y-103307000D01*
X142793000Y-103287000D01*
X141599181Y-103287000D01*
X141478514Y-103516892D01*
X141724817Y-104041358D01*
X141931855Y-104230039D01*
X141822235Y-104251843D01*
X141612191Y-104392191D01*
X141537574Y-104503863D01*
X140168937Y-103135227D01*
X140111193Y-103048807D01*
X139768837Y-102820052D01*
X139683654Y-102803108D01*
X141478514Y-102803108D01*
X141599181Y-103033000D01*
X142793000Y-103033000D01*
X142793000Y-101839845D01*
X142563110Y-101718524D01*
X142153076Y-101888355D01*
X141724817Y-102278642D01*
X141478514Y-102803108D01*
X139683654Y-102803108D01*
X139466935Y-102760000D01*
X139466934Y-102760000D01*
X139365000Y-102739724D01*
X139263066Y-102760000D01*
X136252552Y-102760000D01*
X136310000Y-102621309D01*
X136310000Y-102180750D01*
X136151250Y-102022000D01*
X135427000Y-102022000D01*
X135427000Y-102042000D01*
X135173000Y-102042000D01*
X135173000Y-102022000D01*
X134448750Y-102022000D01*
X134290000Y-102180750D01*
X134290000Y-102621309D01*
X134347448Y-102760000D01*
X122066934Y-102760000D01*
X121965000Y-102739724D01*
X121863065Y-102760000D01*
X121561163Y-102820052D01*
X121218807Y-103048807D01*
X121161065Y-103135224D01*
X120068730Y-104227560D01*
X119235000Y-104227560D01*
X118987235Y-104276843D01*
X118777191Y-104417191D01*
X118636843Y-104627235D01*
X118629331Y-104665000D01*
X117948711Y-104665000D01*
X117916384Y-104632673D01*
X118387024Y-104437728D01*
X118797728Y-104027024D01*
X119020000Y-103490412D01*
X119020000Y-102920867D01*
X119780868Y-102160000D01*
X120350412Y-102160000D01*
X120887024Y-101937728D01*
X121297728Y-101527024D01*
X121446154Y-101168691D01*
X134290000Y-101168691D01*
X134290000Y-101609250D01*
X134448750Y-101768000D01*
X135173000Y-101768000D01*
X135173000Y-100818750D01*
X135427000Y-100818750D01*
X135427000Y-101768000D01*
X136151250Y-101768000D01*
X136310000Y-101609250D01*
X136310000Y-101168691D01*
X136213327Y-100935302D01*
X136034699Y-100756673D01*
X135801310Y-100660000D01*
X135585750Y-100660000D01*
X135427000Y-100818750D01*
X135173000Y-100818750D01*
X135014250Y-100660000D01*
X134798690Y-100660000D01*
X134565301Y-100756673D01*
X134386673Y-100935302D01*
X134290000Y-101168691D01*
X121446154Y-101168691D01*
X121520000Y-100990412D01*
X121520000Y-100427614D01*
X121671551Y-100200802D01*
X121674694Y-100185000D01*
X141939133Y-100185000D01*
X143355001Y-101600869D01*
X143355001Y-101600869D01*
G37*
X143355001Y-101600869D02*
X143355001Y-101750877D01*
X143276890Y-101718524D01*
X143047000Y-101839845D01*
X143047000Y-103033000D01*
X143067000Y-103033000D01*
X143067000Y-103287000D01*
X143047000Y-103287000D01*
X143047000Y-103307000D01*
X142793000Y-103307000D01*
X142793000Y-103287000D01*
X141599181Y-103287000D01*
X141478514Y-103516892D01*
X141724817Y-104041358D01*
X141931855Y-104230039D01*
X141822235Y-104251843D01*
X141612191Y-104392191D01*
X141537574Y-104503863D01*
X140168937Y-103135227D01*
X140111193Y-103048807D01*
X139768837Y-102820052D01*
X139683654Y-102803108D01*
X141478514Y-102803108D01*
X141599181Y-103033000D01*
X142793000Y-103033000D01*
X142793000Y-101839845D01*
X142563110Y-101718524D01*
X142153076Y-101888355D01*
X141724817Y-102278642D01*
X141478514Y-102803108D01*
X139683654Y-102803108D01*
X139466935Y-102760000D01*
X139466934Y-102760000D01*
X139365000Y-102739724D01*
X139263066Y-102760000D01*
X136252552Y-102760000D01*
X136310000Y-102621309D01*
X136310000Y-102180750D01*
X136151250Y-102022000D01*
X135427000Y-102022000D01*
X135427000Y-102042000D01*
X135173000Y-102042000D01*
X135173000Y-102022000D01*
X134448750Y-102022000D01*
X134290000Y-102180750D01*
X134290000Y-102621309D01*
X134347448Y-102760000D01*
X122066934Y-102760000D01*
X121965000Y-102739724D01*
X121863065Y-102760000D01*
X121561163Y-102820052D01*
X121218807Y-103048807D01*
X121161065Y-103135224D01*
X120068730Y-104227560D01*
X119235000Y-104227560D01*
X118987235Y-104276843D01*
X118777191Y-104417191D01*
X118636843Y-104627235D01*
X118629331Y-104665000D01*
X117948711Y-104665000D01*
X117916384Y-104632673D01*
X118387024Y-104437728D01*
X118797728Y-104027024D01*
X119020000Y-103490412D01*
X119020000Y-102920867D01*
X119780868Y-102160000D01*
X120350412Y-102160000D01*
X120887024Y-101937728D01*
X121297728Y-101527024D01*
X121446154Y-101168691D01*
X134290000Y-101168691D01*
X134290000Y-101609250D01*
X134448750Y-101768000D01*
X135173000Y-101768000D01*
X135173000Y-100818750D01*
X135427000Y-100818750D01*
X135427000Y-101768000D01*
X136151250Y-101768000D01*
X136310000Y-101609250D01*
X136310000Y-101168691D01*
X136213327Y-100935302D01*
X136034699Y-100756673D01*
X135801310Y-100660000D01*
X135585750Y-100660000D01*
X135427000Y-100818750D01*
X135173000Y-100818750D01*
X135014250Y-100660000D01*
X134798690Y-100660000D01*
X134565301Y-100756673D01*
X134386673Y-100935302D01*
X134290000Y-101168691D01*
X121446154Y-101168691D01*
X121520000Y-100990412D01*
X121520000Y-100427614D01*
X121671551Y-100200802D01*
X121674694Y-100185000D01*
X141939133Y-100185000D01*
X143355001Y-101600869D01*
G36*
X115545680Y-91741337D02*
X115938663Y-92134320D01*
X116452119Y-92347000D01*
X116946133Y-92347000D01*
X118131415Y-93532283D01*
X118177999Y-93602001D01*
X118254323Y-93652999D01*
X118454199Y-93786552D01*
X118599781Y-93815510D01*
X118478663Y-93865679D01*
X118085680Y-94258662D01*
X118006572Y-94449646D01*
X117952397Y-94318856D01*
X117710213Y-94249391D01*
X116909605Y-95049999D01*
X117710213Y-95850607D01*
X117952397Y-95781142D01*
X118002535Y-95640606D01*
X118085680Y-95841336D01*
X118478663Y-96234319D01*
X118992119Y-96446999D01*
X119486131Y-96446999D01*
X119499714Y-96460582D01*
X119499720Y-96460586D01*
X120050000Y-97010867D01*
X120049999Y-99240000D01*
X119769588Y-99240000D01*
X119232976Y-99462272D01*
X118822272Y-99872976D01*
X118600000Y-100409588D01*
X118600000Y-100979132D01*
X117839133Y-101740000D01*
X117269588Y-101740000D01*
X116732976Y-101962272D01*
X116322272Y-102372976D01*
X116127326Y-102843616D01*
X115380000Y-102096290D01*
X115380000Y-96030212D01*
X115929392Y-96030212D01*
X115998857Y-96272396D01*
X116522302Y-96459143D01*
X117077368Y-96431361D01*
X117461143Y-96272396D01*
X117530608Y-96030212D01*
X116730000Y-95229604D01*
X115929392Y-96030212D01*
X115380000Y-96030212D01*
X115380000Y-95473081D01*
X115507603Y-95781142D01*
X115749787Y-95850607D01*
X116550395Y-95049999D01*
X115749787Y-94249391D01*
X115507603Y-94318856D01*
X115380000Y-94676523D01*
X115380000Y-94069786D01*
X115929392Y-94069786D01*
X116730000Y-94870394D01*
X117530608Y-94069786D01*
X117461143Y-93827602D01*
X116937698Y-93640855D01*
X116382632Y-93668637D01*
X115998857Y-93827602D01*
X115929392Y-94069786D01*
X115380000Y-94069786D01*
X115380000Y-91341349D01*
X115545680Y-91741337D01*
X115545680Y-91741337D01*
G37*
X115545680Y-91741337D02*
X115938663Y-92134320D01*
X116452119Y-92347000D01*
X116946133Y-92347000D01*
X118131415Y-93532283D01*
X118177999Y-93602001D01*
X118254323Y-93652999D01*
X118454199Y-93786552D01*
X118599781Y-93815510D01*
X118478663Y-93865679D01*
X118085680Y-94258662D01*
X118006572Y-94449646D01*
X117952397Y-94318856D01*
X117710213Y-94249391D01*
X116909605Y-95049999D01*
X117710213Y-95850607D01*
X117952397Y-95781142D01*
X118002535Y-95640606D01*
X118085680Y-95841336D01*
X118478663Y-96234319D01*
X118992119Y-96446999D01*
X119486131Y-96446999D01*
X119499714Y-96460582D01*
X119499720Y-96460586D01*
X120050000Y-97010867D01*
X120049999Y-99240000D01*
X119769588Y-99240000D01*
X119232976Y-99462272D01*
X118822272Y-99872976D01*
X118600000Y-100409588D01*
X118600000Y-100979132D01*
X117839133Y-101740000D01*
X117269588Y-101740000D01*
X116732976Y-101962272D01*
X116322272Y-102372976D01*
X116127326Y-102843616D01*
X115380000Y-102096290D01*
X115380000Y-96030212D01*
X115929392Y-96030212D01*
X115998857Y-96272396D01*
X116522302Y-96459143D01*
X117077368Y-96431361D01*
X117461143Y-96272396D01*
X117530608Y-96030212D01*
X116730000Y-95229604D01*
X115929392Y-96030212D01*
X115380000Y-96030212D01*
X115380000Y-95473081D01*
X115507603Y-95781142D01*
X115749787Y-95850607D01*
X116550395Y-95049999D01*
X115749787Y-94249391D01*
X115507603Y-94318856D01*
X115380000Y-94676523D01*
X115380000Y-94069786D01*
X115929392Y-94069786D01*
X116730000Y-94870394D01*
X117530608Y-94069786D01*
X117461143Y-93827602D01*
X116937698Y-93640855D01*
X116382632Y-93668637D01*
X115998857Y-93827602D01*
X115929392Y-94069786D01*
X115380000Y-94069786D01*
X115380000Y-91341349D01*
X115545680Y-91741337D01*
G36*
X175938663Y-89765680D02*
X175545680Y-90158663D01*
X175333000Y-90672119D01*
X175333000Y-91227881D01*
X175545680Y-91741337D01*
X175938663Y-92134320D01*
X176452119Y-92347000D01*
X177007881Y-92347000D01*
X177201099Y-92266967D01*
X178705749Y-93771617D01*
X178478663Y-93865679D01*
X178085680Y-94258662D01*
X178006572Y-94449646D01*
X177952397Y-94318856D01*
X177710213Y-94249391D01*
X176909605Y-95049999D01*
X176923748Y-95064142D01*
X176744143Y-95243747D01*
X176730000Y-95229604D01*
X175929392Y-96030212D01*
X175998857Y-96272396D01*
X176522302Y-96459143D01*
X177040949Y-96433184D01*
X175407720Y-98066413D01*
X175337999Y-98112999D01*
X175163142Y-98374692D01*
X175032191Y-98462191D01*
X174891843Y-98672235D01*
X174889304Y-98685000D01*
X154262232Y-98685000D01*
X154179999Y-98668643D01*
X154097766Y-98685000D01*
X154097763Y-98685000D01*
X153854199Y-98733448D01*
X153577999Y-98917999D01*
X153531417Y-98987715D01*
X151297717Y-101221416D01*
X151227999Y-101268000D01*
X151151091Y-101383101D01*
X151043447Y-101544201D01*
X151004825Y-101738367D01*
X150686256Y-101675000D01*
X150393744Y-101675000D01*
X149960582Y-101761161D01*
X149684999Y-101945300D01*
X149684999Y-98845868D01*
X150885869Y-97645000D01*
X162427766Y-97645000D01*
X162509999Y-97661357D01*
X162592232Y-97645000D01*
X162592236Y-97645000D01*
X162835800Y-97596552D01*
X163112000Y-97412001D01*
X163158586Y-97342280D01*
X164053868Y-96446999D01*
X164547881Y-96446999D01*
X165061337Y-96234319D01*
X165410657Y-95884999D01*
X167242560Y-95884999D01*
X167242560Y-95990000D01*
X167291843Y-96237765D01*
X167432191Y-96447809D01*
X167642235Y-96588157D01*
X167890000Y-96637440D01*
X169090000Y-96637440D01*
X169337765Y-96588157D01*
X169547809Y-96447809D01*
X169590000Y-96384666D01*
X169632191Y-96447809D01*
X169842235Y-96588157D01*
X170090000Y-96637440D01*
X171290000Y-96637440D01*
X171537765Y-96588157D01*
X171747809Y-96447809D01*
X171888157Y-96237765D01*
X171937440Y-95990000D01*
X171937440Y-95090000D01*
X171888171Y-94842301D01*
X175320856Y-94842301D01*
X175348638Y-95397367D01*
X175507603Y-95781142D01*
X175749787Y-95850607D01*
X176550395Y-95049999D01*
X175749787Y-94249391D01*
X175507603Y-94318856D01*
X175320856Y-94842301D01*
X171888171Y-94842301D01*
X171888157Y-94842235D01*
X171747809Y-94632191D01*
X171725000Y-94616950D01*
X171725000Y-94069786D01*
X175929392Y-94069786D01*
X176730000Y-94870394D01*
X177530608Y-94069786D01*
X177461143Y-93827602D01*
X176937698Y-93640855D01*
X176382632Y-93668637D01*
X175998857Y-93827602D01*
X175929392Y-94069786D01*
X171725000Y-94069786D01*
X171725000Y-93923050D01*
X171747809Y-93907809D01*
X171888157Y-93697765D01*
X171937440Y-93450000D01*
X171937440Y-92550000D01*
X171888157Y-92302235D01*
X171747809Y-92092191D01*
X171725000Y-92076950D01*
X171725000Y-89590000D01*
X176362793Y-89590000D01*
X175938663Y-89765680D01*
X175938663Y-89765680D01*
G37*
X175938663Y-89765680D02*
X175545680Y-90158663D01*
X175333000Y-90672119D01*
X175333000Y-91227881D01*
X175545680Y-91741337D01*
X175938663Y-92134320D01*
X176452119Y-92347000D01*
X177007881Y-92347000D01*
X177201099Y-92266967D01*
X178705749Y-93771617D01*
X178478663Y-93865679D01*
X178085680Y-94258662D01*
X178006572Y-94449646D01*
X177952397Y-94318856D01*
X177710213Y-94249391D01*
X176909605Y-95049999D01*
X176923748Y-95064142D01*
X176744143Y-95243747D01*
X176730000Y-95229604D01*
X175929392Y-96030212D01*
X175998857Y-96272396D01*
X176522302Y-96459143D01*
X177040949Y-96433184D01*
X175407720Y-98066413D01*
X175337999Y-98112999D01*
X175163142Y-98374692D01*
X175032191Y-98462191D01*
X174891843Y-98672235D01*
X174889304Y-98685000D01*
X154262232Y-98685000D01*
X154179999Y-98668643D01*
X154097766Y-98685000D01*
X154097763Y-98685000D01*
X153854199Y-98733448D01*
X153577999Y-98917999D01*
X153531417Y-98987715D01*
X151297717Y-101221416D01*
X151227999Y-101268000D01*
X151151091Y-101383101D01*
X151043447Y-101544201D01*
X151004825Y-101738367D01*
X150686256Y-101675000D01*
X150393744Y-101675000D01*
X149960582Y-101761161D01*
X149684999Y-101945300D01*
X149684999Y-98845868D01*
X150885869Y-97645000D01*
X162427766Y-97645000D01*
X162509999Y-97661357D01*
X162592232Y-97645000D01*
X162592236Y-97645000D01*
X162835800Y-97596552D01*
X163112000Y-97412001D01*
X163158586Y-97342280D01*
X164053868Y-96446999D01*
X164547881Y-96446999D01*
X165061337Y-96234319D01*
X165410657Y-95884999D01*
X167242560Y-95884999D01*
X167242560Y-95990000D01*
X167291843Y-96237765D01*
X167432191Y-96447809D01*
X167642235Y-96588157D01*
X167890000Y-96637440D01*
X169090000Y-96637440D01*
X169337765Y-96588157D01*
X169547809Y-96447809D01*
X169590000Y-96384666D01*
X169632191Y-96447809D01*
X169842235Y-96588157D01*
X170090000Y-96637440D01*
X171290000Y-96637440D01*
X171537765Y-96588157D01*
X171747809Y-96447809D01*
X171888157Y-96237765D01*
X171937440Y-95990000D01*
X171937440Y-95090000D01*
X171888171Y-94842301D01*
X175320856Y-94842301D01*
X175348638Y-95397367D01*
X175507603Y-95781142D01*
X175749787Y-95850607D01*
X176550395Y-95049999D01*
X175749787Y-94249391D01*
X175507603Y-94318856D01*
X175320856Y-94842301D01*
X171888171Y-94842301D01*
X171888157Y-94842235D01*
X171747809Y-94632191D01*
X171725000Y-94616950D01*
X171725000Y-94069786D01*
X175929392Y-94069786D01*
X176730000Y-94870394D01*
X177530608Y-94069786D01*
X177461143Y-93827602D01*
X176937698Y-93640855D01*
X176382632Y-93668637D01*
X175998857Y-93827602D01*
X175929392Y-94069786D01*
X171725000Y-94069786D01*
X171725000Y-93923050D01*
X171747809Y-93907809D01*
X171888157Y-93697765D01*
X171937440Y-93450000D01*
X171937440Y-92550000D01*
X171888157Y-92302235D01*
X171747809Y-92092191D01*
X171725000Y-92076950D01*
X171725000Y-89590000D01*
X176362793Y-89590000D01*
X175938663Y-89765680D01*
G36*
X158048807Y-87808807D02*
X157991065Y-87895224D01*
X154790227Y-91096063D01*
X154703807Y-91153807D01*
X154515955Y-91434948D01*
X154475052Y-91496164D01*
X154394724Y-91900000D01*
X154415000Y-92001935D01*
X154415000Y-92076950D01*
X154392191Y-92092191D01*
X154350000Y-92155334D01*
X154307809Y-92092191D01*
X154097765Y-91951843D01*
X153850000Y-91902560D01*
X152650000Y-91902560D01*
X152402235Y-91951843D01*
X152192191Y-92092191D01*
X152143541Y-92165000D01*
X150003265Y-92165000D01*
X150070608Y-91930213D01*
X149270000Y-91129605D01*
X149255858Y-91143748D01*
X149076253Y-90964143D01*
X149090395Y-90950000D01*
X149449605Y-90950000D01*
X150250213Y-91750608D01*
X150492397Y-91681143D01*
X150679144Y-91157698D01*
X150651362Y-90602632D01*
X150492397Y-90218857D01*
X150250213Y-90149392D01*
X149449605Y-90950000D01*
X149090395Y-90950000D01*
X148289787Y-90149392D01*
X148047603Y-90218857D01*
X147997465Y-90359393D01*
X147914320Y-90158663D01*
X147725444Y-89969787D01*
X148469392Y-89969787D01*
X149270000Y-90770395D01*
X150070608Y-89969787D01*
X150001143Y-89727603D01*
X149477698Y-89540856D01*
X148922632Y-89568638D01*
X148538857Y-89727603D01*
X148469392Y-89969787D01*
X147725444Y-89969787D01*
X147521337Y-89765680D01*
X147007881Y-89553000D01*
X146452119Y-89553000D01*
X145938663Y-89765680D01*
X145545680Y-90158663D01*
X145333000Y-90672119D01*
X145333000Y-91227881D01*
X145545680Y-91741337D01*
X145938663Y-92134320D01*
X146452119Y-92347000D01*
X146946133Y-92347000D01*
X148131415Y-93532283D01*
X148177999Y-93602001D01*
X148254323Y-93652999D01*
X148454199Y-93786552D01*
X148599781Y-93815510D01*
X148478663Y-93865679D01*
X148085680Y-94258662D01*
X148006572Y-94449646D01*
X147952397Y-94318856D01*
X147710213Y-94249391D01*
X146909605Y-95049999D01*
X146923748Y-95064142D01*
X146744143Y-95243747D01*
X146730000Y-95229604D01*
X145929392Y-96030212D01*
X145998857Y-96272396D01*
X146522302Y-96459143D01*
X146688297Y-96450835D01*
X146197720Y-96941412D01*
X146127999Y-96987998D01*
X145943448Y-97264199D01*
X145895000Y-97507763D01*
X145895000Y-97507766D01*
X145878643Y-97589999D01*
X145895000Y-97672232D01*
X145895000Y-99874131D01*
X143568587Y-97547720D01*
X143522001Y-97477999D01*
X143245801Y-97293448D01*
X143002237Y-97245000D01*
X143002233Y-97245000D01*
X142920000Y-97228643D01*
X142837767Y-97245000D01*
X140725868Y-97245000D01*
X140118308Y-96637440D01*
X140810000Y-96637440D01*
X141057765Y-96588157D01*
X141267809Y-96447809D01*
X141408157Y-96237765D01*
X141457440Y-95990000D01*
X141457440Y-95090000D01*
X141408171Y-94842301D01*
X145320856Y-94842301D01*
X145348638Y-95397367D01*
X145507603Y-95781142D01*
X145749787Y-95850607D01*
X146550395Y-95049999D01*
X145749787Y-94249391D01*
X145507603Y-94318856D01*
X145320856Y-94842301D01*
X141408171Y-94842301D01*
X141408157Y-94842235D01*
X141267809Y-94632191D01*
X141245000Y-94616950D01*
X141245000Y-94069786D01*
X145929392Y-94069786D01*
X146730000Y-94870394D01*
X147530608Y-94069786D01*
X147461143Y-93827602D01*
X146937698Y-93640855D01*
X146382632Y-93668637D01*
X145998857Y-93827602D01*
X145929392Y-94069786D01*
X141245000Y-94069786D01*
X141245000Y-93923050D01*
X141267809Y-93907809D01*
X141408157Y-93697765D01*
X141457440Y-93450000D01*
X141457440Y-92550000D01*
X141408157Y-92302235D01*
X141267809Y-92092191D01*
X141245000Y-92076950D01*
X141245000Y-91661934D01*
X141265276Y-91560000D01*
X141184948Y-91156163D01*
X141183374Y-91153807D01*
X140956193Y-90813807D01*
X140869776Y-90756065D01*
X138008937Y-87895227D01*
X137951193Y-87808807D01*
X137803318Y-87710000D01*
X158196682Y-87710000D01*
X158048807Y-87808807D01*
X158048807Y-87808807D01*
G37*
X158048807Y-87808807D02*
X157991065Y-87895224D01*
X154790227Y-91096063D01*
X154703807Y-91153807D01*
X154515955Y-91434948D01*
X154475052Y-91496164D01*
X154394724Y-91900000D01*
X154415000Y-92001935D01*
X154415000Y-92076950D01*
X154392191Y-92092191D01*
X154350000Y-92155334D01*
X154307809Y-92092191D01*
X154097765Y-91951843D01*
X153850000Y-91902560D01*
X152650000Y-91902560D01*
X152402235Y-91951843D01*
X152192191Y-92092191D01*
X152143541Y-92165000D01*
X150003265Y-92165000D01*
X150070608Y-91930213D01*
X149270000Y-91129605D01*
X149255858Y-91143748D01*
X149076253Y-90964143D01*
X149090395Y-90950000D01*
X149449605Y-90950000D01*
X150250213Y-91750608D01*
X150492397Y-91681143D01*
X150679144Y-91157698D01*
X150651362Y-90602632D01*
X150492397Y-90218857D01*
X150250213Y-90149392D01*
X149449605Y-90950000D01*
X149090395Y-90950000D01*
X148289787Y-90149392D01*
X148047603Y-90218857D01*
X147997465Y-90359393D01*
X147914320Y-90158663D01*
X147725444Y-89969787D01*
X148469392Y-89969787D01*
X149270000Y-90770395D01*
X150070608Y-89969787D01*
X150001143Y-89727603D01*
X149477698Y-89540856D01*
X148922632Y-89568638D01*
X148538857Y-89727603D01*
X148469392Y-89969787D01*
X147725444Y-89969787D01*
X147521337Y-89765680D01*
X147007881Y-89553000D01*
X146452119Y-89553000D01*
X145938663Y-89765680D01*
X145545680Y-90158663D01*
X145333000Y-90672119D01*
X145333000Y-91227881D01*
X145545680Y-91741337D01*
X145938663Y-92134320D01*
X146452119Y-92347000D01*
X146946133Y-92347000D01*
X148131415Y-93532283D01*
X148177999Y-93602001D01*
X148254323Y-93652999D01*
X148454199Y-93786552D01*
X148599781Y-93815510D01*
X148478663Y-93865679D01*
X148085680Y-94258662D01*
X148006572Y-94449646D01*
X147952397Y-94318856D01*
X147710213Y-94249391D01*
X146909605Y-95049999D01*
X146923748Y-95064142D01*
X146744143Y-95243747D01*
X146730000Y-95229604D01*
X145929392Y-96030212D01*
X145998857Y-96272396D01*
X146522302Y-96459143D01*
X146688297Y-96450835D01*
X146197720Y-96941412D01*
X146127999Y-96987998D01*
X145943448Y-97264199D01*
X145895000Y-97507763D01*
X145895000Y-97507766D01*
X145878643Y-97589999D01*
X145895000Y-97672232D01*
X145895000Y-99874131D01*
X143568587Y-97547720D01*
X143522001Y-97477999D01*
X143245801Y-97293448D01*
X143002237Y-97245000D01*
X143002233Y-97245000D01*
X142920000Y-97228643D01*
X142837767Y-97245000D01*
X140725868Y-97245000D01*
X140118308Y-96637440D01*
X140810000Y-96637440D01*
X141057765Y-96588157D01*
X141267809Y-96447809D01*
X141408157Y-96237765D01*
X141457440Y-95990000D01*
X141457440Y-95090000D01*
X141408171Y-94842301D01*
X145320856Y-94842301D01*
X145348638Y-95397367D01*
X145507603Y-95781142D01*
X145749787Y-95850607D01*
X146550395Y-95049999D01*
X145749787Y-94249391D01*
X145507603Y-94318856D01*
X145320856Y-94842301D01*
X141408171Y-94842301D01*
X141408157Y-94842235D01*
X141267809Y-94632191D01*
X141245000Y-94616950D01*
X141245000Y-94069786D01*
X145929392Y-94069786D01*
X146730000Y-94870394D01*
X147530608Y-94069786D01*
X147461143Y-93827602D01*
X146937698Y-93640855D01*
X146382632Y-93668637D01*
X145998857Y-93827602D01*
X145929392Y-94069786D01*
X141245000Y-94069786D01*
X141245000Y-93923050D01*
X141267809Y-93907809D01*
X141408157Y-93697765D01*
X141457440Y-93450000D01*
X141457440Y-92550000D01*
X141408157Y-92302235D01*
X141267809Y-92092191D01*
X141245000Y-92076950D01*
X141245000Y-91661934D01*
X141265276Y-91560000D01*
X141184948Y-91156163D01*
X141183374Y-91153807D01*
X140956193Y-90813807D01*
X140869776Y-90756065D01*
X138008937Y-87895227D01*
X137951193Y-87808807D01*
X137803318Y-87710000D01*
X158196682Y-87710000D01*
X158048807Y-87808807D01*
G36*
X130938663Y-89765680D02*
X130545680Y-90158663D01*
X130333000Y-90672119D01*
X130333000Y-91227881D01*
X130545680Y-91741337D01*
X130938663Y-92134320D01*
X131452119Y-92347000D01*
X131946133Y-92347000D01*
X133131415Y-93532283D01*
X133177999Y-93602001D01*
X133254323Y-93652999D01*
X133454199Y-93786552D01*
X133599781Y-93815510D01*
X133478663Y-93865679D01*
X133085680Y-94258662D01*
X133006572Y-94449646D01*
X132952397Y-94318856D01*
X132710213Y-94249391D01*
X131909605Y-95049999D01*
X132710213Y-95850607D01*
X132952397Y-95781142D01*
X133002535Y-95640606D01*
X133085680Y-95841336D01*
X133478663Y-96234319D01*
X133992119Y-96446999D01*
X134547881Y-96446999D01*
X134707449Y-96380904D01*
X134760000Y-96391357D01*
X134842233Y-96375000D01*
X136903541Y-96375000D01*
X136952191Y-96447809D01*
X137162235Y-96588157D01*
X137410000Y-96637440D01*
X137756573Y-96637440D01*
X139634132Y-98515000D01*
X121719999Y-98515000D01*
X121719999Y-96747230D01*
X121736356Y-96664997D01*
X121719999Y-96582764D01*
X121719999Y-96582761D01*
X121685087Y-96407245D01*
X121712191Y-96447809D01*
X121922235Y-96588157D01*
X122170000Y-96637440D01*
X123370000Y-96637440D01*
X123617765Y-96588157D01*
X123827809Y-96447809D01*
X123870000Y-96384666D01*
X123912191Y-96447809D01*
X124122235Y-96588157D01*
X124370000Y-96637440D01*
X125570000Y-96637440D01*
X125817765Y-96588157D01*
X126027809Y-96447809D01*
X126168157Y-96237765D01*
X126209441Y-96030212D01*
X130929392Y-96030212D01*
X130998857Y-96272396D01*
X131522302Y-96459143D01*
X132077368Y-96431361D01*
X132461143Y-96272396D01*
X132530608Y-96030212D01*
X131730000Y-95229604D01*
X130929392Y-96030212D01*
X126209441Y-96030212D01*
X126217440Y-95990000D01*
X126217440Y-95090000D01*
X126168171Y-94842301D01*
X130320856Y-94842301D01*
X130348638Y-95397367D01*
X130507603Y-95781142D01*
X130749787Y-95850607D01*
X131550395Y-95049999D01*
X130749787Y-94249391D01*
X130507603Y-94318856D01*
X130320856Y-94842301D01*
X126168171Y-94842301D01*
X126168157Y-94842235D01*
X126027809Y-94632191D01*
X126005000Y-94616950D01*
X126005000Y-94069786D01*
X130929392Y-94069786D01*
X131730000Y-94870394D01*
X132530608Y-94069786D01*
X132461143Y-93827602D01*
X131937698Y-93640855D01*
X131382632Y-93668637D01*
X130998857Y-93827602D01*
X130929392Y-94069786D01*
X126005000Y-94069786D01*
X126005000Y-93923050D01*
X126027809Y-93907809D01*
X126168157Y-93697765D01*
X126217440Y-93450000D01*
X126217440Y-92550000D01*
X126168157Y-92302235D01*
X126027809Y-92092191D01*
X126005000Y-92076950D01*
X126005000Y-89590000D01*
X131362793Y-89590000D01*
X130938663Y-89765680D01*
X130938663Y-89765680D01*
G37*
X130938663Y-89765680D02*
X130545680Y-90158663D01*
X130333000Y-90672119D01*
X130333000Y-91227881D01*
X130545680Y-91741337D01*
X130938663Y-92134320D01*
X131452119Y-92347000D01*
X131946133Y-92347000D01*
X133131415Y-93532283D01*
X133177999Y-93602001D01*
X133254323Y-93652999D01*
X133454199Y-93786552D01*
X133599781Y-93815510D01*
X133478663Y-93865679D01*
X133085680Y-94258662D01*
X133006572Y-94449646D01*
X132952397Y-94318856D01*
X132710213Y-94249391D01*
X131909605Y-95049999D01*
X132710213Y-95850607D01*
X132952397Y-95781142D01*
X133002535Y-95640606D01*
X133085680Y-95841336D01*
X133478663Y-96234319D01*
X133992119Y-96446999D01*
X134547881Y-96446999D01*
X134707449Y-96380904D01*
X134760000Y-96391357D01*
X134842233Y-96375000D01*
X136903541Y-96375000D01*
X136952191Y-96447809D01*
X137162235Y-96588157D01*
X137410000Y-96637440D01*
X137756573Y-96637440D01*
X139634132Y-98515000D01*
X121719999Y-98515000D01*
X121719999Y-96747230D01*
X121736356Y-96664997D01*
X121719999Y-96582764D01*
X121719999Y-96582761D01*
X121685087Y-96407245D01*
X121712191Y-96447809D01*
X121922235Y-96588157D01*
X122170000Y-96637440D01*
X123370000Y-96637440D01*
X123617765Y-96588157D01*
X123827809Y-96447809D01*
X123870000Y-96384666D01*
X123912191Y-96447809D01*
X124122235Y-96588157D01*
X124370000Y-96637440D01*
X125570000Y-96637440D01*
X125817765Y-96588157D01*
X126027809Y-96447809D01*
X126168157Y-96237765D01*
X126209441Y-96030212D01*
X130929392Y-96030212D01*
X130998857Y-96272396D01*
X131522302Y-96459143D01*
X132077368Y-96431361D01*
X132461143Y-96272396D01*
X132530608Y-96030212D01*
X131730000Y-95229604D01*
X130929392Y-96030212D01*
X126209441Y-96030212D01*
X126217440Y-95990000D01*
X126217440Y-95090000D01*
X126168171Y-94842301D01*
X130320856Y-94842301D01*
X130348638Y-95397367D01*
X130507603Y-95781142D01*
X130749787Y-95850607D01*
X131550395Y-95049999D01*
X130749787Y-94249391D01*
X130507603Y-94318856D01*
X130320856Y-94842301D01*
X126168171Y-94842301D01*
X126168157Y-94842235D01*
X126027809Y-94632191D01*
X126005000Y-94616950D01*
X126005000Y-94069786D01*
X130929392Y-94069786D01*
X131730000Y-94870394D01*
X132530608Y-94069786D01*
X132461143Y-93827602D01*
X131937698Y-93640855D01*
X131382632Y-93668637D01*
X130998857Y-93827602D01*
X130929392Y-94069786D01*
X126005000Y-94069786D01*
X126005000Y-93923050D01*
X126027809Y-93907809D01*
X126168157Y-93697765D01*
X126217440Y-93450000D01*
X126217440Y-92550000D01*
X126168157Y-92302235D01*
X126027809Y-92092191D01*
X126005000Y-92076950D01*
X126005000Y-89590000D01*
X131362793Y-89590000D01*
X130938663Y-89765680D01*
G36*
X160938663Y-89765680D02*
X160545680Y-90158663D01*
X160333000Y-90672119D01*
X160333000Y-91227881D01*
X160545680Y-91741337D01*
X160938663Y-92134320D01*
X161452119Y-92347000D01*
X161946133Y-92347000D01*
X163131415Y-93532283D01*
X163177999Y-93602001D01*
X163254323Y-93652999D01*
X163454199Y-93786552D01*
X163599781Y-93815510D01*
X163478663Y-93865679D01*
X163085680Y-94258662D01*
X163006572Y-94449646D01*
X162952397Y-94318856D01*
X162710213Y-94249391D01*
X161909605Y-95049999D01*
X161923748Y-95064142D01*
X161744143Y-95243747D01*
X161730000Y-95229604D01*
X161715858Y-95243747D01*
X161536253Y-95064142D01*
X161550395Y-95049999D01*
X160749787Y-94249391D01*
X160507603Y-94318856D01*
X160320856Y-94842301D01*
X160348638Y-95397367D01*
X160507603Y-95781142D01*
X160749785Y-95850606D01*
X160634774Y-95965617D01*
X160644157Y-95975000D01*
X156697440Y-95975000D01*
X156697440Y-95090000D01*
X156648157Y-94842235D01*
X156507809Y-94632191D01*
X156485000Y-94616950D01*
X156485000Y-94069786D01*
X160929392Y-94069786D01*
X161730000Y-94870394D01*
X162530608Y-94069786D01*
X162461143Y-93827602D01*
X161937698Y-93640855D01*
X161382632Y-93668637D01*
X160998857Y-93827602D01*
X160929392Y-94069786D01*
X156485000Y-94069786D01*
X156485000Y-93923050D01*
X156507809Y-93907809D01*
X156648157Y-93697765D01*
X156697440Y-93450000D01*
X156697440Y-92550000D01*
X156648157Y-92302235D01*
X156593410Y-92220300D01*
X159223711Y-89590000D01*
X161362793Y-89590000D01*
X160938663Y-89765680D01*
X160938663Y-89765680D01*
G37*
X160938663Y-89765680D02*
X160545680Y-90158663D01*
X160333000Y-90672119D01*
X160333000Y-91227881D01*
X160545680Y-91741337D01*
X160938663Y-92134320D01*
X161452119Y-92347000D01*
X161946133Y-92347000D01*
X163131415Y-93532283D01*
X163177999Y-93602001D01*
X163254323Y-93652999D01*
X163454199Y-93786552D01*
X163599781Y-93815510D01*
X163478663Y-93865679D01*
X163085680Y-94258662D01*
X163006572Y-94449646D01*
X162952397Y-94318856D01*
X162710213Y-94249391D01*
X161909605Y-95049999D01*
X161923748Y-95064142D01*
X161744143Y-95243747D01*
X161730000Y-95229604D01*
X161715858Y-95243747D01*
X161536253Y-95064142D01*
X161550395Y-95049999D01*
X160749787Y-94249391D01*
X160507603Y-94318856D01*
X160320856Y-94842301D01*
X160348638Y-95397367D01*
X160507603Y-95781142D01*
X160749785Y-95850606D01*
X160634774Y-95965617D01*
X160644157Y-95975000D01*
X156697440Y-95975000D01*
X156697440Y-95090000D01*
X156648157Y-94842235D01*
X156507809Y-94632191D01*
X156485000Y-94616950D01*
X156485000Y-94069786D01*
X160929392Y-94069786D01*
X161730000Y-94870394D01*
X162530608Y-94069786D01*
X162461143Y-93827602D01*
X161937698Y-93640855D01*
X161382632Y-93668637D01*
X160998857Y-93827602D01*
X160929392Y-94069786D01*
X156485000Y-94069786D01*
X156485000Y-93923050D01*
X156507809Y-93907809D01*
X156648157Y-93697765D01*
X156697440Y-93450000D01*
X156697440Y-92550000D01*
X156648157Y-92302235D01*
X156593410Y-92220300D01*
X159223711Y-89590000D01*
X161362793Y-89590000D01*
X160938663Y-89765680D01*
G36*
X178538857Y-89727603D02*
X178469392Y-89969787D01*
X179270000Y-90770395D01*
X180070608Y-89969787D01*
X180001143Y-89727603D01*
X179615447Y-89590000D01*
X179956290Y-89590000D01*
X181255001Y-90888712D01*
X181255001Y-93959133D01*
X179624341Y-92328474D01*
X180001143Y-92172397D01*
X180070608Y-91930213D01*
X179270000Y-91129605D01*
X179255858Y-91143748D01*
X179076253Y-90964143D01*
X179090395Y-90950000D01*
X179449605Y-90950000D01*
X180250213Y-91750608D01*
X180492397Y-91681143D01*
X180679144Y-91157698D01*
X180651362Y-90602632D01*
X180492397Y-90218857D01*
X180250213Y-90149392D01*
X179449605Y-90950000D01*
X179090395Y-90950000D01*
X178289787Y-90149392D01*
X178047603Y-90218857D01*
X177997465Y-90359393D01*
X177914320Y-90158663D01*
X177521337Y-89765680D01*
X177097207Y-89590000D01*
X178871060Y-89590000D01*
X178538857Y-89727603D01*
X178538857Y-89727603D01*
G37*
X178538857Y-89727603D02*
X178469392Y-89969787D01*
X179270000Y-90770395D01*
X180070608Y-89969787D01*
X180001143Y-89727603D01*
X179615447Y-89590000D01*
X179956290Y-89590000D01*
X181255001Y-90888712D01*
X181255001Y-93959133D01*
X179624341Y-92328474D01*
X180001143Y-92172397D01*
X180070608Y-91930213D01*
X179270000Y-91129605D01*
X179255858Y-91143748D01*
X179076253Y-90964143D01*
X179090395Y-90950000D01*
X179449605Y-90950000D01*
X180250213Y-91750608D01*
X180492397Y-91681143D01*
X180679144Y-91157698D01*
X180651362Y-90602632D01*
X180492397Y-90218857D01*
X180250213Y-90149392D01*
X179449605Y-90950000D01*
X179090395Y-90950000D01*
X178289787Y-90149392D01*
X178047603Y-90218857D01*
X177997465Y-90359393D01*
X177914320Y-90158663D01*
X177521337Y-89765680D01*
X177097207Y-89590000D01*
X178871060Y-89590000D01*
X178538857Y-89727603D01*
G36*
X118538857Y-89727603D02*
X118469392Y-89969787D01*
X119270000Y-90770395D01*
X120070608Y-89969787D01*
X120001143Y-89727603D01*
X119615447Y-89590000D01*
X123935001Y-89590000D01*
X123935000Y-92076950D01*
X123912191Y-92092191D01*
X123870000Y-92155334D01*
X123827809Y-92092191D01*
X123617765Y-91951843D01*
X123370000Y-91902560D01*
X122170000Y-91902560D01*
X121922235Y-91951843D01*
X121712191Y-92092191D01*
X121663541Y-92165000D01*
X120003265Y-92165000D01*
X120070608Y-91930213D01*
X119270000Y-91129605D01*
X119255858Y-91143748D01*
X119076253Y-90964143D01*
X119090395Y-90950000D01*
X119449605Y-90950000D01*
X120250213Y-91750608D01*
X120492397Y-91681143D01*
X120679144Y-91157698D01*
X120651362Y-90602632D01*
X120492397Y-90218857D01*
X120250213Y-90149392D01*
X119449605Y-90950000D01*
X119090395Y-90950000D01*
X118289787Y-90149392D01*
X118047603Y-90218857D01*
X117997465Y-90359393D01*
X117914320Y-90158663D01*
X117521337Y-89765680D01*
X117097207Y-89590000D01*
X118871060Y-89590000D01*
X118538857Y-89727603D01*
X118538857Y-89727603D01*
G37*
X118538857Y-89727603D02*
X118469392Y-89969787D01*
X119270000Y-90770395D01*
X120070608Y-89969787D01*
X120001143Y-89727603D01*
X119615447Y-89590000D01*
X123935001Y-89590000D01*
X123935000Y-92076950D01*
X123912191Y-92092191D01*
X123870000Y-92155334D01*
X123827809Y-92092191D01*
X123617765Y-91951843D01*
X123370000Y-91902560D01*
X122170000Y-91902560D01*
X121922235Y-91951843D01*
X121712191Y-92092191D01*
X121663541Y-92165000D01*
X120003265Y-92165000D01*
X120070608Y-91930213D01*
X119270000Y-91129605D01*
X119255858Y-91143748D01*
X119076253Y-90964143D01*
X119090395Y-90950000D01*
X119449605Y-90950000D01*
X120250213Y-91750608D01*
X120492397Y-91681143D01*
X120679144Y-91157698D01*
X120651362Y-90602632D01*
X120492397Y-90218857D01*
X120250213Y-90149392D01*
X119449605Y-90950000D01*
X119090395Y-90950000D01*
X118289787Y-90149392D01*
X118047603Y-90218857D01*
X117997465Y-90359393D01*
X117914320Y-90158663D01*
X117521337Y-89765680D01*
X117097207Y-89590000D01*
X118871060Y-89590000D01*
X118538857Y-89727603D01*
G36*
X133538857Y-89727603D02*
X133469392Y-89969787D01*
X134270000Y-90770395D01*
X135070608Y-89969787D01*
X135001143Y-89727603D01*
X134615447Y-89590000D01*
X136776290Y-89590000D01*
X139175000Y-91988711D01*
X139175000Y-92076950D01*
X139152191Y-92092191D01*
X139110000Y-92155334D01*
X139067809Y-92092191D01*
X138857765Y-91951843D01*
X138610000Y-91902560D01*
X137410000Y-91902560D01*
X137162235Y-91951843D01*
X136952191Y-92092191D01*
X136903541Y-92165000D01*
X135003265Y-92165000D01*
X135070608Y-91930213D01*
X134270000Y-91129605D01*
X134255858Y-91143748D01*
X134076253Y-90964143D01*
X134090395Y-90950000D01*
X134449605Y-90950000D01*
X135250213Y-91750608D01*
X135492397Y-91681143D01*
X135679144Y-91157698D01*
X135651362Y-90602632D01*
X135492397Y-90218857D01*
X135250213Y-90149392D01*
X134449605Y-90950000D01*
X134090395Y-90950000D01*
X133289787Y-90149392D01*
X133047603Y-90218857D01*
X132997465Y-90359393D01*
X132914320Y-90158663D01*
X132521337Y-89765680D01*
X132097207Y-89590000D01*
X133871060Y-89590000D01*
X133538857Y-89727603D01*
X133538857Y-89727603D01*
G37*
X133538857Y-89727603D02*
X133469392Y-89969787D01*
X134270000Y-90770395D01*
X135070608Y-89969787D01*
X135001143Y-89727603D01*
X134615447Y-89590000D01*
X136776290Y-89590000D01*
X139175000Y-91988711D01*
X139175000Y-92076950D01*
X139152191Y-92092191D01*
X139110000Y-92155334D01*
X139067809Y-92092191D01*
X138857765Y-91951843D01*
X138610000Y-91902560D01*
X137410000Y-91902560D01*
X137162235Y-91951843D01*
X136952191Y-92092191D01*
X136903541Y-92165000D01*
X135003265Y-92165000D01*
X135070608Y-91930213D01*
X134270000Y-91129605D01*
X134255858Y-91143748D01*
X134076253Y-90964143D01*
X134090395Y-90950000D01*
X134449605Y-90950000D01*
X135250213Y-91750608D01*
X135492397Y-91681143D01*
X135679144Y-91157698D01*
X135651362Y-90602632D01*
X135492397Y-90218857D01*
X135250213Y-90149392D01*
X134449605Y-90950000D01*
X134090395Y-90950000D01*
X133289787Y-90149392D01*
X133047603Y-90218857D01*
X132997465Y-90359393D01*
X132914320Y-90158663D01*
X132521337Y-89765680D01*
X132097207Y-89590000D01*
X133871060Y-89590000D01*
X133538857Y-89727603D01*
G36*
X163538857Y-89727603D02*
X163469392Y-89969787D01*
X164270000Y-90770395D01*
X165070608Y-89969787D01*
X165001143Y-89727603D01*
X164615447Y-89590000D01*
X169655001Y-89590000D01*
X169655000Y-92076950D01*
X169632191Y-92092191D01*
X169590000Y-92155334D01*
X169547809Y-92092191D01*
X169337765Y-91951843D01*
X169090000Y-91902560D01*
X167890000Y-91902560D01*
X167642235Y-91951843D01*
X167432191Y-92092191D01*
X167383541Y-92165000D01*
X165003265Y-92165000D01*
X165070608Y-91930213D01*
X164270000Y-91129605D01*
X164255858Y-91143748D01*
X164076253Y-90964143D01*
X164090395Y-90950000D01*
X164449605Y-90950000D01*
X165250213Y-91750608D01*
X165492397Y-91681143D01*
X165679144Y-91157698D01*
X165651362Y-90602632D01*
X165492397Y-90218857D01*
X165250213Y-90149392D01*
X164449605Y-90950000D01*
X164090395Y-90950000D01*
X163289787Y-90149392D01*
X163047603Y-90218857D01*
X162997465Y-90359393D01*
X162914320Y-90158663D01*
X162521337Y-89765680D01*
X162097207Y-89590000D01*
X163871060Y-89590000D01*
X163538857Y-89727603D01*
X163538857Y-89727603D01*
G37*
X163538857Y-89727603D02*
X163469392Y-89969787D01*
X164270000Y-90770395D01*
X165070608Y-89969787D01*
X165001143Y-89727603D01*
X164615447Y-89590000D01*
X169655001Y-89590000D01*
X169655000Y-92076950D01*
X169632191Y-92092191D01*
X169590000Y-92155334D01*
X169547809Y-92092191D01*
X169337765Y-91951843D01*
X169090000Y-91902560D01*
X167890000Y-91902560D01*
X167642235Y-91951843D01*
X167432191Y-92092191D01*
X167383541Y-92165000D01*
X165003265Y-92165000D01*
X165070608Y-91930213D01*
X164270000Y-91129605D01*
X164255858Y-91143748D01*
X164076253Y-90964143D01*
X164090395Y-90950000D01*
X164449605Y-90950000D01*
X165250213Y-91750608D01*
X165492397Y-91681143D01*
X165679144Y-91157698D01*
X165651362Y-90602632D01*
X165492397Y-90218857D01*
X165250213Y-90149392D01*
X164449605Y-90950000D01*
X164090395Y-90950000D01*
X163289787Y-90149392D01*
X163047603Y-90218857D01*
X162997465Y-90359393D01*
X162914320Y-90158663D01*
X162521337Y-89765680D01*
X162097207Y-89590000D01*
X163871060Y-89590000D01*
X163538857Y-89727603D01*
G36*
X143355001Y-128600869D02*
X143355001Y-128750877D01*
X143276890Y-128718524D01*
X143047000Y-128839845D01*
X143047000Y-130033000D01*
X143067000Y-130033000D01*
X143067000Y-130287000D01*
X143047000Y-130287000D01*
X143047000Y-130307000D01*
X142793000Y-130307000D01*
X142793000Y-130287000D01*
X141599181Y-130287000D01*
X141478514Y-130516892D01*
X141724817Y-131041358D01*
X141931855Y-131230039D01*
X141822235Y-131251843D01*
X141612191Y-131392191D01*
X141537574Y-131503863D01*
X140168937Y-130135227D01*
X140111193Y-130048807D01*
X139768837Y-129820052D01*
X139683654Y-129803108D01*
X141478514Y-129803108D01*
X141599181Y-130033000D01*
X142793000Y-130033000D01*
X142793000Y-128839845D01*
X142563110Y-128718524D01*
X142153076Y-128888355D01*
X141724817Y-129278642D01*
X141478514Y-129803108D01*
X139683654Y-129803108D01*
X139466935Y-129760000D01*
X139466934Y-129760000D01*
X139365000Y-129739724D01*
X139263066Y-129760000D01*
X136252552Y-129760000D01*
X136310000Y-129621309D01*
X136310000Y-129180750D01*
X136151250Y-129022000D01*
X135427000Y-129022000D01*
X135427000Y-129042000D01*
X135173000Y-129042000D01*
X135173000Y-129022000D01*
X134448750Y-129022000D01*
X134290000Y-129180750D01*
X134290000Y-129621309D01*
X134347448Y-129760000D01*
X122066934Y-129760000D01*
X121965000Y-129739724D01*
X121863065Y-129760000D01*
X121561163Y-129820052D01*
X121218807Y-130048807D01*
X121161065Y-130135224D01*
X120068730Y-131227560D01*
X119235000Y-131227560D01*
X118987235Y-131276843D01*
X118777191Y-131417191D01*
X118636843Y-131627235D01*
X118629331Y-131665000D01*
X117948711Y-131665000D01*
X117916384Y-131632673D01*
X118387024Y-131437728D01*
X118797728Y-131027024D01*
X119020000Y-130490412D01*
X119020000Y-129920867D01*
X119780868Y-129160000D01*
X120350412Y-129160000D01*
X120887024Y-128937728D01*
X121297728Y-128527024D01*
X121446154Y-128168691D01*
X134290000Y-128168691D01*
X134290000Y-128609250D01*
X134448750Y-128768000D01*
X135173000Y-128768000D01*
X135173000Y-127818750D01*
X135427000Y-127818750D01*
X135427000Y-128768000D01*
X136151250Y-128768000D01*
X136310000Y-128609250D01*
X136310000Y-128168691D01*
X136213327Y-127935302D01*
X136034699Y-127756673D01*
X135801310Y-127660000D01*
X135585750Y-127660000D01*
X135427000Y-127818750D01*
X135173000Y-127818750D01*
X135014250Y-127660000D01*
X134798690Y-127660000D01*
X134565301Y-127756673D01*
X134386673Y-127935302D01*
X134290000Y-128168691D01*
X121446154Y-128168691D01*
X121520000Y-127990412D01*
X121520000Y-127427614D01*
X121671551Y-127200802D01*
X121674694Y-127185000D01*
X141939133Y-127185000D01*
X143355001Y-128600869D01*
X143355001Y-128600869D01*
G37*
X143355001Y-128600869D02*
X143355001Y-128750877D01*
X143276890Y-128718524D01*
X143047000Y-128839845D01*
X143047000Y-130033000D01*
X143067000Y-130033000D01*
X143067000Y-130287000D01*
X143047000Y-130287000D01*
X143047000Y-130307000D01*
X142793000Y-130307000D01*
X142793000Y-130287000D01*
X141599181Y-130287000D01*
X141478514Y-130516892D01*
X141724817Y-131041358D01*
X141931855Y-131230039D01*
X141822235Y-131251843D01*
X141612191Y-131392191D01*
X141537574Y-131503863D01*
X140168937Y-130135227D01*
X140111193Y-130048807D01*
X139768837Y-129820052D01*
X139683654Y-129803108D01*
X141478514Y-129803108D01*
X141599181Y-130033000D01*
X142793000Y-130033000D01*
X142793000Y-128839845D01*
X142563110Y-128718524D01*
X142153076Y-128888355D01*
X141724817Y-129278642D01*
X141478514Y-129803108D01*
X139683654Y-129803108D01*
X139466935Y-129760000D01*
X139466934Y-129760000D01*
X139365000Y-129739724D01*
X139263066Y-129760000D01*
X136252552Y-129760000D01*
X136310000Y-129621309D01*
X136310000Y-129180750D01*
X136151250Y-129022000D01*
X135427000Y-129022000D01*
X135427000Y-129042000D01*
X135173000Y-129042000D01*
X135173000Y-129022000D01*
X134448750Y-129022000D01*
X134290000Y-129180750D01*
X134290000Y-129621309D01*
X134347448Y-129760000D01*
X122066934Y-129760000D01*
X121965000Y-129739724D01*
X121863065Y-129760000D01*
X121561163Y-129820052D01*
X121218807Y-130048807D01*
X121161065Y-130135224D01*
X120068730Y-131227560D01*
X119235000Y-131227560D01*
X118987235Y-131276843D01*
X118777191Y-131417191D01*
X118636843Y-131627235D01*
X118629331Y-131665000D01*
X117948711Y-131665000D01*
X117916384Y-131632673D01*
X118387024Y-131437728D01*
X118797728Y-131027024D01*
X119020000Y-130490412D01*
X119020000Y-129920867D01*
X119780868Y-129160000D01*
X120350412Y-129160000D01*
X120887024Y-128937728D01*
X121297728Y-128527024D01*
X121446154Y-128168691D01*
X134290000Y-128168691D01*
X134290000Y-128609250D01*
X134448750Y-128768000D01*
X135173000Y-128768000D01*
X135173000Y-127818750D01*
X135427000Y-127818750D01*
X135427000Y-128768000D01*
X136151250Y-128768000D01*
X136310000Y-128609250D01*
X136310000Y-128168691D01*
X136213327Y-127935302D01*
X136034699Y-127756673D01*
X135801310Y-127660000D01*
X135585750Y-127660000D01*
X135427000Y-127818750D01*
X135173000Y-127818750D01*
X135014250Y-127660000D01*
X134798690Y-127660000D01*
X134565301Y-127756673D01*
X134386673Y-127935302D01*
X134290000Y-128168691D01*
X121446154Y-128168691D01*
X121520000Y-127990412D01*
X121520000Y-127427614D01*
X121671551Y-127200802D01*
X121674694Y-127185000D01*
X141939133Y-127185000D01*
X143355001Y-128600869D01*
G36*
X115545680Y-118741337D02*
X115938663Y-119134320D01*
X116452119Y-119347000D01*
X116946133Y-119347000D01*
X118131415Y-120532283D01*
X118177999Y-120602001D01*
X118254323Y-120652999D01*
X118454199Y-120786552D01*
X118599781Y-120815510D01*
X118478663Y-120865679D01*
X118085680Y-121258662D01*
X118006572Y-121449646D01*
X117952397Y-121318856D01*
X117710213Y-121249391D01*
X116909605Y-122049999D01*
X117710213Y-122850607D01*
X117952397Y-122781142D01*
X118002535Y-122640606D01*
X118085680Y-122841336D01*
X118478663Y-123234319D01*
X118992119Y-123446999D01*
X119486131Y-123446999D01*
X119499714Y-123460582D01*
X119499720Y-123460586D01*
X120050000Y-124010867D01*
X120049999Y-126240000D01*
X119769588Y-126240000D01*
X119232976Y-126462272D01*
X118822272Y-126872976D01*
X118600000Y-127409588D01*
X118600000Y-127979132D01*
X117839133Y-128740000D01*
X117269588Y-128740000D01*
X116732976Y-128962272D01*
X116322272Y-129372976D01*
X116127326Y-129843616D01*
X115380000Y-129096290D01*
X115380000Y-123030212D01*
X115929392Y-123030212D01*
X115998857Y-123272396D01*
X116522302Y-123459143D01*
X117077368Y-123431361D01*
X117461143Y-123272396D01*
X117530608Y-123030212D01*
X116730000Y-122229604D01*
X115929392Y-123030212D01*
X115380000Y-123030212D01*
X115380000Y-122473081D01*
X115507603Y-122781142D01*
X115749787Y-122850607D01*
X116550395Y-122049999D01*
X115749787Y-121249391D01*
X115507603Y-121318856D01*
X115380000Y-121676523D01*
X115380000Y-121069786D01*
X115929392Y-121069786D01*
X116730000Y-121870394D01*
X117530608Y-121069786D01*
X117461143Y-120827602D01*
X116937698Y-120640855D01*
X116382632Y-120668637D01*
X115998857Y-120827602D01*
X115929392Y-121069786D01*
X115380000Y-121069786D01*
X115380000Y-118341349D01*
X115545680Y-118741337D01*
X115545680Y-118741337D01*
G37*
X115545680Y-118741337D02*
X115938663Y-119134320D01*
X116452119Y-119347000D01*
X116946133Y-119347000D01*
X118131415Y-120532283D01*
X118177999Y-120602001D01*
X118254323Y-120652999D01*
X118454199Y-120786552D01*
X118599781Y-120815510D01*
X118478663Y-120865679D01*
X118085680Y-121258662D01*
X118006572Y-121449646D01*
X117952397Y-121318856D01*
X117710213Y-121249391D01*
X116909605Y-122049999D01*
X117710213Y-122850607D01*
X117952397Y-122781142D01*
X118002535Y-122640606D01*
X118085680Y-122841336D01*
X118478663Y-123234319D01*
X118992119Y-123446999D01*
X119486131Y-123446999D01*
X119499714Y-123460582D01*
X119499720Y-123460586D01*
X120050000Y-124010867D01*
X120049999Y-126240000D01*
X119769588Y-126240000D01*
X119232976Y-126462272D01*
X118822272Y-126872976D01*
X118600000Y-127409588D01*
X118600000Y-127979132D01*
X117839133Y-128740000D01*
X117269588Y-128740000D01*
X116732976Y-128962272D01*
X116322272Y-129372976D01*
X116127326Y-129843616D01*
X115380000Y-129096290D01*
X115380000Y-123030212D01*
X115929392Y-123030212D01*
X115998857Y-123272396D01*
X116522302Y-123459143D01*
X117077368Y-123431361D01*
X117461143Y-123272396D01*
X117530608Y-123030212D01*
X116730000Y-122229604D01*
X115929392Y-123030212D01*
X115380000Y-123030212D01*
X115380000Y-122473081D01*
X115507603Y-122781142D01*
X115749787Y-122850607D01*
X116550395Y-122049999D01*
X115749787Y-121249391D01*
X115507603Y-121318856D01*
X115380000Y-121676523D01*
X115380000Y-121069786D01*
X115929392Y-121069786D01*
X116730000Y-121870394D01*
X117530608Y-121069786D01*
X117461143Y-120827602D01*
X116937698Y-120640855D01*
X116382632Y-120668637D01*
X115998857Y-120827602D01*
X115929392Y-121069786D01*
X115380000Y-121069786D01*
X115380000Y-118341349D01*
X115545680Y-118741337D01*
G36*
X175938663Y-116765680D02*
X175545680Y-117158663D01*
X175333000Y-117672119D01*
X175333000Y-118227881D01*
X175545680Y-118741337D01*
X175938663Y-119134320D01*
X176452119Y-119347000D01*
X177007881Y-119347000D01*
X177201099Y-119266967D01*
X178705749Y-120771617D01*
X178478663Y-120865679D01*
X178085680Y-121258662D01*
X178006572Y-121449646D01*
X177952397Y-121318856D01*
X177710213Y-121249391D01*
X176909605Y-122049999D01*
X176923748Y-122064142D01*
X176744143Y-122243747D01*
X176730000Y-122229604D01*
X175929392Y-123030212D01*
X175998857Y-123272396D01*
X176522302Y-123459143D01*
X177040949Y-123433184D01*
X175407720Y-125066413D01*
X175337999Y-125112999D01*
X175163142Y-125374692D01*
X175032191Y-125462191D01*
X174891843Y-125672235D01*
X174889304Y-125685000D01*
X154262232Y-125685000D01*
X154179999Y-125668643D01*
X154097766Y-125685000D01*
X154097763Y-125685000D01*
X153854199Y-125733448D01*
X153577999Y-125917999D01*
X153531417Y-125987715D01*
X151297717Y-128221416D01*
X151227999Y-128268000D01*
X151151091Y-128383101D01*
X151043447Y-128544201D01*
X151004825Y-128738367D01*
X150686256Y-128675000D01*
X150393744Y-128675000D01*
X149960582Y-128761161D01*
X149684999Y-128945300D01*
X149684999Y-125845868D01*
X150885869Y-124645000D01*
X162427766Y-124645000D01*
X162509999Y-124661357D01*
X162592232Y-124645000D01*
X162592236Y-124645000D01*
X162835800Y-124596552D01*
X163112000Y-124412001D01*
X163158586Y-124342280D01*
X164053868Y-123446999D01*
X164547881Y-123446999D01*
X165061337Y-123234319D01*
X165410657Y-122884999D01*
X167242560Y-122884999D01*
X167242560Y-122990000D01*
X167291843Y-123237765D01*
X167432191Y-123447809D01*
X167642235Y-123588157D01*
X167890000Y-123637440D01*
X169090000Y-123637440D01*
X169337765Y-123588157D01*
X169547809Y-123447809D01*
X169590000Y-123384666D01*
X169632191Y-123447809D01*
X169842235Y-123588157D01*
X170090000Y-123637440D01*
X171290000Y-123637440D01*
X171537765Y-123588157D01*
X171747809Y-123447809D01*
X171888157Y-123237765D01*
X171937440Y-122990000D01*
X171937440Y-122090000D01*
X171888171Y-121842301D01*
X175320856Y-121842301D01*
X175348638Y-122397367D01*
X175507603Y-122781142D01*
X175749787Y-122850607D01*
X176550395Y-122049999D01*
X175749787Y-121249391D01*
X175507603Y-121318856D01*
X175320856Y-121842301D01*
X171888171Y-121842301D01*
X171888157Y-121842235D01*
X171747809Y-121632191D01*
X171725000Y-121616950D01*
X171725000Y-121069786D01*
X175929392Y-121069786D01*
X176730000Y-121870394D01*
X177530608Y-121069786D01*
X177461143Y-120827602D01*
X176937698Y-120640855D01*
X176382632Y-120668637D01*
X175998857Y-120827602D01*
X175929392Y-121069786D01*
X171725000Y-121069786D01*
X171725000Y-120923050D01*
X171747809Y-120907809D01*
X171888157Y-120697765D01*
X171937440Y-120450000D01*
X171937440Y-119550000D01*
X171888157Y-119302235D01*
X171747809Y-119092191D01*
X171725000Y-119076950D01*
X171725000Y-116590000D01*
X176362793Y-116590000D01*
X175938663Y-116765680D01*
X175938663Y-116765680D01*
G37*
X175938663Y-116765680D02*
X175545680Y-117158663D01*
X175333000Y-117672119D01*
X175333000Y-118227881D01*
X175545680Y-118741337D01*
X175938663Y-119134320D01*
X176452119Y-119347000D01*
X177007881Y-119347000D01*
X177201099Y-119266967D01*
X178705749Y-120771617D01*
X178478663Y-120865679D01*
X178085680Y-121258662D01*
X178006572Y-121449646D01*
X177952397Y-121318856D01*
X177710213Y-121249391D01*
X176909605Y-122049999D01*
X176923748Y-122064142D01*
X176744143Y-122243747D01*
X176730000Y-122229604D01*
X175929392Y-123030212D01*
X175998857Y-123272396D01*
X176522302Y-123459143D01*
X177040949Y-123433184D01*
X175407720Y-125066413D01*
X175337999Y-125112999D01*
X175163142Y-125374692D01*
X175032191Y-125462191D01*
X174891843Y-125672235D01*
X174889304Y-125685000D01*
X154262232Y-125685000D01*
X154179999Y-125668643D01*
X154097766Y-125685000D01*
X154097763Y-125685000D01*
X153854199Y-125733448D01*
X153577999Y-125917999D01*
X153531417Y-125987715D01*
X151297717Y-128221416D01*
X151227999Y-128268000D01*
X151151091Y-128383101D01*
X151043447Y-128544201D01*
X151004825Y-128738367D01*
X150686256Y-128675000D01*
X150393744Y-128675000D01*
X149960582Y-128761161D01*
X149684999Y-128945300D01*
X149684999Y-125845868D01*
X150885869Y-124645000D01*
X162427766Y-124645000D01*
X162509999Y-124661357D01*
X162592232Y-124645000D01*
X162592236Y-124645000D01*
X162835800Y-124596552D01*
X163112000Y-124412001D01*
X163158586Y-124342280D01*
X164053868Y-123446999D01*
X164547881Y-123446999D01*
X165061337Y-123234319D01*
X165410657Y-122884999D01*
X167242560Y-122884999D01*
X167242560Y-122990000D01*
X167291843Y-123237765D01*
X167432191Y-123447809D01*
X167642235Y-123588157D01*
X167890000Y-123637440D01*
X169090000Y-123637440D01*
X169337765Y-123588157D01*
X169547809Y-123447809D01*
X169590000Y-123384666D01*
X169632191Y-123447809D01*
X169842235Y-123588157D01*
X170090000Y-123637440D01*
X171290000Y-123637440D01*
X171537765Y-123588157D01*
X171747809Y-123447809D01*
X171888157Y-123237765D01*
X171937440Y-122990000D01*
X171937440Y-122090000D01*
X171888171Y-121842301D01*
X175320856Y-121842301D01*
X175348638Y-122397367D01*
X175507603Y-122781142D01*
X175749787Y-122850607D01*
X176550395Y-122049999D01*
X175749787Y-121249391D01*
X175507603Y-121318856D01*
X175320856Y-121842301D01*
X171888171Y-121842301D01*
X171888157Y-121842235D01*
X171747809Y-121632191D01*
X171725000Y-121616950D01*
X171725000Y-121069786D01*
X175929392Y-121069786D01*
X176730000Y-121870394D01*
X177530608Y-121069786D01*
X177461143Y-120827602D01*
X176937698Y-120640855D01*
X176382632Y-120668637D01*
X175998857Y-120827602D01*
X175929392Y-121069786D01*
X171725000Y-121069786D01*
X171725000Y-120923050D01*
X171747809Y-120907809D01*
X171888157Y-120697765D01*
X171937440Y-120450000D01*
X171937440Y-119550000D01*
X171888157Y-119302235D01*
X171747809Y-119092191D01*
X171725000Y-119076950D01*
X171725000Y-116590000D01*
X176362793Y-116590000D01*
X175938663Y-116765680D01*
G36*
X158048807Y-114808807D02*
X157991065Y-114895224D01*
X154790227Y-118096063D01*
X154703807Y-118153807D01*
X154515955Y-118434948D01*
X154475052Y-118496164D01*
X154394724Y-118900000D01*
X154415000Y-119001935D01*
X154415000Y-119076950D01*
X154392191Y-119092191D01*
X154350000Y-119155334D01*
X154307809Y-119092191D01*
X154097765Y-118951843D01*
X153850000Y-118902560D01*
X152650000Y-118902560D01*
X152402235Y-118951843D01*
X152192191Y-119092191D01*
X152143541Y-119165000D01*
X150003265Y-119165000D01*
X150070608Y-118930213D01*
X149270000Y-118129605D01*
X149255858Y-118143748D01*
X149076253Y-117964143D01*
X149090395Y-117950000D01*
X149449605Y-117950000D01*
X150250213Y-118750608D01*
X150492397Y-118681143D01*
X150679144Y-118157698D01*
X150651362Y-117602632D01*
X150492397Y-117218857D01*
X150250213Y-117149392D01*
X149449605Y-117950000D01*
X149090395Y-117950000D01*
X148289787Y-117149392D01*
X148047603Y-117218857D01*
X147997465Y-117359393D01*
X147914320Y-117158663D01*
X147725444Y-116969787D01*
X148469392Y-116969787D01*
X149270000Y-117770395D01*
X150070608Y-116969787D01*
X150001143Y-116727603D01*
X149477698Y-116540856D01*
X148922632Y-116568638D01*
X148538857Y-116727603D01*
X148469392Y-116969787D01*
X147725444Y-116969787D01*
X147521337Y-116765680D01*
X147007881Y-116553000D01*
X146452119Y-116553000D01*
X145938663Y-116765680D01*
X145545680Y-117158663D01*
X145333000Y-117672119D01*
X145333000Y-118227881D01*
X145545680Y-118741337D01*
X145938663Y-119134320D01*
X146452119Y-119347000D01*
X146946133Y-119347000D01*
X148131415Y-120532283D01*
X148177999Y-120602001D01*
X148254323Y-120652999D01*
X148454199Y-120786552D01*
X148599781Y-120815510D01*
X148478663Y-120865679D01*
X148085680Y-121258662D01*
X148006572Y-121449646D01*
X147952397Y-121318856D01*
X147710213Y-121249391D01*
X146909605Y-122049999D01*
X146923748Y-122064142D01*
X146744143Y-122243747D01*
X146730000Y-122229604D01*
X145929392Y-123030212D01*
X145998857Y-123272396D01*
X146522302Y-123459143D01*
X146688297Y-123450835D01*
X146197720Y-123941412D01*
X146127999Y-123987998D01*
X145943448Y-124264199D01*
X145895000Y-124507763D01*
X145895000Y-124507766D01*
X145878643Y-124589999D01*
X145895000Y-124672232D01*
X145895000Y-126874131D01*
X143568587Y-124547720D01*
X143522001Y-124477999D01*
X143245801Y-124293448D01*
X143002237Y-124245000D01*
X143002233Y-124245000D01*
X142920000Y-124228643D01*
X142837767Y-124245000D01*
X140725868Y-124245000D01*
X140118308Y-123637440D01*
X140810000Y-123637440D01*
X141057765Y-123588157D01*
X141267809Y-123447809D01*
X141408157Y-123237765D01*
X141457440Y-122990000D01*
X141457440Y-122090000D01*
X141408171Y-121842301D01*
X145320856Y-121842301D01*
X145348638Y-122397367D01*
X145507603Y-122781142D01*
X145749787Y-122850607D01*
X146550395Y-122049999D01*
X145749787Y-121249391D01*
X145507603Y-121318856D01*
X145320856Y-121842301D01*
X141408171Y-121842301D01*
X141408157Y-121842235D01*
X141267809Y-121632191D01*
X141245000Y-121616950D01*
X141245000Y-121069786D01*
X145929392Y-121069786D01*
X146730000Y-121870394D01*
X147530608Y-121069786D01*
X147461143Y-120827602D01*
X146937698Y-120640855D01*
X146382632Y-120668637D01*
X145998857Y-120827602D01*
X145929392Y-121069786D01*
X141245000Y-121069786D01*
X141245000Y-120923050D01*
X141267809Y-120907809D01*
X141408157Y-120697765D01*
X141457440Y-120450000D01*
X141457440Y-119550000D01*
X141408157Y-119302235D01*
X141267809Y-119092191D01*
X141245000Y-119076950D01*
X141245000Y-118661934D01*
X141265276Y-118560000D01*
X141184948Y-118156163D01*
X141183374Y-118153807D01*
X140956193Y-117813807D01*
X140869776Y-117756065D01*
X138008937Y-114895227D01*
X137951193Y-114808807D01*
X137803318Y-114710000D01*
X158196682Y-114710000D01*
X158048807Y-114808807D01*
X158048807Y-114808807D01*
G37*
X158048807Y-114808807D02*
X157991065Y-114895224D01*
X154790227Y-118096063D01*
X154703807Y-118153807D01*
X154515955Y-118434948D01*
X154475052Y-118496164D01*
X154394724Y-118900000D01*
X154415000Y-119001935D01*
X154415000Y-119076950D01*
X154392191Y-119092191D01*
X154350000Y-119155334D01*
X154307809Y-119092191D01*
X154097765Y-118951843D01*
X153850000Y-118902560D01*
X152650000Y-118902560D01*
X152402235Y-118951843D01*
X152192191Y-119092191D01*
X152143541Y-119165000D01*
X150003265Y-119165000D01*
X150070608Y-118930213D01*
X149270000Y-118129605D01*
X149255858Y-118143748D01*
X149076253Y-117964143D01*
X149090395Y-117950000D01*
X149449605Y-117950000D01*
X150250213Y-118750608D01*
X150492397Y-118681143D01*
X150679144Y-118157698D01*
X150651362Y-117602632D01*
X150492397Y-117218857D01*
X150250213Y-117149392D01*
X149449605Y-117950000D01*
X149090395Y-117950000D01*
X148289787Y-117149392D01*
X148047603Y-117218857D01*
X147997465Y-117359393D01*
X147914320Y-117158663D01*
X147725444Y-116969787D01*
X148469392Y-116969787D01*
X149270000Y-117770395D01*
X150070608Y-116969787D01*
X150001143Y-116727603D01*
X149477698Y-116540856D01*
X148922632Y-116568638D01*
X148538857Y-116727603D01*
X148469392Y-116969787D01*
X147725444Y-116969787D01*
X147521337Y-116765680D01*
X147007881Y-116553000D01*
X146452119Y-116553000D01*
X145938663Y-116765680D01*
X145545680Y-117158663D01*
X145333000Y-117672119D01*
X145333000Y-118227881D01*
X145545680Y-118741337D01*
X145938663Y-119134320D01*
X146452119Y-119347000D01*
X146946133Y-119347000D01*
X148131415Y-120532283D01*
X148177999Y-120602001D01*
X148254323Y-120652999D01*
X148454199Y-120786552D01*
X148599781Y-120815510D01*
X148478663Y-120865679D01*
X148085680Y-121258662D01*
X148006572Y-121449646D01*
X147952397Y-121318856D01*
X147710213Y-121249391D01*
X146909605Y-122049999D01*
X146923748Y-122064142D01*
X146744143Y-122243747D01*
X146730000Y-122229604D01*
X145929392Y-123030212D01*
X145998857Y-123272396D01*
X146522302Y-123459143D01*
X146688297Y-123450835D01*
X146197720Y-123941412D01*
X146127999Y-123987998D01*
X145943448Y-124264199D01*
X145895000Y-124507763D01*
X145895000Y-124507766D01*
X145878643Y-124589999D01*
X145895000Y-124672232D01*
X145895000Y-126874131D01*
X143568587Y-124547720D01*
X143522001Y-124477999D01*
X143245801Y-124293448D01*
X143002237Y-124245000D01*
X143002233Y-124245000D01*
X142920000Y-124228643D01*
X142837767Y-124245000D01*
X140725868Y-124245000D01*
X140118308Y-123637440D01*
X140810000Y-123637440D01*
X141057765Y-123588157D01*
X141267809Y-123447809D01*
X141408157Y-123237765D01*
X141457440Y-122990000D01*
X141457440Y-122090000D01*
X141408171Y-121842301D01*
X145320856Y-121842301D01*
X145348638Y-122397367D01*
X145507603Y-122781142D01*
X145749787Y-122850607D01*
X146550395Y-122049999D01*
X145749787Y-121249391D01*
X145507603Y-121318856D01*
X145320856Y-121842301D01*
X141408171Y-121842301D01*
X141408157Y-121842235D01*
X141267809Y-121632191D01*
X141245000Y-121616950D01*
X141245000Y-121069786D01*
X145929392Y-121069786D01*
X146730000Y-121870394D01*
X147530608Y-121069786D01*
X147461143Y-120827602D01*
X146937698Y-120640855D01*
X146382632Y-120668637D01*
X145998857Y-120827602D01*
X145929392Y-121069786D01*
X141245000Y-121069786D01*
X141245000Y-120923050D01*
X141267809Y-120907809D01*
X141408157Y-120697765D01*
X141457440Y-120450000D01*
X141457440Y-119550000D01*
X141408157Y-119302235D01*
X141267809Y-119092191D01*
X141245000Y-119076950D01*
X141245000Y-118661934D01*
X141265276Y-118560000D01*
X141184948Y-118156163D01*
X141183374Y-118153807D01*
X140956193Y-117813807D01*
X140869776Y-117756065D01*
X138008937Y-114895227D01*
X137951193Y-114808807D01*
X137803318Y-114710000D01*
X158196682Y-114710000D01*
X158048807Y-114808807D01*
G36*
X130938663Y-116765680D02*
X130545680Y-117158663D01*
X130333000Y-117672119D01*
X130333000Y-118227881D01*
X130545680Y-118741337D01*
X130938663Y-119134320D01*
X131452119Y-119347000D01*
X131946133Y-119347000D01*
X133131415Y-120532283D01*
X133177999Y-120602001D01*
X133254323Y-120652999D01*
X133454199Y-120786552D01*
X133599781Y-120815510D01*
X133478663Y-120865679D01*
X133085680Y-121258662D01*
X133006572Y-121449646D01*
X132952397Y-121318856D01*
X132710213Y-121249391D01*
X131909605Y-122049999D01*
X132710213Y-122850607D01*
X132952397Y-122781142D01*
X133002535Y-122640606D01*
X133085680Y-122841336D01*
X133478663Y-123234319D01*
X133992119Y-123446999D01*
X134547881Y-123446999D01*
X134707449Y-123380904D01*
X134760000Y-123391357D01*
X134842233Y-123375000D01*
X136903541Y-123375000D01*
X136952191Y-123447809D01*
X137162235Y-123588157D01*
X137410000Y-123637440D01*
X137756573Y-123637440D01*
X139634132Y-125515000D01*
X121719999Y-125515000D01*
X121719999Y-123747230D01*
X121736356Y-123664997D01*
X121719999Y-123582764D01*
X121719999Y-123582761D01*
X121685087Y-123407245D01*
X121712191Y-123447809D01*
X121922235Y-123588157D01*
X122170000Y-123637440D01*
X123370000Y-123637440D01*
X123617765Y-123588157D01*
X123827809Y-123447809D01*
X123870000Y-123384666D01*
X123912191Y-123447809D01*
X124122235Y-123588157D01*
X124370000Y-123637440D01*
X125570000Y-123637440D01*
X125817765Y-123588157D01*
X126027809Y-123447809D01*
X126168157Y-123237765D01*
X126209441Y-123030212D01*
X130929392Y-123030212D01*
X130998857Y-123272396D01*
X131522302Y-123459143D01*
X132077368Y-123431361D01*
X132461143Y-123272396D01*
X132530608Y-123030212D01*
X131730000Y-122229604D01*
X130929392Y-123030212D01*
X126209441Y-123030212D01*
X126217440Y-122990000D01*
X126217440Y-122090000D01*
X126168171Y-121842301D01*
X130320856Y-121842301D01*
X130348638Y-122397367D01*
X130507603Y-122781142D01*
X130749787Y-122850607D01*
X131550395Y-122049999D01*
X130749787Y-121249391D01*
X130507603Y-121318856D01*
X130320856Y-121842301D01*
X126168171Y-121842301D01*
X126168157Y-121842235D01*
X126027809Y-121632191D01*
X126005000Y-121616950D01*
X126005000Y-121069786D01*
X130929392Y-121069786D01*
X131730000Y-121870394D01*
X132530608Y-121069786D01*
X132461143Y-120827602D01*
X131937698Y-120640855D01*
X131382632Y-120668637D01*
X130998857Y-120827602D01*
X130929392Y-121069786D01*
X126005000Y-121069786D01*
X126005000Y-120923050D01*
X126027809Y-120907809D01*
X126168157Y-120697765D01*
X126217440Y-120450000D01*
X126217440Y-119550000D01*
X126168157Y-119302235D01*
X126027809Y-119092191D01*
X126005000Y-119076950D01*
X126005000Y-116590000D01*
X131362793Y-116590000D01*
X130938663Y-116765680D01*
X130938663Y-116765680D01*
G37*
X130938663Y-116765680D02*
X130545680Y-117158663D01*
X130333000Y-117672119D01*
X130333000Y-118227881D01*
X130545680Y-118741337D01*
X130938663Y-119134320D01*
X131452119Y-119347000D01*
X131946133Y-119347000D01*
X133131415Y-120532283D01*
X133177999Y-120602001D01*
X133254323Y-120652999D01*
X133454199Y-120786552D01*
X133599781Y-120815510D01*
X133478663Y-120865679D01*
X133085680Y-121258662D01*
X133006572Y-121449646D01*
X132952397Y-121318856D01*
X132710213Y-121249391D01*
X131909605Y-122049999D01*
X132710213Y-122850607D01*
X132952397Y-122781142D01*
X133002535Y-122640606D01*
X133085680Y-122841336D01*
X133478663Y-123234319D01*
X133992119Y-123446999D01*
X134547881Y-123446999D01*
X134707449Y-123380904D01*
X134760000Y-123391357D01*
X134842233Y-123375000D01*
X136903541Y-123375000D01*
X136952191Y-123447809D01*
X137162235Y-123588157D01*
X137410000Y-123637440D01*
X137756573Y-123637440D01*
X139634132Y-125515000D01*
X121719999Y-125515000D01*
X121719999Y-123747230D01*
X121736356Y-123664997D01*
X121719999Y-123582764D01*
X121719999Y-123582761D01*
X121685087Y-123407245D01*
X121712191Y-123447809D01*
X121922235Y-123588157D01*
X122170000Y-123637440D01*
X123370000Y-123637440D01*
X123617765Y-123588157D01*
X123827809Y-123447809D01*
X123870000Y-123384666D01*
X123912191Y-123447809D01*
X124122235Y-123588157D01*
X124370000Y-123637440D01*
X125570000Y-123637440D01*
X125817765Y-123588157D01*
X126027809Y-123447809D01*
X126168157Y-123237765D01*
X126209441Y-123030212D01*
X130929392Y-123030212D01*
X130998857Y-123272396D01*
X131522302Y-123459143D01*
X132077368Y-123431361D01*
X132461143Y-123272396D01*
X132530608Y-123030212D01*
X131730000Y-122229604D01*
X130929392Y-123030212D01*
X126209441Y-123030212D01*
X126217440Y-122990000D01*
X126217440Y-122090000D01*
X126168171Y-121842301D01*
X130320856Y-121842301D01*
X130348638Y-122397367D01*
X130507603Y-122781142D01*
X130749787Y-122850607D01*
X131550395Y-122049999D01*
X130749787Y-121249391D01*
X130507603Y-121318856D01*
X130320856Y-121842301D01*
X126168171Y-121842301D01*
X126168157Y-121842235D01*
X126027809Y-121632191D01*
X126005000Y-121616950D01*
X126005000Y-121069786D01*
X130929392Y-121069786D01*
X131730000Y-121870394D01*
X132530608Y-121069786D01*
X132461143Y-120827602D01*
X131937698Y-120640855D01*
X131382632Y-120668637D01*
X130998857Y-120827602D01*
X130929392Y-121069786D01*
X126005000Y-121069786D01*
X126005000Y-120923050D01*
X126027809Y-120907809D01*
X126168157Y-120697765D01*
X126217440Y-120450000D01*
X126217440Y-119550000D01*
X126168157Y-119302235D01*
X126027809Y-119092191D01*
X126005000Y-119076950D01*
X126005000Y-116590000D01*
X131362793Y-116590000D01*
X130938663Y-116765680D01*
G36*
X160938663Y-116765680D02*
X160545680Y-117158663D01*
X160333000Y-117672119D01*
X160333000Y-118227881D01*
X160545680Y-118741337D01*
X160938663Y-119134320D01*
X161452119Y-119347000D01*
X161946133Y-119347000D01*
X163131415Y-120532283D01*
X163177999Y-120602001D01*
X163254323Y-120652999D01*
X163454199Y-120786552D01*
X163599781Y-120815510D01*
X163478663Y-120865679D01*
X163085680Y-121258662D01*
X163006572Y-121449646D01*
X162952397Y-121318856D01*
X162710213Y-121249391D01*
X161909605Y-122049999D01*
X161923748Y-122064142D01*
X161744143Y-122243747D01*
X161730000Y-122229604D01*
X161715858Y-122243747D01*
X161536253Y-122064142D01*
X161550395Y-122049999D01*
X160749787Y-121249391D01*
X160507603Y-121318856D01*
X160320856Y-121842301D01*
X160348638Y-122397367D01*
X160507603Y-122781142D01*
X160749785Y-122850606D01*
X160634774Y-122965617D01*
X160644157Y-122975000D01*
X156697440Y-122975000D01*
X156697440Y-122090000D01*
X156648157Y-121842235D01*
X156507809Y-121632191D01*
X156485000Y-121616950D01*
X156485000Y-121069786D01*
X160929392Y-121069786D01*
X161730000Y-121870394D01*
X162530608Y-121069786D01*
X162461143Y-120827602D01*
X161937698Y-120640855D01*
X161382632Y-120668637D01*
X160998857Y-120827602D01*
X160929392Y-121069786D01*
X156485000Y-121069786D01*
X156485000Y-120923050D01*
X156507809Y-120907809D01*
X156648157Y-120697765D01*
X156697440Y-120450000D01*
X156697440Y-119550000D01*
X156648157Y-119302235D01*
X156593410Y-119220300D01*
X159223711Y-116590000D01*
X161362793Y-116590000D01*
X160938663Y-116765680D01*
X160938663Y-116765680D01*
G37*
X160938663Y-116765680D02*
X160545680Y-117158663D01*
X160333000Y-117672119D01*
X160333000Y-118227881D01*
X160545680Y-118741337D01*
X160938663Y-119134320D01*
X161452119Y-119347000D01*
X161946133Y-119347000D01*
X163131415Y-120532283D01*
X163177999Y-120602001D01*
X163254323Y-120652999D01*
X163454199Y-120786552D01*
X163599781Y-120815510D01*
X163478663Y-120865679D01*
X163085680Y-121258662D01*
X163006572Y-121449646D01*
X162952397Y-121318856D01*
X162710213Y-121249391D01*
X161909605Y-122049999D01*
X161923748Y-122064142D01*
X161744143Y-122243747D01*
X161730000Y-122229604D01*
X161715858Y-122243747D01*
X161536253Y-122064142D01*
X161550395Y-122049999D01*
X160749787Y-121249391D01*
X160507603Y-121318856D01*
X160320856Y-121842301D01*
X160348638Y-122397367D01*
X160507603Y-122781142D01*
X160749785Y-122850606D01*
X160634774Y-122965617D01*
X160644157Y-122975000D01*
X156697440Y-122975000D01*
X156697440Y-122090000D01*
X156648157Y-121842235D01*
X156507809Y-121632191D01*
X156485000Y-121616950D01*
X156485000Y-121069786D01*
X160929392Y-121069786D01*
X161730000Y-121870394D01*
X162530608Y-121069786D01*
X162461143Y-120827602D01*
X161937698Y-120640855D01*
X161382632Y-120668637D01*
X160998857Y-120827602D01*
X160929392Y-121069786D01*
X156485000Y-121069786D01*
X156485000Y-120923050D01*
X156507809Y-120907809D01*
X156648157Y-120697765D01*
X156697440Y-120450000D01*
X156697440Y-119550000D01*
X156648157Y-119302235D01*
X156593410Y-119220300D01*
X159223711Y-116590000D01*
X161362793Y-116590000D01*
X160938663Y-116765680D01*
G36*
X178538857Y-116727603D02*
X178469392Y-116969787D01*
X179270000Y-117770395D01*
X180070608Y-116969787D01*
X180001143Y-116727603D01*
X179615447Y-116590000D01*
X179956290Y-116590000D01*
X181255001Y-117888712D01*
X181255001Y-120959133D01*
X179624341Y-119328474D01*
X180001143Y-119172397D01*
X180070608Y-118930213D01*
X179270000Y-118129605D01*
X179255858Y-118143748D01*
X179076253Y-117964143D01*
X179090395Y-117950000D01*
X179449605Y-117950000D01*
X180250213Y-118750608D01*
X180492397Y-118681143D01*
X180679144Y-118157698D01*
X180651362Y-117602632D01*
X180492397Y-117218857D01*
X180250213Y-117149392D01*
X179449605Y-117950000D01*
X179090395Y-117950000D01*
X178289787Y-117149392D01*
X178047603Y-117218857D01*
X177997465Y-117359393D01*
X177914320Y-117158663D01*
X177521337Y-116765680D01*
X177097207Y-116590000D01*
X178871060Y-116590000D01*
X178538857Y-116727603D01*
X178538857Y-116727603D01*
G37*
X178538857Y-116727603D02*
X178469392Y-116969787D01*
X179270000Y-117770395D01*
X180070608Y-116969787D01*
X180001143Y-116727603D01*
X179615447Y-116590000D01*
X179956290Y-116590000D01*
X181255001Y-117888712D01*
X181255001Y-120959133D01*
X179624341Y-119328474D01*
X180001143Y-119172397D01*
X180070608Y-118930213D01*
X179270000Y-118129605D01*
X179255858Y-118143748D01*
X179076253Y-117964143D01*
X179090395Y-117950000D01*
X179449605Y-117950000D01*
X180250213Y-118750608D01*
X180492397Y-118681143D01*
X180679144Y-118157698D01*
X180651362Y-117602632D01*
X180492397Y-117218857D01*
X180250213Y-117149392D01*
X179449605Y-117950000D01*
X179090395Y-117950000D01*
X178289787Y-117149392D01*
X178047603Y-117218857D01*
X177997465Y-117359393D01*
X177914320Y-117158663D01*
X177521337Y-116765680D01*
X177097207Y-116590000D01*
X178871060Y-116590000D01*
X178538857Y-116727603D01*
G36*
X133538857Y-116727603D02*
X133469392Y-116969787D01*
X134270000Y-117770395D01*
X135070608Y-116969787D01*
X135001143Y-116727603D01*
X134615447Y-116590000D01*
X136776290Y-116590000D01*
X139175000Y-118988711D01*
X139175000Y-119076950D01*
X139152191Y-119092191D01*
X139110000Y-119155334D01*
X139067809Y-119092191D01*
X138857765Y-118951843D01*
X138610000Y-118902560D01*
X137410000Y-118902560D01*
X137162235Y-118951843D01*
X136952191Y-119092191D01*
X136903541Y-119165000D01*
X135003265Y-119165000D01*
X135070608Y-118930213D01*
X134270000Y-118129605D01*
X134255858Y-118143748D01*
X134076253Y-117964143D01*
X134090395Y-117950000D01*
X134449605Y-117950000D01*
X135250213Y-118750608D01*
X135492397Y-118681143D01*
X135679144Y-118157698D01*
X135651362Y-117602632D01*
X135492397Y-117218857D01*
X135250213Y-117149392D01*
X134449605Y-117950000D01*
X134090395Y-117950000D01*
X133289787Y-117149392D01*
X133047603Y-117218857D01*
X132997465Y-117359393D01*
X132914320Y-117158663D01*
X132521337Y-116765680D01*
X132097207Y-116590000D01*
X133871060Y-116590000D01*
X133538857Y-116727603D01*
X133538857Y-116727603D01*
G37*
X133538857Y-116727603D02*
X133469392Y-116969787D01*
X134270000Y-117770395D01*
X135070608Y-116969787D01*
X135001143Y-116727603D01*
X134615447Y-116590000D01*
X136776290Y-116590000D01*
X139175000Y-118988711D01*
X139175000Y-119076950D01*
X139152191Y-119092191D01*
X139110000Y-119155334D01*
X139067809Y-119092191D01*
X138857765Y-118951843D01*
X138610000Y-118902560D01*
X137410000Y-118902560D01*
X137162235Y-118951843D01*
X136952191Y-119092191D01*
X136903541Y-119165000D01*
X135003265Y-119165000D01*
X135070608Y-118930213D01*
X134270000Y-118129605D01*
X134255858Y-118143748D01*
X134076253Y-117964143D01*
X134090395Y-117950000D01*
X134449605Y-117950000D01*
X135250213Y-118750608D01*
X135492397Y-118681143D01*
X135679144Y-118157698D01*
X135651362Y-117602632D01*
X135492397Y-117218857D01*
X135250213Y-117149392D01*
X134449605Y-117950000D01*
X134090395Y-117950000D01*
X133289787Y-117149392D01*
X133047603Y-117218857D01*
X132997465Y-117359393D01*
X132914320Y-117158663D01*
X132521337Y-116765680D01*
X132097207Y-116590000D01*
X133871060Y-116590000D01*
X133538857Y-116727603D01*
G36*
X163538857Y-116727603D02*
X163469392Y-116969787D01*
X164270000Y-117770395D01*
X165070608Y-116969787D01*
X165001143Y-116727603D01*
X164615447Y-116590000D01*
X169655001Y-116590000D01*
X169655000Y-119076950D01*
X169632191Y-119092191D01*
X169590000Y-119155334D01*
X169547809Y-119092191D01*
X169337765Y-118951843D01*
X169090000Y-118902560D01*
X167890000Y-118902560D01*
X167642235Y-118951843D01*
X167432191Y-119092191D01*
X167383541Y-119165000D01*
X165003265Y-119165000D01*
X165070608Y-118930213D01*
X164270000Y-118129605D01*
X164255858Y-118143748D01*
X164076253Y-117964143D01*
X164090395Y-117950000D01*
X164449605Y-117950000D01*
X165250213Y-118750608D01*
X165492397Y-118681143D01*
X165679144Y-118157698D01*
X165651362Y-117602632D01*
X165492397Y-117218857D01*
X165250213Y-117149392D01*
X164449605Y-117950000D01*
X164090395Y-117950000D01*
X163289787Y-117149392D01*
X163047603Y-117218857D01*
X162997465Y-117359393D01*
X162914320Y-117158663D01*
X162521337Y-116765680D01*
X162097207Y-116590000D01*
X163871060Y-116590000D01*
X163538857Y-116727603D01*
X163538857Y-116727603D01*
G37*
X163538857Y-116727603D02*
X163469392Y-116969787D01*
X164270000Y-117770395D01*
X165070608Y-116969787D01*
X165001143Y-116727603D01*
X164615447Y-116590000D01*
X169655001Y-116590000D01*
X169655000Y-119076950D01*
X169632191Y-119092191D01*
X169590000Y-119155334D01*
X169547809Y-119092191D01*
X169337765Y-118951843D01*
X169090000Y-118902560D01*
X167890000Y-118902560D01*
X167642235Y-118951843D01*
X167432191Y-119092191D01*
X167383541Y-119165000D01*
X165003265Y-119165000D01*
X165070608Y-118930213D01*
X164270000Y-118129605D01*
X164255858Y-118143748D01*
X164076253Y-117964143D01*
X164090395Y-117950000D01*
X164449605Y-117950000D01*
X165250213Y-118750608D01*
X165492397Y-118681143D01*
X165679144Y-118157698D01*
X165651362Y-117602632D01*
X165492397Y-117218857D01*
X165250213Y-117149392D01*
X164449605Y-117950000D01*
X164090395Y-117950000D01*
X163289787Y-117149392D01*
X163047603Y-117218857D01*
X162997465Y-117359393D01*
X162914320Y-117158663D01*
X162521337Y-116765680D01*
X162097207Y-116590000D01*
X163871060Y-116590000D01*
X163538857Y-116727603D01*
G36*
X118538857Y-116727603D02*
X118469392Y-116969787D01*
X119270000Y-117770395D01*
X120070608Y-116969787D01*
X120001143Y-116727603D01*
X119615447Y-116590000D01*
X123935001Y-116590000D01*
X123935000Y-119076950D01*
X123912191Y-119092191D01*
X123870000Y-119155334D01*
X123827809Y-119092191D01*
X123617765Y-118951843D01*
X123370000Y-118902560D01*
X122170000Y-118902560D01*
X121922235Y-118951843D01*
X121712191Y-119092191D01*
X121663541Y-119165000D01*
X120003265Y-119165000D01*
X120070608Y-118930213D01*
X119270000Y-118129605D01*
X119255858Y-118143748D01*
X119076253Y-117964143D01*
X119090395Y-117950000D01*
X119449605Y-117950000D01*
X120250213Y-118750608D01*
X120492397Y-118681143D01*
X120679144Y-118157698D01*
X120651362Y-117602632D01*
X120492397Y-117218857D01*
X120250213Y-117149392D01*
X119449605Y-117950000D01*
X119090395Y-117950000D01*
X118289787Y-117149392D01*
X118047603Y-117218857D01*
X117997465Y-117359393D01*
X117914320Y-117158663D01*
X117521337Y-116765680D01*
X117097207Y-116590000D01*
X118871060Y-116590000D01*
X118538857Y-116727603D01*
X118538857Y-116727603D01*
G37*
X118538857Y-116727603D02*
X118469392Y-116969787D01*
X119270000Y-117770395D01*
X120070608Y-116969787D01*
X120001143Y-116727603D01*
X119615447Y-116590000D01*
X123935001Y-116590000D01*
X123935000Y-119076950D01*
X123912191Y-119092191D01*
X123870000Y-119155334D01*
X123827809Y-119092191D01*
X123617765Y-118951843D01*
X123370000Y-118902560D01*
X122170000Y-118902560D01*
X121922235Y-118951843D01*
X121712191Y-119092191D01*
X121663541Y-119165000D01*
X120003265Y-119165000D01*
X120070608Y-118930213D01*
X119270000Y-118129605D01*
X119255858Y-118143748D01*
X119076253Y-117964143D01*
X119090395Y-117950000D01*
X119449605Y-117950000D01*
X120250213Y-118750608D01*
X120492397Y-118681143D01*
X120679144Y-118157698D01*
X120651362Y-117602632D01*
X120492397Y-117218857D01*
X120250213Y-117149392D01*
X119449605Y-117950000D01*
X119090395Y-117950000D01*
X118289787Y-117149392D01*
X118047603Y-117218857D01*
X117997465Y-117359393D01*
X117914320Y-117158663D01*
X117521337Y-116765680D01*
X117097207Y-116590000D01*
X118871060Y-116590000D01*
X118538857Y-116727603D01*
G04 #@! TD*
M02*
