M48
;DRILL file {KiCad (5.0.2)-1} date 2019/08/20 1:56:53
;FORMAT={3:3/ absolute / metric / suppress leading zeros}
FMAT,2
METRIC,TZ
T1C0.650
T2C0.800
T3C1.000
%
G90
G05
T1
X117560Y-76200
X120060Y-73700
X120060Y-78700
X117560Y-130200
X120060Y-127700
X120060Y-132700
X117560Y-103200
X120060Y-100700
X120060Y-105700
T2
X131730Y-63950
X131730Y-68050
X134270Y-63950
X134270Y-68050
X176730Y-90950
X176730Y-95050
X179270Y-90950
X179270Y-95050
X116730Y-90950
X116730Y-95050
X119270Y-90950
X119270Y-95050
X146730Y-90950
X146730Y-95050
X149270Y-90950
X149270Y-95050
X131730Y-90950
X131730Y-95050
X134270Y-90950
X134270Y-95050
X116730Y-63950
X116730Y-68050
X119270Y-63950
X119270Y-68050
X146730Y-117950
X146730Y-122050
X149270Y-117950
X149270Y-122050
X116730Y-117950
X116730Y-122050
X119270Y-117950
X119270Y-122050
X161730Y-117950
X161730Y-122050
X164270Y-117950
X164270Y-122050
X176730Y-117950
X176730Y-122050
X179270Y-117950
X179270Y-122050
X146730Y-63950
X146730Y-68050
X149270Y-63950
X149270Y-68050
X161730Y-90950
X161730Y-95050
X164270Y-90950
X164270Y-95050
X161730Y-63950
X161730Y-68050
X164270Y-63950
X164270Y-68050
X176730Y-63950
X176730Y-68050
X179270Y-63950
X179270Y-68050
X131730Y-117950
X131730Y-122050
X134270Y-117950
X134270Y-122050
T3
X142920Y-130160
X142920Y-132700
X145460Y-130160
X145460Y-132700
X148000Y-130160
X148000Y-132700
X150540Y-130160
X150540Y-132700
X153080Y-130160
X153080Y-132700
X142920Y-103160
X142920Y-105700
X145460Y-103160
X145460Y-105700
X148000Y-103160
X148000Y-105700
X150540Y-103160
X150540Y-105700
X153080Y-103160
X153080Y-105700
X142920Y-76160
X142920Y-78700
X145460Y-76160
X145460Y-78700
X148000Y-76160
X148000Y-78700
X150540Y-76160
X150540Y-78700
X153080Y-76160
X153080Y-78700
T0
M30
