G04 #@! TF.GenerationSoftware,KiCad,Pcbnew,(5.0.2)-1*
G04 #@! TF.CreationDate,2019-08-20T01:58:35+09:00*
G04 #@! TF.ProjectId,robocar-sensorbar-fab,726f626f-6361-4722-9d73-656e736f7262,rev?*
G04 #@! TF.SameCoordinates,Original*
G04 #@! TF.FileFunction,Legend,Bot*
G04 #@! TF.FilePolarity,Positive*
%FSLAX46Y46*%
G04 Gerber Fmt 4.6, Leading zero omitted, Abs format (unit mm)*
G04 Created by KiCad (PCBNEW (5.0.2)-1) date 2019/08/20 1:58:35*
%MOMM*%
%LPD*%
G01*
G04 APERTURE LIST*
%ADD10C,0.150000*%
G04 APERTURE END LIST*
D10*
G04 #@! TO.C,U4*
X165250000Y-116650000D02*
X165250000Y-124350000D01*
X160750000Y-115650000D02*
X160750000Y-124350000D01*
X164250000Y-115650000D02*
X160750000Y-115650000D01*
X165250000Y-124350000D02*
X160750000Y-124350000D01*
X165250000Y-116650000D02*
X164250000Y-115650000D01*
X163500000Y-117000000D02*
X163500000Y-116000000D01*
X163500000Y-116000000D02*
X162500000Y-116500000D01*
X162500000Y-116500000D02*
X163500000Y-117000000D01*
X162500000Y-117000000D02*
X162500000Y-116000000D01*
X165250000Y-89650000D02*
X165250000Y-97350000D01*
X160750000Y-88650000D02*
X160750000Y-97350000D01*
X164250000Y-88650000D02*
X160750000Y-88650000D01*
X165250000Y-97350000D02*
X160750000Y-97350000D01*
X165250000Y-89650000D02*
X164250000Y-88650000D01*
X163500000Y-90000000D02*
X163500000Y-89000000D01*
X163500000Y-89000000D02*
X162500000Y-89500000D01*
X162500000Y-89500000D02*
X163500000Y-90000000D01*
X162500000Y-90000000D02*
X162500000Y-89000000D01*
G04 #@! TO.C,U2*
X135250000Y-116650000D02*
X135250000Y-124350000D01*
X130750000Y-115650000D02*
X130750000Y-124350000D01*
X134250000Y-115650000D02*
X130750000Y-115650000D01*
X135250000Y-124350000D02*
X130750000Y-124350000D01*
X135250000Y-116650000D02*
X134250000Y-115650000D01*
X133500000Y-117000000D02*
X133500000Y-116000000D01*
X133500000Y-116000000D02*
X132500000Y-116500000D01*
X132500000Y-116500000D02*
X133500000Y-117000000D01*
X132500000Y-117000000D02*
X132500000Y-116000000D01*
X135250000Y-89650000D02*
X135250000Y-97350000D01*
X130750000Y-88650000D02*
X130750000Y-97350000D01*
X134250000Y-88650000D02*
X130750000Y-88650000D01*
X135250000Y-97350000D02*
X130750000Y-97350000D01*
X135250000Y-89650000D02*
X134250000Y-88650000D01*
X133500000Y-90000000D02*
X133500000Y-89000000D01*
X133500000Y-89000000D02*
X132500000Y-89500000D01*
X132500000Y-89500000D02*
X133500000Y-90000000D01*
X132500000Y-90000000D02*
X132500000Y-89000000D01*
G04 #@! TO.C,U1*
X117500000Y-117000000D02*
X117500000Y-116000000D01*
X117500000Y-116500000D02*
X118500000Y-117000000D01*
X118500000Y-116000000D02*
X117500000Y-116500000D01*
X118500000Y-117000000D02*
X118500000Y-116000000D01*
X120250000Y-116650000D02*
X119250000Y-115650000D01*
X120250000Y-124350000D02*
X115750000Y-124350000D01*
X119250000Y-115650000D02*
X115750000Y-115650000D01*
X115750000Y-115650000D02*
X115750000Y-124350000D01*
X120250000Y-116650000D02*
X120250000Y-124350000D01*
X117500000Y-90000000D02*
X117500000Y-89000000D01*
X117500000Y-89500000D02*
X118500000Y-90000000D01*
X118500000Y-89000000D02*
X117500000Y-89500000D01*
X118500000Y-90000000D02*
X118500000Y-89000000D01*
X120250000Y-89650000D02*
X119250000Y-88650000D01*
X120250000Y-97350000D02*
X115750000Y-97350000D01*
X119250000Y-88650000D02*
X115750000Y-88650000D01*
X115750000Y-88650000D02*
X115750000Y-97350000D01*
X120250000Y-89650000D02*
X120250000Y-97350000D01*
G04 #@! TO.C,U3*
X147500000Y-117000000D02*
X147500000Y-116000000D01*
X147500000Y-116500000D02*
X148500000Y-117000000D01*
X148500000Y-116000000D02*
X147500000Y-116500000D01*
X148500000Y-117000000D02*
X148500000Y-116000000D01*
X150250000Y-116650000D02*
X149250000Y-115650000D01*
X150250000Y-124350000D02*
X145750000Y-124350000D01*
X149250000Y-115650000D02*
X145750000Y-115650000D01*
X145750000Y-115650000D02*
X145750000Y-124350000D01*
X150250000Y-116650000D02*
X150250000Y-124350000D01*
X147500000Y-90000000D02*
X147500000Y-89000000D01*
X147500000Y-89500000D02*
X148500000Y-90000000D01*
X148500000Y-89000000D02*
X147500000Y-89500000D01*
X148500000Y-90000000D02*
X148500000Y-89000000D01*
X150250000Y-89650000D02*
X149250000Y-88650000D01*
X150250000Y-97350000D02*
X145750000Y-97350000D01*
X149250000Y-88650000D02*
X145750000Y-88650000D01*
X145750000Y-88650000D02*
X145750000Y-97350000D01*
X150250000Y-89650000D02*
X150250000Y-97350000D01*
G04 #@! TO.C,U5*
X177500000Y-117000000D02*
X177500000Y-116000000D01*
X177500000Y-116500000D02*
X178500000Y-117000000D01*
X178500000Y-116000000D02*
X177500000Y-116500000D01*
X178500000Y-117000000D02*
X178500000Y-116000000D01*
X180250000Y-116650000D02*
X179250000Y-115650000D01*
X180250000Y-124350000D02*
X175750000Y-124350000D01*
X179250000Y-115650000D02*
X175750000Y-115650000D01*
X175750000Y-115650000D02*
X175750000Y-124350000D01*
X180250000Y-116650000D02*
X180250000Y-124350000D01*
X177500000Y-90000000D02*
X177500000Y-89000000D01*
X177500000Y-89500000D02*
X178500000Y-90000000D01*
X178500000Y-89000000D02*
X177500000Y-89500000D01*
X178500000Y-90000000D02*
X178500000Y-89000000D01*
X180250000Y-89650000D02*
X179250000Y-88650000D01*
X180250000Y-97350000D02*
X175750000Y-97350000D01*
X179250000Y-88650000D02*
X175750000Y-88650000D01*
X175750000Y-88650000D02*
X175750000Y-97350000D01*
X180250000Y-89650000D02*
X180250000Y-97350000D01*
G04 #@! TO.C,U1*
X120250000Y-62650000D02*
X120250000Y-70350000D01*
X115750000Y-61650000D02*
X115750000Y-70350000D01*
X119250000Y-61650000D02*
X115750000Y-61650000D01*
X120250000Y-70350000D02*
X115750000Y-70350000D01*
X120250000Y-62650000D02*
X119250000Y-61650000D01*
X118500000Y-63000000D02*
X118500000Y-62000000D01*
X118500000Y-62000000D02*
X117500000Y-62500000D01*
X117500000Y-62500000D02*
X118500000Y-63000000D01*
X117500000Y-63000000D02*
X117500000Y-62000000D01*
G04 #@! TO.C,U2*
X132500000Y-63000000D02*
X132500000Y-62000000D01*
X132500000Y-62500000D02*
X133500000Y-63000000D01*
X133500000Y-62000000D02*
X132500000Y-62500000D01*
X133500000Y-63000000D02*
X133500000Y-62000000D01*
X135250000Y-62650000D02*
X134250000Y-61650000D01*
X135250000Y-70350000D02*
X130750000Y-70350000D01*
X134250000Y-61650000D02*
X130750000Y-61650000D01*
X130750000Y-61650000D02*
X130750000Y-70350000D01*
X135250000Y-62650000D02*
X135250000Y-70350000D01*
G04 #@! TO.C,U3*
X150250000Y-62650000D02*
X150250000Y-70350000D01*
X145750000Y-61650000D02*
X145750000Y-70350000D01*
X149250000Y-61650000D02*
X145750000Y-61650000D01*
X150250000Y-70350000D02*
X145750000Y-70350000D01*
X150250000Y-62650000D02*
X149250000Y-61650000D01*
X148500000Y-63000000D02*
X148500000Y-62000000D01*
X148500000Y-62000000D02*
X147500000Y-62500000D01*
X147500000Y-62500000D02*
X148500000Y-63000000D01*
X147500000Y-63000000D02*
X147500000Y-62000000D01*
G04 #@! TO.C,U4*
X162500000Y-63000000D02*
X162500000Y-62000000D01*
X162500000Y-62500000D02*
X163500000Y-63000000D01*
X163500000Y-62000000D02*
X162500000Y-62500000D01*
X163500000Y-63000000D02*
X163500000Y-62000000D01*
X165250000Y-62650000D02*
X164250000Y-61650000D01*
X165250000Y-70350000D02*
X160750000Y-70350000D01*
X164250000Y-61650000D02*
X160750000Y-61650000D01*
X160750000Y-61650000D02*
X160750000Y-70350000D01*
X165250000Y-62650000D02*
X165250000Y-70350000D01*
G04 #@! TO.C,U5*
X180250000Y-62650000D02*
X180250000Y-70350000D01*
X175750000Y-61650000D02*
X175750000Y-70350000D01*
X179250000Y-61650000D02*
X175750000Y-61650000D01*
X180250000Y-70350000D02*
X175750000Y-70350000D01*
X180250000Y-62650000D02*
X179250000Y-61650000D01*
X178500000Y-63000000D02*
X178500000Y-62000000D01*
X178500000Y-62000000D02*
X177500000Y-62500000D01*
X177500000Y-62500000D02*
X178500000Y-63000000D01*
X177500000Y-63000000D02*
X177500000Y-62000000D01*
G04 #@! TO.C,U4*
X165952380Y-119238095D02*
X166761904Y-119238095D01*
X166857142Y-119285714D01*
X166904761Y-119333333D01*
X166952380Y-119428571D01*
X166952380Y-119619047D01*
X166904761Y-119714285D01*
X166857142Y-119761904D01*
X166761904Y-119809523D01*
X165952380Y-119809523D01*
X166285714Y-120714285D02*
X166952380Y-120714285D01*
X165904761Y-120476190D02*
X166619047Y-120238095D01*
X166619047Y-120857142D01*
X165952380Y-92238095D02*
X166761904Y-92238095D01*
X166857142Y-92285714D01*
X166904761Y-92333333D01*
X166952380Y-92428571D01*
X166952380Y-92619047D01*
X166904761Y-92714285D01*
X166857142Y-92761904D01*
X166761904Y-92809523D01*
X165952380Y-92809523D01*
X166285714Y-93714285D02*
X166952380Y-93714285D01*
X165904761Y-93476190D02*
X166619047Y-93238095D01*
X166619047Y-93857142D01*
G04 #@! TO.C,U2*
X135952380Y-119238095D02*
X136761904Y-119238095D01*
X136857142Y-119285714D01*
X136904761Y-119333333D01*
X136952380Y-119428571D01*
X136952380Y-119619047D01*
X136904761Y-119714285D01*
X136857142Y-119761904D01*
X136761904Y-119809523D01*
X135952380Y-119809523D01*
X136047619Y-120238095D02*
X136000000Y-120285714D01*
X135952380Y-120380952D01*
X135952380Y-120619047D01*
X136000000Y-120714285D01*
X136047619Y-120761904D01*
X136142857Y-120809523D01*
X136238095Y-120809523D01*
X136380952Y-120761904D01*
X136952380Y-120190476D01*
X136952380Y-120809523D01*
X135952380Y-92238095D02*
X136761904Y-92238095D01*
X136857142Y-92285714D01*
X136904761Y-92333333D01*
X136952380Y-92428571D01*
X136952380Y-92619047D01*
X136904761Y-92714285D01*
X136857142Y-92761904D01*
X136761904Y-92809523D01*
X135952380Y-92809523D01*
X136047619Y-93238095D02*
X136000000Y-93285714D01*
X135952380Y-93380952D01*
X135952380Y-93619047D01*
X136000000Y-93714285D01*
X136047619Y-93761904D01*
X136142857Y-93809523D01*
X136238095Y-93809523D01*
X136380952Y-93761904D01*
X136952380Y-93190476D01*
X136952380Y-93809523D01*
G04 #@! TO.C,U1*
X120952380Y-119238095D02*
X121761904Y-119238095D01*
X121857142Y-119285714D01*
X121904761Y-119333333D01*
X121952380Y-119428571D01*
X121952380Y-119619047D01*
X121904761Y-119714285D01*
X121857142Y-119761904D01*
X121761904Y-119809523D01*
X120952380Y-119809523D01*
X121952380Y-120809523D02*
X121952380Y-120238095D01*
X121952380Y-120523809D02*
X120952380Y-120523809D01*
X121095238Y-120428571D01*
X121190476Y-120333333D01*
X121238095Y-120238095D01*
X120952380Y-92238095D02*
X121761904Y-92238095D01*
X121857142Y-92285714D01*
X121904761Y-92333333D01*
X121952380Y-92428571D01*
X121952380Y-92619047D01*
X121904761Y-92714285D01*
X121857142Y-92761904D01*
X121761904Y-92809523D01*
X120952380Y-92809523D01*
X121952380Y-93809523D02*
X121952380Y-93238095D01*
X121952380Y-93523809D02*
X120952380Y-93523809D01*
X121095238Y-93428571D01*
X121190476Y-93333333D01*
X121238095Y-93238095D01*
G04 #@! TO.C,U3*
X150952380Y-119238095D02*
X151761904Y-119238095D01*
X151857142Y-119285714D01*
X151904761Y-119333333D01*
X151952380Y-119428571D01*
X151952380Y-119619047D01*
X151904761Y-119714285D01*
X151857142Y-119761904D01*
X151761904Y-119809523D01*
X150952380Y-119809523D01*
X150952380Y-120190476D02*
X150952380Y-120809523D01*
X151333333Y-120476190D01*
X151333333Y-120619047D01*
X151380952Y-120714285D01*
X151428571Y-120761904D01*
X151523809Y-120809523D01*
X151761904Y-120809523D01*
X151857142Y-120761904D01*
X151904761Y-120714285D01*
X151952380Y-120619047D01*
X151952380Y-120333333D01*
X151904761Y-120238095D01*
X151857142Y-120190476D01*
X150952380Y-92238095D02*
X151761904Y-92238095D01*
X151857142Y-92285714D01*
X151904761Y-92333333D01*
X151952380Y-92428571D01*
X151952380Y-92619047D01*
X151904761Y-92714285D01*
X151857142Y-92761904D01*
X151761904Y-92809523D01*
X150952380Y-92809523D01*
X150952380Y-93190476D02*
X150952380Y-93809523D01*
X151333333Y-93476190D01*
X151333333Y-93619047D01*
X151380952Y-93714285D01*
X151428571Y-93761904D01*
X151523809Y-93809523D01*
X151761904Y-93809523D01*
X151857142Y-93761904D01*
X151904761Y-93714285D01*
X151952380Y-93619047D01*
X151952380Y-93333333D01*
X151904761Y-93238095D01*
X151857142Y-93190476D01*
G04 #@! TO.C,U5*
X180952380Y-119238095D02*
X181761904Y-119238095D01*
X181857142Y-119285714D01*
X181904761Y-119333333D01*
X181952380Y-119428571D01*
X181952380Y-119619047D01*
X181904761Y-119714285D01*
X181857142Y-119761904D01*
X181761904Y-119809523D01*
X180952380Y-119809523D01*
X180952380Y-120761904D02*
X180952380Y-120285714D01*
X181428571Y-120238095D01*
X181380952Y-120285714D01*
X181333333Y-120380952D01*
X181333333Y-120619047D01*
X181380952Y-120714285D01*
X181428571Y-120761904D01*
X181523809Y-120809523D01*
X181761904Y-120809523D01*
X181857142Y-120761904D01*
X181904761Y-120714285D01*
X181952380Y-120619047D01*
X181952380Y-120380952D01*
X181904761Y-120285714D01*
X181857142Y-120238095D01*
X180952380Y-92238095D02*
X181761904Y-92238095D01*
X181857142Y-92285714D01*
X181904761Y-92333333D01*
X181952380Y-92428571D01*
X181952380Y-92619047D01*
X181904761Y-92714285D01*
X181857142Y-92761904D01*
X181761904Y-92809523D01*
X180952380Y-92809523D01*
X180952380Y-93761904D02*
X180952380Y-93285714D01*
X181428571Y-93238095D01*
X181380952Y-93285714D01*
X181333333Y-93380952D01*
X181333333Y-93619047D01*
X181380952Y-93714285D01*
X181428571Y-93761904D01*
X181523809Y-93809523D01*
X181761904Y-93809523D01*
X181857142Y-93761904D01*
X181904761Y-93714285D01*
X181952380Y-93619047D01*
X181952380Y-93380952D01*
X181904761Y-93285714D01*
X181857142Y-93238095D01*
G04 #@! TO.C,U1*
X120952380Y-65238095D02*
X121761904Y-65238095D01*
X121857142Y-65285714D01*
X121904761Y-65333333D01*
X121952380Y-65428571D01*
X121952380Y-65619047D01*
X121904761Y-65714285D01*
X121857142Y-65761904D01*
X121761904Y-65809523D01*
X120952380Y-65809523D01*
X121952380Y-66809523D02*
X121952380Y-66238095D01*
X121952380Y-66523809D02*
X120952380Y-66523809D01*
X121095238Y-66428571D01*
X121190476Y-66333333D01*
X121238095Y-66238095D01*
G04 #@! TO.C,U2*
X135952380Y-65238095D02*
X136761904Y-65238095D01*
X136857142Y-65285714D01*
X136904761Y-65333333D01*
X136952380Y-65428571D01*
X136952380Y-65619047D01*
X136904761Y-65714285D01*
X136857142Y-65761904D01*
X136761904Y-65809523D01*
X135952380Y-65809523D01*
X136047619Y-66238095D02*
X136000000Y-66285714D01*
X135952380Y-66380952D01*
X135952380Y-66619047D01*
X136000000Y-66714285D01*
X136047619Y-66761904D01*
X136142857Y-66809523D01*
X136238095Y-66809523D01*
X136380952Y-66761904D01*
X136952380Y-66190476D01*
X136952380Y-66809523D01*
G04 #@! TO.C,U3*
X150952380Y-65238095D02*
X151761904Y-65238095D01*
X151857142Y-65285714D01*
X151904761Y-65333333D01*
X151952380Y-65428571D01*
X151952380Y-65619047D01*
X151904761Y-65714285D01*
X151857142Y-65761904D01*
X151761904Y-65809523D01*
X150952380Y-65809523D01*
X150952380Y-66190476D02*
X150952380Y-66809523D01*
X151333333Y-66476190D01*
X151333333Y-66619047D01*
X151380952Y-66714285D01*
X151428571Y-66761904D01*
X151523809Y-66809523D01*
X151761904Y-66809523D01*
X151857142Y-66761904D01*
X151904761Y-66714285D01*
X151952380Y-66619047D01*
X151952380Y-66333333D01*
X151904761Y-66238095D01*
X151857142Y-66190476D01*
G04 #@! TO.C,U4*
X165952380Y-65238095D02*
X166761904Y-65238095D01*
X166857142Y-65285714D01*
X166904761Y-65333333D01*
X166952380Y-65428571D01*
X166952380Y-65619047D01*
X166904761Y-65714285D01*
X166857142Y-65761904D01*
X166761904Y-65809523D01*
X165952380Y-65809523D01*
X166285714Y-66714285D02*
X166952380Y-66714285D01*
X165904761Y-66476190D02*
X166619047Y-66238095D01*
X166619047Y-66857142D01*
G04 #@! TO.C,U5*
X180952380Y-65238095D02*
X181761904Y-65238095D01*
X181857142Y-65285714D01*
X181904761Y-65333333D01*
X181952380Y-65428571D01*
X181952380Y-65619047D01*
X181904761Y-65714285D01*
X181857142Y-65761904D01*
X181761904Y-65809523D01*
X180952380Y-65809523D01*
X180952380Y-66761904D02*
X180952380Y-66285714D01*
X181428571Y-66238095D01*
X181380952Y-66285714D01*
X181333333Y-66380952D01*
X181333333Y-66619047D01*
X181380952Y-66714285D01*
X181428571Y-66761904D01*
X181523809Y-66809523D01*
X181761904Y-66809523D01*
X181857142Y-66761904D01*
X181904761Y-66714285D01*
X181952380Y-66619047D01*
X181952380Y-66380952D01*
X181904761Y-66285714D01*
X181857142Y-66238095D01*
G04 #@! TD*
M02*
