G04 #@! TF.GenerationSoftware,KiCad,Pcbnew,(5.0.2)-1*
G04 #@! TF.CreationDate,2019-08-20T01:58:35+09:00*
G04 #@! TF.ProjectId,robocar-sensorbar-fab,726f626f-6361-4722-9d73-656e736f7262,rev?*
G04 #@! TF.SameCoordinates,Original*
G04 #@! TF.FileFunction,Soldermask,Top*
G04 #@! TF.FilePolarity,Negative*
%FSLAX46Y46*%
G04 Gerber Fmt 4.6, Leading zero omitted, Abs format (unit mm)*
G04 Created by KiCad (PCBNEW (5.0.2)-1) date 2019/08/20 1:58:35*
%MOMM*%
%LPD*%
G01*
G04 APERTURE LIST*
%ADD10C,0.100000*%
G04 APERTURE END LIST*
D10*
G36*
X163375256Y-133391298D02*
X163481579Y-133412447D01*
X163694037Y-133500450D01*
X163780932Y-133536443D01*
X163782042Y-133536903D01*
X164048852Y-133715180D01*
X164052454Y-133717587D01*
X164282413Y-133947546D01*
X164463098Y-134217960D01*
X164587553Y-134518422D01*
X164651000Y-134837389D01*
X164651000Y-135162611D01*
X164587553Y-135481578D01*
X164463098Y-135782040D01*
X164282413Y-136052454D01*
X164052454Y-136282413D01*
X164052451Y-136282415D01*
X163782042Y-136463097D01*
X163481579Y-136587553D01*
X163375256Y-136608702D01*
X163162611Y-136651000D01*
X162837389Y-136651000D01*
X162624744Y-136608702D01*
X162518421Y-136587553D01*
X162217958Y-136463097D01*
X161947549Y-136282415D01*
X161947546Y-136282413D01*
X161717587Y-136052454D01*
X161536902Y-135782040D01*
X161412447Y-135481578D01*
X161349000Y-135162611D01*
X161349000Y-134837389D01*
X161412447Y-134518422D01*
X161536902Y-134217960D01*
X161717587Y-133947546D01*
X161947546Y-133717587D01*
X161951148Y-133715180D01*
X162217958Y-133536903D01*
X162219069Y-133536443D01*
X162305963Y-133500450D01*
X162518421Y-133412447D01*
X162624744Y-133391298D01*
X162837389Y-133349000D01*
X163162611Y-133349000D01*
X163375256Y-133391298D01*
X163375256Y-133391298D01*
G37*
G36*
X133375256Y-133391298D02*
X133481579Y-133412447D01*
X133694037Y-133500450D01*
X133780932Y-133536443D01*
X133782042Y-133536903D01*
X134048852Y-133715180D01*
X134052454Y-133717587D01*
X134282413Y-133947546D01*
X134463098Y-134217960D01*
X134587553Y-134518422D01*
X134651000Y-134837389D01*
X134651000Y-135162611D01*
X134587553Y-135481578D01*
X134463098Y-135782040D01*
X134282413Y-136052454D01*
X134052454Y-136282413D01*
X134052451Y-136282415D01*
X133782042Y-136463097D01*
X133481579Y-136587553D01*
X133375256Y-136608702D01*
X133162611Y-136651000D01*
X132837389Y-136651000D01*
X132624744Y-136608702D01*
X132518421Y-136587553D01*
X132217958Y-136463097D01*
X131947549Y-136282415D01*
X131947546Y-136282413D01*
X131717587Y-136052454D01*
X131536902Y-135782040D01*
X131412447Y-135481578D01*
X131349000Y-135162611D01*
X131349000Y-134837389D01*
X131412447Y-134518422D01*
X131536902Y-134217960D01*
X131717587Y-133947546D01*
X131947546Y-133717587D01*
X131951148Y-133715180D01*
X132217958Y-133536903D01*
X132219069Y-133536443D01*
X132305963Y-133500450D01*
X132518421Y-133412447D01*
X132624744Y-133391298D01*
X132837389Y-133349000D01*
X133162611Y-133349000D01*
X133375256Y-133391298D01*
X133375256Y-133391298D01*
G37*
G36*
X145570443Y-131805519D02*
X145636627Y-131812037D01*
X145749853Y-131846384D01*
X145806467Y-131863557D01*
X145945087Y-131937652D01*
X145962991Y-131947222D01*
X145998729Y-131976552D01*
X146100186Y-132059814D01*
X146183448Y-132161271D01*
X146212778Y-132197009D01*
X146212779Y-132197011D01*
X146296443Y-132353533D01*
X146296443Y-132353534D01*
X146347963Y-132523373D01*
X146365359Y-132700000D01*
X146347963Y-132876627D01*
X146313616Y-132989853D01*
X146296443Y-133046467D01*
X146222348Y-133185087D01*
X146212778Y-133202991D01*
X146183448Y-133238729D01*
X146100186Y-133340186D01*
X146012134Y-133412447D01*
X145962991Y-133452778D01*
X145962989Y-133452779D01*
X145806467Y-133536443D01*
X145749853Y-133553616D01*
X145636627Y-133587963D01*
X145570443Y-133594481D01*
X145504260Y-133601000D01*
X145415740Y-133601000D01*
X145349557Y-133594481D01*
X145283373Y-133587963D01*
X145170147Y-133553616D01*
X145113533Y-133536443D01*
X144957011Y-133452779D01*
X144957009Y-133452778D01*
X144907866Y-133412447D01*
X144819814Y-133340186D01*
X144736552Y-133238729D01*
X144707222Y-133202991D01*
X144697652Y-133185087D01*
X144623557Y-133046467D01*
X144606384Y-132989853D01*
X144572037Y-132876627D01*
X144554641Y-132700000D01*
X144572037Y-132523373D01*
X144623557Y-132353534D01*
X144623557Y-132353533D01*
X144707221Y-132197011D01*
X144707222Y-132197009D01*
X144736552Y-132161271D01*
X144819814Y-132059814D01*
X144921271Y-131976552D01*
X144957009Y-131947222D01*
X144974913Y-131937652D01*
X145113533Y-131863557D01*
X145170147Y-131846384D01*
X145283373Y-131812037D01*
X145349557Y-131805519D01*
X145415740Y-131799000D01*
X145504260Y-131799000D01*
X145570443Y-131805519D01*
X145570443Y-131805519D01*
G37*
G36*
X143821000Y-133601000D02*
X142019000Y-133601000D01*
X142019000Y-131799000D01*
X143821000Y-131799000D01*
X143821000Y-133601000D01*
X143821000Y-133601000D01*
G37*
G36*
X148110443Y-131805519D02*
X148176627Y-131812037D01*
X148289853Y-131846384D01*
X148346467Y-131863557D01*
X148485087Y-131937652D01*
X148502991Y-131947222D01*
X148538729Y-131976552D01*
X148640186Y-132059814D01*
X148723448Y-132161271D01*
X148752778Y-132197009D01*
X148752779Y-132197011D01*
X148836443Y-132353533D01*
X148836443Y-132353534D01*
X148887963Y-132523373D01*
X148905359Y-132700000D01*
X148887963Y-132876627D01*
X148853616Y-132989853D01*
X148836443Y-133046467D01*
X148762348Y-133185087D01*
X148752778Y-133202991D01*
X148723448Y-133238729D01*
X148640186Y-133340186D01*
X148552134Y-133412447D01*
X148502991Y-133452778D01*
X148502989Y-133452779D01*
X148346467Y-133536443D01*
X148289853Y-133553616D01*
X148176627Y-133587963D01*
X148110443Y-133594481D01*
X148044260Y-133601000D01*
X147955740Y-133601000D01*
X147889557Y-133594481D01*
X147823373Y-133587963D01*
X147710147Y-133553616D01*
X147653533Y-133536443D01*
X147497011Y-133452779D01*
X147497009Y-133452778D01*
X147447866Y-133412447D01*
X147359814Y-133340186D01*
X147276552Y-133238729D01*
X147247222Y-133202991D01*
X147237652Y-133185087D01*
X147163557Y-133046467D01*
X147146384Y-132989853D01*
X147112037Y-132876627D01*
X147094641Y-132700000D01*
X147112037Y-132523373D01*
X147163557Y-132353534D01*
X147163557Y-132353533D01*
X147247221Y-132197011D01*
X147247222Y-132197009D01*
X147276552Y-132161271D01*
X147359814Y-132059814D01*
X147461271Y-131976552D01*
X147497009Y-131947222D01*
X147514913Y-131937652D01*
X147653533Y-131863557D01*
X147710147Y-131846384D01*
X147823373Y-131812037D01*
X147889557Y-131805519D01*
X147955740Y-131799000D01*
X148044260Y-131799000D01*
X148110443Y-131805519D01*
X148110443Y-131805519D01*
G37*
G36*
X150650443Y-131805519D02*
X150716627Y-131812037D01*
X150829853Y-131846384D01*
X150886467Y-131863557D01*
X151025087Y-131937652D01*
X151042991Y-131947222D01*
X151078729Y-131976552D01*
X151180186Y-132059814D01*
X151263448Y-132161271D01*
X151292778Y-132197009D01*
X151292779Y-132197011D01*
X151376443Y-132353533D01*
X151376443Y-132353534D01*
X151427963Y-132523373D01*
X151445359Y-132700000D01*
X151427963Y-132876627D01*
X151393616Y-132989853D01*
X151376443Y-133046467D01*
X151302348Y-133185087D01*
X151292778Y-133202991D01*
X151263448Y-133238729D01*
X151180186Y-133340186D01*
X151092134Y-133412447D01*
X151042991Y-133452778D01*
X151042989Y-133452779D01*
X150886467Y-133536443D01*
X150829853Y-133553616D01*
X150716627Y-133587963D01*
X150650443Y-133594481D01*
X150584260Y-133601000D01*
X150495740Y-133601000D01*
X150429557Y-133594481D01*
X150363373Y-133587963D01*
X150250147Y-133553616D01*
X150193533Y-133536443D01*
X150037011Y-133452779D01*
X150037009Y-133452778D01*
X149987866Y-133412447D01*
X149899814Y-133340186D01*
X149816552Y-133238729D01*
X149787222Y-133202991D01*
X149777652Y-133185087D01*
X149703557Y-133046467D01*
X149686384Y-132989853D01*
X149652037Y-132876627D01*
X149634641Y-132700000D01*
X149652037Y-132523373D01*
X149703557Y-132353534D01*
X149703557Y-132353533D01*
X149787221Y-132197011D01*
X149787222Y-132197009D01*
X149816552Y-132161271D01*
X149899814Y-132059814D01*
X150001271Y-131976552D01*
X150037009Y-131947222D01*
X150054913Y-131937652D01*
X150193533Y-131863557D01*
X150250147Y-131846384D01*
X150363373Y-131812037D01*
X150429557Y-131805519D01*
X150495740Y-131799000D01*
X150584260Y-131799000D01*
X150650443Y-131805519D01*
X150650443Y-131805519D01*
G37*
G36*
X153190443Y-131805519D02*
X153256627Y-131812037D01*
X153369853Y-131846384D01*
X153426467Y-131863557D01*
X153565087Y-131937652D01*
X153582991Y-131947222D01*
X153618729Y-131976552D01*
X153720186Y-132059814D01*
X153803448Y-132161271D01*
X153832778Y-132197009D01*
X153832779Y-132197011D01*
X153916443Y-132353533D01*
X153916443Y-132353534D01*
X153967963Y-132523373D01*
X153985359Y-132700000D01*
X153967963Y-132876627D01*
X153933616Y-132989853D01*
X153916443Y-133046467D01*
X153842348Y-133185087D01*
X153832778Y-133202991D01*
X153803448Y-133238729D01*
X153720186Y-133340186D01*
X153632134Y-133412447D01*
X153582991Y-133452778D01*
X153582989Y-133452779D01*
X153426467Y-133536443D01*
X153369853Y-133553616D01*
X153256627Y-133587963D01*
X153190443Y-133594481D01*
X153124260Y-133601000D01*
X153035740Y-133601000D01*
X152969557Y-133594481D01*
X152903373Y-133587963D01*
X152790147Y-133553616D01*
X152733533Y-133536443D01*
X152577011Y-133452779D01*
X152577009Y-133452778D01*
X152527866Y-133412447D01*
X152439814Y-133340186D01*
X152356552Y-133238729D01*
X152327222Y-133202991D01*
X152317652Y-133185087D01*
X152243557Y-133046467D01*
X152226384Y-132989853D01*
X152192037Y-132876627D01*
X152174641Y-132700000D01*
X152192037Y-132523373D01*
X152243557Y-132353534D01*
X152243557Y-132353533D01*
X152327221Y-132197011D01*
X152327222Y-132197009D01*
X152356552Y-132161271D01*
X152439814Y-132059814D01*
X152541271Y-131976552D01*
X152577009Y-131947222D01*
X152594913Y-131937652D01*
X152733533Y-131863557D01*
X152790147Y-131846384D01*
X152903373Y-131812037D01*
X152969557Y-131805519D01*
X153035740Y-131799000D01*
X153124260Y-131799000D01*
X153190443Y-131805519D01*
X153190443Y-131805519D01*
G37*
G36*
X120936000Y-133576000D02*
X119184000Y-133576000D01*
X119184000Y-131824000D01*
X120936000Y-131824000D01*
X120936000Y-133576000D01*
X120936000Y-133576000D01*
G37*
G36*
X135726000Y-131446000D02*
X134874000Y-131446000D01*
X134874000Y-130144000D01*
X135726000Y-130144000D01*
X135726000Y-131446000D01*
X135726000Y-131446000D01*
G37*
G36*
X117688589Y-129332416D02*
X117815520Y-129357664D01*
X117974942Y-129423699D01*
X118118418Y-129519566D01*
X118240434Y-129641582D01*
X118336301Y-129785058D01*
X118402336Y-129944480D01*
X118436000Y-130113721D01*
X118436000Y-130286279D01*
X118402336Y-130455520D01*
X118336301Y-130614942D01*
X118240434Y-130758418D01*
X118118418Y-130880434D01*
X117974942Y-130976301D01*
X117815520Y-131042336D01*
X117721689Y-131061000D01*
X117646280Y-131076000D01*
X117473720Y-131076000D01*
X117398311Y-131061000D01*
X117304480Y-131042336D01*
X117145058Y-130976301D01*
X117001582Y-130880434D01*
X116879566Y-130758418D01*
X116783699Y-130614942D01*
X116717664Y-130455520D01*
X116684000Y-130286279D01*
X116684000Y-130113721D01*
X116717664Y-129944480D01*
X116783699Y-129785058D01*
X116879566Y-129641582D01*
X117001582Y-129519566D01*
X117145058Y-129423699D01*
X117304480Y-129357664D01*
X117431411Y-129332416D01*
X117473720Y-129324000D01*
X117646280Y-129324000D01*
X117688589Y-129332416D01*
X117688589Y-129332416D01*
G37*
G36*
X148110442Y-129265518D02*
X148176627Y-129272037D01*
X148289853Y-129306384D01*
X148346467Y-129323557D01*
X148435225Y-129371000D01*
X148502991Y-129407222D01*
X148523068Y-129423699D01*
X148640186Y-129519814D01*
X148723448Y-129621271D01*
X148752778Y-129657009D01*
X148752779Y-129657011D01*
X148836443Y-129813533D01*
X148836443Y-129813534D01*
X148887963Y-129983373D01*
X148905359Y-130160000D01*
X148887963Y-130336627D01*
X148853616Y-130449853D01*
X148836443Y-130506467D01*
X148778461Y-130614942D01*
X148752778Y-130662991D01*
X148723448Y-130698729D01*
X148640186Y-130800186D01*
X148542406Y-130880431D01*
X148502991Y-130912778D01*
X148502989Y-130912779D01*
X148346467Y-130996443D01*
X148289853Y-131013616D01*
X148176627Y-131047963D01*
X148110442Y-131054482D01*
X148044260Y-131061000D01*
X147955740Y-131061000D01*
X147889558Y-131054482D01*
X147823373Y-131047963D01*
X147710147Y-131013616D01*
X147653533Y-130996443D01*
X147497011Y-130912779D01*
X147497009Y-130912778D01*
X147457594Y-130880431D01*
X147359814Y-130800186D01*
X147276552Y-130698729D01*
X147247222Y-130662991D01*
X147221539Y-130614942D01*
X147163557Y-130506467D01*
X147146384Y-130449853D01*
X147112037Y-130336627D01*
X147094641Y-130160000D01*
X147112037Y-129983373D01*
X147163557Y-129813534D01*
X147163557Y-129813533D01*
X147247221Y-129657011D01*
X147247222Y-129657009D01*
X147276552Y-129621271D01*
X147359814Y-129519814D01*
X147476932Y-129423699D01*
X147497009Y-129407222D01*
X147564775Y-129371000D01*
X147653533Y-129323557D01*
X147710147Y-129306384D01*
X147823373Y-129272037D01*
X147889558Y-129265518D01*
X147955740Y-129259000D01*
X148044260Y-129259000D01*
X148110442Y-129265518D01*
X148110442Y-129265518D01*
G37*
G36*
X143030442Y-129265518D02*
X143096627Y-129272037D01*
X143209853Y-129306384D01*
X143266467Y-129323557D01*
X143355225Y-129371000D01*
X143422991Y-129407222D01*
X143443068Y-129423699D01*
X143560186Y-129519814D01*
X143643448Y-129621271D01*
X143672778Y-129657009D01*
X143672779Y-129657011D01*
X143756443Y-129813533D01*
X143756443Y-129813534D01*
X143807963Y-129983373D01*
X143825359Y-130160000D01*
X143807963Y-130336627D01*
X143773616Y-130449853D01*
X143756443Y-130506467D01*
X143698461Y-130614942D01*
X143672778Y-130662991D01*
X143643448Y-130698729D01*
X143560186Y-130800186D01*
X143462406Y-130880431D01*
X143422991Y-130912778D01*
X143422989Y-130912779D01*
X143266467Y-130996443D01*
X143209853Y-131013616D01*
X143096627Y-131047963D01*
X143030442Y-131054482D01*
X142964260Y-131061000D01*
X142875740Y-131061000D01*
X142809558Y-131054482D01*
X142743373Y-131047963D01*
X142630147Y-131013616D01*
X142573533Y-130996443D01*
X142417011Y-130912779D01*
X142417009Y-130912778D01*
X142377594Y-130880431D01*
X142279814Y-130800186D01*
X142196552Y-130698729D01*
X142167222Y-130662991D01*
X142141539Y-130614942D01*
X142083557Y-130506467D01*
X142066384Y-130449853D01*
X142032037Y-130336627D01*
X142014641Y-130160000D01*
X142032037Y-129983373D01*
X142083557Y-129813534D01*
X142083557Y-129813533D01*
X142167221Y-129657011D01*
X142167222Y-129657009D01*
X142196552Y-129621271D01*
X142279814Y-129519814D01*
X142396932Y-129423699D01*
X142417009Y-129407222D01*
X142484775Y-129371000D01*
X142573533Y-129323557D01*
X142630147Y-129306384D01*
X142743373Y-129272037D01*
X142809558Y-129265518D01*
X142875740Y-129259000D01*
X142964260Y-129259000D01*
X143030442Y-129265518D01*
X143030442Y-129265518D01*
G37*
G36*
X145570442Y-129265518D02*
X145636627Y-129272037D01*
X145749853Y-129306384D01*
X145806467Y-129323557D01*
X145895225Y-129371000D01*
X145962991Y-129407222D01*
X145983068Y-129423699D01*
X146100186Y-129519814D01*
X146183448Y-129621271D01*
X146212778Y-129657009D01*
X146212779Y-129657011D01*
X146296443Y-129813533D01*
X146296443Y-129813534D01*
X146347963Y-129983373D01*
X146365359Y-130160000D01*
X146347963Y-130336627D01*
X146313616Y-130449853D01*
X146296443Y-130506467D01*
X146238461Y-130614942D01*
X146212778Y-130662991D01*
X146183448Y-130698729D01*
X146100186Y-130800186D01*
X146002406Y-130880431D01*
X145962991Y-130912778D01*
X145962989Y-130912779D01*
X145806467Y-130996443D01*
X145749853Y-131013616D01*
X145636627Y-131047963D01*
X145570442Y-131054482D01*
X145504260Y-131061000D01*
X145415740Y-131061000D01*
X145349558Y-131054482D01*
X145283373Y-131047963D01*
X145170147Y-131013616D01*
X145113533Y-130996443D01*
X144957011Y-130912779D01*
X144957009Y-130912778D01*
X144917594Y-130880431D01*
X144819814Y-130800186D01*
X144736552Y-130698729D01*
X144707222Y-130662991D01*
X144681539Y-130614942D01*
X144623557Y-130506467D01*
X144606384Y-130449853D01*
X144572037Y-130336627D01*
X144554641Y-130160000D01*
X144572037Y-129983373D01*
X144623557Y-129813534D01*
X144623557Y-129813533D01*
X144707221Y-129657011D01*
X144707222Y-129657009D01*
X144736552Y-129621271D01*
X144819814Y-129519814D01*
X144936932Y-129423699D01*
X144957009Y-129407222D01*
X145024775Y-129371000D01*
X145113533Y-129323557D01*
X145170147Y-129306384D01*
X145283373Y-129272037D01*
X145349558Y-129265518D01*
X145415740Y-129259000D01*
X145504260Y-129259000D01*
X145570442Y-129265518D01*
X145570442Y-129265518D01*
G37*
G36*
X150650442Y-129265518D02*
X150716627Y-129272037D01*
X150829853Y-129306384D01*
X150886467Y-129323557D01*
X150975225Y-129371000D01*
X151042991Y-129407222D01*
X151063068Y-129423699D01*
X151180186Y-129519814D01*
X151263448Y-129621271D01*
X151292778Y-129657009D01*
X151292779Y-129657011D01*
X151376443Y-129813533D01*
X151376443Y-129813534D01*
X151427963Y-129983373D01*
X151445359Y-130160000D01*
X151427963Y-130336627D01*
X151393616Y-130449853D01*
X151376443Y-130506467D01*
X151318461Y-130614942D01*
X151292778Y-130662991D01*
X151263448Y-130698729D01*
X151180186Y-130800186D01*
X151082406Y-130880431D01*
X151042991Y-130912778D01*
X151042989Y-130912779D01*
X150886467Y-130996443D01*
X150829853Y-131013616D01*
X150716627Y-131047963D01*
X150650442Y-131054482D01*
X150584260Y-131061000D01*
X150495740Y-131061000D01*
X150429558Y-131054482D01*
X150363373Y-131047963D01*
X150250147Y-131013616D01*
X150193533Y-130996443D01*
X150037011Y-130912779D01*
X150037009Y-130912778D01*
X149997594Y-130880431D01*
X149899814Y-130800186D01*
X149816552Y-130698729D01*
X149787222Y-130662991D01*
X149761539Y-130614942D01*
X149703557Y-130506467D01*
X149686384Y-130449853D01*
X149652037Y-130336627D01*
X149634641Y-130160000D01*
X149652037Y-129983373D01*
X149703557Y-129813534D01*
X149703557Y-129813533D01*
X149787221Y-129657011D01*
X149787222Y-129657009D01*
X149816552Y-129621271D01*
X149899814Y-129519814D01*
X150016932Y-129423699D01*
X150037009Y-129407222D01*
X150104775Y-129371000D01*
X150193533Y-129323557D01*
X150250147Y-129306384D01*
X150363373Y-129272037D01*
X150429558Y-129265518D01*
X150495740Y-129259000D01*
X150584260Y-129259000D01*
X150650442Y-129265518D01*
X150650442Y-129265518D01*
G37*
G36*
X153190442Y-129265518D02*
X153256627Y-129272037D01*
X153369853Y-129306384D01*
X153426467Y-129323557D01*
X153515225Y-129371000D01*
X153582991Y-129407222D01*
X153603068Y-129423699D01*
X153720186Y-129519814D01*
X153803448Y-129621271D01*
X153832778Y-129657009D01*
X153832779Y-129657011D01*
X153916443Y-129813533D01*
X153916443Y-129813534D01*
X153967963Y-129983373D01*
X153985359Y-130160000D01*
X153967963Y-130336627D01*
X153933616Y-130449853D01*
X153916443Y-130506467D01*
X153858461Y-130614942D01*
X153832778Y-130662991D01*
X153803448Y-130698729D01*
X153720186Y-130800186D01*
X153622406Y-130880431D01*
X153582991Y-130912778D01*
X153582989Y-130912779D01*
X153426467Y-130996443D01*
X153369853Y-131013616D01*
X153256627Y-131047963D01*
X153190442Y-131054482D01*
X153124260Y-131061000D01*
X153035740Y-131061000D01*
X152969558Y-131054482D01*
X152903373Y-131047963D01*
X152790147Y-131013616D01*
X152733533Y-130996443D01*
X152577011Y-130912779D01*
X152577009Y-130912778D01*
X152537594Y-130880431D01*
X152439814Y-130800186D01*
X152356552Y-130698729D01*
X152327222Y-130662991D01*
X152301539Y-130614942D01*
X152243557Y-130506467D01*
X152226384Y-130449853D01*
X152192037Y-130336627D01*
X152174641Y-130160000D01*
X152192037Y-129983373D01*
X152243557Y-129813534D01*
X152243557Y-129813533D01*
X152327221Y-129657011D01*
X152327222Y-129657009D01*
X152356552Y-129621271D01*
X152439814Y-129519814D01*
X152556932Y-129423699D01*
X152577009Y-129407222D01*
X152644775Y-129371000D01*
X152733533Y-129323557D01*
X152790147Y-129306384D01*
X152903373Y-129272037D01*
X152969558Y-129265518D01*
X153035740Y-129259000D01*
X153124260Y-129259000D01*
X153190442Y-129265518D01*
X153190442Y-129265518D01*
G37*
G36*
X135726000Y-129546000D02*
X134874000Y-129546000D01*
X134874000Y-128244000D01*
X135726000Y-128244000D01*
X135726000Y-129546000D01*
X135726000Y-129546000D01*
G37*
G36*
X176441000Y-129371000D02*
X175439000Y-129371000D01*
X175439000Y-128069000D01*
X176441000Y-128069000D01*
X176441000Y-129371000D01*
X176441000Y-129371000D01*
G37*
G36*
X178981000Y-129371000D02*
X177979000Y-129371000D01*
X177979000Y-128069000D01*
X178981000Y-128069000D01*
X178981000Y-129371000D01*
X178981000Y-129371000D01*
G37*
G36*
X120188589Y-126832416D02*
X120315520Y-126857664D01*
X120474942Y-126923699D01*
X120618418Y-127019566D01*
X120740434Y-127141582D01*
X120836301Y-127285058D01*
X120902336Y-127444480D01*
X120936000Y-127613721D01*
X120936000Y-127786279D01*
X120902336Y-127955520D01*
X120836301Y-128114942D01*
X120740434Y-128258418D01*
X120618418Y-128380434D01*
X120474942Y-128476301D01*
X120315520Y-128542336D01*
X120188589Y-128567584D01*
X120146280Y-128576000D01*
X119973720Y-128576000D01*
X119931411Y-128567584D01*
X119804480Y-128542336D01*
X119645058Y-128476301D01*
X119501582Y-128380434D01*
X119379566Y-128258418D01*
X119283699Y-128114942D01*
X119217664Y-127955520D01*
X119184000Y-127786279D01*
X119184000Y-127613721D01*
X119217664Y-127444480D01*
X119283699Y-127285058D01*
X119379566Y-127141582D01*
X119501582Y-127019566D01*
X119645058Y-126923699D01*
X119804480Y-126857664D01*
X119931411Y-126832416D01*
X119973720Y-126824000D01*
X120146280Y-126824000D01*
X120188589Y-126832416D01*
X120188589Y-126832416D01*
G37*
G36*
X176441000Y-127171000D02*
X175439000Y-127171000D01*
X175439000Y-125869000D01*
X176441000Y-125869000D01*
X176441000Y-127171000D01*
X176441000Y-127171000D01*
G37*
G36*
X178981000Y-127171000D02*
X177979000Y-127171000D01*
X177979000Y-125869000D01*
X178981000Y-125869000D01*
X178981000Y-127171000D01*
X178981000Y-127171000D01*
G37*
G36*
X156101000Y-123041000D02*
X154799000Y-123041000D01*
X154799000Y-122039000D01*
X156101000Y-122039000D01*
X156101000Y-123041000D01*
X156101000Y-123041000D01*
G37*
G36*
X169141000Y-123041000D02*
X167839000Y-123041000D01*
X167839000Y-122039000D01*
X169141000Y-122039000D01*
X169141000Y-123041000D01*
X169141000Y-123041000D01*
G37*
G36*
X171341000Y-123041000D02*
X170039000Y-123041000D01*
X170039000Y-122039000D01*
X171341000Y-122039000D01*
X171341000Y-123041000D01*
X171341000Y-123041000D01*
G37*
G36*
X123421000Y-123041000D02*
X122119000Y-123041000D01*
X122119000Y-122039000D01*
X123421000Y-122039000D01*
X123421000Y-123041000D01*
X123421000Y-123041000D01*
G37*
G36*
X140861000Y-123041000D02*
X139559000Y-123041000D01*
X139559000Y-122039000D01*
X140861000Y-122039000D01*
X140861000Y-123041000D01*
X140861000Y-123041000D01*
G37*
G36*
X138661000Y-123041000D02*
X137359000Y-123041000D01*
X137359000Y-122039000D01*
X138661000Y-122039000D01*
X138661000Y-123041000D01*
X138661000Y-123041000D01*
G37*
G36*
X153901000Y-123041000D02*
X152599000Y-123041000D01*
X152599000Y-122039000D01*
X153901000Y-122039000D01*
X153901000Y-123041000D01*
X153901000Y-123041000D01*
G37*
G36*
X125621000Y-123041000D02*
X124319000Y-123041000D01*
X124319000Y-122039000D01*
X125621000Y-122039000D01*
X125621000Y-123041000D01*
X125621000Y-123041000D01*
G37*
G36*
X149507142Y-121268241D02*
X149655102Y-121329529D01*
X149788258Y-121418501D01*
X149901498Y-121531741D01*
X149990470Y-121664897D01*
X150051758Y-121812857D01*
X150083000Y-121969924D01*
X150083000Y-122130074D01*
X150051758Y-122287141D01*
X149990470Y-122435101D01*
X149901498Y-122568257D01*
X149788258Y-122681497D01*
X149655102Y-122770469D01*
X149507142Y-122831757D01*
X149350075Y-122862999D01*
X149189925Y-122862999D01*
X149032858Y-122831757D01*
X148884898Y-122770469D01*
X148751742Y-122681497D01*
X148638502Y-122568257D01*
X148549530Y-122435101D01*
X148488242Y-122287141D01*
X148457000Y-122130074D01*
X148457000Y-121969924D01*
X148488242Y-121812857D01*
X148549530Y-121664897D01*
X148638502Y-121531741D01*
X148751742Y-121418501D01*
X148884898Y-121329529D01*
X149032858Y-121268241D01*
X149189925Y-121236999D01*
X149350075Y-121236999D01*
X149507142Y-121268241D01*
X149507142Y-121268241D01*
G37*
G36*
X131967142Y-121268241D02*
X132115102Y-121329529D01*
X132248258Y-121418501D01*
X132361498Y-121531741D01*
X132450470Y-121664897D01*
X132511758Y-121812857D01*
X132543000Y-121969924D01*
X132543000Y-122130074D01*
X132511758Y-122287141D01*
X132450470Y-122435101D01*
X132361498Y-122568257D01*
X132248258Y-122681497D01*
X132115102Y-122770469D01*
X131967142Y-122831757D01*
X131810075Y-122862999D01*
X131649925Y-122862999D01*
X131492858Y-122831757D01*
X131344898Y-122770469D01*
X131211742Y-122681497D01*
X131098502Y-122568257D01*
X131009530Y-122435101D01*
X130948242Y-122287141D01*
X130917000Y-122130074D01*
X130917000Y-121969924D01*
X130948242Y-121812857D01*
X131009530Y-121664897D01*
X131098502Y-121531741D01*
X131211742Y-121418501D01*
X131344898Y-121329529D01*
X131492858Y-121268241D01*
X131649925Y-121236999D01*
X131810075Y-121236999D01*
X131967142Y-121268241D01*
X131967142Y-121268241D01*
G37*
G36*
X116967142Y-121268241D02*
X117115102Y-121329529D01*
X117248258Y-121418501D01*
X117361498Y-121531741D01*
X117450470Y-121664897D01*
X117511758Y-121812857D01*
X117543000Y-121969924D01*
X117543000Y-122130074D01*
X117511758Y-122287141D01*
X117450470Y-122435101D01*
X117361498Y-122568257D01*
X117248258Y-122681497D01*
X117115102Y-122770469D01*
X116967142Y-122831757D01*
X116810075Y-122862999D01*
X116649925Y-122862999D01*
X116492858Y-122831757D01*
X116344898Y-122770469D01*
X116211742Y-122681497D01*
X116098502Y-122568257D01*
X116009530Y-122435101D01*
X115948242Y-122287141D01*
X115917000Y-122130074D01*
X115917000Y-121969924D01*
X115948242Y-121812857D01*
X116009530Y-121664897D01*
X116098502Y-121531741D01*
X116211742Y-121418501D01*
X116344898Y-121329529D01*
X116492858Y-121268241D01*
X116649925Y-121236999D01*
X116810075Y-121236999D01*
X116967142Y-121268241D01*
X116967142Y-121268241D01*
G37*
G36*
X119507142Y-121268241D02*
X119655102Y-121329529D01*
X119788258Y-121418501D01*
X119901498Y-121531741D01*
X119990470Y-121664897D01*
X120051758Y-121812857D01*
X120083000Y-121969924D01*
X120083000Y-122130074D01*
X120051758Y-122287141D01*
X119990470Y-122435101D01*
X119901498Y-122568257D01*
X119788258Y-122681497D01*
X119655102Y-122770469D01*
X119507142Y-122831757D01*
X119350075Y-122862999D01*
X119189925Y-122862999D01*
X119032858Y-122831757D01*
X118884898Y-122770469D01*
X118751742Y-122681497D01*
X118638502Y-122568257D01*
X118549530Y-122435101D01*
X118488242Y-122287141D01*
X118457000Y-122130074D01*
X118457000Y-121969924D01*
X118488242Y-121812857D01*
X118549530Y-121664897D01*
X118638502Y-121531741D01*
X118751742Y-121418501D01*
X118884898Y-121329529D01*
X119032858Y-121268241D01*
X119189925Y-121236999D01*
X119350075Y-121236999D01*
X119507142Y-121268241D01*
X119507142Y-121268241D01*
G37*
G36*
X146967142Y-121268241D02*
X147115102Y-121329529D01*
X147248258Y-121418501D01*
X147361498Y-121531741D01*
X147450470Y-121664897D01*
X147511758Y-121812857D01*
X147543000Y-121969924D01*
X147543000Y-122130074D01*
X147511758Y-122287141D01*
X147450470Y-122435101D01*
X147361498Y-122568257D01*
X147248258Y-122681497D01*
X147115102Y-122770469D01*
X146967142Y-122831757D01*
X146810075Y-122862999D01*
X146649925Y-122862999D01*
X146492858Y-122831757D01*
X146344898Y-122770469D01*
X146211742Y-122681497D01*
X146098502Y-122568257D01*
X146009530Y-122435101D01*
X145948242Y-122287141D01*
X145917000Y-122130074D01*
X145917000Y-121969924D01*
X145948242Y-121812857D01*
X146009530Y-121664897D01*
X146098502Y-121531741D01*
X146211742Y-121418501D01*
X146344898Y-121329529D01*
X146492858Y-121268241D01*
X146649925Y-121236999D01*
X146810075Y-121236999D01*
X146967142Y-121268241D01*
X146967142Y-121268241D01*
G37*
G36*
X134507142Y-121268241D02*
X134655102Y-121329529D01*
X134788258Y-121418501D01*
X134901498Y-121531741D01*
X134990470Y-121664897D01*
X135051758Y-121812857D01*
X135083000Y-121969924D01*
X135083000Y-122130074D01*
X135051758Y-122287141D01*
X134990470Y-122435101D01*
X134901498Y-122568257D01*
X134788258Y-122681497D01*
X134655102Y-122770469D01*
X134507142Y-122831757D01*
X134350075Y-122862999D01*
X134189925Y-122862999D01*
X134032858Y-122831757D01*
X133884898Y-122770469D01*
X133751742Y-122681497D01*
X133638502Y-122568257D01*
X133549530Y-122435101D01*
X133488242Y-122287141D01*
X133457000Y-122130074D01*
X133457000Y-121969924D01*
X133488242Y-121812857D01*
X133549530Y-121664897D01*
X133638502Y-121531741D01*
X133751742Y-121418501D01*
X133884898Y-121329529D01*
X134032858Y-121268241D01*
X134189925Y-121236999D01*
X134350075Y-121236999D01*
X134507142Y-121268241D01*
X134507142Y-121268241D01*
G37*
G36*
X179507142Y-121268241D02*
X179655102Y-121329529D01*
X179788258Y-121418501D01*
X179901498Y-121531741D01*
X179990470Y-121664897D01*
X180051758Y-121812857D01*
X180083000Y-121969924D01*
X180083000Y-122130074D01*
X180051758Y-122287141D01*
X179990470Y-122435101D01*
X179901498Y-122568257D01*
X179788258Y-122681497D01*
X179655102Y-122770469D01*
X179507142Y-122831757D01*
X179350075Y-122862999D01*
X179189925Y-122862999D01*
X179032858Y-122831757D01*
X178884898Y-122770469D01*
X178751742Y-122681497D01*
X178638502Y-122568257D01*
X178549530Y-122435101D01*
X178488242Y-122287141D01*
X178457000Y-122130074D01*
X178457000Y-121969924D01*
X178488242Y-121812857D01*
X178549530Y-121664897D01*
X178638502Y-121531741D01*
X178751742Y-121418501D01*
X178884898Y-121329529D01*
X179032858Y-121268241D01*
X179189925Y-121236999D01*
X179350075Y-121236999D01*
X179507142Y-121268241D01*
X179507142Y-121268241D01*
G37*
G36*
X164507142Y-121268241D02*
X164655102Y-121329529D01*
X164788258Y-121418501D01*
X164901498Y-121531741D01*
X164990470Y-121664897D01*
X165051758Y-121812857D01*
X165083000Y-121969924D01*
X165083000Y-122130074D01*
X165051758Y-122287141D01*
X164990470Y-122435101D01*
X164901498Y-122568257D01*
X164788258Y-122681497D01*
X164655102Y-122770469D01*
X164507142Y-122831757D01*
X164350075Y-122862999D01*
X164189925Y-122862999D01*
X164032858Y-122831757D01*
X163884898Y-122770469D01*
X163751742Y-122681497D01*
X163638502Y-122568257D01*
X163549530Y-122435101D01*
X163488242Y-122287141D01*
X163457000Y-122130074D01*
X163457000Y-121969924D01*
X163488242Y-121812857D01*
X163549530Y-121664897D01*
X163638502Y-121531741D01*
X163751742Y-121418501D01*
X163884898Y-121329529D01*
X164032858Y-121268241D01*
X164189925Y-121236999D01*
X164350075Y-121236999D01*
X164507142Y-121268241D01*
X164507142Y-121268241D01*
G37*
G36*
X176967142Y-121268241D02*
X177115102Y-121329529D01*
X177248258Y-121418501D01*
X177361498Y-121531741D01*
X177450470Y-121664897D01*
X177511758Y-121812857D01*
X177543000Y-121969924D01*
X177543000Y-122130074D01*
X177511758Y-122287141D01*
X177450470Y-122435101D01*
X177361498Y-122568257D01*
X177248258Y-122681497D01*
X177115102Y-122770469D01*
X176967142Y-122831757D01*
X176810075Y-122862999D01*
X176649925Y-122862999D01*
X176492858Y-122831757D01*
X176344898Y-122770469D01*
X176211742Y-122681497D01*
X176098502Y-122568257D01*
X176009530Y-122435101D01*
X175948242Y-122287141D01*
X175917000Y-122130074D01*
X175917000Y-121969924D01*
X175948242Y-121812857D01*
X176009530Y-121664897D01*
X176098502Y-121531741D01*
X176211742Y-121418501D01*
X176344898Y-121329529D01*
X176492858Y-121268241D01*
X176649925Y-121236999D01*
X176810075Y-121236999D01*
X176967142Y-121268241D01*
X176967142Y-121268241D01*
G37*
G36*
X161967142Y-121268241D02*
X162115102Y-121329529D01*
X162248258Y-121418501D01*
X162361498Y-121531741D01*
X162450470Y-121664897D01*
X162511758Y-121812857D01*
X162543000Y-121969924D01*
X162543000Y-122130074D01*
X162511758Y-122287141D01*
X162450470Y-122435101D01*
X162361498Y-122568257D01*
X162248258Y-122681497D01*
X162115102Y-122770469D01*
X161967142Y-122831757D01*
X161810075Y-122862999D01*
X161649925Y-122862999D01*
X161492858Y-122831757D01*
X161344898Y-122770469D01*
X161211742Y-122681497D01*
X161098502Y-122568257D01*
X161009530Y-122435101D01*
X160948242Y-122287141D01*
X160917000Y-122130074D01*
X160917000Y-121969924D01*
X160948242Y-121812857D01*
X161009530Y-121664897D01*
X161098502Y-121531741D01*
X161211742Y-121418501D01*
X161344898Y-121329529D01*
X161492858Y-121268241D01*
X161649925Y-121236999D01*
X161810075Y-121236999D01*
X161967142Y-121268241D01*
X161967142Y-121268241D01*
G37*
G36*
X125621000Y-120501000D02*
X124319000Y-120501000D01*
X124319000Y-119499000D01*
X125621000Y-119499000D01*
X125621000Y-120501000D01*
X125621000Y-120501000D01*
G37*
G36*
X171341000Y-120501000D02*
X170039000Y-120501000D01*
X170039000Y-119499000D01*
X171341000Y-119499000D01*
X171341000Y-120501000D01*
X171341000Y-120501000D01*
G37*
G36*
X169141000Y-120501000D02*
X167839000Y-120501000D01*
X167839000Y-119499000D01*
X169141000Y-119499000D01*
X169141000Y-120501000D01*
X169141000Y-120501000D01*
G37*
G36*
X153901000Y-120501000D02*
X152599000Y-120501000D01*
X152599000Y-119499000D01*
X153901000Y-119499000D01*
X153901000Y-120501000D01*
X153901000Y-120501000D01*
G37*
G36*
X138661000Y-120501000D02*
X137359000Y-120501000D01*
X137359000Y-119499000D01*
X138661000Y-119499000D01*
X138661000Y-120501000D01*
X138661000Y-120501000D01*
G37*
G36*
X140861000Y-120501000D02*
X139559000Y-120501000D01*
X139559000Y-119499000D01*
X140861000Y-119499000D01*
X140861000Y-120501000D01*
X140861000Y-120501000D01*
G37*
G36*
X123421000Y-120501000D02*
X122119000Y-120501000D01*
X122119000Y-119499000D01*
X123421000Y-119499000D01*
X123421000Y-120501000D01*
X123421000Y-120501000D01*
G37*
G36*
X156101000Y-120501000D02*
X154799000Y-120501000D01*
X154799000Y-119499000D01*
X156101000Y-119499000D01*
X156101000Y-120501000D01*
X156101000Y-120501000D01*
G37*
G36*
X134507142Y-117168242D02*
X134655102Y-117229530D01*
X134788258Y-117318502D01*
X134901498Y-117431742D01*
X134990470Y-117564898D01*
X135051758Y-117712858D01*
X135083000Y-117869925D01*
X135083000Y-118030075D01*
X135051758Y-118187142D01*
X134990470Y-118335102D01*
X134901498Y-118468258D01*
X134788258Y-118581498D01*
X134655102Y-118670470D01*
X134507142Y-118731758D01*
X134350075Y-118763000D01*
X134189925Y-118763000D01*
X134032858Y-118731758D01*
X133884898Y-118670470D01*
X133751742Y-118581498D01*
X133638502Y-118468258D01*
X133549530Y-118335102D01*
X133488242Y-118187142D01*
X133457000Y-118030075D01*
X133457000Y-117869925D01*
X133488242Y-117712858D01*
X133549530Y-117564898D01*
X133638502Y-117431742D01*
X133751742Y-117318502D01*
X133884898Y-117229530D01*
X134032858Y-117168242D01*
X134189925Y-117137000D01*
X134350075Y-117137000D01*
X134507142Y-117168242D01*
X134507142Y-117168242D01*
G37*
G36*
X131967142Y-117168242D02*
X132115102Y-117229530D01*
X132248258Y-117318502D01*
X132361498Y-117431742D01*
X132450470Y-117564898D01*
X132511758Y-117712858D01*
X132543000Y-117869925D01*
X132543000Y-118030075D01*
X132511758Y-118187142D01*
X132450470Y-118335102D01*
X132361498Y-118468258D01*
X132248258Y-118581498D01*
X132115102Y-118670470D01*
X131967142Y-118731758D01*
X131810075Y-118763000D01*
X131649925Y-118763000D01*
X131492858Y-118731758D01*
X131344898Y-118670470D01*
X131211742Y-118581498D01*
X131098502Y-118468258D01*
X131009530Y-118335102D01*
X130948242Y-118187142D01*
X130917000Y-118030075D01*
X130917000Y-117869925D01*
X130948242Y-117712858D01*
X131009530Y-117564898D01*
X131098502Y-117431742D01*
X131211742Y-117318502D01*
X131344898Y-117229530D01*
X131492858Y-117168242D01*
X131649925Y-117137000D01*
X131810075Y-117137000D01*
X131967142Y-117168242D01*
X131967142Y-117168242D01*
G37*
G36*
X161967142Y-117168242D02*
X162115102Y-117229530D01*
X162248258Y-117318502D01*
X162361498Y-117431742D01*
X162450470Y-117564898D01*
X162511758Y-117712858D01*
X162543000Y-117869925D01*
X162543000Y-118030075D01*
X162511758Y-118187142D01*
X162450470Y-118335102D01*
X162361498Y-118468258D01*
X162248258Y-118581498D01*
X162115102Y-118670470D01*
X161967142Y-118731758D01*
X161810075Y-118763000D01*
X161649925Y-118763000D01*
X161492858Y-118731758D01*
X161344898Y-118670470D01*
X161211742Y-118581498D01*
X161098502Y-118468258D01*
X161009530Y-118335102D01*
X160948242Y-118187142D01*
X160917000Y-118030075D01*
X160917000Y-117869925D01*
X160948242Y-117712858D01*
X161009530Y-117564898D01*
X161098502Y-117431742D01*
X161211742Y-117318502D01*
X161344898Y-117229530D01*
X161492858Y-117168242D01*
X161649925Y-117137000D01*
X161810075Y-117137000D01*
X161967142Y-117168242D01*
X161967142Y-117168242D01*
G37*
G36*
X164507142Y-117168242D02*
X164655102Y-117229530D01*
X164788258Y-117318502D01*
X164901498Y-117431742D01*
X164990470Y-117564898D01*
X165051758Y-117712858D01*
X165083000Y-117869925D01*
X165083000Y-118030075D01*
X165051758Y-118187142D01*
X164990470Y-118335102D01*
X164901498Y-118468258D01*
X164788258Y-118581498D01*
X164655102Y-118670470D01*
X164507142Y-118731758D01*
X164350075Y-118763000D01*
X164189925Y-118763000D01*
X164032858Y-118731758D01*
X163884898Y-118670470D01*
X163751742Y-118581498D01*
X163638502Y-118468258D01*
X163549530Y-118335102D01*
X163488242Y-118187142D01*
X163457000Y-118030075D01*
X163457000Y-117869925D01*
X163488242Y-117712858D01*
X163549530Y-117564898D01*
X163638502Y-117431742D01*
X163751742Y-117318502D01*
X163884898Y-117229530D01*
X164032858Y-117168242D01*
X164189925Y-117137000D01*
X164350075Y-117137000D01*
X164507142Y-117168242D01*
X164507142Y-117168242D01*
G37*
G36*
X116967142Y-117168242D02*
X117115102Y-117229530D01*
X117248258Y-117318502D01*
X117361498Y-117431742D01*
X117450470Y-117564898D01*
X117511758Y-117712858D01*
X117543000Y-117869925D01*
X117543000Y-118030075D01*
X117511758Y-118187142D01*
X117450470Y-118335102D01*
X117361498Y-118468258D01*
X117248258Y-118581498D01*
X117115102Y-118670470D01*
X116967142Y-118731758D01*
X116810075Y-118763000D01*
X116649925Y-118763000D01*
X116492858Y-118731758D01*
X116344898Y-118670470D01*
X116211742Y-118581498D01*
X116098502Y-118468258D01*
X116009530Y-118335102D01*
X115948242Y-118187142D01*
X115917000Y-118030075D01*
X115917000Y-117869925D01*
X115948242Y-117712858D01*
X116009530Y-117564898D01*
X116098502Y-117431742D01*
X116211742Y-117318502D01*
X116344898Y-117229530D01*
X116492858Y-117168242D01*
X116649925Y-117137000D01*
X116810075Y-117137000D01*
X116967142Y-117168242D01*
X116967142Y-117168242D01*
G37*
G36*
X119507142Y-117168242D02*
X119655102Y-117229530D01*
X119788258Y-117318502D01*
X119901498Y-117431742D01*
X119990470Y-117564898D01*
X120051758Y-117712858D01*
X120083000Y-117869925D01*
X120083000Y-118030075D01*
X120051758Y-118187142D01*
X119990470Y-118335102D01*
X119901498Y-118468258D01*
X119788258Y-118581498D01*
X119655102Y-118670470D01*
X119507142Y-118731758D01*
X119350075Y-118763000D01*
X119189925Y-118763000D01*
X119032858Y-118731758D01*
X118884898Y-118670470D01*
X118751742Y-118581498D01*
X118638502Y-118468258D01*
X118549530Y-118335102D01*
X118488242Y-118187142D01*
X118457000Y-118030075D01*
X118457000Y-117869925D01*
X118488242Y-117712858D01*
X118549530Y-117564898D01*
X118638502Y-117431742D01*
X118751742Y-117318502D01*
X118884898Y-117229530D01*
X119032858Y-117168242D01*
X119189925Y-117137000D01*
X119350075Y-117137000D01*
X119507142Y-117168242D01*
X119507142Y-117168242D01*
G37*
G36*
X146967142Y-117168242D02*
X147115102Y-117229530D01*
X147248258Y-117318502D01*
X147361498Y-117431742D01*
X147450470Y-117564898D01*
X147511758Y-117712858D01*
X147543000Y-117869925D01*
X147543000Y-118030075D01*
X147511758Y-118187142D01*
X147450470Y-118335102D01*
X147361498Y-118468258D01*
X147248258Y-118581498D01*
X147115102Y-118670470D01*
X146967142Y-118731758D01*
X146810075Y-118763000D01*
X146649925Y-118763000D01*
X146492858Y-118731758D01*
X146344898Y-118670470D01*
X146211742Y-118581498D01*
X146098502Y-118468258D01*
X146009530Y-118335102D01*
X145948242Y-118187142D01*
X145917000Y-118030075D01*
X145917000Y-117869925D01*
X145948242Y-117712858D01*
X146009530Y-117564898D01*
X146098502Y-117431742D01*
X146211742Y-117318502D01*
X146344898Y-117229530D01*
X146492858Y-117168242D01*
X146649925Y-117137000D01*
X146810075Y-117137000D01*
X146967142Y-117168242D01*
X146967142Y-117168242D01*
G37*
G36*
X149507142Y-117168242D02*
X149655102Y-117229530D01*
X149788258Y-117318502D01*
X149901498Y-117431742D01*
X149990470Y-117564898D01*
X150051758Y-117712858D01*
X150083000Y-117869925D01*
X150083000Y-118030075D01*
X150051758Y-118187142D01*
X149990470Y-118335102D01*
X149901498Y-118468258D01*
X149788258Y-118581498D01*
X149655102Y-118670470D01*
X149507142Y-118731758D01*
X149350075Y-118763000D01*
X149189925Y-118763000D01*
X149032858Y-118731758D01*
X148884898Y-118670470D01*
X148751742Y-118581498D01*
X148638502Y-118468258D01*
X148549530Y-118335102D01*
X148488242Y-118187142D01*
X148457000Y-118030075D01*
X148457000Y-117869925D01*
X148488242Y-117712858D01*
X148549530Y-117564898D01*
X148638502Y-117431742D01*
X148751742Y-117318502D01*
X148884898Y-117229530D01*
X149032858Y-117168242D01*
X149189925Y-117137000D01*
X149350075Y-117137000D01*
X149507142Y-117168242D01*
X149507142Y-117168242D01*
G37*
G36*
X176967142Y-117168242D02*
X177115102Y-117229530D01*
X177248258Y-117318502D01*
X177361498Y-117431742D01*
X177450470Y-117564898D01*
X177511758Y-117712858D01*
X177543000Y-117869925D01*
X177543000Y-118030075D01*
X177511758Y-118187142D01*
X177450470Y-118335102D01*
X177361498Y-118468258D01*
X177248258Y-118581498D01*
X177115102Y-118670470D01*
X176967142Y-118731758D01*
X176810075Y-118763000D01*
X176649925Y-118763000D01*
X176492858Y-118731758D01*
X176344898Y-118670470D01*
X176211742Y-118581498D01*
X176098502Y-118468258D01*
X176009530Y-118335102D01*
X175948242Y-118187142D01*
X175917000Y-118030075D01*
X175917000Y-117869925D01*
X175948242Y-117712858D01*
X176009530Y-117564898D01*
X176098502Y-117431742D01*
X176211742Y-117318502D01*
X176344898Y-117229530D01*
X176492858Y-117168242D01*
X176649925Y-117137000D01*
X176810075Y-117137000D01*
X176967142Y-117168242D01*
X176967142Y-117168242D01*
G37*
G36*
X179507142Y-117168242D02*
X179655102Y-117229530D01*
X179788258Y-117318502D01*
X179901498Y-117431742D01*
X179990470Y-117564898D01*
X180051758Y-117712858D01*
X180083000Y-117869925D01*
X180083000Y-118030075D01*
X180051758Y-118187142D01*
X179990470Y-118335102D01*
X179901498Y-118468258D01*
X179788258Y-118581498D01*
X179655102Y-118670470D01*
X179507142Y-118731758D01*
X179350075Y-118763000D01*
X179189925Y-118763000D01*
X179032858Y-118731758D01*
X178884898Y-118670470D01*
X178751742Y-118581498D01*
X178638502Y-118468258D01*
X178549530Y-118335102D01*
X178488242Y-118187142D01*
X178457000Y-118030075D01*
X178457000Y-117869925D01*
X178488242Y-117712858D01*
X178549530Y-117564898D01*
X178638502Y-117431742D01*
X178751742Y-117318502D01*
X178884898Y-117229530D01*
X179032858Y-117168242D01*
X179189925Y-117137000D01*
X179350075Y-117137000D01*
X179507142Y-117168242D01*
X179507142Y-117168242D01*
G37*
G36*
X163375256Y-106391298D02*
X163481579Y-106412447D01*
X163694037Y-106500450D01*
X163780932Y-106536443D01*
X163782042Y-106536903D01*
X164048852Y-106715180D01*
X164052454Y-106717587D01*
X164282413Y-106947546D01*
X164463098Y-107217960D01*
X164587553Y-107518422D01*
X164651000Y-107837389D01*
X164651000Y-108162611D01*
X164587553Y-108481578D01*
X164463098Y-108782040D01*
X164282413Y-109052454D01*
X164052454Y-109282413D01*
X164052451Y-109282415D01*
X163782042Y-109463097D01*
X163481579Y-109587553D01*
X163375256Y-109608702D01*
X163162611Y-109651000D01*
X162837389Y-109651000D01*
X162624744Y-109608702D01*
X162518421Y-109587553D01*
X162217958Y-109463097D01*
X161947549Y-109282415D01*
X161947546Y-109282413D01*
X161717587Y-109052454D01*
X161536902Y-108782040D01*
X161412447Y-108481578D01*
X161349000Y-108162611D01*
X161349000Y-107837389D01*
X161412447Y-107518422D01*
X161536902Y-107217960D01*
X161717587Y-106947546D01*
X161947546Y-106717587D01*
X161951148Y-106715180D01*
X162217958Y-106536903D01*
X162219069Y-106536443D01*
X162305963Y-106500450D01*
X162518421Y-106412447D01*
X162624744Y-106391298D01*
X162837389Y-106349000D01*
X163162611Y-106349000D01*
X163375256Y-106391298D01*
X163375256Y-106391298D01*
G37*
G36*
X133375256Y-106391298D02*
X133481579Y-106412447D01*
X133694037Y-106500450D01*
X133780932Y-106536443D01*
X133782042Y-106536903D01*
X134048852Y-106715180D01*
X134052454Y-106717587D01*
X134282413Y-106947546D01*
X134463098Y-107217960D01*
X134587553Y-107518422D01*
X134651000Y-107837389D01*
X134651000Y-108162611D01*
X134587553Y-108481578D01*
X134463098Y-108782040D01*
X134282413Y-109052454D01*
X134052454Y-109282413D01*
X134052451Y-109282415D01*
X133782042Y-109463097D01*
X133481579Y-109587553D01*
X133375256Y-109608702D01*
X133162611Y-109651000D01*
X132837389Y-109651000D01*
X132624744Y-109608702D01*
X132518421Y-109587553D01*
X132217958Y-109463097D01*
X131947549Y-109282415D01*
X131947546Y-109282413D01*
X131717587Y-109052454D01*
X131536902Y-108782040D01*
X131412447Y-108481578D01*
X131349000Y-108162611D01*
X131349000Y-107837389D01*
X131412447Y-107518422D01*
X131536902Y-107217960D01*
X131717587Y-106947546D01*
X131947546Y-106717587D01*
X131951148Y-106715180D01*
X132217958Y-106536903D01*
X132219069Y-106536443D01*
X132305963Y-106500450D01*
X132518421Y-106412447D01*
X132624744Y-106391298D01*
X132837389Y-106349000D01*
X133162611Y-106349000D01*
X133375256Y-106391298D01*
X133375256Y-106391298D01*
G37*
G36*
X150650442Y-104805518D02*
X150716627Y-104812037D01*
X150829853Y-104846384D01*
X150886467Y-104863557D01*
X151025087Y-104937652D01*
X151042991Y-104947222D01*
X151078729Y-104976552D01*
X151180186Y-105059814D01*
X151263448Y-105161271D01*
X151292778Y-105197009D01*
X151292779Y-105197011D01*
X151376443Y-105353533D01*
X151376443Y-105353534D01*
X151427963Y-105523373D01*
X151445359Y-105700000D01*
X151427963Y-105876627D01*
X151393616Y-105989853D01*
X151376443Y-106046467D01*
X151302348Y-106185087D01*
X151292778Y-106202991D01*
X151263448Y-106238729D01*
X151180186Y-106340186D01*
X151092134Y-106412447D01*
X151042991Y-106452778D01*
X151042989Y-106452779D01*
X150886467Y-106536443D01*
X150829853Y-106553616D01*
X150716627Y-106587963D01*
X150650443Y-106594481D01*
X150584260Y-106601000D01*
X150495740Y-106601000D01*
X150429557Y-106594481D01*
X150363373Y-106587963D01*
X150250147Y-106553616D01*
X150193533Y-106536443D01*
X150037011Y-106452779D01*
X150037009Y-106452778D01*
X149987866Y-106412447D01*
X149899814Y-106340186D01*
X149816552Y-106238729D01*
X149787222Y-106202991D01*
X149777652Y-106185087D01*
X149703557Y-106046467D01*
X149686384Y-105989853D01*
X149652037Y-105876627D01*
X149634641Y-105700000D01*
X149652037Y-105523373D01*
X149703557Y-105353534D01*
X149703557Y-105353533D01*
X149787221Y-105197011D01*
X149787222Y-105197009D01*
X149816552Y-105161271D01*
X149899814Y-105059814D01*
X150001271Y-104976552D01*
X150037009Y-104947222D01*
X150054913Y-104937652D01*
X150193533Y-104863557D01*
X150250147Y-104846384D01*
X150363373Y-104812037D01*
X150429558Y-104805518D01*
X150495740Y-104799000D01*
X150584260Y-104799000D01*
X150650442Y-104805518D01*
X150650442Y-104805518D01*
G37*
G36*
X153190442Y-104805518D02*
X153256627Y-104812037D01*
X153369853Y-104846384D01*
X153426467Y-104863557D01*
X153565087Y-104937652D01*
X153582991Y-104947222D01*
X153618729Y-104976552D01*
X153720186Y-105059814D01*
X153803448Y-105161271D01*
X153832778Y-105197009D01*
X153832779Y-105197011D01*
X153916443Y-105353533D01*
X153916443Y-105353534D01*
X153967963Y-105523373D01*
X153985359Y-105700000D01*
X153967963Y-105876627D01*
X153933616Y-105989853D01*
X153916443Y-106046467D01*
X153842348Y-106185087D01*
X153832778Y-106202991D01*
X153803448Y-106238729D01*
X153720186Y-106340186D01*
X153632134Y-106412447D01*
X153582991Y-106452778D01*
X153582989Y-106452779D01*
X153426467Y-106536443D01*
X153369853Y-106553616D01*
X153256627Y-106587963D01*
X153190443Y-106594481D01*
X153124260Y-106601000D01*
X153035740Y-106601000D01*
X152969557Y-106594481D01*
X152903373Y-106587963D01*
X152790147Y-106553616D01*
X152733533Y-106536443D01*
X152577011Y-106452779D01*
X152577009Y-106452778D01*
X152527866Y-106412447D01*
X152439814Y-106340186D01*
X152356552Y-106238729D01*
X152327222Y-106202991D01*
X152317652Y-106185087D01*
X152243557Y-106046467D01*
X152226384Y-105989853D01*
X152192037Y-105876627D01*
X152174641Y-105700000D01*
X152192037Y-105523373D01*
X152243557Y-105353534D01*
X152243557Y-105353533D01*
X152327221Y-105197011D01*
X152327222Y-105197009D01*
X152356552Y-105161271D01*
X152439814Y-105059814D01*
X152541271Y-104976552D01*
X152577009Y-104947222D01*
X152594913Y-104937652D01*
X152733533Y-104863557D01*
X152790147Y-104846384D01*
X152903373Y-104812037D01*
X152969558Y-104805518D01*
X153035740Y-104799000D01*
X153124260Y-104799000D01*
X153190442Y-104805518D01*
X153190442Y-104805518D01*
G37*
G36*
X145570442Y-104805518D02*
X145636627Y-104812037D01*
X145749853Y-104846384D01*
X145806467Y-104863557D01*
X145945087Y-104937652D01*
X145962991Y-104947222D01*
X145998729Y-104976552D01*
X146100186Y-105059814D01*
X146183448Y-105161271D01*
X146212778Y-105197009D01*
X146212779Y-105197011D01*
X146296443Y-105353533D01*
X146296443Y-105353534D01*
X146347963Y-105523373D01*
X146365359Y-105700000D01*
X146347963Y-105876627D01*
X146313616Y-105989853D01*
X146296443Y-106046467D01*
X146222348Y-106185087D01*
X146212778Y-106202991D01*
X146183448Y-106238729D01*
X146100186Y-106340186D01*
X146012134Y-106412447D01*
X145962991Y-106452778D01*
X145962989Y-106452779D01*
X145806467Y-106536443D01*
X145749853Y-106553616D01*
X145636627Y-106587963D01*
X145570443Y-106594481D01*
X145504260Y-106601000D01*
X145415740Y-106601000D01*
X145349557Y-106594481D01*
X145283373Y-106587963D01*
X145170147Y-106553616D01*
X145113533Y-106536443D01*
X144957011Y-106452779D01*
X144957009Y-106452778D01*
X144907866Y-106412447D01*
X144819814Y-106340186D01*
X144736552Y-106238729D01*
X144707222Y-106202991D01*
X144697652Y-106185087D01*
X144623557Y-106046467D01*
X144606384Y-105989853D01*
X144572037Y-105876627D01*
X144554641Y-105700000D01*
X144572037Y-105523373D01*
X144623557Y-105353534D01*
X144623557Y-105353533D01*
X144707221Y-105197011D01*
X144707222Y-105197009D01*
X144736552Y-105161271D01*
X144819814Y-105059814D01*
X144921271Y-104976552D01*
X144957009Y-104947222D01*
X144974913Y-104937652D01*
X145113533Y-104863557D01*
X145170147Y-104846384D01*
X145283373Y-104812037D01*
X145349558Y-104805518D01*
X145415740Y-104799000D01*
X145504260Y-104799000D01*
X145570442Y-104805518D01*
X145570442Y-104805518D01*
G37*
G36*
X148110442Y-104805518D02*
X148176627Y-104812037D01*
X148289853Y-104846384D01*
X148346467Y-104863557D01*
X148485087Y-104937652D01*
X148502991Y-104947222D01*
X148538729Y-104976552D01*
X148640186Y-105059814D01*
X148723448Y-105161271D01*
X148752778Y-105197009D01*
X148752779Y-105197011D01*
X148836443Y-105353533D01*
X148836443Y-105353534D01*
X148887963Y-105523373D01*
X148905359Y-105700000D01*
X148887963Y-105876627D01*
X148853616Y-105989853D01*
X148836443Y-106046467D01*
X148762348Y-106185087D01*
X148752778Y-106202991D01*
X148723448Y-106238729D01*
X148640186Y-106340186D01*
X148552134Y-106412447D01*
X148502991Y-106452778D01*
X148502989Y-106452779D01*
X148346467Y-106536443D01*
X148289853Y-106553616D01*
X148176627Y-106587963D01*
X148110443Y-106594481D01*
X148044260Y-106601000D01*
X147955740Y-106601000D01*
X147889557Y-106594481D01*
X147823373Y-106587963D01*
X147710147Y-106553616D01*
X147653533Y-106536443D01*
X147497011Y-106452779D01*
X147497009Y-106452778D01*
X147447866Y-106412447D01*
X147359814Y-106340186D01*
X147276552Y-106238729D01*
X147247222Y-106202991D01*
X147237652Y-106185087D01*
X147163557Y-106046467D01*
X147146384Y-105989853D01*
X147112037Y-105876627D01*
X147094641Y-105700000D01*
X147112037Y-105523373D01*
X147163557Y-105353534D01*
X147163557Y-105353533D01*
X147247221Y-105197011D01*
X147247222Y-105197009D01*
X147276552Y-105161271D01*
X147359814Y-105059814D01*
X147461271Y-104976552D01*
X147497009Y-104947222D01*
X147514913Y-104937652D01*
X147653533Y-104863557D01*
X147710147Y-104846384D01*
X147823373Y-104812037D01*
X147889558Y-104805518D01*
X147955740Y-104799000D01*
X148044260Y-104799000D01*
X148110442Y-104805518D01*
X148110442Y-104805518D01*
G37*
G36*
X143821000Y-106601000D02*
X142019000Y-106601000D01*
X142019000Y-104799000D01*
X143821000Y-104799000D01*
X143821000Y-106601000D01*
X143821000Y-106601000D01*
G37*
G36*
X120936000Y-106576000D02*
X119184000Y-106576000D01*
X119184000Y-104824000D01*
X120936000Y-104824000D01*
X120936000Y-106576000D01*
X120936000Y-106576000D01*
G37*
G36*
X135726000Y-104446000D02*
X134874000Y-104446000D01*
X134874000Y-103144000D01*
X135726000Y-103144000D01*
X135726000Y-104446000D01*
X135726000Y-104446000D01*
G37*
G36*
X117688589Y-102332416D02*
X117815520Y-102357664D01*
X117974942Y-102423699D01*
X118118418Y-102519566D01*
X118240434Y-102641582D01*
X118336301Y-102785058D01*
X118402336Y-102944480D01*
X118436000Y-103113721D01*
X118436000Y-103286279D01*
X118402336Y-103455520D01*
X118336301Y-103614942D01*
X118240434Y-103758418D01*
X118118418Y-103880434D01*
X117974942Y-103976301D01*
X117815520Y-104042336D01*
X117721689Y-104061000D01*
X117646280Y-104076000D01*
X117473720Y-104076000D01*
X117398311Y-104061000D01*
X117304480Y-104042336D01*
X117145058Y-103976301D01*
X117001582Y-103880434D01*
X116879566Y-103758418D01*
X116783699Y-103614942D01*
X116717664Y-103455520D01*
X116684000Y-103286279D01*
X116684000Y-103113721D01*
X116717664Y-102944480D01*
X116783699Y-102785058D01*
X116879566Y-102641582D01*
X117001582Y-102519566D01*
X117145058Y-102423699D01*
X117304480Y-102357664D01*
X117431411Y-102332416D01*
X117473720Y-102324000D01*
X117646280Y-102324000D01*
X117688589Y-102332416D01*
X117688589Y-102332416D01*
G37*
G36*
X153190443Y-102265519D02*
X153256627Y-102272037D01*
X153369853Y-102306384D01*
X153426467Y-102323557D01*
X153515225Y-102371000D01*
X153582991Y-102407222D01*
X153603068Y-102423699D01*
X153720186Y-102519814D01*
X153803448Y-102621271D01*
X153832778Y-102657009D01*
X153832779Y-102657011D01*
X153916443Y-102813533D01*
X153916443Y-102813534D01*
X153967963Y-102983373D01*
X153985359Y-103160000D01*
X153967963Y-103336627D01*
X153933616Y-103449853D01*
X153916443Y-103506467D01*
X153858461Y-103614942D01*
X153832778Y-103662991D01*
X153803448Y-103698729D01*
X153720186Y-103800186D01*
X153622406Y-103880431D01*
X153582991Y-103912778D01*
X153582989Y-103912779D01*
X153426467Y-103996443D01*
X153369853Y-104013616D01*
X153256627Y-104047963D01*
X153190443Y-104054481D01*
X153124260Y-104061000D01*
X153035740Y-104061000D01*
X152969557Y-104054481D01*
X152903373Y-104047963D01*
X152790147Y-104013616D01*
X152733533Y-103996443D01*
X152577011Y-103912779D01*
X152577009Y-103912778D01*
X152537594Y-103880431D01*
X152439814Y-103800186D01*
X152356552Y-103698729D01*
X152327222Y-103662991D01*
X152301539Y-103614942D01*
X152243557Y-103506467D01*
X152226384Y-103449853D01*
X152192037Y-103336627D01*
X152174641Y-103160000D01*
X152192037Y-102983373D01*
X152243557Y-102813534D01*
X152243557Y-102813533D01*
X152327221Y-102657011D01*
X152327222Y-102657009D01*
X152356552Y-102621271D01*
X152439814Y-102519814D01*
X152556932Y-102423699D01*
X152577009Y-102407222D01*
X152644775Y-102371000D01*
X152733533Y-102323557D01*
X152790147Y-102306384D01*
X152903373Y-102272037D01*
X152969557Y-102265519D01*
X153035740Y-102259000D01*
X153124260Y-102259000D01*
X153190443Y-102265519D01*
X153190443Y-102265519D01*
G37*
G36*
X150650443Y-102265519D02*
X150716627Y-102272037D01*
X150829853Y-102306384D01*
X150886467Y-102323557D01*
X150975225Y-102371000D01*
X151042991Y-102407222D01*
X151063068Y-102423699D01*
X151180186Y-102519814D01*
X151263448Y-102621271D01*
X151292778Y-102657009D01*
X151292779Y-102657011D01*
X151376443Y-102813533D01*
X151376443Y-102813534D01*
X151427963Y-102983373D01*
X151445359Y-103160000D01*
X151427963Y-103336627D01*
X151393616Y-103449853D01*
X151376443Y-103506467D01*
X151318461Y-103614942D01*
X151292778Y-103662991D01*
X151263448Y-103698729D01*
X151180186Y-103800186D01*
X151082406Y-103880431D01*
X151042991Y-103912778D01*
X151042989Y-103912779D01*
X150886467Y-103996443D01*
X150829853Y-104013616D01*
X150716627Y-104047963D01*
X150650443Y-104054481D01*
X150584260Y-104061000D01*
X150495740Y-104061000D01*
X150429557Y-104054481D01*
X150363373Y-104047963D01*
X150250147Y-104013616D01*
X150193533Y-103996443D01*
X150037011Y-103912779D01*
X150037009Y-103912778D01*
X149997594Y-103880431D01*
X149899814Y-103800186D01*
X149816552Y-103698729D01*
X149787222Y-103662991D01*
X149761539Y-103614942D01*
X149703557Y-103506467D01*
X149686384Y-103449853D01*
X149652037Y-103336627D01*
X149634641Y-103160000D01*
X149652037Y-102983373D01*
X149703557Y-102813534D01*
X149703557Y-102813533D01*
X149787221Y-102657011D01*
X149787222Y-102657009D01*
X149816552Y-102621271D01*
X149899814Y-102519814D01*
X150016932Y-102423699D01*
X150037009Y-102407222D01*
X150104775Y-102371000D01*
X150193533Y-102323557D01*
X150250147Y-102306384D01*
X150363373Y-102272037D01*
X150429557Y-102265519D01*
X150495740Y-102259000D01*
X150584260Y-102259000D01*
X150650443Y-102265519D01*
X150650443Y-102265519D01*
G37*
G36*
X148110443Y-102265519D02*
X148176627Y-102272037D01*
X148289853Y-102306384D01*
X148346467Y-102323557D01*
X148435225Y-102371000D01*
X148502991Y-102407222D01*
X148523068Y-102423699D01*
X148640186Y-102519814D01*
X148723448Y-102621271D01*
X148752778Y-102657009D01*
X148752779Y-102657011D01*
X148836443Y-102813533D01*
X148836443Y-102813534D01*
X148887963Y-102983373D01*
X148905359Y-103160000D01*
X148887963Y-103336627D01*
X148853616Y-103449853D01*
X148836443Y-103506467D01*
X148778461Y-103614942D01*
X148752778Y-103662991D01*
X148723448Y-103698729D01*
X148640186Y-103800186D01*
X148542406Y-103880431D01*
X148502991Y-103912778D01*
X148502989Y-103912779D01*
X148346467Y-103996443D01*
X148289853Y-104013616D01*
X148176627Y-104047963D01*
X148110443Y-104054481D01*
X148044260Y-104061000D01*
X147955740Y-104061000D01*
X147889557Y-104054481D01*
X147823373Y-104047963D01*
X147710147Y-104013616D01*
X147653533Y-103996443D01*
X147497011Y-103912779D01*
X147497009Y-103912778D01*
X147457594Y-103880431D01*
X147359814Y-103800186D01*
X147276552Y-103698729D01*
X147247222Y-103662991D01*
X147221539Y-103614942D01*
X147163557Y-103506467D01*
X147146384Y-103449853D01*
X147112037Y-103336627D01*
X147094641Y-103160000D01*
X147112037Y-102983373D01*
X147163557Y-102813534D01*
X147163557Y-102813533D01*
X147247221Y-102657011D01*
X147247222Y-102657009D01*
X147276552Y-102621271D01*
X147359814Y-102519814D01*
X147476932Y-102423699D01*
X147497009Y-102407222D01*
X147564775Y-102371000D01*
X147653533Y-102323557D01*
X147710147Y-102306384D01*
X147823373Y-102272037D01*
X147889557Y-102265519D01*
X147955740Y-102259000D01*
X148044260Y-102259000D01*
X148110443Y-102265519D01*
X148110443Y-102265519D01*
G37*
G36*
X143030443Y-102265519D02*
X143096627Y-102272037D01*
X143209853Y-102306384D01*
X143266467Y-102323557D01*
X143355225Y-102371000D01*
X143422991Y-102407222D01*
X143443068Y-102423699D01*
X143560186Y-102519814D01*
X143643448Y-102621271D01*
X143672778Y-102657009D01*
X143672779Y-102657011D01*
X143756443Y-102813533D01*
X143756443Y-102813534D01*
X143807963Y-102983373D01*
X143825359Y-103160000D01*
X143807963Y-103336627D01*
X143773616Y-103449853D01*
X143756443Y-103506467D01*
X143698461Y-103614942D01*
X143672778Y-103662991D01*
X143643448Y-103698729D01*
X143560186Y-103800186D01*
X143462406Y-103880431D01*
X143422991Y-103912778D01*
X143422989Y-103912779D01*
X143266467Y-103996443D01*
X143209853Y-104013616D01*
X143096627Y-104047963D01*
X143030443Y-104054481D01*
X142964260Y-104061000D01*
X142875740Y-104061000D01*
X142809557Y-104054481D01*
X142743373Y-104047963D01*
X142630147Y-104013616D01*
X142573533Y-103996443D01*
X142417011Y-103912779D01*
X142417009Y-103912778D01*
X142377594Y-103880431D01*
X142279814Y-103800186D01*
X142196552Y-103698729D01*
X142167222Y-103662991D01*
X142141539Y-103614942D01*
X142083557Y-103506467D01*
X142066384Y-103449853D01*
X142032037Y-103336627D01*
X142014641Y-103160000D01*
X142032037Y-102983373D01*
X142083557Y-102813534D01*
X142083557Y-102813533D01*
X142167221Y-102657011D01*
X142167222Y-102657009D01*
X142196552Y-102621271D01*
X142279814Y-102519814D01*
X142396932Y-102423699D01*
X142417009Y-102407222D01*
X142484775Y-102371000D01*
X142573533Y-102323557D01*
X142630147Y-102306384D01*
X142743373Y-102272037D01*
X142809557Y-102265519D01*
X142875740Y-102259000D01*
X142964260Y-102259000D01*
X143030443Y-102265519D01*
X143030443Y-102265519D01*
G37*
G36*
X145570443Y-102265519D02*
X145636627Y-102272037D01*
X145749853Y-102306384D01*
X145806467Y-102323557D01*
X145895225Y-102371000D01*
X145962991Y-102407222D01*
X145983068Y-102423699D01*
X146100186Y-102519814D01*
X146183448Y-102621271D01*
X146212778Y-102657009D01*
X146212779Y-102657011D01*
X146296443Y-102813533D01*
X146296443Y-102813534D01*
X146347963Y-102983373D01*
X146365359Y-103160000D01*
X146347963Y-103336627D01*
X146313616Y-103449853D01*
X146296443Y-103506467D01*
X146238461Y-103614942D01*
X146212778Y-103662991D01*
X146183448Y-103698729D01*
X146100186Y-103800186D01*
X146002406Y-103880431D01*
X145962991Y-103912778D01*
X145962989Y-103912779D01*
X145806467Y-103996443D01*
X145749853Y-104013616D01*
X145636627Y-104047963D01*
X145570443Y-104054481D01*
X145504260Y-104061000D01*
X145415740Y-104061000D01*
X145349557Y-104054481D01*
X145283373Y-104047963D01*
X145170147Y-104013616D01*
X145113533Y-103996443D01*
X144957011Y-103912779D01*
X144957009Y-103912778D01*
X144917594Y-103880431D01*
X144819814Y-103800186D01*
X144736552Y-103698729D01*
X144707222Y-103662991D01*
X144681539Y-103614942D01*
X144623557Y-103506467D01*
X144606384Y-103449853D01*
X144572037Y-103336627D01*
X144554641Y-103160000D01*
X144572037Y-102983373D01*
X144623557Y-102813534D01*
X144623557Y-102813533D01*
X144707221Y-102657011D01*
X144707222Y-102657009D01*
X144736552Y-102621271D01*
X144819814Y-102519814D01*
X144936932Y-102423699D01*
X144957009Y-102407222D01*
X145024775Y-102371000D01*
X145113533Y-102323557D01*
X145170147Y-102306384D01*
X145283373Y-102272037D01*
X145349557Y-102265519D01*
X145415740Y-102259000D01*
X145504260Y-102259000D01*
X145570443Y-102265519D01*
X145570443Y-102265519D01*
G37*
G36*
X135726000Y-102546000D02*
X134874000Y-102546000D01*
X134874000Y-101244000D01*
X135726000Y-101244000D01*
X135726000Y-102546000D01*
X135726000Y-102546000D01*
G37*
G36*
X178981000Y-102371000D02*
X177979000Y-102371000D01*
X177979000Y-101069000D01*
X178981000Y-101069000D01*
X178981000Y-102371000D01*
X178981000Y-102371000D01*
G37*
G36*
X176441000Y-102371000D02*
X175439000Y-102371000D01*
X175439000Y-101069000D01*
X176441000Y-101069000D01*
X176441000Y-102371000D01*
X176441000Y-102371000D01*
G37*
G36*
X120188589Y-99832416D02*
X120315520Y-99857664D01*
X120474942Y-99923699D01*
X120618418Y-100019566D01*
X120740434Y-100141582D01*
X120836301Y-100285058D01*
X120902336Y-100444480D01*
X120936000Y-100613721D01*
X120936000Y-100786279D01*
X120902336Y-100955520D01*
X120836301Y-101114942D01*
X120740434Y-101258418D01*
X120618418Y-101380434D01*
X120474942Y-101476301D01*
X120315520Y-101542336D01*
X120188589Y-101567584D01*
X120146280Y-101576000D01*
X119973720Y-101576000D01*
X119931411Y-101567584D01*
X119804480Y-101542336D01*
X119645058Y-101476301D01*
X119501582Y-101380434D01*
X119379566Y-101258418D01*
X119283699Y-101114942D01*
X119217664Y-100955520D01*
X119184000Y-100786279D01*
X119184000Y-100613721D01*
X119217664Y-100444480D01*
X119283699Y-100285058D01*
X119379566Y-100141582D01*
X119501582Y-100019566D01*
X119645058Y-99923699D01*
X119804480Y-99857664D01*
X119931411Y-99832416D01*
X119973720Y-99824000D01*
X120146280Y-99824000D01*
X120188589Y-99832416D01*
X120188589Y-99832416D01*
G37*
G36*
X178981000Y-100171000D02*
X177979000Y-100171000D01*
X177979000Y-98869000D01*
X178981000Y-98869000D01*
X178981000Y-100171000D01*
X178981000Y-100171000D01*
G37*
G36*
X176441000Y-100171000D02*
X175439000Y-100171000D01*
X175439000Y-98869000D01*
X176441000Y-98869000D01*
X176441000Y-100171000D01*
X176441000Y-100171000D01*
G37*
G36*
X153901000Y-96041000D02*
X152599000Y-96041000D01*
X152599000Y-95039000D01*
X153901000Y-95039000D01*
X153901000Y-96041000D01*
X153901000Y-96041000D01*
G37*
G36*
X140861000Y-96041000D02*
X139559000Y-96041000D01*
X139559000Y-95039000D01*
X140861000Y-95039000D01*
X140861000Y-96041000D01*
X140861000Y-96041000D01*
G37*
G36*
X138661000Y-96041000D02*
X137359000Y-96041000D01*
X137359000Y-95039000D01*
X138661000Y-95039000D01*
X138661000Y-96041000D01*
X138661000Y-96041000D01*
G37*
G36*
X125621000Y-96041000D02*
X124319000Y-96041000D01*
X124319000Y-95039000D01*
X125621000Y-95039000D01*
X125621000Y-96041000D01*
X125621000Y-96041000D01*
G37*
G36*
X156101000Y-96041000D02*
X154799000Y-96041000D01*
X154799000Y-95039000D01*
X156101000Y-95039000D01*
X156101000Y-96041000D01*
X156101000Y-96041000D01*
G37*
G36*
X123421000Y-96041000D02*
X122119000Y-96041000D01*
X122119000Y-95039000D01*
X123421000Y-95039000D01*
X123421000Y-96041000D01*
X123421000Y-96041000D01*
G37*
G36*
X171341000Y-96041000D02*
X170039000Y-96041000D01*
X170039000Y-95039000D01*
X171341000Y-95039000D01*
X171341000Y-96041000D01*
X171341000Y-96041000D01*
G37*
G36*
X169141000Y-96041000D02*
X167839000Y-96041000D01*
X167839000Y-95039000D01*
X169141000Y-95039000D01*
X169141000Y-96041000D01*
X169141000Y-96041000D01*
G37*
G36*
X116967142Y-94268241D02*
X117115102Y-94329529D01*
X117248258Y-94418501D01*
X117361498Y-94531741D01*
X117450470Y-94664897D01*
X117511758Y-94812857D01*
X117543000Y-94969924D01*
X117543000Y-95130074D01*
X117511758Y-95287141D01*
X117450470Y-95435101D01*
X117361498Y-95568257D01*
X117248258Y-95681497D01*
X117115102Y-95770469D01*
X116967142Y-95831757D01*
X116810075Y-95862999D01*
X116649925Y-95862999D01*
X116492858Y-95831757D01*
X116344898Y-95770469D01*
X116211742Y-95681497D01*
X116098502Y-95568257D01*
X116009530Y-95435101D01*
X115948242Y-95287141D01*
X115917000Y-95130074D01*
X115917000Y-94969924D01*
X115948242Y-94812857D01*
X116009530Y-94664897D01*
X116098502Y-94531741D01*
X116211742Y-94418501D01*
X116344898Y-94329529D01*
X116492858Y-94268241D01*
X116649925Y-94236999D01*
X116810075Y-94236999D01*
X116967142Y-94268241D01*
X116967142Y-94268241D01*
G37*
G36*
X179507142Y-94268241D02*
X179655102Y-94329529D01*
X179788258Y-94418501D01*
X179901498Y-94531741D01*
X179990470Y-94664897D01*
X180051758Y-94812857D01*
X180083000Y-94969924D01*
X180083000Y-95130074D01*
X180051758Y-95287141D01*
X179990470Y-95435101D01*
X179901498Y-95568257D01*
X179788258Y-95681497D01*
X179655102Y-95770469D01*
X179507142Y-95831757D01*
X179350075Y-95862999D01*
X179189925Y-95862999D01*
X179032858Y-95831757D01*
X178884898Y-95770469D01*
X178751742Y-95681497D01*
X178638502Y-95568257D01*
X178549530Y-95435101D01*
X178488242Y-95287141D01*
X178457000Y-95130074D01*
X178457000Y-94969924D01*
X178488242Y-94812857D01*
X178549530Y-94664897D01*
X178638502Y-94531741D01*
X178751742Y-94418501D01*
X178884898Y-94329529D01*
X179032858Y-94268241D01*
X179189925Y-94236999D01*
X179350075Y-94236999D01*
X179507142Y-94268241D01*
X179507142Y-94268241D01*
G37*
G36*
X119507142Y-94268241D02*
X119655102Y-94329529D01*
X119788258Y-94418501D01*
X119901498Y-94531741D01*
X119990470Y-94664897D01*
X120051758Y-94812857D01*
X120083000Y-94969924D01*
X120083000Y-95130074D01*
X120051758Y-95287141D01*
X119990470Y-95435101D01*
X119901498Y-95568257D01*
X119788258Y-95681497D01*
X119655102Y-95770469D01*
X119507142Y-95831757D01*
X119350075Y-95862999D01*
X119189925Y-95862999D01*
X119032858Y-95831757D01*
X118884898Y-95770469D01*
X118751742Y-95681497D01*
X118638502Y-95568257D01*
X118549530Y-95435101D01*
X118488242Y-95287141D01*
X118457000Y-95130074D01*
X118457000Y-94969924D01*
X118488242Y-94812857D01*
X118549530Y-94664897D01*
X118638502Y-94531741D01*
X118751742Y-94418501D01*
X118884898Y-94329529D01*
X119032858Y-94268241D01*
X119189925Y-94236999D01*
X119350075Y-94236999D01*
X119507142Y-94268241D01*
X119507142Y-94268241D01*
G37*
G36*
X131967142Y-94268241D02*
X132115102Y-94329529D01*
X132248258Y-94418501D01*
X132361498Y-94531741D01*
X132450470Y-94664897D01*
X132511758Y-94812857D01*
X132543000Y-94969924D01*
X132543000Y-95130074D01*
X132511758Y-95287141D01*
X132450470Y-95435101D01*
X132361498Y-95568257D01*
X132248258Y-95681497D01*
X132115102Y-95770469D01*
X131967142Y-95831757D01*
X131810075Y-95862999D01*
X131649925Y-95862999D01*
X131492858Y-95831757D01*
X131344898Y-95770469D01*
X131211742Y-95681497D01*
X131098502Y-95568257D01*
X131009530Y-95435101D01*
X130948242Y-95287141D01*
X130917000Y-95130074D01*
X130917000Y-94969924D01*
X130948242Y-94812857D01*
X131009530Y-94664897D01*
X131098502Y-94531741D01*
X131211742Y-94418501D01*
X131344898Y-94329529D01*
X131492858Y-94268241D01*
X131649925Y-94236999D01*
X131810075Y-94236999D01*
X131967142Y-94268241D01*
X131967142Y-94268241D01*
G37*
G36*
X134507142Y-94268241D02*
X134655102Y-94329529D01*
X134788258Y-94418501D01*
X134901498Y-94531741D01*
X134990470Y-94664897D01*
X135051758Y-94812857D01*
X135083000Y-94969924D01*
X135083000Y-95130074D01*
X135051758Y-95287141D01*
X134990470Y-95435101D01*
X134901498Y-95568257D01*
X134788258Y-95681497D01*
X134655102Y-95770469D01*
X134507142Y-95831757D01*
X134350075Y-95862999D01*
X134189925Y-95862999D01*
X134032858Y-95831757D01*
X133884898Y-95770469D01*
X133751742Y-95681497D01*
X133638502Y-95568257D01*
X133549530Y-95435101D01*
X133488242Y-95287141D01*
X133457000Y-95130074D01*
X133457000Y-94969924D01*
X133488242Y-94812857D01*
X133549530Y-94664897D01*
X133638502Y-94531741D01*
X133751742Y-94418501D01*
X133884898Y-94329529D01*
X134032858Y-94268241D01*
X134189925Y-94236999D01*
X134350075Y-94236999D01*
X134507142Y-94268241D01*
X134507142Y-94268241D01*
G37*
G36*
X149507142Y-94268241D02*
X149655102Y-94329529D01*
X149788258Y-94418501D01*
X149901498Y-94531741D01*
X149990470Y-94664897D01*
X150051758Y-94812857D01*
X150083000Y-94969924D01*
X150083000Y-95130074D01*
X150051758Y-95287141D01*
X149990470Y-95435101D01*
X149901498Y-95568257D01*
X149788258Y-95681497D01*
X149655102Y-95770469D01*
X149507142Y-95831757D01*
X149350075Y-95862999D01*
X149189925Y-95862999D01*
X149032858Y-95831757D01*
X148884898Y-95770469D01*
X148751742Y-95681497D01*
X148638502Y-95568257D01*
X148549530Y-95435101D01*
X148488242Y-95287141D01*
X148457000Y-95130074D01*
X148457000Y-94969924D01*
X148488242Y-94812857D01*
X148549530Y-94664897D01*
X148638502Y-94531741D01*
X148751742Y-94418501D01*
X148884898Y-94329529D01*
X149032858Y-94268241D01*
X149189925Y-94236999D01*
X149350075Y-94236999D01*
X149507142Y-94268241D01*
X149507142Y-94268241D01*
G37*
G36*
X146967142Y-94268241D02*
X147115102Y-94329529D01*
X147248258Y-94418501D01*
X147361498Y-94531741D01*
X147450470Y-94664897D01*
X147511758Y-94812857D01*
X147543000Y-94969924D01*
X147543000Y-95130074D01*
X147511758Y-95287141D01*
X147450470Y-95435101D01*
X147361498Y-95568257D01*
X147248258Y-95681497D01*
X147115102Y-95770469D01*
X146967142Y-95831757D01*
X146810075Y-95862999D01*
X146649925Y-95862999D01*
X146492858Y-95831757D01*
X146344898Y-95770469D01*
X146211742Y-95681497D01*
X146098502Y-95568257D01*
X146009530Y-95435101D01*
X145948242Y-95287141D01*
X145917000Y-95130074D01*
X145917000Y-94969924D01*
X145948242Y-94812857D01*
X146009530Y-94664897D01*
X146098502Y-94531741D01*
X146211742Y-94418501D01*
X146344898Y-94329529D01*
X146492858Y-94268241D01*
X146649925Y-94236999D01*
X146810075Y-94236999D01*
X146967142Y-94268241D01*
X146967142Y-94268241D01*
G37*
G36*
X161967142Y-94268241D02*
X162115102Y-94329529D01*
X162248258Y-94418501D01*
X162361498Y-94531741D01*
X162450470Y-94664897D01*
X162511758Y-94812857D01*
X162543000Y-94969924D01*
X162543000Y-95130074D01*
X162511758Y-95287141D01*
X162450470Y-95435101D01*
X162361498Y-95568257D01*
X162248258Y-95681497D01*
X162115102Y-95770469D01*
X161967142Y-95831757D01*
X161810075Y-95862999D01*
X161649925Y-95862999D01*
X161492858Y-95831757D01*
X161344898Y-95770469D01*
X161211742Y-95681497D01*
X161098502Y-95568257D01*
X161009530Y-95435101D01*
X160948242Y-95287141D01*
X160917000Y-95130074D01*
X160917000Y-94969924D01*
X160948242Y-94812857D01*
X161009530Y-94664897D01*
X161098502Y-94531741D01*
X161211742Y-94418501D01*
X161344898Y-94329529D01*
X161492858Y-94268241D01*
X161649925Y-94236999D01*
X161810075Y-94236999D01*
X161967142Y-94268241D01*
X161967142Y-94268241D01*
G37*
G36*
X164507142Y-94268241D02*
X164655102Y-94329529D01*
X164788258Y-94418501D01*
X164901498Y-94531741D01*
X164990470Y-94664897D01*
X165051758Y-94812857D01*
X165083000Y-94969924D01*
X165083000Y-95130074D01*
X165051758Y-95287141D01*
X164990470Y-95435101D01*
X164901498Y-95568257D01*
X164788258Y-95681497D01*
X164655102Y-95770469D01*
X164507142Y-95831757D01*
X164350075Y-95862999D01*
X164189925Y-95862999D01*
X164032858Y-95831757D01*
X163884898Y-95770469D01*
X163751742Y-95681497D01*
X163638502Y-95568257D01*
X163549530Y-95435101D01*
X163488242Y-95287141D01*
X163457000Y-95130074D01*
X163457000Y-94969924D01*
X163488242Y-94812857D01*
X163549530Y-94664897D01*
X163638502Y-94531741D01*
X163751742Y-94418501D01*
X163884898Y-94329529D01*
X164032858Y-94268241D01*
X164189925Y-94236999D01*
X164350075Y-94236999D01*
X164507142Y-94268241D01*
X164507142Y-94268241D01*
G37*
G36*
X176967142Y-94268241D02*
X177115102Y-94329529D01*
X177248258Y-94418501D01*
X177361498Y-94531741D01*
X177450470Y-94664897D01*
X177511758Y-94812857D01*
X177543000Y-94969924D01*
X177543000Y-95130074D01*
X177511758Y-95287141D01*
X177450470Y-95435101D01*
X177361498Y-95568257D01*
X177248258Y-95681497D01*
X177115102Y-95770469D01*
X176967142Y-95831757D01*
X176810075Y-95862999D01*
X176649925Y-95862999D01*
X176492858Y-95831757D01*
X176344898Y-95770469D01*
X176211742Y-95681497D01*
X176098502Y-95568257D01*
X176009530Y-95435101D01*
X175948242Y-95287141D01*
X175917000Y-95130074D01*
X175917000Y-94969924D01*
X175948242Y-94812857D01*
X176009530Y-94664897D01*
X176098502Y-94531741D01*
X176211742Y-94418501D01*
X176344898Y-94329529D01*
X176492858Y-94268241D01*
X176649925Y-94236999D01*
X176810075Y-94236999D01*
X176967142Y-94268241D01*
X176967142Y-94268241D01*
G37*
G36*
X123421000Y-93501000D02*
X122119000Y-93501000D01*
X122119000Y-92499000D01*
X123421000Y-92499000D01*
X123421000Y-93501000D01*
X123421000Y-93501000D01*
G37*
G36*
X156101000Y-93501000D02*
X154799000Y-93501000D01*
X154799000Y-92499000D01*
X156101000Y-92499000D01*
X156101000Y-93501000D01*
X156101000Y-93501000D01*
G37*
G36*
X153901000Y-93501000D02*
X152599000Y-93501000D01*
X152599000Y-92499000D01*
X153901000Y-92499000D01*
X153901000Y-93501000D01*
X153901000Y-93501000D01*
G37*
G36*
X140861000Y-93501000D02*
X139559000Y-93501000D01*
X139559000Y-92499000D01*
X140861000Y-92499000D01*
X140861000Y-93501000D01*
X140861000Y-93501000D01*
G37*
G36*
X171341000Y-93501000D02*
X170039000Y-93501000D01*
X170039000Y-92499000D01*
X171341000Y-92499000D01*
X171341000Y-93501000D01*
X171341000Y-93501000D01*
G37*
G36*
X169141000Y-93501000D02*
X167839000Y-93501000D01*
X167839000Y-92499000D01*
X169141000Y-92499000D01*
X169141000Y-93501000D01*
X169141000Y-93501000D01*
G37*
G36*
X125621000Y-93501000D02*
X124319000Y-93501000D01*
X124319000Y-92499000D01*
X125621000Y-92499000D01*
X125621000Y-93501000D01*
X125621000Y-93501000D01*
G37*
G36*
X138661000Y-93501000D02*
X137359000Y-93501000D01*
X137359000Y-92499000D01*
X138661000Y-92499000D01*
X138661000Y-93501000D01*
X138661000Y-93501000D01*
G37*
G36*
X146967142Y-90168242D02*
X147115102Y-90229530D01*
X147248258Y-90318502D01*
X147361498Y-90431742D01*
X147450470Y-90564898D01*
X147511758Y-90712858D01*
X147543000Y-90869925D01*
X147543000Y-91030075D01*
X147511758Y-91187142D01*
X147450470Y-91335102D01*
X147361498Y-91468258D01*
X147248258Y-91581498D01*
X147115102Y-91670470D01*
X146967142Y-91731758D01*
X146810075Y-91763000D01*
X146649925Y-91763000D01*
X146492858Y-91731758D01*
X146344898Y-91670470D01*
X146211742Y-91581498D01*
X146098502Y-91468258D01*
X146009530Y-91335102D01*
X145948242Y-91187142D01*
X145917000Y-91030075D01*
X145917000Y-90869925D01*
X145948242Y-90712858D01*
X146009530Y-90564898D01*
X146098502Y-90431742D01*
X146211742Y-90318502D01*
X146344898Y-90229530D01*
X146492858Y-90168242D01*
X146649925Y-90137000D01*
X146810075Y-90137000D01*
X146967142Y-90168242D01*
X146967142Y-90168242D01*
G37*
G36*
X119507142Y-90168242D02*
X119655102Y-90229530D01*
X119788258Y-90318502D01*
X119901498Y-90431742D01*
X119990470Y-90564898D01*
X120051758Y-90712858D01*
X120083000Y-90869925D01*
X120083000Y-91030075D01*
X120051758Y-91187142D01*
X119990470Y-91335102D01*
X119901498Y-91468258D01*
X119788258Y-91581498D01*
X119655102Y-91670470D01*
X119507142Y-91731758D01*
X119350075Y-91763000D01*
X119189925Y-91763000D01*
X119032858Y-91731758D01*
X118884898Y-91670470D01*
X118751742Y-91581498D01*
X118638502Y-91468258D01*
X118549530Y-91335102D01*
X118488242Y-91187142D01*
X118457000Y-91030075D01*
X118457000Y-90869925D01*
X118488242Y-90712858D01*
X118549530Y-90564898D01*
X118638502Y-90431742D01*
X118751742Y-90318502D01*
X118884898Y-90229530D01*
X119032858Y-90168242D01*
X119189925Y-90137000D01*
X119350075Y-90137000D01*
X119507142Y-90168242D01*
X119507142Y-90168242D01*
G37*
G36*
X131967142Y-90168242D02*
X132115102Y-90229530D01*
X132248258Y-90318502D01*
X132361498Y-90431742D01*
X132450470Y-90564898D01*
X132511758Y-90712858D01*
X132543000Y-90869925D01*
X132543000Y-91030075D01*
X132511758Y-91187142D01*
X132450470Y-91335102D01*
X132361498Y-91468258D01*
X132248258Y-91581498D01*
X132115102Y-91670470D01*
X131967142Y-91731758D01*
X131810075Y-91763000D01*
X131649925Y-91763000D01*
X131492858Y-91731758D01*
X131344898Y-91670470D01*
X131211742Y-91581498D01*
X131098502Y-91468258D01*
X131009530Y-91335102D01*
X130948242Y-91187142D01*
X130917000Y-91030075D01*
X130917000Y-90869925D01*
X130948242Y-90712858D01*
X131009530Y-90564898D01*
X131098502Y-90431742D01*
X131211742Y-90318502D01*
X131344898Y-90229530D01*
X131492858Y-90168242D01*
X131649925Y-90137000D01*
X131810075Y-90137000D01*
X131967142Y-90168242D01*
X131967142Y-90168242D01*
G37*
G36*
X134507142Y-90168242D02*
X134655102Y-90229530D01*
X134788258Y-90318502D01*
X134901498Y-90431742D01*
X134990470Y-90564898D01*
X135051758Y-90712858D01*
X135083000Y-90869925D01*
X135083000Y-91030075D01*
X135051758Y-91187142D01*
X134990470Y-91335102D01*
X134901498Y-91468258D01*
X134788258Y-91581498D01*
X134655102Y-91670470D01*
X134507142Y-91731758D01*
X134350075Y-91763000D01*
X134189925Y-91763000D01*
X134032858Y-91731758D01*
X133884898Y-91670470D01*
X133751742Y-91581498D01*
X133638502Y-91468258D01*
X133549530Y-91335102D01*
X133488242Y-91187142D01*
X133457000Y-91030075D01*
X133457000Y-90869925D01*
X133488242Y-90712858D01*
X133549530Y-90564898D01*
X133638502Y-90431742D01*
X133751742Y-90318502D01*
X133884898Y-90229530D01*
X134032858Y-90168242D01*
X134189925Y-90137000D01*
X134350075Y-90137000D01*
X134507142Y-90168242D01*
X134507142Y-90168242D01*
G37*
G36*
X161967142Y-90168242D02*
X162115102Y-90229530D01*
X162248258Y-90318502D01*
X162361498Y-90431742D01*
X162450470Y-90564898D01*
X162511758Y-90712858D01*
X162543000Y-90869925D01*
X162543000Y-91030075D01*
X162511758Y-91187142D01*
X162450470Y-91335102D01*
X162361498Y-91468258D01*
X162248258Y-91581498D01*
X162115102Y-91670470D01*
X161967142Y-91731758D01*
X161810075Y-91763000D01*
X161649925Y-91763000D01*
X161492858Y-91731758D01*
X161344898Y-91670470D01*
X161211742Y-91581498D01*
X161098502Y-91468258D01*
X161009530Y-91335102D01*
X160948242Y-91187142D01*
X160917000Y-91030075D01*
X160917000Y-90869925D01*
X160948242Y-90712858D01*
X161009530Y-90564898D01*
X161098502Y-90431742D01*
X161211742Y-90318502D01*
X161344898Y-90229530D01*
X161492858Y-90168242D01*
X161649925Y-90137000D01*
X161810075Y-90137000D01*
X161967142Y-90168242D01*
X161967142Y-90168242D01*
G37*
G36*
X116967142Y-90168242D02*
X117115102Y-90229530D01*
X117248258Y-90318502D01*
X117361498Y-90431742D01*
X117450470Y-90564898D01*
X117511758Y-90712858D01*
X117543000Y-90869925D01*
X117543000Y-91030075D01*
X117511758Y-91187142D01*
X117450470Y-91335102D01*
X117361498Y-91468258D01*
X117248258Y-91581498D01*
X117115102Y-91670470D01*
X116967142Y-91731758D01*
X116810075Y-91763000D01*
X116649925Y-91763000D01*
X116492858Y-91731758D01*
X116344898Y-91670470D01*
X116211742Y-91581498D01*
X116098502Y-91468258D01*
X116009530Y-91335102D01*
X115948242Y-91187142D01*
X115917000Y-91030075D01*
X115917000Y-90869925D01*
X115948242Y-90712858D01*
X116009530Y-90564898D01*
X116098502Y-90431742D01*
X116211742Y-90318502D01*
X116344898Y-90229530D01*
X116492858Y-90168242D01*
X116649925Y-90137000D01*
X116810075Y-90137000D01*
X116967142Y-90168242D01*
X116967142Y-90168242D01*
G37*
G36*
X176967142Y-90168242D02*
X177115102Y-90229530D01*
X177248258Y-90318502D01*
X177361498Y-90431742D01*
X177450470Y-90564898D01*
X177511758Y-90712858D01*
X177543000Y-90869925D01*
X177543000Y-91030075D01*
X177511758Y-91187142D01*
X177450470Y-91335102D01*
X177361498Y-91468258D01*
X177248258Y-91581498D01*
X177115102Y-91670470D01*
X176967142Y-91731758D01*
X176810075Y-91763000D01*
X176649925Y-91763000D01*
X176492858Y-91731758D01*
X176344898Y-91670470D01*
X176211742Y-91581498D01*
X176098502Y-91468258D01*
X176009530Y-91335102D01*
X175948242Y-91187142D01*
X175917000Y-91030075D01*
X175917000Y-90869925D01*
X175948242Y-90712858D01*
X176009530Y-90564898D01*
X176098502Y-90431742D01*
X176211742Y-90318502D01*
X176344898Y-90229530D01*
X176492858Y-90168242D01*
X176649925Y-90137000D01*
X176810075Y-90137000D01*
X176967142Y-90168242D01*
X176967142Y-90168242D01*
G37*
G36*
X149507142Y-90168242D02*
X149655102Y-90229530D01*
X149788258Y-90318502D01*
X149901498Y-90431742D01*
X149990470Y-90564898D01*
X150051758Y-90712858D01*
X150083000Y-90869925D01*
X150083000Y-91030075D01*
X150051758Y-91187142D01*
X149990470Y-91335102D01*
X149901498Y-91468258D01*
X149788258Y-91581498D01*
X149655102Y-91670470D01*
X149507142Y-91731758D01*
X149350075Y-91763000D01*
X149189925Y-91763000D01*
X149032858Y-91731758D01*
X148884898Y-91670470D01*
X148751742Y-91581498D01*
X148638502Y-91468258D01*
X148549530Y-91335102D01*
X148488242Y-91187142D01*
X148457000Y-91030075D01*
X148457000Y-90869925D01*
X148488242Y-90712858D01*
X148549530Y-90564898D01*
X148638502Y-90431742D01*
X148751742Y-90318502D01*
X148884898Y-90229530D01*
X149032858Y-90168242D01*
X149189925Y-90137000D01*
X149350075Y-90137000D01*
X149507142Y-90168242D01*
X149507142Y-90168242D01*
G37*
G36*
X179507142Y-90168242D02*
X179655102Y-90229530D01*
X179788258Y-90318502D01*
X179901498Y-90431742D01*
X179990470Y-90564898D01*
X180051758Y-90712858D01*
X180083000Y-90869925D01*
X180083000Y-91030075D01*
X180051758Y-91187142D01*
X179990470Y-91335102D01*
X179901498Y-91468258D01*
X179788258Y-91581498D01*
X179655102Y-91670470D01*
X179507142Y-91731758D01*
X179350075Y-91763000D01*
X179189925Y-91763000D01*
X179032858Y-91731758D01*
X178884898Y-91670470D01*
X178751742Y-91581498D01*
X178638502Y-91468258D01*
X178549530Y-91335102D01*
X178488242Y-91187142D01*
X178457000Y-91030075D01*
X178457000Y-90869925D01*
X178488242Y-90712858D01*
X178549530Y-90564898D01*
X178638502Y-90431742D01*
X178751742Y-90318502D01*
X178884898Y-90229530D01*
X179032858Y-90168242D01*
X179189925Y-90137000D01*
X179350075Y-90137000D01*
X179507142Y-90168242D01*
X179507142Y-90168242D01*
G37*
G36*
X164507142Y-90168242D02*
X164655102Y-90229530D01*
X164788258Y-90318502D01*
X164901498Y-90431742D01*
X164990470Y-90564898D01*
X165051758Y-90712858D01*
X165083000Y-90869925D01*
X165083000Y-91030075D01*
X165051758Y-91187142D01*
X164990470Y-91335102D01*
X164901498Y-91468258D01*
X164788258Y-91581498D01*
X164655102Y-91670470D01*
X164507142Y-91731758D01*
X164350075Y-91763000D01*
X164189925Y-91763000D01*
X164032858Y-91731758D01*
X163884898Y-91670470D01*
X163751742Y-91581498D01*
X163638502Y-91468258D01*
X163549530Y-91335102D01*
X163488242Y-91187142D01*
X163457000Y-91030075D01*
X163457000Y-90869925D01*
X163488242Y-90712858D01*
X163549530Y-90564898D01*
X163638502Y-90431742D01*
X163751742Y-90318502D01*
X163884898Y-90229530D01*
X164032858Y-90168242D01*
X164189925Y-90137000D01*
X164350075Y-90137000D01*
X164507142Y-90168242D01*
X164507142Y-90168242D01*
G37*
G36*
X163375256Y-79391298D02*
X163481579Y-79412447D01*
X163694037Y-79500450D01*
X163780932Y-79536443D01*
X163782042Y-79536903D01*
X164048852Y-79715180D01*
X164052454Y-79717587D01*
X164282413Y-79947546D01*
X164463098Y-80217960D01*
X164587553Y-80518422D01*
X164651000Y-80837389D01*
X164651000Y-81162611D01*
X164587553Y-81481578D01*
X164463098Y-81782040D01*
X164282413Y-82052454D01*
X164052454Y-82282413D01*
X164052451Y-82282415D01*
X163782042Y-82463097D01*
X163481579Y-82587553D01*
X163375256Y-82608702D01*
X163162611Y-82651000D01*
X162837389Y-82651000D01*
X162624744Y-82608702D01*
X162518421Y-82587553D01*
X162217958Y-82463097D01*
X161947549Y-82282415D01*
X161947546Y-82282413D01*
X161717587Y-82052454D01*
X161536902Y-81782040D01*
X161412447Y-81481578D01*
X161349000Y-81162611D01*
X161349000Y-80837389D01*
X161412447Y-80518422D01*
X161536902Y-80217960D01*
X161717587Y-79947546D01*
X161947546Y-79717587D01*
X161951148Y-79715180D01*
X162217958Y-79536903D01*
X162219069Y-79536443D01*
X162305963Y-79500450D01*
X162518421Y-79412447D01*
X162624744Y-79391298D01*
X162837389Y-79349000D01*
X163162611Y-79349000D01*
X163375256Y-79391298D01*
X163375256Y-79391298D01*
G37*
G36*
X133375256Y-79391298D02*
X133481579Y-79412447D01*
X133694037Y-79500450D01*
X133780932Y-79536443D01*
X133782042Y-79536903D01*
X134048852Y-79715180D01*
X134052454Y-79717587D01*
X134282413Y-79947546D01*
X134463098Y-80217960D01*
X134587553Y-80518422D01*
X134651000Y-80837389D01*
X134651000Y-81162611D01*
X134587553Y-81481578D01*
X134463098Y-81782040D01*
X134282413Y-82052454D01*
X134052454Y-82282413D01*
X134052451Y-82282415D01*
X133782042Y-82463097D01*
X133481579Y-82587553D01*
X133375256Y-82608702D01*
X133162611Y-82651000D01*
X132837389Y-82651000D01*
X132624744Y-82608702D01*
X132518421Y-82587553D01*
X132217958Y-82463097D01*
X131947549Y-82282415D01*
X131947546Y-82282413D01*
X131717587Y-82052454D01*
X131536902Y-81782040D01*
X131412447Y-81481578D01*
X131349000Y-81162611D01*
X131349000Y-80837389D01*
X131412447Y-80518422D01*
X131536902Y-80217960D01*
X131717587Y-79947546D01*
X131947546Y-79717587D01*
X131951148Y-79715180D01*
X132217958Y-79536903D01*
X132219069Y-79536443D01*
X132305963Y-79500450D01*
X132518421Y-79412447D01*
X132624744Y-79391298D01*
X132837389Y-79349000D01*
X133162611Y-79349000D01*
X133375256Y-79391298D01*
X133375256Y-79391298D01*
G37*
G36*
X148110443Y-77805519D02*
X148176627Y-77812037D01*
X148289853Y-77846384D01*
X148346467Y-77863557D01*
X148485087Y-77937652D01*
X148502991Y-77947222D01*
X148538729Y-77976552D01*
X148640186Y-78059814D01*
X148723448Y-78161271D01*
X148752778Y-78197009D01*
X148752779Y-78197011D01*
X148836443Y-78353533D01*
X148836443Y-78353534D01*
X148887963Y-78523373D01*
X148905359Y-78700000D01*
X148887963Y-78876627D01*
X148853616Y-78989853D01*
X148836443Y-79046467D01*
X148762348Y-79185087D01*
X148752778Y-79202991D01*
X148723448Y-79238729D01*
X148640186Y-79340186D01*
X148552134Y-79412447D01*
X148502991Y-79452778D01*
X148502989Y-79452779D01*
X148346467Y-79536443D01*
X148289853Y-79553616D01*
X148176627Y-79587963D01*
X148110442Y-79594482D01*
X148044260Y-79601000D01*
X147955740Y-79601000D01*
X147889558Y-79594482D01*
X147823373Y-79587963D01*
X147710147Y-79553616D01*
X147653533Y-79536443D01*
X147497011Y-79452779D01*
X147497009Y-79452778D01*
X147447866Y-79412447D01*
X147359814Y-79340186D01*
X147276552Y-79238729D01*
X147247222Y-79202991D01*
X147237652Y-79185087D01*
X147163557Y-79046467D01*
X147146384Y-78989853D01*
X147112037Y-78876627D01*
X147094641Y-78700000D01*
X147112037Y-78523373D01*
X147163557Y-78353534D01*
X147163557Y-78353533D01*
X147247221Y-78197011D01*
X147247222Y-78197009D01*
X147276552Y-78161271D01*
X147359814Y-78059814D01*
X147461271Y-77976552D01*
X147497009Y-77947222D01*
X147514913Y-77937652D01*
X147653533Y-77863557D01*
X147710147Y-77846384D01*
X147823373Y-77812037D01*
X147889557Y-77805519D01*
X147955740Y-77799000D01*
X148044260Y-77799000D01*
X148110443Y-77805519D01*
X148110443Y-77805519D01*
G37*
G36*
X145570443Y-77805519D02*
X145636627Y-77812037D01*
X145749853Y-77846384D01*
X145806467Y-77863557D01*
X145945087Y-77937652D01*
X145962991Y-77947222D01*
X145998729Y-77976552D01*
X146100186Y-78059814D01*
X146183448Y-78161271D01*
X146212778Y-78197009D01*
X146212779Y-78197011D01*
X146296443Y-78353533D01*
X146296443Y-78353534D01*
X146347963Y-78523373D01*
X146365359Y-78700000D01*
X146347963Y-78876627D01*
X146313616Y-78989853D01*
X146296443Y-79046467D01*
X146222348Y-79185087D01*
X146212778Y-79202991D01*
X146183448Y-79238729D01*
X146100186Y-79340186D01*
X146012134Y-79412447D01*
X145962991Y-79452778D01*
X145962989Y-79452779D01*
X145806467Y-79536443D01*
X145749853Y-79553616D01*
X145636627Y-79587963D01*
X145570442Y-79594482D01*
X145504260Y-79601000D01*
X145415740Y-79601000D01*
X145349558Y-79594482D01*
X145283373Y-79587963D01*
X145170147Y-79553616D01*
X145113533Y-79536443D01*
X144957011Y-79452779D01*
X144957009Y-79452778D01*
X144907866Y-79412447D01*
X144819814Y-79340186D01*
X144736552Y-79238729D01*
X144707222Y-79202991D01*
X144697652Y-79185087D01*
X144623557Y-79046467D01*
X144606384Y-78989853D01*
X144572037Y-78876627D01*
X144554641Y-78700000D01*
X144572037Y-78523373D01*
X144623557Y-78353534D01*
X144623557Y-78353533D01*
X144707221Y-78197011D01*
X144707222Y-78197009D01*
X144736552Y-78161271D01*
X144819814Y-78059814D01*
X144921271Y-77976552D01*
X144957009Y-77947222D01*
X144974913Y-77937652D01*
X145113533Y-77863557D01*
X145170147Y-77846384D01*
X145283373Y-77812037D01*
X145349557Y-77805519D01*
X145415740Y-77799000D01*
X145504260Y-77799000D01*
X145570443Y-77805519D01*
X145570443Y-77805519D01*
G37*
G36*
X143821000Y-79601000D02*
X142019000Y-79601000D01*
X142019000Y-77799000D01*
X143821000Y-77799000D01*
X143821000Y-79601000D01*
X143821000Y-79601000D01*
G37*
G36*
X150650443Y-77805519D02*
X150716627Y-77812037D01*
X150829853Y-77846384D01*
X150886467Y-77863557D01*
X151025087Y-77937652D01*
X151042991Y-77947222D01*
X151078729Y-77976552D01*
X151180186Y-78059814D01*
X151263448Y-78161271D01*
X151292778Y-78197009D01*
X151292779Y-78197011D01*
X151376443Y-78353533D01*
X151376443Y-78353534D01*
X151427963Y-78523373D01*
X151445359Y-78700000D01*
X151427963Y-78876627D01*
X151393616Y-78989853D01*
X151376443Y-79046467D01*
X151302348Y-79185087D01*
X151292778Y-79202991D01*
X151263448Y-79238729D01*
X151180186Y-79340186D01*
X151092134Y-79412447D01*
X151042991Y-79452778D01*
X151042989Y-79452779D01*
X150886467Y-79536443D01*
X150829853Y-79553616D01*
X150716627Y-79587963D01*
X150650442Y-79594482D01*
X150584260Y-79601000D01*
X150495740Y-79601000D01*
X150429558Y-79594482D01*
X150363373Y-79587963D01*
X150250147Y-79553616D01*
X150193533Y-79536443D01*
X150037011Y-79452779D01*
X150037009Y-79452778D01*
X149987866Y-79412447D01*
X149899814Y-79340186D01*
X149816552Y-79238729D01*
X149787222Y-79202991D01*
X149777652Y-79185087D01*
X149703557Y-79046467D01*
X149686384Y-78989853D01*
X149652037Y-78876627D01*
X149634641Y-78700000D01*
X149652037Y-78523373D01*
X149703557Y-78353534D01*
X149703557Y-78353533D01*
X149787221Y-78197011D01*
X149787222Y-78197009D01*
X149816552Y-78161271D01*
X149899814Y-78059814D01*
X150001271Y-77976552D01*
X150037009Y-77947222D01*
X150054913Y-77937652D01*
X150193533Y-77863557D01*
X150250147Y-77846384D01*
X150363373Y-77812037D01*
X150429557Y-77805519D01*
X150495740Y-77799000D01*
X150584260Y-77799000D01*
X150650443Y-77805519D01*
X150650443Y-77805519D01*
G37*
G36*
X153190443Y-77805519D02*
X153256627Y-77812037D01*
X153369853Y-77846384D01*
X153426467Y-77863557D01*
X153565087Y-77937652D01*
X153582991Y-77947222D01*
X153618729Y-77976552D01*
X153720186Y-78059814D01*
X153803448Y-78161271D01*
X153832778Y-78197009D01*
X153832779Y-78197011D01*
X153916443Y-78353533D01*
X153916443Y-78353534D01*
X153967963Y-78523373D01*
X153985359Y-78700000D01*
X153967963Y-78876627D01*
X153933616Y-78989853D01*
X153916443Y-79046467D01*
X153842348Y-79185087D01*
X153832778Y-79202991D01*
X153803448Y-79238729D01*
X153720186Y-79340186D01*
X153632134Y-79412447D01*
X153582991Y-79452778D01*
X153582989Y-79452779D01*
X153426467Y-79536443D01*
X153369853Y-79553616D01*
X153256627Y-79587963D01*
X153190442Y-79594482D01*
X153124260Y-79601000D01*
X153035740Y-79601000D01*
X152969558Y-79594482D01*
X152903373Y-79587963D01*
X152790147Y-79553616D01*
X152733533Y-79536443D01*
X152577011Y-79452779D01*
X152577009Y-79452778D01*
X152527866Y-79412447D01*
X152439814Y-79340186D01*
X152356552Y-79238729D01*
X152327222Y-79202991D01*
X152317652Y-79185087D01*
X152243557Y-79046467D01*
X152226384Y-78989853D01*
X152192037Y-78876627D01*
X152174641Y-78700000D01*
X152192037Y-78523373D01*
X152243557Y-78353534D01*
X152243557Y-78353533D01*
X152327221Y-78197011D01*
X152327222Y-78197009D01*
X152356552Y-78161271D01*
X152439814Y-78059814D01*
X152541271Y-77976552D01*
X152577009Y-77947222D01*
X152594913Y-77937652D01*
X152733533Y-77863557D01*
X152790147Y-77846384D01*
X152903373Y-77812037D01*
X152969557Y-77805519D01*
X153035740Y-77799000D01*
X153124260Y-77799000D01*
X153190443Y-77805519D01*
X153190443Y-77805519D01*
G37*
G36*
X120936000Y-79576000D02*
X119184000Y-79576000D01*
X119184000Y-77824000D01*
X120936000Y-77824000D01*
X120936000Y-79576000D01*
X120936000Y-79576000D01*
G37*
G36*
X135726000Y-77446000D02*
X134874000Y-77446000D01*
X134874000Y-76144000D01*
X135726000Y-76144000D01*
X135726000Y-77446000D01*
X135726000Y-77446000D01*
G37*
G36*
X117688589Y-75332416D02*
X117815520Y-75357664D01*
X117974942Y-75423699D01*
X118118418Y-75519566D01*
X118240434Y-75641582D01*
X118336301Y-75785058D01*
X118402336Y-75944480D01*
X118436000Y-76113721D01*
X118436000Y-76286279D01*
X118402336Y-76455520D01*
X118336301Y-76614942D01*
X118240434Y-76758418D01*
X118118418Y-76880434D01*
X117974942Y-76976301D01*
X117815520Y-77042336D01*
X117721689Y-77061000D01*
X117646280Y-77076000D01*
X117473720Y-77076000D01*
X117398311Y-77061000D01*
X117304480Y-77042336D01*
X117145058Y-76976301D01*
X117001582Y-76880434D01*
X116879566Y-76758418D01*
X116783699Y-76614942D01*
X116717664Y-76455520D01*
X116684000Y-76286279D01*
X116684000Y-76113721D01*
X116717664Y-75944480D01*
X116783699Y-75785058D01*
X116879566Y-75641582D01*
X117001582Y-75519566D01*
X117145058Y-75423699D01*
X117304480Y-75357664D01*
X117431411Y-75332416D01*
X117473720Y-75324000D01*
X117646280Y-75324000D01*
X117688589Y-75332416D01*
X117688589Y-75332416D01*
G37*
G36*
X143030442Y-75265518D02*
X143096627Y-75272037D01*
X143209853Y-75306384D01*
X143266467Y-75323557D01*
X143355225Y-75371000D01*
X143422991Y-75407222D01*
X143443068Y-75423699D01*
X143560186Y-75519814D01*
X143643448Y-75621271D01*
X143672778Y-75657009D01*
X143672779Y-75657011D01*
X143756443Y-75813533D01*
X143756443Y-75813534D01*
X143807963Y-75983373D01*
X143825359Y-76160000D01*
X143807963Y-76336627D01*
X143773616Y-76449853D01*
X143756443Y-76506467D01*
X143698461Y-76614942D01*
X143672778Y-76662991D01*
X143643448Y-76698729D01*
X143560186Y-76800186D01*
X143462406Y-76880431D01*
X143422991Y-76912778D01*
X143422989Y-76912779D01*
X143266467Y-76996443D01*
X143209853Y-77013616D01*
X143096627Y-77047963D01*
X143030443Y-77054481D01*
X142964260Y-77061000D01*
X142875740Y-77061000D01*
X142809557Y-77054481D01*
X142743373Y-77047963D01*
X142630147Y-77013616D01*
X142573533Y-76996443D01*
X142417011Y-76912779D01*
X142417009Y-76912778D01*
X142377594Y-76880431D01*
X142279814Y-76800186D01*
X142196552Y-76698729D01*
X142167222Y-76662991D01*
X142141539Y-76614942D01*
X142083557Y-76506467D01*
X142066384Y-76449853D01*
X142032037Y-76336627D01*
X142014641Y-76160000D01*
X142032037Y-75983373D01*
X142083557Y-75813534D01*
X142083557Y-75813533D01*
X142167221Y-75657011D01*
X142167222Y-75657009D01*
X142196552Y-75621271D01*
X142279814Y-75519814D01*
X142396932Y-75423699D01*
X142417009Y-75407222D01*
X142484775Y-75371000D01*
X142573533Y-75323557D01*
X142630147Y-75306384D01*
X142743373Y-75272037D01*
X142809558Y-75265518D01*
X142875740Y-75259000D01*
X142964260Y-75259000D01*
X143030442Y-75265518D01*
X143030442Y-75265518D01*
G37*
G36*
X145570442Y-75265518D02*
X145636627Y-75272037D01*
X145749853Y-75306384D01*
X145806467Y-75323557D01*
X145895225Y-75371000D01*
X145962991Y-75407222D01*
X145983068Y-75423699D01*
X146100186Y-75519814D01*
X146183448Y-75621271D01*
X146212778Y-75657009D01*
X146212779Y-75657011D01*
X146296443Y-75813533D01*
X146296443Y-75813534D01*
X146347963Y-75983373D01*
X146365359Y-76160000D01*
X146347963Y-76336627D01*
X146313616Y-76449853D01*
X146296443Y-76506467D01*
X146238461Y-76614942D01*
X146212778Y-76662991D01*
X146183448Y-76698729D01*
X146100186Y-76800186D01*
X146002406Y-76880431D01*
X145962991Y-76912778D01*
X145962989Y-76912779D01*
X145806467Y-76996443D01*
X145749853Y-77013616D01*
X145636627Y-77047963D01*
X145570443Y-77054481D01*
X145504260Y-77061000D01*
X145415740Y-77061000D01*
X145349557Y-77054481D01*
X145283373Y-77047963D01*
X145170147Y-77013616D01*
X145113533Y-76996443D01*
X144957011Y-76912779D01*
X144957009Y-76912778D01*
X144917594Y-76880431D01*
X144819814Y-76800186D01*
X144736552Y-76698729D01*
X144707222Y-76662991D01*
X144681539Y-76614942D01*
X144623557Y-76506467D01*
X144606384Y-76449853D01*
X144572037Y-76336627D01*
X144554641Y-76160000D01*
X144572037Y-75983373D01*
X144623557Y-75813534D01*
X144623557Y-75813533D01*
X144707221Y-75657011D01*
X144707222Y-75657009D01*
X144736552Y-75621271D01*
X144819814Y-75519814D01*
X144936932Y-75423699D01*
X144957009Y-75407222D01*
X145024775Y-75371000D01*
X145113533Y-75323557D01*
X145170147Y-75306384D01*
X145283373Y-75272037D01*
X145349558Y-75265518D01*
X145415740Y-75259000D01*
X145504260Y-75259000D01*
X145570442Y-75265518D01*
X145570442Y-75265518D01*
G37*
G36*
X148110442Y-75265518D02*
X148176627Y-75272037D01*
X148289853Y-75306384D01*
X148346467Y-75323557D01*
X148435225Y-75371000D01*
X148502991Y-75407222D01*
X148523068Y-75423699D01*
X148640186Y-75519814D01*
X148723448Y-75621271D01*
X148752778Y-75657009D01*
X148752779Y-75657011D01*
X148836443Y-75813533D01*
X148836443Y-75813534D01*
X148887963Y-75983373D01*
X148905359Y-76160000D01*
X148887963Y-76336627D01*
X148853616Y-76449853D01*
X148836443Y-76506467D01*
X148778461Y-76614942D01*
X148752778Y-76662991D01*
X148723448Y-76698729D01*
X148640186Y-76800186D01*
X148542406Y-76880431D01*
X148502991Y-76912778D01*
X148502989Y-76912779D01*
X148346467Y-76996443D01*
X148289853Y-77013616D01*
X148176627Y-77047963D01*
X148110443Y-77054481D01*
X148044260Y-77061000D01*
X147955740Y-77061000D01*
X147889557Y-77054481D01*
X147823373Y-77047963D01*
X147710147Y-77013616D01*
X147653533Y-76996443D01*
X147497011Y-76912779D01*
X147497009Y-76912778D01*
X147457594Y-76880431D01*
X147359814Y-76800186D01*
X147276552Y-76698729D01*
X147247222Y-76662991D01*
X147221539Y-76614942D01*
X147163557Y-76506467D01*
X147146384Y-76449853D01*
X147112037Y-76336627D01*
X147094641Y-76160000D01*
X147112037Y-75983373D01*
X147163557Y-75813534D01*
X147163557Y-75813533D01*
X147247221Y-75657011D01*
X147247222Y-75657009D01*
X147276552Y-75621271D01*
X147359814Y-75519814D01*
X147476932Y-75423699D01*
X147497009Y-75407222D01*
X147564775Y-75371000D01*
X147653533Y-75323557D01*
X147710147Y-75306384D01*
X147823373Y-75272037D01*
X147889558Y-75265518D01*
X147955740Y-75259000D01*
X148044260Y-75259000D01*
X148110442Y-75265518D01*
X148110442Y-75265518D01*
G37*
G36*
X153190442Y-75265518D02*
X153256627Y-75272037D01*
X153369853Y-75306384D01*
X153426467Y-75323557D01*
X153515225Y-75371000D01*
X153582991Y-75407222D01*
X153603068Y-75423699D01*
X153720186Y-75519814D01*
X153803448Y-75621271D01*
X153832778Y-75657009D01*
X153832779Y-75657011D01*
X153916443Y-75813533D01*
X153916443Y-75813534D01*
X153967963Y-75983373D01*
X153985359Y-76160000D01*
X153967963Y-76336627D01*
X153933616Y-76449853D01*
X153916443Y-76506467D01*
X153858461Y-76614942D01*
X153832778Y-76662991D01*
X153803448Y-76698729D01*
X153720186Y-76800186D01*
X153622406Y-76880431D01*
X153582991Y-76912778D01*
X153582989Y-76912779D01*
X153426467Y-76996443D01*
X153369853Y-77013616D01*
X153256627Y-77047963D01*
X153190443Y-77054481D01*
X153124260Y-77061000D01*
X153035740Y-77061000D01*
X152969557Y-77054481D01*
X152903373Y-77047963D01*
X152790147Y-77013616D01*
X152733533Y-76996443D01*
X152577011Y-76912779D01*
X152577009Y-76912778D01*
X152537594Y-76880431D01*
X152439814Y-76800186D01*
X152356552Y-76698729D01*
X152327222Y-76662991D01*
X152301539Y-76614942D01*
X152243557Y-76506467D01*
X152226384Y-76449853D01*
X152192037Y-76336627D01*
X152174641Y-76160000D01*
X152192037Y-75983373D01*
X152243557Y-75813534D01*
X152243557Y-75813533D01*
X152327221Y-75657011D01*
X152327222Y-75657009D01*
X152356552Y-75621271D01*
X152439814Y-75519814D01*
X152556932Y-75423699D01*
X152577009Y-75407222D01*
X152644775Y-75371000D01*
X152733533Y-75323557D01*
X152790147Y-75306384D01*
X152903373Y-75272037D01*
X152969558Y-75265518D01*
X153035740Y-75259000D01*
X153124260Y-75259000D01*
X153190442Y-75265518D01*
X153190442Y-75265518D01*
G37*
G36*
X150650442Y-75265518D02*
X150716627Y-75272037D01*
X150829853Y-75306384D01*
X150886467Y-75323557D01*
X150975225Y-75371000D01*
X151042991Y-75407222D01*
X151063068Y-75423699D01*
X151180186Y-75519814D01*
X151263448Y-75621271D01*
X151292778Y-75657009D01*
X151292779Y-75657011D01*
X151376443Y-75813533D01*
X151376443Y-75813534D01*
X151427963Y-75983373D01*
X151445359Y-76160000D01*
X151427963Y-76336627D01*
X151393616Y-76449853D01*
X151376443Y-76506467D01*
X151318461Y-76614942D01*
X151292778Y-76662991D01*
X151263448Y-76698729D01*
X151180186Y-76800186D01*
X151082406Y-76880431D01*
X151042991Y-76912778D01*
X151042989Y-76912779D01*
X150886467Y-76996443D01*
X150829853Y-77013616D01*
X150716627Y-77047963D01*
X150650443Y-77054481D01*
X150584260Y-77061000D01*
X150495740Y-77061000D01*
X150429557Y-77054481D01*
X150363373Y-77047963D01*
X150250147Y-77013616D01*
X150193533Y-76996443D01*
X150037011Y-76912779D01*
X150037009Y-76912778D01*
X149997594Y-76880431D01*
X149899814Y-76800186D01*
X149816552Y-76698729D01*
X149787222Y-76662991D01*
X149761539Y-76614942D01*
X149703557Y-76506467D01*
X149686384Y-76449853D01*
X149652037Y-76336627D01*
X149634641Y-76160000D01*
X149652037Y-75983373D01*
X149703557Y-75813534D01*
X149703557Y-75813533D01*
X149787221Y-75657011D01*
X149787222Y-75657009D01*
X149816552Y-75621271D01*
X149899814Y-75519814D01*
X150016932Y-75423699D01*
X150037009Y-75407222D01*
X150104775Y-75371000D01*
X150193533Y-75323557D01*
X150250147Y-75306384D01*
X150363373Y-75272037D01*
X150429558Y-75265518D01*
X150495740Y-75259000D01*
X150584260Y-75259000D01*
X150650442Y-75265518D01*
X150650442Y-75265518D01*
G37*
G36*
X135726000Y-75546000D02*
X134874000Y-75546000D01*
X134874000Y-74244000D01*
X135726000Y-74244000D01*
X135726000Y-75546000D01*
X135726000Y-75546000D01*
G37*
G36*
X178981000Y-75371000D02*
X177979000Y-75371000D01*
X177979000Y-74069000D01*
X178981000Y-74069000D01*
X178981000Y-75371000D01*
X178981000Y-75371000D01*
G37*
G36*
X176441000Y-75371000D02*
X175439000Y-75371000D01*
X175439000Y-74069000D01*
X176441000Y-74069000D01*
X176441000Y-75371000D01*
X176441000Y-75371000D01*
G37*
G36*
X120188589Y-72832416D02*
X120315520Y-72857664D01*
X120474942Y-72923699D01*
X120618418Y-73019566D01*
X120740434Y-73141582D01*
X120836301Y-73285058D01*
X120902336Y-73444480D01*
X120936000Y-73613721D01*
X120936000Y-73786279D01*
X120902336Y-73955520D01*
X120836301Y-74114942D01*
X120740434Y-74258418D01*
X120618418Y-74380434D01*
X120474942Y-74476301D01*
X120315520Y-74542336D01*
X120188589Y-74567584D01*
X120146280Y-74576000D01*
X119973720Y-74576000D01*
X119931411Y-74567584D01*
X119804480Y-74542336D01*
X119645058Y-74476301D01*
X119501582Y-74380434D01*
X119379566Y-74258418D01*
X119283699Y-74114942D01*
X119217664Y-73955520D01*
X119184000Y-73786279D01*
X119184000Y-73613721D01*
X119217664Y-73444480D01*
X119283699Y-73285058D01*
X119379566Y-73141582D01*
X119501582Y-73019566D01*
X119645058Y-72923699D01*
X119804480Y-72857664D01*
X119931411Y-72832416D01*
X119973720Y-72824000D01*
X120146280Y-72824000D01*
X120188589Y-72832416D01*
X120188589Y-72832416D01*
G37*
G36*
X176441000Y-73171000D02*
X175439000Y-73171000D01*
X175439000Y-71869000D01*
X176441000Y-71869000D01*
X176441000Y-73171000D01*
X176441000Y-73171000D01*
G37*
G36*
X178981000Y-73171000D02*
X177979000Y-73171000D01*
X177979000Y-71869000D01*
X178981000Y-71869000D01*
X178981000Y-73171000D01*
X178981000Y-73171000D01*
G37*
G36*
X140861000Y-69041000D02*
X139559000Y-69041000D01*
X139559000Y-68039000D01*
X140861000Y-68039000D01*
X140861000Y-69041000D01*
X140861000Y-69041000D01*
G37*
G36*
X171341000Y-69041000D02*
X170039000Y-69041000D01*
X170039000Y-68039000D01*
X171341000Y-68039000D01*
X171341000Y-69041000D01*
X171341000Y-69041000D01*
G37*
G36*
X169141000Y-69041000D02*
X167839000Y-69041000D01*
X167839000Y-68039000D01*
X169141000Y-68039000D01*
X169141000Y-69041000D01*
X169141000Y-69041000D01*
G37*
G36*
X156101000Y-69041000D02*
X154799000Y-69041000D01*
X154799000Y-68039000D01*
X156101000Y-68039000D01*
X156101000Y-69041000D01*
X156101000Y-69041000D01*
G37*
G36*
X153901000Y-69041000D02*
X152599000Y-69041000D01*
X152599000Y-68039000D01*
X153901000Y-68039000D01*
X153901000Y-69041000D01*
X153901000Y-69041000D01*
G37*
G36*
X138661000Y-69041000D02*
X137359000Y-69041000D01*
X137359000Y-68039000D01*
X138661000Y-68039000D01*
X138661000Y-69041000D01*
X138661000Y-69041000D01*
G37*
G36*
X125621000Y-69041000D02*
X124319000Y-69041000D01*
X124319000Y-68039000D01*
X125621000Y-68039000D01*
X125621000Y-69041000D01*
X125621000Y-69041000D01*
G37*
G36*
X123421000Y-69041000D02*
X122119000Y-69041000D01*
X122119000Y-68039000D01*
X123421000Y-68039000D01*
X123421000Y-69041000D01*
X123421000Y-69041000D01*
G37*
G36*
X161967142Y-67268241D02*
X162115102Y-67329529D01*
X162248258Y-67418501D01*
X162361498Y-67531741D01*
X162450470Y-67664897D01*
X162511758Y-67812857D01*
X162543000Y-67969924D01*
X162543000Y-68130074D01*
X162511758Y-68287141D01*
X162450470Y-68435101D01*
X162361498Y-68568257D01*
X162248258Y-68681497D01*
X162115102Y-68770469D01*
X161967142Y-68831757D01*
X161810075Y-68862999D01*
X161649925Y-68862999D01*
X161492858Y-68831757D01*
X161344898Y-68770469D01*
X161211742Y-68681497D01*
X161098502Y-68568257D01*
X161009530Y-68435101D01*
X160948242Y-68287141D01*
X160917000Y-68130074D01*
X160917000Y-67969924D01*
X160948242Y-67812857D01*
X161009530Y-67664897D01*
X161098502Y-67531741D01*
X161211742Y-67418501D01*
X161344898Y-67329529D01*
X161492858Y-67268241D01*
X161649925Y-67236999D01*
X161810075Y-67236999D01*
X161967142Y-67268241D01*
X161967142Y-67268241D01*
G37*
G36*
X176967142Y-67268241D02*
X177115102Y-67329529D01*
X177248258Y-67418501D01*
X177361498Y-67531741D01*
X177450470Y-67664897D01*
X177511758Y-67812857D01*
X177543000Y-67969924D01*
X177543000Y-68130074D01*
X177511758Y-68287141D01*
X177450470Y-68435101D01*
X177361498Y-68568257D01*
X177248258Y-68681497D01*
X177115102Y-68770469D01*
X176967142Y-68831757D01*
X176810075Y-68862999D01*
X176649925Y-68862999D01*
X176492858Y-68831757D01*
X176344898Y-68770469D01*
X176211742Y-68681497D01*
X176098502Y-68568257D01*
X176009530Y-68435101D01*
X175948242Y-68287141D01*
X175917000Y-68130074D01*
X175917000Y-67969924D01*
X175948242Y-67812857D01*
X176009530Y-67664897D01*
X176098502Y-67531741D01*
X176211742Y-67418501D01*
X176344898Y-67329529D01*
X176492858Y-67268241D01*
X176649925Y-67236999D01*
X176810075Y-67236999D01*
X176967142Y-67268241D01*
X176967142Y-67268241D01*
G37*
G36*
X179507142Y-67268241D02*
X179655102Y-67329529D01*
X179788258Y-67418501D01*
X179901498Y-67531741D01*
X179990470Y-67664897D01*
X180051758Y-67812857D01*
X180083000Y-67969924D01*
X180083000Y-68130074D01*
X180051758Y-68287141D01*
X179990470Y-68435101D01*
X179901498Y-68568257D01*
X179788258Y-68681497D01*
X179655102Y-68770469D01*
X179507142Y-68831757D01*
X179350075Y-68862999D01*
X179189925Y-68862999D01*
X179032858Y-68831757D01*
X178884898Y-68770469D01*
X178751742Y-68681497D01*
X178638502Y-68568257D01*
X178549530Y-68435101D01*
X178488242Y-68287141D01*
X178457000Y-68130074D01*
X178457000Y-67969924D01*
X178488242Y-67812857D01*
X178549530Y-67664897D01*
X178638502Y-67531741D01*
X178751742Y-67418501D01*
X178884898Y-67329529D01*
X179032858Y-67268241D01*
X179189925Y-67236999D01*
X179350075Y-67236999D01*
X179507142Y-67268241D01*
X179507142Y-67268241D01*
G37*
G36*
X164507142Y-67268241D02*
X164655102Y-67329529D01*
X164788258Y-67418501D01*
X164901498Y-67531741D01*
X164990470Y-67664897D01*
X165051758Y-67812857D01*
X165083000Y-67969924D01*
X165083000Y-68130074D01*
X165051758Y-68287141D01*
X164990470Y-68435101D01*
X164901498Y-68568257D01*
X164788258Y-68681497D01*
X164655102Y-68770469D01*
X164507142Y-68831757D01*
X164350075Y-68862999D01*
X164189925Y-68862999D01*
X164032858Y-68831757D01*
X163884898Y-68770469D01*
X163751742Y-68681497D01*
X163638502Y-68568257D01*
X163549530Y-68435101D01*
X163488242Y-68287141D01*
X163457000Y-68130074D01*
X163457000Y-67969924D01*
X163488242Y-67812857D01*
X163549530Y-67664897D01*
X163638502Y-67531741D01*
X163751742Y-67418501D01*
X163884898Y-67329529D01*
X164032858Y-67268241D01*
X164189925Y-67236999D01*
X164350075Y-67236999D01*
X164507142Y-67268241D01*
X164507142Y-67268241D01*
G37*
G36*
X146967142Y-67268241D02*
X147115102Y-67329529D01*
X147248258Y-67418501D01*
X147361498Y-67531741D01*
X147450470Y-67664897D01*
X147511758Y-67812857D01*
X147543000Y-67969924D01*
X147543000Y-68130074D01*
X147511758Y-68287141D01*
X147450470Y-68435101D01*
X147361498Y-68568257D01*
X147248258Y-68681497D01*
X147115102Y-68770469D01*
X146967142Y-68831757D01*
X146810075Y-68862999D01*
X146649925Y-68862999D01*
X146492858Y-68831757D01*
X146344898Y-68770469D01*
X146211742Y-68681497D01*
X146098502Y-68568257D01*
X146009530Y-68435101D01*
X145948242Y-68287141D01*
X145917000Y-68130074D01*
X145917000Y-67969924D01*
X145948242Y-67812857D01*
X146009530Y-67664897D01*
X146098502Y-67531741D01*
X146211742Y-67418501D01*
X146344898Y-67329529D01*
X146492858Y-67268241D01*
X146649925Y-67236999D01*
X146810075Y-67236999D01*
X146967142Y-67268241D01*
X146967142Y-67268241D01*
G37*
G36*
X134507142Y-67268241D02*
X134655102Y-67329529D01*
X134788258Y-67418501D01*
X134901498Y-67531741D01*
X134990470Y-67664897D01*
X135051758Y-67812857D01*
X135083000Y-67969924D01*
X135083000Y-68130074D01*
X135051758Y-68287141D01*
X134990470Y-68435101D01*
X134901498Y-68568257D01*
X134788258Y-68681497D01*
X134655102Y-68770469D01*
X134507142Y-68831757D01*
X134350075Y-68862999D01*
X134189925Y-68862999D01*
X134032858Y-68831757D01*
X133884898Y-68770469D01*
X133751742Y-68681497D01*
X133638502Y-68568257D01*
X133549530Y-68435101D01*
X133488242Y-68287141D01*
X133457000Y-68130074D01*
X133457000Y-67969924D01*
X133488242Y-67812857D01*
X133549530Y-67664897D01*
X133638502Y-67531741D01*
X133751742Y-67418501D01*
X133884898Y-67329529D01*
X134032858Y-67268241D01*
X134189925Y-67236999D01*
X134350075Y-67236999D01*
X134507142Y-67268241D01*
X134507142Y-67268241D01*
G37*
G36*
X119507142Y-67268241D02*
X119655102Y-67329529D01*
X119788258Y-67418501D01*
X119901498Y-67531741D01*
X119990470Y-67664897D01*
X120051758Y-67812857D01*
X120083000Y-67969924D01*
X120083000Y-68130074D01*
X120051758Y-68287141D01*
X119990470Y-68435101D01*
X119901498Y-68568257D01*
X119788258Y-68681497D01*
X119655102Y-68770469D01*
X119507142Y-68831757D01*
X119350075Y-68862999D01*
X119189925Y-68862999D01*
X119032858Y-68831757D01*
X118884898Y-68770469D01*
X118751742Y-68681497D01*
X118638502Y-68568257D01*
X118549530Y-68435101D01*
X118488242Y-68287141D01*
X118457000Y-68130074D01*
X118457000Y-67969924D01*
X118488242Y-67812857D01*
X118549530Y-67664897D01*
X118638502Y-67531741D01*
X118751742Y-67418501D01*
X118884898Y-67329529D01*
X119032858Y-67268241D01*
X119189925Y-67236999D01*
X119350075Y-67236999D01*
X119507142Y-67268241D01*
X119507142Y-67268241D01*
G37*
G36*
X131967142Y-67268241D02*
X132115102Y-67329529D01*
X132248258Y-67418501D01*
X132361498Y-67531741D01*
X132450470Y-67664897D01*
X132511758Y-67812857D01*
X132543000Y-67969924D01*
X132543000Y-68130074D01*
X132511758Y-68287141D01*
X132450470Y-68435101D01*
X132361498Y-68568257D01*
X132248258Y-68681497D01*
X132115102Y-68770469D01*
X131967142Y-68831757D01*
X131810075Y-68862999D01*
X131649925Y-68862999D01*
X131492858Y-68831757D01*
X131344898Y-68770469D01*
X131211742Y-68681497D01*
X131098502Y-68568257D01*
X131009530Y-68435101D01*
X130948242Y-68287141D01*
X130917000Y-68130074D01*
X130917000Y-67969924D01*
X130948242Y-67812857D01*
X131009530Y-67664897D01*
X131098502Y-67531741D01*
X131211742Y-67418501D01*
X131344898Y-67329529D01*
X131492858Y-67268241D01*
X131649925Y-67236999D01*
X131810075Y-67236999D01*
X131967142Y-67268241D01*
X131967142Y-67268241D01*
G37*
G36*
X116967142Y-67268241D02*
X117115102Y-67329529D01*
X117248258Y-67418501D01*
X117361498Y-67531741D01*
X117450470Y-67664897D01*
X117511758Y-67812857D01*
X117543000Y-67969924D01*
X117543000Y-68130074D01*
X117511758Y-68287141D01*
X117450470Y-68435101D01*
X117361498Y-68568257D01*
X117248258Y-68681497D01*
X117115102Y-68770469D01*
X116967142Y-68831757D01*
X116810075Y-68862999D01*
X116649925Y-68862999D01*
X116492858Y-68831757D01*
X116344898Y-68770469D01*
X116211742Y-68681497D01*
X116098502Y-68568257D01*
X116009530Y-68435101D01*
X115948242Y-68287141D01*
X115917000Y-68130074D01*
X115917000Y-67969924D01*
X115948242Y-67812857D01*
X116009530Y-67664897D01*
X116098502Y-67531741D01*
X116211742Y-67418501D01*
X116344898Y-67329529D01*
X116492858Y-67268241D01*
X116649925Y-67236999D01*
X116810075Y-67236999D01*
X116967142Y-67268241D01*
X116967142Y-67268241D01*
G37*
G36*
X149507142Y-67268241D02*
X149655102Y-67329529D01*
X149788258Y-67418501D01*
X149901498Y-67531741D01*
X149990470Y-67664897D01*
X150051758Y-67812857D01*
X150083000Y-67969924D01*
X150083000Y-68130074D01*
X150051758Y-68287141D01*
X149990470Y-68435101D01*
X149901498Y-68568257D01*
X149788258Y-68681497D01*
X149655102Y-68770469D01*
X149507142Y-68831757D01*
X149350075Y-68862999D01*
X149189925Y-68862999D01*
X149032858Y-68831757D01*
X148884898Y-68770469D01*
X148751742Y-68681497D01*
X148638502Y-68568257D01*
X148549530Y-68435101D01*
X148488242Y-68287141D01*
X148457000Y-68130074D01*
X148457000Y-67969924D01*
X148488242Y-67812857D01*
X148549530Y-67664897D01*
X148638502Y-67531741D01*
X148751742Y-67418501D01*
X148884898Y-67329529D01*
X149032858Y-67268241D01*
X149189925Y-67236999D01*
X149350075Y-67236999D01*
X149507142Y-67268241D01*
X149507142Y-67268241D01*
G37*
G36*
X156101000Y-66501000D02*
X154799000Y-66501000D01*
X154799000Y-65499000D01*
X156101000Y-65499000D01*
X156101000Y-66501000D01*
X156101000Y-66501000D01*
G37*
G36*
X140861000Y-66501000D02*
X139559000Y-66501000D01*
X139559000Y-65499000D01*
X140861000Y-65499000D01*
X140861000Y-66501000D01*
X140861000Y-66501000D01*
G37*
G36*
X138661000Y-66501000D02*
X137359000Y-66501000D01*
X137359000Y-65499000D01*
X138661000Y-65499000D01*
X138661000Y-66501000D01*
X138661000Y-66501000D01*
G37*
G36*
X125621000Y-66501000D02*
X124319000Y-66501000D01*
X124319000Y-65499000D01*
X125621000Y-65499000D01*
X125621000Y-66501000D01*
X125621000Y-66501000D01*
G37*
G36*
X123421000Y-66501000D02*
X122119000Y-66501000D01*
X122119000Y-65499000D01*
X123421000Y-65499000D01*
X123421000Y-66501000D01*
X123421000Y-66501000D01*
G37*
G36*
X169141000Y-66501000D02*
X167839000Y-66501000D01*
X167839000Y-65499000D01*
X169141000Y-65499000D01*
X169141000Y-66501000D01*
X169141000Y-66501000D01*
G37*
G36*
X171341000Y-66501000D02*
X170039000Y-66501000D01*
X170039000Y-65499000D01*
X171341000Y-65499000D01*
X171341000Y-66501000D01*
X171341000Y-66501000D01*
G37*
G36*
X153901000Y-66501000D02*
X152599000Y-66501000D01*
X152599000Y-65499000D01*
X153901000Y-65499000D01*
X153901000Y-66501000D01*
X153901000Y-66501000D01*
G37*
G36*
X179507142Y-63168242D02*
X179655102Y-63229530D01*
X179788258Y-63318502D01*
X179901498Y-63431742D01*
X179990470Y-63564898D01*
X180051758Y-63712858D01*
X180083000Y-63869925D01*
X180083000Y-64030075D01*
X180051758Y-64187142D01*
X179990470Y-64335102D01*
X179901498Y-64468258D01*
X179788258Y-64581498D01*
X179655102Y-64670470D01*
X179507142Y-64731758D01*
X179350075Y-64763000D01*
X179189925Y-64763000D01*
X179032858Y-64731758D01*
X178884898Y-64670470D01*
X178751742Y-64581498D01*
X178638502Y-64468258D01*
X178549530Y-64335102D01*
X178488242Y-64187142D01*
X178457000Y-64030075D01*
X178457000Y-63869925D01*
X178488242Y-63712858D01*
X178549530Y-63564898D01*
X178638502Y-63431742D01*
X178751742Y-63318502D01*
X178884898Y-63229530D01*
X179032858Y-63168242D01*
X179189925Y-63137000D01*
X179350075Y-63137000D01*
X179507142Y-63168242D01*
X179507142Y-63168242D01*
G37*
G36*
X116967142Y-63168242D02*
X117115102Y-63229530D01*
X117248258Y-63318502D01*
X117361498Y-63431742D01*
X117450470Y-63564898D01*
X117511758Y-63712858D01*
X117543000Y-63869925D01*
X117543000Y-64030075D01*
X117511758Y-64187142D01*
X117450470Y-64335102D01*
X117361498Y-64468258D01*
X117248258Y-64581498D01*
X117115102Y-64670470D01*
X116967142Y-64731758D01*
X116810075Y-64763000D01*
X116649925Y-64763000D01*
X116492858Y-64731758D01*
X116344898Y-64670470D01*
X116211742Y-64581498D01*
X116098502Y-64468258D01*
X116009530Y-64335102D01*
X115948242Y-64187142D01*
X115917000Y-64030075D01*
X115917000Y-63869925D01*
X115948242Y-63712858D01*
X116009530Y-63564898D01*
X116098502Y-63431742D01*
X116211742Y-63318502D01*
X116344898Y-63229530D01*
X116492858Y-63168242D01*
X116649925Y-63137000D01*
X116810075Y-63137000D01*
X116967142Y-63168242D01*
X116967142Y-63168242D01*
G37*
G36*
X119507142Y-63168242D02*
X119655102Y-63229530D01*
X119788258Y-63318502D01*
X119901498Y-63431742D01*
X119990470Y-63564898D01*
X120051758Y-63712858D01*
X120083000Y-63869925D01*
X120083000Y-64030075D01*
X120051758Y-64187142D01*
X119990470Y-64335102D01*
X119901498Y-64468258D01*
X119788258Y-64581498D01*
X119655102Y-64670470D01*
X119507142Y-64731758D01*
X119350075Y-64763000D01*
X119189925Y-64763000D01*
X119032858Y-64731758D01*
X118884898Y-64670470D01*
X118751742Y-64581498D01*
X118638502Y-64468258D01*
X118549530Y-64335102D01*
X118488242Y-64187142D01*
X118457000Y-64030075D01*
X118457000Y-63869925D01*
X118488242Y-63712858D01*
X118549530Y-63564898D01*
X118638502Y-63431742D01*
X118751742Y-63318502D01*
X118884898Y-63229530D01*
X119032858Y-63168242D01*
X119189925Y-63137000D01*
X119350075Y-63137000D01*
X119507142Y-63168242D01*
X119507142Y-63168242D01*
G37*
G36*
X131967142Y-63168242D02*
X132115102Y-63229530D01*
X132248258Y-63318502D01*
X132361498Y-63431742D01*
X132450470Y-63564898D01*
X132511758Y-63712858D01*
X132543000Y-63869925D01*
X132543000Y-64030075D01*
X132511758Y-64187142D01*
X132450470Y-64335102D01*
X132361498Y-64468258D01*
X132248258Y-64581498D01*
X132115102Y-64670470D01*
X131967142Y-64731758D01*
X131810075Y-64763000D01*
X131649925Y-64763000D01*
X131492858Y-64731758D01*
X131344898Y-64670470D01*
X131211742Y-64581498D01*
X131098502Y-64468258D01*
X131009530Y-64335102D01*
X130948242Y-64187142D01*
X130917000Y-64030075D01*
X130917000Y-63869925D01*
X130948242Y-63712858D01*
X131009530Y-63564898D01*
X131098502Y-63431742D01*
X131211742Y-63318502D01*
X131344898Y-63229530D01*
X131492858Y-63168242D01*
X131649925Y-63137000D01*
X131810075Y-63137000D01*
X131967142Y-63168242D01*
X131967142Y-63168242D01*
G37*
G36*
X134507142Y-63168242D02*
X134655102Y-63229530D01*
X134788258Y-63318502D01*
X134901498Y-63431742D01*
X134990470Y-63564898D01*
X135051758Y-63712858D01*
X135083000Y-63869925D01*
X135083000Y-64030075D01*
X135051758Y-64187142D01*
X134990470Y-64335102D01*
X134901498Y-64468258D01*
X134788258Y-64581498D01*
X134655102Y-64670470D01*
X134507142Y-64731758D01*
X134350075Y-64763000D01*
X134189925Y-64763000D01*
X134032858Y-64731758D01*
X133884898Y-64670470D01*
X133751742Y-64581498D01*
X133638502Y-64468258D01*
X133549530Y-64335102D01*
X133488242Y-64187142D01*
X133457000Y-64030075D01*
X133457000Y-63869925D01*
X133488242Y-63712858D01*
X133549530Y-63564898D01*
X133638502Y-63431742D01*
X133751742Y-63318502D01*
X133884898Y-63229530D01*
X134032858Y-63168242D01*
X134189925Y-63137000D01*
X134350075Y-63137000D01*
X134507142Y-63168242D01*
X134507142Y-63168242D01*
G37*
G36*
X146967142Y-63168242D02*
X147115102Y-63229530D01*
X147248258Y-63318502D01*
X147361498Y-63431742D01*
X147450470Y-63564898D01*
X147511758Y-63712858D01*
X147543000Y-63869925D01*
X147543000Y-64030075D01*
X147511758Y-64187142D01*
X147450470Y-64335102D01*
X147361498Y-64468258D01*
X147248258Y-64581498D01*
X147115102Y-64670470D01*
X146967142Y-64731758D01*
X146810075Y-64763000D01*
X146649925Y-64763000D01*
X146492858Y-64731758D01*
X146344898Y-64670470D01*
X146211742Y-64581498D01*
X146098502Y-64468258D01*
X146009530Y-64335102D01*
X145948242Y-64187142D01*
X145917000Y-64030075D01*
X145917000Y-63869925D01*
X145948242Y-63712858D01*
X146009530Y-63564898D01*
X146098502Y-63431742D01*
X146211742Y-63318502D01*
X146344898Y-63229530D01*
X146492858Y-63168242D01*
X146649925Y-63137000D01*
X146810075Y-63137000D01*
X146967142Y-63168242D01*
X146967142Y-63168242D01*
G37*
G36*
X176967142Y-63168242D02*
X177115102Y-63229530D01*
X177248258Y-63318502D01*
X177361498Y-63431742D01*
X177450470Y-63564898D01*
X177511758Y-63712858D01*
X177543000Y-63869925D01*
X177543000Y-64030075D01*
X177511758Y-64187142D01*
X177450470Y-64335102D01*
X177361498Y-64468258D01*
X177248258Y-64581498D01*
X177115102Y-64670470D01*
X176967142Y-64731758D01*
X176810075Y-64763000D01*
X176649925Y-64763000D01*
X176492858Y-64731758D01*
X176344898Y-64670470D01*
X176211742Y-64581498D01*
X176098502Y-64468258D01*
X176009530Y-64335102D01*
X175948242Y-64187142D01*
X175917000Y-64030075D01*
X175917000Y-63869925D01*
X175948242Y-63712858D01*
X176009530Y-63564898D01*
X176098502Y-63431742D01*
X176211742Y-63318502D01*
X176344898Y-63229530D01*
X176492858Y-63168242D01*
X176649925Y-63137000D01*
X176810075Y-63137000D01*
X176967142Y-63168242D01*
X176967142Y-63168242D01*
G37*
G36*
X164507142Y-63168242D02*
X164655102Y-63229530D01*
X164788258Y-63318502D01*
X164901498Y-63431742D01*
X164990470Y-63564898D01*
X165051758Y-63712858D01*
X165083000Y-63869925D01*
X165083000Y-64030075D01*
X165051758Y-64187142D01*
X164990470Y-64335102D01*
X164901498Y-64468258D01*
X164788258Y-64581498D01*
X164655102Y-64670470D01*
X164507142Y-64731758D01*
X164350075Y-64763000D01*
X164189925Y-64763000D01*
X164032858Y-64731758D01*
X163884898Y-64670470D01*
X163751742Y-64581498D01*
X163638502Y-64468258D01*
X163549530Y-64335102D01*
X163488242Y-64187142D01*
X163457000Y-64030075D01*
X163457000Y-63869925D01*
X163488242Y-63712858D01*
X163549530Y-63564898D01*
X163638502Y-63431742D01*
X163751742Y-63318502D01*
X163884898Y-63229530D01*
X164032858Y-63168242D01*
X164189925Y-63137000D01*
X164350075Y-63137000D01*
X164507142Y-63168242D01*
X164507142Y-63168242D01*
G37*
G36*
X161967142Y-63168242D02*
X162115102Y-63229530D01*
X162248258Y-63318502D01*
X162361498Y-63431742D01*
X162450470Y-63564898D01*
X162511758Y-63712858D01*
X162543000Y-63869925D01*
X162543000Y-64030075D01*
X162511758Y-64187142D01*
X162450470Y-64335102D01*
X162361498Y-64468258D01*
X162248258Y-64581498D01*
X162115102Y-64670470D01*
X161967142Y-64731758D01*
X161810075Y-64763000D01*
X161649925Y-64763000D01*
X161492858Y-64731758D01*
X161344898Y-64670470D01*
X161211742Y-64581498D01*
X161098502Y-64468258D01*
X161009530Y-64335102D01*
X160948242Y-64187142D01*
X160917000Y-64030075D01*
X160917000Y-63869925D01*
X160948242Y-63712858D01*
X161009530Y-63564898D01*
X161098502Y-63431742D01*
X161211742Y-63318502D01*
X161344898Y-63229530D01*
X161492858Y-63168242D01*
X161649925Y-63137000D01*
X161810075Y-63137000D01*
X161967142Y-63168242D01*
X161967142Y-63168242D01*
G37*
G36*
X149507142Y-63168242D02*
X149655102Y-63229530D01*
X149788258Y-63318502D01*
X149901498Y-63431742D01*
X149990470Y-63564898D01*
X150051758Y-63712858D01*
X150083000Y-63869925D01*
X150083000Y-64030075D01*
X150051758Y-64187142D01*
X149990470Y-64335102D01*
X149901498Y-64468258D01*
X149788258Y-64581498D01*
X149655102Y-64670470D01*
X149507142Y-64731758D01*
X149350075Y-64763000D01*
X149189925Y-64763000D01*
X149032858Y-64731758D01*
X148884898Y-64670470D01*
X148751742Y-64581498D01*
X148638502Y-64468258D01*
X148549530Y-64335102D01*
X148488242Y-64187142D01*
X148457000Y-64030075D01*
X148457000Y-63869925D01*
X148488242Y-63712858D01*
X148549530Y-63564898D01*
X148638502Y-63431742D01*
X148751742Y-63318502D01*
X148884898Y-63229530D01*
X149032858Y-63168242D01*
X149189925Y-63137000D01*
X149350075Y-63137000D01*
X149507142Y-63168242D01*
X149507142Y-63168242D01*
G37*
M02*
